# Blender v3.2.2 OBJ File: ''
# www.blender.org
o Quad
v -300.000000 200.000000 300.000000
v 300.000000 200.000000 300.000000
v 300.000000 200.000000 -300.000000
v 0.000000 200.000000 -130.000000
v -300.000000 200.000000 -300.000000
v 25.361744 200.000000 -127.502083
v 49.748852 200.000000 -120.104332
v 72.224129 200.000000 -108.091034
v 91.923874 200.000000 -91.923859
v 108.091034 200.000000 -72.224106
v 120.104317 200.000000 -49.748817
v 127.502052 200.000000 -25.361717
v 129.999954 200.000000 0.000019
v 127.502037 200.000000 25.361752
v 120.104286 200.000000 49.748848
v 108.090988 200.000000 72.224121
v 91.923820 200.000000 91.923859
v 72.224068 200.000000 108.091011
v 49.748798 200.000000 120.104286
v 25.361706 200.000000 127.502014
v -0.000019 200.000000 129.999924
v -25.361744 200.000000 127.502007
v -49.748829 200.000000 120.104256
v -72.224098 200.000000 108.090973
v -91.923828 200.000000 91.923805
v -108.090973 200.000000 72.224060
v -120.104248 200.000000 49.748795
v -127.501984 200.000000 25.361708
v -129.999893 200.000000 -0.000013
v -127.501976 200.000000 -25.361734
v -120.104225 200.000000 -49.748817
v -108.090942 200.000000 -72.224075
v -91.923782 200.000000 -91.923813
v -72.224045 200.000000 -108.090958
v -49.748775 200.000000 -120.104225
v -25.361692 200.000000 -127.501961
vt 0.000000 0.000000
vt 0.000000 0.000000
vt 0.000000 0.000000
vt 0.000000 0.000000
vt 0.000000 0.000000
vt 0.000000 0.000000
vt 0.000000 0.000000
vt 0.000000 0.000000
vt 0.000000 0.000000
vt 0.000000 0.000000
vt 0.000000 0.000000
vt 0.000000 0.000000
vt 0.000000 0.000000
vt 0.000000 0.000000
vt 0.000000 0.000000
vt 0.000000 0.000000
vt 0.000000 0.000000
vt 0.000000 0.000000
vt 0.000000 0.000000
vt 0.000000 0.000000
vt 0.000000 0.000000
vt 0.000000 0.000000
vt 0.000000 0.000000
vt 0.000000 0.000000
vt 0.000000 0.000000
vt 0.000000 0.000000
vt 0.000000 0.000000
vt 0.000000 0.000000
vt 0.000000 0.000000
vt 0.000000 0.000000
vt 0.000000 0.000000
vt 0.000000 0.000000
vt 0.000000 0.000000
vt 0.000000 0.000000
vt 0.000000 0.000000
vt 0.000000 0.000000
vn 0.0000 1.0000 0.0000
s off
f 2/1/1 13/2/1 14/3/1
f 1/4/1 28/5/1 29/6/1
f 3/7/1 9/8/1 10/9/1
f 3/7/1 10/9/1 11/10/1
f 16/11/1 17/12/1 2/1/1
f 15/13/1 16/11/1 2/1/1
f 2/1/1 3/7/1 13/2/1
f 3/7/1 11/10/1 12/14/1
f 3/7/1 12/14/1 13/2/1
f 14/3/1 15/13/1 2/1/1
f 8/15/1 9/8/1 3/7/1
f 2/1/1 17/12/1 18/16/1
f 2/1/1 18/16/1 19/17/1
f 7/18/1 8/15/1 3/7/1
f 6/19/1 7/18/1 3/7/1
f 1/4/1 2/1/1 21/20/1
f 2/1/1 19/17/1 20/21/1
f 2/1/1 20/21/1 21/20/1
f 6/19/1 3/7/1 4/22/1
f 3/7/1 5/23/1 4/22/1
f 1/4/1 21/20/1 22/24/1
f 36/25/1 4/22/1 5/23/1
f 35/26/1 36/25/1 5/23/1
f 1/4/1 22/24/1 23/27/1
f 1/4/1 23/27/1 24/28/1
f 34/29/1 35/26/1 5/23/1
f 33/30/1 34/29/1 5/23/1
f 1/4/1 24/28/1 25/31/1
f 1/4/1 25/31/1 26/32/1
f 32/33/1 33/30/1 5/23/1
f 31/34/1 32/33/1 5/23/1
f 1/4/1 26/32/1 27/35/1
f 1/4/1 27/35/1 28/5/1
f 31/34/1 5/23/1 30/36/1
f 5/23/1 1/4/1 29/6/1
f 30/36/1 5/23/1 29/6/1
