# Blender v3.2.2 OBJ File: 'scene_1_bannister.blend'
# www.blender.org
mtllib scene_1_bannister.mtl
o MyCurveObject_MyCurve.029
v 45.000000 200.765366 -1017.099243
v 45.000000 201.624283 -1017.477783
v 45.000000 202.324203 -1018.103149
v 45.000000 202.796600 -1018.914185
v 45.000000 202.995270 -1019.831543
v 45.000000 202.900726 -1020.765381
v 45.000000 202.522247 -1021.624268
v 45.000000 201.896866 -1022.324219
v 45.000000 201.085815 -1022.796631
v 45.000000 200.168472 -1022.995239
v 45.000000 199.234634 -1022.900757
v 45.000000 198.375717 -1022.522217
v 45.000000 197.675797 -1021.896851
v 45.000000 197.203384 -1021.085815
v 45.000000 197.004730 -1020.168457
v 45.000000 197.099274 -1019.234619
v 45.000000 197.477753 -1018.375732
v 45.000000 198.103134 -1017.675781
v 45.000000 198.914185 -1017.203369
v 45.000000 199.831528 -1017.004761
v 252.146835 100.893227 -299.751892
v 252.572952 101.699028 -299.528046
v 253.236649 102.338509 -299.350403
v 254.072952 102.749084 -299.236359
v 255.000000 102.890556 -299.197083
v 255.927048 102.749077 -299.236359
v 256.763367 102.338509 -299.350403
v 257.427063 101.699020 -299.528046
v 257.853180 100.893227 -299.751892
v 258.000000 100.000000 -300.000000
v 257.853180 99.106766 -300.248108
v 257.427063 98.300972 -300.471954
v 256.763367 97.661491 -300.649597
v 255.927048 97.250916 -300.763641
v 255.000000 97.109444 -300.802917
v 254.072952 97.250923 -300.763641
v 253.236633 97.661491 -300.649597
v 252.572952 98.300980 -300.471954
v 252.146835 99.106773 -300.248108
v 252.000000 100.000008 -300.000000
v 252.146835 100.893227 -299.751892
v 252.572952 101.699028 -299.528046
v 253.236649 102.338509 -299.350403
v 254.072952 102.749084 -299.236359
v 255.000000 102.890556 -299.197083
v 255.927048 102.749077 -299.236359
v 256.763367 102.338509 -299.350403
v 257.427063 101.699020 -299.528046
v 257.853180 100.893227 -299.751892
v 258.000000 100.000000 -300.000000
v 257.853180 99.106766 -300.248108
v 257.427063 98.300972 -300.471954
v 256.763367 97.661491 -300.649597
v 255.927048 97.250916 -300.763641
v 255.000000 97.109444 -300.802917
v 254.072952 97.250923 -300.763641
v 253.236633 97.661491 -300.649597
v 252.572952 98.300980 -300.471954
v 252.146835 99.106773 -300.248108
v 252.000000 100.000008 -300.000000
v 252.146835 200.918564 -659.874817
v 252.572952 201.747192 -659.761841
v 253.236649 202.404816 -659.672180
v 254.072952 202.827026 -659.614624
v 255.000000 202.972519 -659.594849
v 255.927048 202.827026 -659.614624
v 256.763367 202.404816 -659.672180
v 257.427063 201.747192 -659.761841
v 257.853180 200.918549 -659.874817
v 258.000000 200.000000 -660.000000
v 257.853180 199.081436 -660.125183
v 257.427063 198.252792 -660.238159
v 256.763367 197.595184 -660.327820
v 255.927048 197.172974 -660.385376
v 255.000000 197.027481 -660.405151
v 254.072952 197.172974 -660.385376
v 253.236633 197.595184 -660.327820
v 252.572952 198.252808 -660.238159
v 252.146835 199.081451 -660.125183
v 252.000000 200.000000 -660.000000
v 252.948883 200.765366 -1017.948853
v 253.216507 201.624283 -1018.216492
v 253.658707 202.324203 -1018.658691
v 254.232208 202.796600 -1019.232239
v 254.880875 202.995270 -1019.880859
v 255.541199 202.900726 -1020.541199
v 256.148529 202.522247 -1021.148560
v 256.643463 201.896866 -1021.643433
v 256.977509 201.085815 -1021.977478
v 257.117981 200.168472 -1022.117981
v 257.051117 199.234634 -1022.051147
v 256.783508 198.375717 -1021.783508
v 256.341278 197.675797 -1021.341309
v 255.767776 197.203384 -1020.767761
v 255.119125 197.004730 -1020.119141
v 254.458801 197.099274 -1019.458801
v 253.851456 197.477753 -1018.851440
v 253.356537 198.103134 -1018.356567
v 253.022491 198.914185 -1018.022522
v 252.882019 199.831528 -1017.882019
v 45.000000 200.765366 -1017.099243
v 45.000000 201.624283 -1017.477783
v 45.000000 202.324203 -1018.103149
v 45.000000 202.796600 -1018.914185
v 45.000000 202.995270 -1019.831543
v 45.000000 202.900726 -1020.765381
v 45.000000 202.522247 -1021.624268
v 45.000000 201.896866 -1022.324219
v 45.000000 201.085815 -1022.796631
v 45.000000 200.168472 -1022.995239
v 45.000000 199.234634 -1022.900757
v 45.000000 198.375717 -1022.522217
v 45.000000 197.675797 -1021.896851
v 45.000000 197.203384 -1021.085815
v 45.000000 197.004730 -1020.168457
v 45.000000 197.099274 -1019.234619
v 45.000000 197.477753 -1018.375732
v 45.000000 198.103134 -1017.675781
v 45.000000 198.914185 -1017.203369
v 45.000000 199.831528 -1017.004761
vt 0.526316 0.000000
vt 0.421053 0.000000
vt 0.473684 0.000000
vt 0.578947 0.000000
vt 0.368421 0.000000
vt 0.631579 0.000000
vt 0.315789 0.000000
vt 0.684211 0.000000
vt 0.263158 0.000000
vt 0.736842 0.000000
vt 0.210526 0.000000
vt 0.789474 0.000000
vt 0.157895 0.000000
vt 0.842105 0.000000
vt 0.105263 0.000000
vt 0.894737 0.000000
vt 0.052632 0.000000
vt 0.947368 0.000000
vt 0.000000 0.000000
vt 1.000000 0.000000
vt 0.684211 0.000000
vt 0.789474 0.000000
vt 0.736842 0.000000
vt 0.631579 0.000000
vt 0.842105 0.000000
vt 0.578947 0.000000
vt 0.894737 0.000000
vt 0.526316 0.000000
vt 0.947368 0.000000
vt 0.473684 0.000000
vt 1.000000 0.000000
vt 0.421053 0.000000
vt 0.000000 0.000000
vt 0.368421 0.000000
vt 0.052632 0.000000
vt 0.315789 0.000000
vt 0.105263 0.000000
vt 0.263158 0.000000
vt 0.157895 0.000000
vt 0.210526 0.000000
vt 0.000000 1.000000
vt 0.333333 0.950000
vt 0.000000 0.950000
vt 0.000000 0.050000
vt 0.333333 0.000000
vt 0.000000 0.000000
vt 0.000000 0.100000
vt 0.333333 0.050000
vt 0.000000 0.150000
vt 0.333333 0.100000
vt 0.000000 0.200000
vt 0.333333 0.150000
vt 0.333333 0.250000
vt 0.000000 0.250000
vt 0.333333 0.300000
vt 0.000000 0.300000
vt 0.333333 0.350000
vt 0.000000 0.350000
vt 0.333333 0.400000
vt 0.000000 0.400000
vt 0.333333 0.450000
vt 0.000000 0.450000
vt 0.333333 0.500000
vt 0.000000 0.500000
vt 0.333333 0.550000
vt 0.000000 0.550000
vt 0.333333 0.600000
vt 0.000000 0.600000
vt 0.333333 0.650000
vt 0.000000 0.650000
vt 0.333333 0.700000
vt 0.000000 0.700000
vt 0.000000 0.750000
vt 0.000000 0.800000
vt 0.333333 0.750000
vt 0.000000 0.850000
vt 0.333333 0.800000
vt 0.000000 0.900000
vt 0.333333 0.850000
vt 0.333333 0.900000
vt 0.666667 1.000000
vt 0.333333 1.000000
vt 0.666667 0.000000
vt 0.666667 0.050000
vt 0.666667 0.100000
vt 0.333333 0.200000
vt 0.666667 0.150000
vt 0.666667 0.200000
vt 0.666667 0.250000
vt 0.666667 0.300000
vt 0.666667 0.350000
vt 0.666667 0.400000
vt 0.666667 0.450000
vt 0.666667 0.550000
vt 0.666667 0.600000
vt 0.666667 0.650000
vt 0.666667 0.700000
vt 0.666667 0.750000
vt 0.666667 0.800000
vt 0.666667 0.850000
vt 0.666667 0.900000
vt 0.666667 0.950000
vt 1.000000 1.000000
vt 1.000000 0.050000
vt 1.000000 0.100000
vt 1.000000 0.150000
vt 1.000000 0.200000
vt 1.000000 0.250000
vt 1.000000 0.300000
vt 1.000000 0.350000
vt 1.000000 0.400000
vt 1.000000 0.450000
vt 0.666667 0.500000
vt 1.000000 0.500000
vt 1.000000 0.550000
vt 1.000000 0.600000
vt 1.000000 0.650000
vt 1.000000 0.700000
vt 1.000000 0.750000
vt 1.000000 0.800000
vt 1.000000 0.850000
vt 1.000000 0.900000
vt 1.000000 0.950000
vt 1.000000 0.000000
vn -1.0000 0.0000 0.0000
vn 0.0000 -0.2676 0.9635
vn 0.0000 -0.2675 0.9636
vn 0.0000 -0.2677 0.9635
vn -0.9511 0.2977 0.0827
vn -0.9999 0.0135 0.0006
vn -0.8090 0.5663 0.1573
vn -0.9470 0.3183 0.0422
vn -0.5878 0.7795 0.2165
vn -0.8027 0.5911 0.0796
vn -0.3090 0.9164 0.2545
vn -0.5816 0.8061 0.1093
vn 0.0000 0.9635 0.2676
vn -0.3052 0.9436 0.1284
vn 0.3052 0.9436 0.1285
vn 0.3090 0.9164 0.2545
vn 0.5816 0.8061 0.1095
vn 0.5878 0.7795 0.2165
vn 0.8027 0.5910 0.0799
vn 0.8090 0.5664 0.1573
vn 0.9471 0.3182 0.0424
vn 0.9511 0.2978 0.0827
vn 0.9999 0.0135 0.0006
vn 1.0000 0.0000 -0.0000
vn 0.9550 -0.2937 -0.0412
vn 0.9511 -0.2977 -0.0827
vn 0.8155 -0.5733 -0.0789
vn 0.8090 -0.5664 -0.1573
vn 0.5944 -0.7968 -0.1090
vn 0.5878 -0.7795 -0.2166
vn 0.3131 -0.9410 -0.1283
vn 0.3090 -0.9163 -0.2546
vn -0.0000 -0.9908 -0.1351
vn -0.0000 -0.9635 -0.2677
vn -0.3090 -0.9163 -0.2546
vn -0.5878 -0.7795 -0.2166
vn -0.3131 -0.9410 -0.1284
vn -0.8090 -0.5663 -0.1573
vn -0.5944 -0.7967 -0.1091
vn -0.9511 -0.2977 -0.0827
vn -0.8155 -0.5733 -0.0790
vn -0.9550 -0.2938 -0.0412
vn -0.6793 0.2748 0.6805
vn -0.5768 0.5774 0.5778
vn -0.4116 0.8128 0.4123
vn -0.0000 0.9908 0.1350
vn -0.2057 0.9567 0.2059
vn 0.0157 0.9998 -0.0155
vn 0.2294 0.9460 -0.2289
vn 0.4177 0.8073 -0.4169
vn 0.5667 0.5991 -0.5657
vn 0.6655 0.3401 -0.6644
vn 0.7067 0.0526 -0.7055
vn 0.6083 -0.5112 -0.6072
vn 0.4761 -0.7399 -0.4752
vn 0.3005 -0.9054 -0.2998
vn 0.0940 -0.9911 -0.0938
vn -0.1270 -0.9837 0.1271
vn -0.3415 -0.8756 0.3417
vn -0.5240 -0.6709 0.5247
vn -0.6510 -0.3887 0.6520
vn -0.7052 -0.0607 0.7064
vn 0.0040 0.2550 0.9669
vn 0.0032 0.5412 0.8409
vn 0.0020 0.7745 0.6326
vn 0.0008 0.9321 0.3622
vn 0.0002 0.9984 0.0562
vn 0.0002 0.9669 -0.2553
vn 0.0010 0.8406 -0.5417
vn 0.0022 0.6320 -0.7750
vn 0.0033 0.3616 -0.9323
vn 0.0039 0.0561 -0.9984
vn 0.6872 -0.2393 -0.6860
vn 0.0036 -0.2549 -0.9670
vn 0.0026 -0.5411 -0.8409
vn 0.0014 -0.7745 -0.6326
vn 0.0004 -0.9321 -0.3622
vn 0.0001 -0.9984 -0.0561
vn 0.0005 -0.9668 0.2554
vn 0.0016 -0.8405 0.5418
vn 0.0028 -0.6320 0.7750
vn 0.0038 -0.3617 0.9323
vn 0.0042 -0.0561 0.9984
usemtl None
s 1
f 11/1/1 9/2/1 10/3/1
f 12/4/1 9/2/1 11/1/1
f 12/4/1 8/5/1 9/2/1
f 13/6/1 8/5/1 12/4/1
f 13/6/1 7/7/1 8/5/1
f 14/8/1 7/7/1 13/6/1
f 14/8/1 6/9/1 7/7/1
f 15/10/1 6/9/1 14/8/1
f 15/10/1 5/11/1 6/9/1
f 16/12/1 5/11/1 15/10/1
f 16/12/1 4/13/1 5/11/1
f 17/14/1 4/13/1 16/12/1
f 17/14/1 3/15/1 4/13/1
f 18/16/1 3/15/1 17/14/1
f 18/16/1 2/17/1 3/15/1
f 19/18/1 2/17/1 18/16/1
f 19/18/1 1/19/1 2/17/1
f 20/20/1 1/19/1 19/18/1
f 34/21/2 36/22/2 35/23/3
f 33/24/4 36/22/2 34/21/2
f 33/24/4 37/25/2 36/22/2
f 32/26/4 37/25/2 33/24/4
f 32/26/4 38/27/4 37/25/2
f 31/28/2 38/27/4 32/26/4
f 31/28/2 39/29/2 38/27/4
f 30/30/2 39/29/2 31/28/2
f 30/30/2 40/31/2 39/29/2
f 29/32/2 40/31/2 30/30/2
f 29/32/2 21/33/2 40/31/2
f 28/34/4 21/33/2 29/32/2
f 28/34/4 22/35/4 21/33/2
f 27/36/4 22/35/4 28/34/4
f 27/36/4 23/37/4 22/35/4
f 26/38/2 23/37/4 27/36/4
f 26/38/2 24/39/2 23/37/4
f 25/40/3 24/39/2 26/38/2
f 41/41/5 80/42/6 60/43/1
f 42/44/7 61/45/8 41/46/5
f 43/47/9 62/48/10 42/44/7
f 44/49/11 63/50/12 43/47/9
f 45/51/13 64/52/14 44/49/11
f 66/53/15 45/51/13 46/54/16
f 67/55/17 46/54/16 47/56/18
f 68/57/19 47/56/18 48/58/20
f 69/59/21 48/58/20 49/60/22
f 70/61/23 49/60/22 50/62/24
f 71/63/25 50/62/24 51/64/26
f 72/65/27 51/64/26 52/66/28
f 73/67/29 52/66/28 53/68/30
f 74/69/31 53/68/30 54/70/32
f 75/71/33 54/70/32 55/72/34
f 56/73/35 75/71/33 55/72/34
f 57/74/36 76/75/37 56/73/35
f 58/76/38 77/77/39 57/74/36
f 59/78/40 78/79/41 58/76/38
f 60/43/1 79/80/42 59/78/40
f 81/81/43 80/42/6 61/82/8
f 62/48/10 81/83/43 61/45/8
f 63/50/12 82/84/44 62/48/10
f 64/52/14 83/85/45 63/50/12
f 65/86/46 84/87/47 64/52/14
f 66/53/15 85/88/48 65/86/46
f 67/55/17 86/89/49 66/53/15
f 68/57/19 87/90/50 67/55/17
f 69/59/21 88/91/51 68/57/19
f 70/61/23 89/92/52 69/59/21
f 71/63/25 90/93/53 70/61/23
f 92/94/54 71/63/25 72/65/27
f 93/95/55 72/65/27 73/67/29
f 94/96/56 73/67/29 74/69/31
f 95/97/57 74/69/31 75/71/33
f 96/98/58 75/71/33 76/75/37
f 97/99/59 76/75/37 77/77/39
f 98/100/60 77/77/39 78/79/41
f 99/101/61 78/79/41 79/80/42
f 100/102/62 79/80/42 80/42/6
f 101/103/63 100/102/62 81/81/43
f 102/104/64 81/83/43 82/84/44
f 103/105/65 82/84/44 83/85/45
f 104/106/66 83/85/45 84/87/47
f 105/107/67 84/87/47 85/88/48
f 106/108/68 85/88/48 86/89/49
f 107/109/69 86/89/49 87/90/50
f 108/110/70 87/90/50 88/91/51
f 109/111/71 88/91/51 89/92/52
f 110/112/72 89/92/52 90/93/53
f 91/113/73 110/112/72 90/93/53
f 92/94/54 111/114/74 91/113/73
f 93/95/55 112/115/75 92/94/54
f 94/96/56 113/116/76 93/95/55
f 95/97/57 114/117/77 94/96/56
f 96/98/58 115/118/78 95/97/57
f 97/99/59 116/119/79 96/98/58
f 98/100/60 117/120/80 97/99/59
f 99/101/61 118/121/81 98/100/60
f 100/102/62 119/122/82 99/101/61
f 41/41/5 61/82/8 80/42/6
f 42/44/7 62/48/10 61/45/8
f 43/47/9 63/50/12 62/48/10
f 44/49/11 64/52/14 63/50/12
f 45/51/13 65/86/46 64/52/14
f 66/53/15 65/86/46 45/51/13
f 67/55/17 66/53/15 46/54/16
f 68/57/19 67/55/17 47/56/18
f 69/59/21 68/57/19 48/58/20
f 70/61/23 69/59/21 49/60/22
f 71/63/25 70/61/23 50/62/24
f 72/65/27 71/63/25 51/64/26
f 73/67/29 72/65/27 52/66/28
f 74/69/31 73/67/29 53/68/30
f 75/71/33 74/69/31 54/70/32
f 56/73/35 76/75/37 75/71/33
f 57/74/36 77/77/39 76/75/37
f 58/76/38 78/79/41 77/77/39
f 59/78/40 79/80/42 78/79/41
f 60/43/1 80/42/6 79/80/42
f 81/81/43 100/102/62 80/42/6
f 62/48/10 82/84/44 81/83/43
f 63/50/12 83/85/45 82/84/44
f 64/52/14 84/87/47 83/85/45
f 65/86/46 85/88/48 84/87/47
f 66/53/15 86/89/49 85/88/48
f 67/55/17 87/90/50 86/89/49
f 68/57/19 88/91/51 87/90/50
f 69/59/21 89/92/52 88/91/51
f 70/61/23 90/93/53 89/92/52
f 71/63/25 91/113/73 90/93/53
f 92/94/54 91/113/73 71/63/25
f 93/95/55 92/94/54 72/65/27
f 94/96/56 93/95/55 73/67/29
f 95/97/57 94/96/56 74/69/31
f 96/98/58 95/97/57 75/71/33
f 97/99/59 96/98/58 76/75/37
f 98/100/60 97/99/59 77/77/39
f 99/101/61 98/100/60 78/79/41
f 100/102/62 99/101/61 79/80/42
f 101/103/63 120/123/83 100/102/62
f 102/104/64 101/124/63 81/83/43
f 103/105/65 102/104/64 82/84/44
f 104/106/66 103/105/65 83/85/45
f 105/107/67 104/106/66 84/87/47
f 106/108/68 105/107/67 85/88/48
f 107/109/69 106/108/68 86/89/49
f 108/110/70 107/109/69 87/90/50
f 109/111/71 108/110/70 88/91/51
f 110/112/72 109/111/71 89/92/52
f 91/113/73 111/114/74 110/112/72
f 92/94/54 112/115/75 111/114/74
f 93/95/55 113/116/76 112/115/75
f 94/96/56 114/117/77 113/116/76
f 95/97/57 115/118/78 114/117/77
f 96/98/58 116/119/79 115/118/78
f 97/99/59 117/120/80 116/119/79
f 98/100/60 118/121/81 117/120/80
f 99/101/61 119/122/82 118/121/81
f 100/102/62 120/123/83 119/122/82
