# Blender 3.2.2
# www.blender.org
o Letter_A
v 0.340379 0.291545 0.500000
v 0.207726 0.291545 0.206997
v -0.215015 0.291545 0.206997
v -0.340379 0.291545 0.500000
v -0.486152 0.291545 0.500000
v -0.059038 0.291545 -0.500000
v 0.041545 0.291545 -0.500000
v 0.486152 0.291545 0.500000
v 0.149417 0.291545 0.078717
v -0.010933 0.291545 -0.281341
v -0.159621 0.291545 0.078717
v 0.340379 -0.291545 0.500000
v 0.207726 -0.291545 0.206997
v -0.215015 -0.291545 0.206997
v -0.340379 -0.291545 0.500000
v -0.486152 -0.291545 0.500000
v -0.059038 -0.291545 -0.500000
v 0.041545 -0.291545 -0.500000
v 0.486152 -0.291545 0.500000
v 0.149417 -0.291545 0.078717
v -0.010933 -0.291545 -0.281341
v -0.159621 -0.291545 0.078717
v 0.340379 -0.291545 0.500000
v 0.340379 0.291545 0.500000
v 0.207726 -0.291545 0.206997
v 0.207726 0.291545 0.206997
v -0.215015 -0.291545 0.206997
v -0.215015 0.291545 0.206997
v -0.340379 -0.291545 0.500000
v -0.340379 0.291545 0.500000
v -0.486152 -0.291545 0.500000
v -0.486152 0.291545 0.500000
v -0.059038 -0.291545 -0.500000
v -0.059038 0.291545 -0.500000
v 0.041545 -0.291545 -0.500000
v 0.041545 0.291545 -0.500000
v 0.486152 -0.291545 0.500000
v 0.486152 0.291545 0.500000
v 0.149417 -0.291545 0.078717
v 0.149417 0.291545 0.078717
v -0.010933 -0.291545 -0.281341
v -0.010933 0.291545 -0.281341
v -0.159621 -0.291545 0.078717
v -0.159621 0.291545 0.078717
vn -0.0000 1.0000 -0.0000
vn -0.0000 -1.0000 -0.0000
vn -0.5420 -0.0000 0.8404
vn 0.5507 -0.0000 0.8347
vn -0.8345 -0.0000 0.5510
vn -0.5510 -0.0000 -0.8345
vn 0.5449 -0.0000 -0.8385
vn 0.8385 -0.0000 0.5449
vn 0.0137 -0.0000 0.9999
vn -0.8387 -0.0000 -0.5446
vn 0.8312 -0.0000 -0.5560
vt 0.000000 0.000000
vt 0.100000 0.000000
vt 0.200000 0.000000
vt 0.300000 0.000000
vt 0.400000 0.000000
vt 0.500000 0.000000
vt 0.600000 0.000000
vt 0.700000 0.000000
vt 0.800000 0.000000
vt 0.900000 0.000000
vt 1.000000 0.000000
vt 0.000000 0.000000
vt 0.100000 0.000000
vt 0.200000 0.000000
vt 0.300000 0.000000
vt 0.400000 0.000000
vt 0.500000 0.000000
vt 0.600000 0.000000
vt 0.700000 0.000000
vt 0.800000 0.000000
vt 0.900000 0.000000
vt 1.000000 0.000000
vt 0.000000 0.000000
vt 1.000000 0.000000
vt 0.000000 1.000000
vt 1.000000 1.000000
vt 0.125000 0.000000
vt 0.125000 1.000000
vt 0.250000 0.000000
vt 0.250000 1.000000
vt 0.375000 0.000000
vt 0.375000 1.000000
vt 0.500000 0.000000
vt 0.500000 1.000000
vt 0.625000 0.000000
vt 0.625000 1.000000
vt 0.750000 0.000000
vt 0.750000 1.000000
vt 0.875000 0.000000
vt 0.875000 1.000000
vt 0.000000 0.000000
vt 1.000000 0.000000
vt 0.000000 1.000000
vt 1.000000 1.000000
vt 0.333333 0.000000
vt 0.333333 1.000000
vt 0.666667 0.000000
vt 0.666667 1.000000
s 0
f 5/5/1 7/7/1 6/6/1
f 5/5/1 10/10/1 7/7/1
f 10/10/1 8/8/1 7/7/1
f 5/5/1 11/11/1 10/10/1
f 9/9/1 8/8/1 10/10/1
f 5/5/1 3/3/1 11/11/1
f 3/3/1 9/9/1 11/11/1
f 3/3/1 2/2/1 9/9/1
f 2/2/1 8/8/1 9/9/1
f 5/5/1 4/4/1 3/3/1
f 1/1/1 8/8/1 2/2/1
f 16/16/2 17/17/2 18/18/2
f 16/16/2 18/18/2 21/21/2
f 21/21/2 18/18/2 19/19/2
f 16/16/2 21/21/2 22/22/2
f 20/20/2 21/21/2 19/19/2
f 16/16/2 22/22/2 14/14/2
f 14/14/2 22/22/2 20/20/2
f 14/14/2 20/20/2 13/13/2
f 13/13/2 20/20/2 19/19/2
f 16/16/2 14/14/2 15/15/2
f 12/12/2 13/13/2 19/19/2
s 1
f 26/28/3 23/23/3 24/25/3
f 28/30/4 25/27/3 26/28/3
f 30/32/4 27/29/4 28/30/4
f 32/34/5 29/31/4 30/32/4
f 34/36/6 31/33/5 32/34/5
f 36/38/7 33/35/6 34/36/6
f 38/40/8 35/37/7 36/38/7
f 24/26/3 37/39/8 38/40/8
f 42/46/9 39/41/10 40/43/10
f 44/48/11 41/45/9 42/46/9
f 40/44/10 43/47/11 44/48/11
f 26/28/3 25/27/3 23/23/3
f 28/30/4 27/29/4 25/27/3
f 30/32/4 29/31/4 27/29/4
f 32/34/5 31/33/5 29/31/4
f 34/36/6 33/35/6 31/33/5
f 36/38/7 35/37/7 33/35/6
f 38/40/8 37/39/8 35/37/7
f 24/26/3 23/24/3 37/39/8
f 42/46/9 41/45/9 39/41/10
f 44/48/11 43/47/11 41/45/9
f 40/44/10 39/42/10 43/47/11
