# Blender 3.2.2
# www.blender.org
o Letter_B
v -0.052786 0.293255 -0.500000
v -0.001448 0.293255 -0.497388
v 0.044864 0.293255 -0.489858
v 0.086258 0.293255 -0.477868
v 0.122841 0.293255 -0.461877
v 0.154720 0.293255 -0.442342
v 0.182001 0.293255 -0.419721
v 0.204792 0.293255 -0.394474
v 0.223200 0.293255 -0.367058
v 0.237330 0.293255 -0.337931
v 0.247291 0.293255 -0.307551
v 0.253190 0.293255 -0.276378
v 0.255132 0.293255 -0.244868
v 0.254120 0.293255 -0.219599
v 0.251066 0.293255 -0.195816
v 0.245945 0.293255 -0.173479
v 0.238731 0.293255 -0.152547
v 0.229400 0.293255 -0.132980
v 0.217925 0.293255 -0.114736
v 0.204282 0.293255 -0.097775
v 0.188444 0.293255 -0.082057
v 0.170386 0.293255 -0.067540
v 0.150083 0.293255 -0.054184
v 0.127509 0.293255 -0.041948
v 0.102639 0.293255 -0.030792
v 0.102639 0.293255 -0.027859
v 0.138789 0.293255 -0.019448
v 0.172383 0.293255 -0.008221
v 0.203308 0.293255 0.005705
v 0.231454 0.293255 0.022211
v 0.256709 0.293255 0.041182
v 0.278959 0.293255 0.062500
v 0.298094 0.293255 0.086048
v 0.314000 0.293255 0.111708
v 0.326567 0.293255 0.139365
v 0.335682 0.293255 0.168900
v 0.341233 0.293255 0.200197
v 0.343109 0.293255 0.233138
v 0.341146 0.293255 0.264262
v 0.335105 0.293255 0.295672
v 0.324757 0.293255 0.326796
v 0.309873 0.293255 0.357065
v 0.290223 0.293255 0.385909
v 0.265579 0.293255 0.412757
v 0.235711 0.293255 0.437038
v 0.200391 0.293255 0.458184
v 0.159389 0.293255 0.475623
v 0.112476 0.293255 0.488786
v 0.059422 0.293255 0.497101
v -0.000000 0.293255 0.500000
v -0.343109 0.293255 0.500000
v -0.343109 0.293255 -0.500000
v -0.104106 0.293255 -0.071847
v -0.070073 0.293255 -0.072948
v -0.039080 0.293255 -0.076253
v -0.011112 0.293255 -0.081768
v 0.013848 0.293255 -0.089497
v 0.035814 0.293255 -0.099446
v 0.054802 0.293255 -0.111620
v 0.070827 0.293255 -0.126024
v 0.083904 0.293255 -0.142663
v 0.094048 0.293255 -0.161542
v 0.101275 0.293255 -0.182667
v 0.105600 0.293255 -0.206041
v 0.107038 0.293255 -0.231672
v 0.106125 0.293255 -0.250121
v 0.103277 0.293255 -0.267955
v 0.098332 0.293255 -0.284984
v 0.091126 0.293255 -0.301021
v 0.081497 0.293255 -0.315876
v 0.069282 0.293255 -0.329362
v 0.054317 0.293255 -0.341290
v 0.036440 0.293255 -0.351472
v 0.015488 0.293255 -0.359719
v -0.008703 0.293255 -0.365843
v -0.036294 0.293255 -0.369655
v -0.067449 0.293255 -0.370968
v -0.199413 0.293255 -0.370968
v -0.199413 0.293255 -0.071847
v -0.019062 0.293255 0.370968
v 0.020573 0.293255 0.369280
v 0.055345 0.293255 0.364431
v 0.085525 0.293255 0.356740
v 0.111383 0.293255 0.346530
v 0.133188 0.293255 0.334120
v 0.151210 0.293255 0.319831
v 0.165719 0.293255 0.303985
v 0.176985 0.293255 0.286901
v 0.185278 0.293255 0.268901
v 0.190867 0.293255 0.250305
v 0.194023 0.293255 0.231435
v 0.195015 0.293255 0.212610
v 0.193543 0.293255 0.190455
v 0.189102 0.293255 0.169531
v 0.181658 0.293255 0.149972
v 0.171174 0.293255 0.131911
v 0.157615 0.293255 0.115478
v 0.140946 0.293255 0.100806
v 0.121130 0.293255 0.088029
v 0.098132 0.293255 0.077278
v 0.071916 0.293255 0.068686
v 0.042447 0.293255 0.062385
v 0.009689 0.293255 0.058507
v -0.026393 0.293255 0.057185
v -0.199413 0.293255 0.057185
v -0.199413 0.293255 0.370968
v -0.052786 -0.293255 -0.500000
v -0.001448 -0.293255 -0.497388
v 0.044864 -0.293255 -0.489858
v 0.086258 -0.293255 -0.477868
v 0.122841 -0.293255 -0.461877
v 0.154720 -0.293255 -0.442342
v 0.182001 -0.293255 -0.419721
v 0.204792 -0.293255 -0.394474
v 0.223200 -0.293255 -0.367058
v 0.237330 -0.293255 -0.337931
v 0.247291 -0.293255 -0.307551
v 0.253190 -0.293255 -0.276378
v 0.255132 -0.293255 -0.244868
v 0.254120 -0.293255 -0.219599
v 0.251066 -0.293255 -0.195816
v 0.245945 -0.293255 -0.173479
v 0.238731 -0.293255 -0.152547
v 0.229400 -0.293255 -0.132980
v 0.217925 -0.293255 -0.114736
v 0.204282 -0.293255 -0.097775
v 0.188444 -0.293255 -0.082057
v 0.170386 -0.293255 -0.067540
v 0.150083 -0.293255 -0.054184
v 0.127509 -0.293255 -0.041948
v 0.102639 -0.293255 -0.030792
v 0.102639 -0.293255 -0.027859
v 0.138789 -0.293255 -0.019448
v 0.172383 -0.293255 -0.008221
v 0.203308 -0.293255 0.005705
v 0.231454 -0.293255 0.022211
v 0.256709 -0.293255 0.041182
v 0.278959 -0.293255 0.062500
v 0.298094 -0.293255 0.086048
v 0.314000 -0.293255 0.111708
v 0.326567 -0.293255 0.139365
v 0.335682 -0.293255 0.168900
v 0.341233 -0.293255 0.200197
v 0.343109 -0.293255 0.233138
v 0.341146 -0.293255 0.264262
v 0.335105 -0.293255 0.295672
v 0.324757 -0.293255 0.326796
v 0.309873 -0.293255 0.357065
v 0.290223 -0.293255 0.385909
v 0.265579 -0.293255 0.412757
v 0.235711 -0.293255 0.437038
v 0.200391 -0.293255 0.458184
v 0.159389 -0.293255 0.475623
v 0.112476 -0.293255 0.488786
v 0.059422 -0.293255 0.497101
v -0.000000 -0.293255 0.500000
v -0.343109 -0.293255 0.500000
v -0.343109 -0.293255 -0.500000
v -0.104106 -0.293255 -0.071847
v -0.070073 -0.293255 -0.072948
v -0.039080 -0.293255 -0.076253
v -0.011112 -0.293255 -0.081768
v 0.013848 -0.293255 -0.089497
v 0.035814 -0.293255 -0.099446
v 0.054802 -0.293255 -0.111620
v 0.070827 -0.293255 -0.126024
v 0.083904 -0.293255 -0.142663
v 0.094048 -0.293255 -0.161542
v 0.101275 -0.293255 -0.182667
v 0.105600 -0.293255 -0.206041
v 0.107038 -0.293255 -0.231672
v 0.106125 -0.293255 -0.250121
v 0.103277 -0.293255 -0.267955
v 0.098332 -0.293255 -0.284984
v 0.091126 -0.293255 -0.301021
v 0.081497 -0.293255 -0.315876
v 0.069282 -0.293255 -0.329362
v 0.054317 -0.293255 -0.341290
v 0.036440 -0.293255 -0.351472
v 0.015488 -0.293255 -0.359719
v -0.008703 -0.293255 -0.365843
v -0.036294 -0.293255 -0.369655
v -0.067449 -0.293255 -0.370968
v -0.199413 -0.293255 -0.370968
v -0.199413 -0.293255 -0.071847
v -0.019062 -0.293255 0.370968
v 0.020573 -0.293255 0.369280
v 0.055345 -0.293255 0.364431
v 0.085525 -0.293255 0.356740
v 0.111383 -0.293255 0.346530
v 0.133188 -0.293255 0.334120
v 0.151210 -0.293255 0.319831
v 0.165719 -0.293255 0.303985
v 0.176985 -0.293255 0.286901
v 0.185278 -0.293255 0.268901
v 0.190867 -0.293255 0.250305
v 0.194023 -0.293255 0.231435
v 0.195015 -0.293255 0.212610
v 0.193543 -0.293255 0.190455
v 0.189102 -0.293255 0.169531
v 0.181658 -0.293255 0.149972
v 0.171174 -0.293255 0.131911
v 0.157615 -0.293255 0.115478
v 0.140946 -0.293255 0.100806
v 0.121130 -0.293255 0.088029
v 0.098132 -0.293255 0.077278
v 0.071916 -0.293255 0.068686
v 0.042447 -0.293255 0.062385
v 0.009689 -0.293255 0.058507
v -0.026393 -0.293255 0.057185
v -0.199413 -0.293255 0.057185
v -0.199413 -0.293255 0.370968
v -0.052786 -0.293255 -0.500000
v -0.052786 0.293255 -0.500000
v -0.001448 -0.293255 -0.497388
v -0.001448 0.293255 -0.497388
v 0.044864 -0.293255 -0.489858
v 0.044864 0.293255 -0.489858
v 0.086258 -0.293255 -0.477868
v 0.086258 0.293255 -0.477868
v 0.122841 -0.293255 -0.461877
v 0.122841 0.293255 -0.461877
v 0.154720 -0.293255 -0.442342
v 0.154720 0.293255 -0.442342
v 0.182001 -0.293255 -0.419721
v 0.182001 0.293255 -0.419721
v 0.204792 -0.293255 -0.394474
v 0.204792 0.293255 -0.394474
v 0.223200 -0.293255 -0.367058
v 0.223200 0.293255 -0.367058
v 0.237330 -0.293255 -0.337931
v 0.237330 0.293255 -0.337931
v 0.247291 -0.293255 -0.307551
v 0.247291 0.293255 -0.307551
v 0.253190 -0.293255 -0.276378
v 0.253190 0.293255 -0.276378
v 0.255132 -0.293255 -0.244868
v 0.255132 0.293255 -0.244868
v 0.254120 -0.293255 -0.219599
v 0.254120 0.293255 -0.219599
v 0.251066 -0.293255 -0.195816
v 0.251066 0.293255 -0.195816
v 0.245945 -0.293255 -0.173479
v 0.245945 0.293255 -0.173479
v 0.238731 -0.293255 -0.152547
v 0.238731 0.293255 -0.152547
v 0.229400 -0.293255 -0.132980
v 0.229400 0.293255 -0.132980
v 0.217925 -0.293255 -0.114736
v 0.217925 0.293255 -0.114736
v 0.204282 -0.293255 -0.097775
v 0.204282 0.293255 -0.097775
v 0.188444 -0.293255 -0.082057
v 0.188444 0.293255 -0.082057
v 0.170386 -0.293255 -0.067540
v 0.170386 0.293255 -0.067540
v 0.150083 -0.293255 -0.054184
v 0.150083 0.293255 -0.054184
v 0.127509 -0.293255 -0.041948
v 0.127509 0.293255 -0.041948
v 0.102639 -0.293255 -0.030792
v 0.102639 0.293255 -0.030792
v 0.102639 -0.293255 -0.027859
v 0.102639 0.293255 -0.027859
v 0.138789 -0.293255 -0.019448
v 0.138789 0.293255 -0.019448
v 0.172383 -0.293255 -0.008221
v 0.172383 0.293255 -0.008221
v 0.203308 -0.293255 0.005705
v 0.203308 0.293255 0.005705
v 0.231454 -0.293255 0.022211
v 0.231454 0.293255 0.022211
v 0.256709 -0.293255 0.041182
v 0.256709 0.293255 0.041182
v 0.278959 -0.293255 0.062500
v 0.278959 0.293255 0.062500
v 0.298094 -0.293255 0.086048
v 0.298094 0.293255 0.086048
v 0.314000 -0.293255 0.111708
v 0.314000 0.293255 0.111708
v 0.326567 -0.293255 0.139365
v 0.326567 0.293255 0.139365
v 0.335682 -0.293255 0.168900
v 0.335682 0.293255 0.168900
v 0.341233 -0.293255 0.200197
v 0.341233 0.293255 0.200197
v 0.343109 -0.293255 0.233138
v 0.343109 0.293255 0.233138
v 0.341146 -0.293255 0.264262
v 0.341146 0.293255 0.264262
v 0.335105 -0.293255 0.295672
v 0.335105 0.293255 0.295672
v 0.324757 -0.293255 0.326796
v 0.324757 0.293255 0.326796
v 0.309873 -0.293255 0.357065
v 0.309873 0.293255 0.357065
v 0.290223 -0.293255 0.385909
v 0.290223 0.293255 0.385909
v 0.265579 -0.293255 0.412757
v 0.265579 0.293255 0.412757
v 0.235711 -0.293255 0.437038
v 0.235711 0.293255 0.437038
v 0.200391 -0.293255 0.458184
v 0.200391 0.293255 0.458184
v 0.159389 -0.293255 0.475623
v 0.159389 0.293255 0.475623
v 0.112476 -0.293255 0.488786
v 0.112476 0.293255 0.488786
v 0.059422 -0.293255 0.497101
v 0.059422 0.293255 0.497101
v -0.000000 -0.293255 0.500000
v -0.000000 0.293255 0.500000
v -0.343109 -0.293255 0.500000
v -0.343109 0.293255 0.500000
v -0.343109 -0.293255 -0.500000
v -0.343109 0.293255 -0.500000
v -0.104106 -0.293255 -0.071847
v -0.104106 0.293255 -0.071847
v -0.070073 -0.293255 -0.072948
v -0.070073 0.293255 -0.072948
v -0.039080 -0.293255 -0.076253
v -0.039080 0.293255 -0.076253
v -0.011112 -0.293255 -0.081768
v -0.011112 0.293255 -0.081768
v 0.013848 -0.293255 -0.089497
v 0.013848 0.293255 -0.089497
v 0.035814 -0.293255 -0.099446
v 0.035814 0.293255 -0.099446
v 0.054802 -0.293255 -0.111620
v 0.054802 0.293255 -0.111620
v 0.070827 -0.293255 -0.126024
v 0.070827 0.293255 -0.126024
v 0.083904 -0.293255 -0.142663
v 0.083904 0.293255 -0.142663
v 0.094048 -0.293255 -0.161542
v 0.094048 0.293255 -0.161542
v 0.101275 -0.293255 -0.182667
v 0.101275 0.293255 -0.182667
v 0.105600 -0.293255 -0.206041
v 0.105600 0.293255 -0.206041
v 0.107038 -0.293255 -0.231672
v 0.107038 0.293255 -0.231672
v 0.106125 -0.293255 -0.250121
v 0.106125 0.293255 -0.250121
v 0.103277 -0.293255 -0.267955
v 0.103277 0.293255 -0.267955
v 0.098332 -0.293255 -0.284984
v 0.098332 0.293255 -0.284984
v 0.091126 -0.293255 -0.301021
v 0.091126 0.293255 -0.301021
v 0.081497 -0.293255 -0.315876
v 0.081497 0.293255 -0.315876
v 0.069282 -0.293255 -0.329362
v 0.069282 0.293255 -0.329362
v 0.054317 -0.293255 -0.341290
v 0.054317 0.293255 -0.341290
v 0.036440 -0.293255 -0.351472
v 0.036440 0.293255 -0.351472
v 0.015488 -0.293255 -0.359719
v 0.015488 0.293255 -0.359719
v -0.008703 -0.293255 -0.365843
v -0.008703 0.293255 -0.365843
v -0.036294 -0.293255 -0.369655
v -0.036294 0.293255 -0.369655
v -0.067449 -0.293255 -0.370968
v -0.067449 0.293255 -0.370968
v -0.199413 -0.293255 -0.370968
v -0.199413 0.293255 -0.370968
v -0.199413 -0.293255 -0.071847
v -0.199413 0.293255 -0.071847
v -0.019062 -0.293255 0.370968
v -0.019062 0.293255 0.370968
v 0.020573 -0.293255 0.369280
v 0.020573 0.293255 0.369280
v 0.055345 -0.293255 0.364431
v 0.055345 0.293255 0.364431
v 0.085525 -0.293255 0.356740
v 0.085525 0.293255 0.356740
v 0.111383 -0.293255 0.346530
v 0.111383 0.293255 0.346530
v 0.133188 -0.293255 0.334120
v 0.133188 0.293255 0.334120
v 0.151210 -0.293255 0.319831
v 0.151210 0.293255 0.319831
v 0.165719 -0.293255 0.303985
v 0.165719 0.293255 0.303985
v 0.176985 -0.293255 0.286901
v 0.176985 0.293255 0.286901
v 0.185278 -0.293255 0.268901
v 0.185278 0.293255 0.268901
v 0.190867 -0.293255 0.250305
v 0.190867 0.293255 0.250305
v 0.194023 -0.293255 0.231435
v 0.194023 0.293255 0.231435
v 0.195015 -0.293255 0.212610
v 0.195015 0.293255 0.212610
v 0.193543 -0.293255 0.190455
v 0.193543 0.293255 0.190455
v 0.189102 -0.293255 0.169531
v 0.189102 0.293255 0.169531
v 0.181658 -0.293255 0.149972
v 0.181658 0.293255 0.149972
v 0.171174 -0.293255 0.131911
v 0.171174 0.293255 0.131911
v 0.157615 -0.293255 0.115478
v 0.157615 0.293255 0.115478
v 0.140946 -0.293255 0.100806
v 0.140946 0.293255 0.100806
v 0.121130 -0.293255 0.088029
v 0.121130 0.293255 0.088029
v 0.098132 -0.293255 0.077278
v 0.098132 0.293255 0.077278
v 0.071916 -0.293255 0.068686
v 0.071916 0.293255 0.068686
v 0.042447 -0.293255 0.062385
v 0.042447 0.293255 0.062385
v 0.009689 -0.293255 0.058507
v 0.009689 0.293255 0.058507
v -0.026393 -0.293255 0.057185
v -0.026393 0.293255 0.057185
v -0.199413 -0.293255 0.057185
v -0.199413 0.293255 0.057185
v -0.199413 -0.293255 0.370968
v -0.199413 0.293255 0.370968
vn -0.0000 1.0000 -0.0000
vn -0.0000 -1.0000 -0.0000
vn 0.1058 -0.0000 -0.9944
vn 0.0254 -0.0000 -0.9997
vn 0.2197 -0.0000 -0.9756
vn 0.3401 -0.0000 -0.9404
vn 0.4626 -0.0000 -0.8866
vn 0.5819 -0.0000 -0.8133
vn 0.6921 -0.0000 -0.7218
vn 0.7883 -0.0000 -0.6153
vn 0.8671 -0.0000 -0.4982
vn 0.9271 -0.0000 -0.3749
vn 0.9684 -0.0000 -0.2493
vn 0.9923 -0.0000 -0.1240
vn 0.9999 -0.0000 -0.0108
vn 0.9965 -0.0000 0.0838
vn 0.9845 -0.0000 0.1756
vn 0.9614 -0.0000 0.2750
vn 0.9255 -0.0000 0.3787
vn 0.8760 -0.0000 0.4822
vn 0.8142 -0.0000 0.5806
vn 0.7430 -0.0000 0.6693
vn 0.6664 -0.0000 0.7456
vn 0.5887 -0.0000 0.8083
vn 0.5135 -0.0000 0.8581
vn 0.4432 -0.0000 0.8964
vn 0.8394 -0.0000 0.5435
vn 0.7831 -0.0000 -0.6218
vn 0.2721 -0.0000 -0.9623
vn 0.3642 -0.0000 -0.9313
vn 0.4589 -0.0000 -0.8885
vn 0.5541 -0.0000 -0.8324
vn 0.6474 -0.0000 -0.7622
vn 0.7354 -0.0000 -0.6777
vn 0.8147 -0.0000 -0.5799
vn 0.8820 -0.0000 -0.4712
vn 0.9349 -0.0000 -0.3550
vn 0.9719 -0.0000 -0.2352
vn 0.9933 -0.0000 -0.1159
vn 1.0000 -0.0000 0.0031
vn 0.9920 -0.0000 0.1262
vn 0.9675 -0.0000 0.2527
vn 0.9253 -0.0000 0.3793
vn 0.8641 -0.0000 0.5034
vn 0.7836 -0.0000 0.6212
vn 0.6856 -0.0000 0.7280
vn 0.5737 -0.0000 0.8191
vn 0.4536 -0.0000 0.8912
vn 0.3315 -0.0000 0.9435
vn 0.2129 -0.0000 0.9771
vn 0.1019 -0.0000 0.9948
vn 0.0244 -0.0000 0.9997
vn -0.7071 -0.0000 0.7071
vn -0.7071 -0.0000 -0.7071
vn -0.0692 -0.0000 -0.9976
vn -0.0162 -0.0000 -0.9999
vn -0.1499 -0.0000 -0.9887
vn -0.2450 -0.0000 -0.9695
vn -0.3549 -0.0000 -0.9349
vn -0.4774 -0.0000 -0.8787
vn -0.6061 -0.0000 -0.7954
vn -0.7301 -0.0000 -0.6834
vn -0.8367 -0.0000 -0.5477
vn -0.9166 -0.0000 -0.3998
vn -0.9673 -0.0000 -0.2535
vn -0.9929 -0.0000 -0.1192
vn -1.0000 -0.0000 -0.0033
vn -0.9946 -0.0000 0.1037
vn -0.9758 -0.0000 0.2187
vn -0.9385 -0.0000 0.3452
vn -0.8782 -0.0000 0.4783
vn -0.7927 -0.0000 0.6096
vn -0.6845 -0.0000 0.7290
vn -0.5608 -0.0000 0.8280
vn -0.4317 -0.0000 0.9020
vn -0.3065 -0.0000 0.9519
vn -0.1914 -0.0000 0.9815
vn -0.0896 -0.0000 0.9960
vn -0.0211 -0.0000 0.9998
vn 0.7071 -0.0000 0.7071
vn 0.7071 -0.0000 -0.7071
vn -0.0904 -0.0000 -0.9959
vn -0.0213 -0.0000 -0.9998
vn -0.1928 -0.0000 -0.9812
vn -0.3077 -0.0000 -0.9515
vn -0.4320 -0.0000 -0.9019
vn -0.5596 -0.0000 -0.8288
vn -0.6816 -0.0000 -0.7318
vn -0.7886 -0.0000 -0.6148
vn -0.8740 -0.0000 -0.4859
vn -0.9352 -0.0000 -0.3540
vn -0.9739 -0.0000 -0.2268
vn -0.9940 -0.0000 -0.1090
vn -1.0000 -0.0000 0.0069
vn -0.9905 -0.0000 0.1373
vn -0.9593 -0.0000 0.2825
vn -0.9027 -0.0000 0.4303
vn -0.8209 -0.0000 0.5711
vn -0.7183 -0.0000 0.6958
vn -0.6030 -0.0000 0.7978
vn -0.4838 -0.0000 0.8752
vn -0.3681 -0.0000 0.9298
vn -0.2606 -0.0000 0.9654
vn -0.1635 -0.0000 0.9865
vn -0.0771 -0.0000 0.9970
vn -0.0183 -0.0000 0.9998
vt 0.000000 0.000000
vt 0.009524 0.000000
vt 0.019048 0.000000
vt 0.028571 0.000000
vt 0.038095 0.000000
vt 0.047619 0.000000
vt 0.057143 0.000000
vt 0.066667 0.000000
vt 0.076190 0.000000
vt 0.085714 0.000000
vt 0.095238 0.000000
vt 0.104762 0.000000
vt 0.114286 0.000000
vt 0.123810 0.000000
vt 0.133333 0.000000
vt 0.142857 0.000000
vt 0.152381 0.000000
vt 0.161905 0.000000
vt 0.171429 0.000000
vt 0.180952 0.000000
vt 0.190476 0.000000
vt 0.200000 0.000000
vt 0.209524 0.000000
vt 0.219048 0.000000
vt 0.228571 0.000000
vt 0.238095 0.000000
vt 0.247619 0.000000
vt 0.257143 0.000000
vt 0.266667 0.000000
vt 0.276190 0.000000
vt 0.285714 0.000000
vt 0.295238 0.000000
vt 0.304762 0.000000
vt 0.314286 0.000000
vt 0.323810 0.000000
vt 0.333333 0.000000
vt 0.342857 0.000000
vt 0.352381 0.000000
vt 0.361905 0.000000
vt 0.371429 0.000000
vt 0.380952 0.000000
vt 0.390476 0.000000
vt 0.400000 0.000000
vt 0.409524 0.000000
vt 0.419048 0.000000
vt 0.428571 0.000000
vt 0.438095 0.000000
vt 0.447619 0.000000
vt 0.457143 0.000000
vt 0.466667 0.000000
vt 0.476190 0.000000
vt 0.485714 0.000000
vt 0.495238 0.000000
vt 0.504762 0.000000
vt 0.514286 0.000000
vt 0.523810 0.000000
vt 0.533333 0.000000
vt 0.542857 0.000000
vt 0.552381 0.000000
vt 0.561905 0.000000
vt 0.571429 0.000000
vt 0.580952 0.000000
vt 0.590476 0.000000
vt 0.600000 0.000000
vt 0.609524 0.000000
vt 0.619048 0.000000
vt 0.628571 0.000000
vt 0.638095 0.000000
vt 0.647619 0.000000
vt 0.657143 0.000000
vt 0.666667 0.000000
vt 0.676190 0.000000
vt 0.685714 0.000000
vt 0.695238 0.000000
vt 0.704762 0.000000
vt 0.714286 0.000000
vt 0.723810 0.000000
vt 0.733333 0.000000
vt 0.742857 0.000000
vt 0.752381 0.000000
vt 0.761905 0.000000
vt 0.771429 0.000000
vt 0.780952 0.000000
vt 0.790476 0.000000
vt 0.800000 0.000000
vt 0.809524 0.000000
vt 0.819048 0.000000
vt 0.828571 0.000000
vt 0.838095 0.000000
vt 0.847619 0.000000
vt 0.857143 0.000000
vt 0.866667 0.000000
vt 0.876190 0.000000
vt 0.885714 0.000000
vt 0.895238 0.000000
vt 0.904762 0.000000
vt 0.914286 0.000000
vt 0.923810 0.000000
vt 0.933333 0.000000
vt 0.942857 0.000000
vt 0.952381 0.000000
vt 0.961905 0.000000
vt 0.971429 0.000000
vt 0.980952 0.000000
vt 0.990476 0.000000
vt 1.000000 0.000000
vt 0.000000 0.000000
vt 0.009524 0.000000
vt 0.019048 0.000000
vt 0.028571 0.000000
vt 0.038095 0.000000
vt 0.047619 0.000000
vt 0.057143 0.000000
vt 0.066667 0.000000
vt 0.076190 0.000000
vt 0.085714 0.000000
vt 0.095238 0.000000
vt 0.104762 0.000000
vt 0.114286 0.000000
vt 0.123810 0.000000
vt 0.133333 0.000000
vt 0.142857 0.000000
vt 0.152381 0.000000
vt 0.161905 0.000000
vt 0.171429 0.000000
vt 0.180952 0.000000
vt 0.190476 0.000000
vt 0.200000 0.000000
vt 0.209524 0.000000
vt 0.219048 0.000000
vt 0.228571 0.000000
vt 0.238095 0.000000
vt 0.247619 0.000000
vt 0.257143 0.000000
vt 0.266667 0.000000
vt 0.276190 0.000000
vt 0.285714 0.000000
vt 0.295238 0.000000
vt 0.304762 0.000000
vt 0.314286 0.000000
vt 0.323810 0.000000
vt 0.333333 0.000000
vt 0.342857 0.000000
vt 0.352381 0.000000
vt 0.361905 0.000000
vt 0.371429 0.000000
vt 0.380952 0.000000
vt 0.390476 0.000000
vt 0.400000 0.000000
vt 0.409524 0.000000
vt 0.419048 0.000000
vt 0.428571 0.000000
vt 0.438095 0.000000
vt 0.447619 0.000000
vt 0.457143 0.000000
vt 0.466667 0.000000
vt 0.476190 0.000000
vt 0.485714 0.000000
vt 0.495238 0.000000
vt 0.504762 0.000000
vt 0.514286 0.000000
vt 0.523810 0.000000
vt 0.533333 0.000000
vt 0.542857 0.000000
vt 0.552381 0.000000
vt 0.561905 0.000000
vt 0.571429 0.000000
vt 0.580952 0.000000
vt 0.590476 0.000000
vt 0.600000 0.000000
vt 0.609524 0.000000
vt 0.619048 0.000000
vt 0.628571 0.000000
vt 0.638095 0.000000
vt 0.647619 0.000000
vt 0.657143 0.000000
vt 0.666667 0.000000
vt 0.676190 0.000000
vt 0.685714 0.000000
vt 0.695238 0.000000
vt 0.704762 0.000000
vt 0.714286 0.000000
vt 0.723810 0.000000
vt 0.733333 0.000000
vt 0.742857 0.000000
vt 0.752381 0.000000
vt 0.761905 0.000000
vt 0.771429 0.000000
vt 0.780952 0.000000
vt 0.790476 0.000000
vt 0.800000 0.000000
vt 0.809524 0.000000
vt 0.819048 0.000000
vt 0.828571 0.000000
vt 0.838095 0.000000
vt 0.847619 0.000000
vt 0.857143 0.000000
vt 0.866667 0.000000
vt 0.876190 0.000000
vt 0.885714 0.000000
vt 0.895238 0.000000
vt 0.904762 0.000000
vt 0.914286 0.000000
vt 0.923810 0.000000
vt 0.933333 0.000000
vt 0.942857 0.000000
vt 0.952381 0.000000
vt 0.961905 0.000000
vt 0.971429 0.000000
vt 0.980952 0.000000
vt 0.990476 0.000000
vt 1.000000 0.000000
vt 0.000000 0.000000
vt 1.000000 0.000000
vt 0.000000 1.000000
vt 1.000000 1.000000
vt 0.019231 0.000000
vt 0.019231 1.000000
vt 0.038462 0.000000
vt 0.038462 1.000000
vt 0.057692 0.000000
vt 0.057692 1.000000
vt 0.076923 0.000000
vt 0.076923 1.000000
vt 0.096154 0.000000
vt 0.096154 1.000000
vt 0.115385 0.000000
vt 0.115385 1.000000
vt 0.134615 0.000000
vt 0.134615 1.000000
vt 0.153846 0.000000
vt 0.153846 1.000000
vt 0.173077 0.000000
vt 0.173077 1.000000
vt 0.192308 0.000000
vt 0.192308 1.000000
vt 0.211538 0.000000
vt 0.211538 1.000000
vt 0.230769 0.000000
vt 0.230769 1.000000
vt 0.250000 0.000000
vt 0.250000 1.000000
vt 0.269231 0.000000
vt 0.269231 1.000000
vt 0.288462 0.000000
vt 0.288462 1.000000
vt 0.307692 0.000000
vt 0.307692 1.000000
vt 0.326923 0.000000
vt 0.326923 1.000000
vt 0.346154 0.000000
vt 0.346154 1.000000
vt 0.365385 0.000000
vt 0.365385 1.000000
vt 0.384615 0.000000
vt 0.384615 1.000000
vt 0.403846 0.000000
vt 0.403846 1.000000
vt 0.423077 0.000000
vt 0.423077 1.000000
vt 0.442308 0.000000
vt 0.442308 1.000000
vt 0.461538 0.000000
vt 0.461538 1.000000
vt 0.480769 0.000000
vt 0.480769 1.000000
vt 0.500000 0.000000
vt 0.500000 1.000000
vt 0.519231 0.000000
vt 0.519231 1.000000
vt 0.538462 0.000000
vt 0.538462 1.000000
vt 0.557692 0.000000
vt 0.557692 1.000000
vt 0.576923 0.000000
vt 0.576923 1.000000
vt 0.596154 0.000000
vt 0.596154 1.000000
vt 0.615385 0.000000
vt 0.615385 1.000000
vt 0.634615 0.000000
vt 0.634615 1.000000
vt 0.653846 0.000000
vt 0.653846 1.000000
vt 0.673077 0.000000
vt 0.673077 1.000000
vt 0.692308 0.000000
vt 0.692308 1.000000
vt 0.711538 0.000000
vt 0.711538 1.000000
vt 0.730769 0.000000
vt 0.730769 1.000000
vt 0.750000 0.000000
vt 0.750000 1.000000
vt 0.769231 0.000000
vt 0.769231 1.000000
vt 0.788462 0.000000
vt 0.788462 1.000000
vt 0.807692 0.000000
vt 0.807692 1.000000
vt 0.826923 0.000000
vt 0.826923 1.000000
vt 0.846154 0.000000
vt 0.846154 1.000000
vt 0.865385 0.000000
vt 0.865385 1.000000
vt 0.884615 0.000000
vt 0.884615 1.000000
vt 0.903846 0.000000
vt 0.903846 1.000000
vt 0.923077 0.000000
vt 0.923077 1.000000
vt 0.942308 0.000000
vt 0.942308 1.000000
vt 0.961538 0.000000
vt 0.961538 1.000000
vt 0.980769 0.000000
vt 0.980769 1.000000
vt 0.000000 0.000000
vt 1.000000 0.000000
vt 0.000000 1.000000
vt 1.000000 1.000000
vt 0.037037 0.000000
vt 0.037037 1.000000
vt 0.074074 0.000000
vt 0.074074 1.000000
vt 0.111111 0.000000
vt 0.111111 1.000000
vt 0.148148 0.000000
vt 0.148148 1.000000
vt 0.185185 0.000000
vt 0.185185 1.000000
vt 0.222222 0.000000
vt 0.222222 1.000000
vt 0.259259 0.000000
vt 0.259259 1.000000
vt 0.296296 0.000000
vt 0.296296 1.000000
vt 0.333333 0.000000
vt 0.333333 1.000000
vt 0.370370 0.000000
vt 0.370370 1.000000
vt 0.407407 0.000000
vt 0.407407 1.000000
vt 0.444444 0.000000
vt 0.444444 1.000000
vt 0.481481 0.000000
vt 0.481481 1.000000
vt 0.518519 0.000000
vt 0.518519 1.000000
vt 0.555556 0.000000
vt 0.555556 1.000000
vt 0.592593 0.000000
vt 0.592593 1.000000
vt 0.629630 0.000000
vt 0.629630 1.000000
vt 0.666667 0.000000
vt 0.666667 1.000000
vt 0.703704 0.000000
vt 0.703704 1.000000
vt 0.740741 0.000000
vt 0.740741 1.000000
vt 0.777778 0.000000
vt 0.777778 1.000000
vt 0.814815 0.000000
vt 0.814815 1.000000
vt 0.851852 0.000000
vt 0.851852 1.000000
vt 0.888889 0.000000
vt 0.888889 1.000000
vt 0.925926 0.000000
vt 0.925926 1.000000
vt 0.962963 0.000000
vt 0.962963 1.000000
vt 0.000000 0.000000
vt 1.000000 0.000000
vt 0.000000 1.000000
vt 1.000000 1.000000
vt 0.037037 0.000000
vt 0.037037 1.000000
vt 0.074074 0.000000
vt 0.074074 1.000000
vt 0.111111 0.000000
vt 0.111111 1.000000
vt 0.148148 0.000000
vt 0.148148 1.000000
vt 0.185185 0.000000
vt 0.185185 1.000000
vt 0.222222 0.000000
vt 0.222222 1.000000
vt 0.259259 0.000000
vt 0.259259 1.000000
vt 0.296296 0.000000
vt 0.296296 1.000000
vt 0.333333 0.000000
vt 0.333333 1.000000
vt 0.370370 0.000000
vt 0.370370 1.000000
vt 0.407407 0.000000
vt 0.407407 1.000000
vt 0.444444 0.000000
vt 0.444444 1.000000
vt 0.481481 0.000000
vt 0.481481 1.000000
vt 0.518519 0.000000
vt 0.518519 1.000000
vt 0.555556 0.000000
vt 0.555556 1.000000
vt 0.592593 0.000000
vt 0.592593 1.000000
vt 0.629630 0.000000
vt 0.629630 1.000000
vt 0.666667 0.000000
vt 0.666667 1.000000
vt 0.703704 0.000000
vt 0.703704 1.000000
vt 0.740741 0.000000
vt 0.740741 1.000000
vt 0.777778 0.000000
vt 0.777778 1.000000
vt 0.814815 0.000000
vt 0.814815 1.000000
vt 0.851852 0.000000
vt 0.851852 1.000000
vt 0.888889 0.000000
vt 0.888889 1.000000
vt 0.925926 0.000000
vt 0.925926 1.000000
vt 0.962963 0.000000
vt 0.962963 1.000000
s 0
f 51/51/1 78/78/1 52/52/1
f 78/78/1 1/1/1 52/52/1
f 78/78/1 2/2/1 1/1/1
f 78/78/1 3/3/1 2/2/1
f 78/78/1 4/4/1 3/3/1
f 78/78/1 5/5/1 4/4/1
f 78/78/1 6/6/1 5/5/1
f 78/78/1 7/7/1 6/6/1
f 78/78/1 8/8/1 7/7/1
f 78/78/1 77/77/1 8/8/1
f 77/77/1 9/9/1 8/8/1
f 51/51/1 79/79/1 78/78/1
f 76/76/1 9/9/1 77/77/1
f 75/75/1 9/9/1 76/76/1
f 75/75/1 10/10/1 9/9/1
f 74/74/1 10/10/1 75/75/1
f 73/73/1 10/10/1 74/74/1
f 72/72/1 10/10/1 73/73/1
f 71/71/1 10/10/1 72/72/1
f 71/71/1 11/11/1 10/10/1
f 70/70/1 11/11/1 71/71/1
f 69/69/1 11/11/1 70/70/1
f 69/69/1 12/12/1 11/11/1
f 68/68/1 12/12/1 69/69/1
f 67/67/1 12/12/1 68/68/1
f 67/67/1 13/13/1 12/12/1
f 66/66/1 13/13/1 67/67/1
f 65/65/1 13/13/1 66/66/1
f 65/65/1 14/14/1 13/13/1
f 64/64/1 14/14/1 65/65/1
f 64/64/1 15/15/1 14/14/1
f 63/63/1 15/15/1 64/64/1
f 63/63/1 16/16/1 15/15/1
f 62/62/1 16/16/1 63/63/1
f 62/62/1 17/17/1 16/16/1
f 61/61/1 17/17/1 62/62/1
f 61/61/1 18/18/1 17/17/1
f 60/60/1 18/18/1 61/61/1
f 60/60/1 19/19/1 18/18/1
f 59/59/1 19/19/1 60/60/1
f 59/59/1 20/20/1 19/19/1
f 58/58/1 20/20/1 59/59/1
f 57/57/1 20/20/1 58/58/1
f 57/57/1 21/21/1 20/20/1
f 56/56/1 21/21/1 57/57/1
f 56/56/1 22/22/1 21/21/1
f 55/55/1 22/22/1 56/56/1
f 54/54/1 22/22/1 55/55/1
f 53/53/1 22/22/1 54/54/1
f 51/51/1 105/105/1 79/79/1
f 105/105/1 53/53/1 79/79/1
f 105/105/1 22/22/1 53/53/1
f 105/105/1 23/23/1 22/22/1
f 105/105/1 24/24/1 23/23/1
f 105/105/1 25/25/1 24/24/1
f 105/105/1 26/26/1 25/25/1
f 105/105/1 27/27/1 26/26/1
f 105/105/1 28/28/1 27/27/1
f 105/105/1 29/29/1 28/28/1
f 105/105/1 30/30/1 29/29/1
f 105/105/1 31/31/1 30/30/1
f 105/105/1 104/104/1 31/31/1
f 104/104/1 32/32/1 31/31/1
f 51/51/1 106/106/1 105/105/1
f 103/103/1 32/32/1 104/104/1
f 102/102/1 32/32/1 103/103/1
f 101/101/1 32/32/1 102/102/1
f 101/101/1 33/33/1 32/32/1
f 100/100/1 33/33/1 101/101/1
f 99/99/1 33/33/1 100/100/1
f 99/99/1 34/34/1 33/33/1
f 98/98/1 34/34/1 99/99/1
f 97/97/1 34/34/1 98/98/1
f 97/97/1 35/35/1 34/34/1
f 96/96/1 35/35/1 97/97/1
f 95/95/1 35/35/1 96/96/1
f 95/95/1 36/36/1 35/35/1
f 94/94/1 36/36/1 95/95/1
f 94/94/1 37/37/1 36/36/1
f 93/93/1 37/37/1 94/94/1
f 92/92/1 37/37/1 93/93/1
f 92/92/1 38/38/1 37/37/1
f 91/91/1 38/38/1 92/92/1
f 90/90/1 38/38/1 91/91/1
f 90/90/1 39/39/1 38/38/1
f 89/89/1 39/39/1 90/90/1
f 89/89/1 40/40/1 39/39/1
f 88/88/1 40/40/1 89/89/1
f 87/87/1 40/40/1 88/88/1
f 87/87/1 41/41/1 40/40/1
f 86/86/1 41/41/1 87/87/1
f 85/85/1 41/41/1 86/86/1
f 85/85/1 42/42/1 41/41/1
f 84/84/1 42/42/1 85/85/1
f 83/83/1 42/42/1 84/84/1
f 82/82/1 42/42/1 83/83/1
f 82/82/1 43/43/1 42/42/1
f 81/81/1 43/43/1 82/82/1
f 80/80/1 43/43/1 81/81/1
f 51/51/1 80/80/1 106/106/1
f 51/51/1 43/43/1 80/80/1
f 51/51/1 44/44/1 43/43/1
f 51/51/1 45/45/1 44/44/1
f 51/51/1 46/46/1 45/45/1
f 51/51/1 47/47/1 46/46/1
f 51/51/1 48/48/1 47/47/1
f 51/51/1 49/49/1 48/48/1
f 51/51/1 50/50/1 49/49/1
f 157/157/2 158/158/2 184/184/2
f 184/184/2 158/158/2 107/107/2
f 184/184/2 107/107/2 108/108/2
f 184/184/2 108/108/2 109/109/2
f 184/184/2 109/109/2 110/110/2
f 184/184/2 110/110/2 111/111/2
f 184/184/2 111/111/2 112/112/2
f 184/184/2 112/112/2 113/113/2
f 184/184/2 113/113/2 114/114/2
f 184/184/2 114/114/2 183/183/2
f 183/183/2 114/114/2 115/115/2
f 157/157/2 184/184/2 185/185/2
f 182/182/2 183/183/2 115/115/2
f 181/181/2 182/182/2 115/115/2
f 181/181/2 115/115/2 116/116/2
f 180/180/2 181/181/2 116/116/2
f 179/179/2 180/180/2 116/116/2
f 178/178/2 179/179/2 116/116/2
f 177/177/2 178/178/2 116/116/2
f 177/177/2 116/116/2 117/117/2
f 176/176/2 177/177/2 117/117/2
f 175/175/2 176/176/2 117/117/2
f 175/175/2 117/117/2 118/118/2
f 174/174/2 175/175/2 118/118/2
f 173/173/2 174/174/2 118/118/2
f 173/173/2 118/118/2 119/119/2
f 172/172/2 173/173/2 119/119/2
f 171/171/2 172/172/2 119/119/2
f 171/171/2 119/119/2 120/120/2
f 170/170/2 171/171/2 120/120/2
f 170/170/2 120/120/2 121/121/2
f 169/169/2 170/170/2 121/121/2
f 169/169/2 121/121/2 122/122/2
f 168/168/2 169/169/2 122/122/2
f 168/168/2 122/122/2 123/123/2
f 167/167/2 168/168/2 123/123/2
f 167/167/2 123/123/2 124/124/2
f 166/166/2 167/167/2 124/124/2
f 166/166/2 124/124/2 125/125/2
f 165/165/2 166/166/2 125/125/2
f 165/165/2 125/125/2 126/126/2
f 164/164/2 165/165/2 126/126/2
f 163/163/2 164/164/2 126/126/2
f 163/163/2 126/126/2 127/127/2
f 162/162/2 163/163/2 127/127/2
f 162/162/2 127/127/2 128/128/2
f 161/161/2 162/162/2 128/128/2
f 160/160/2 161/161/2 128/128/2
f 159/159/2 160/160/2 128/128/2
f 157/157/2 185/185/2 211/211/2
f 211/211/2 185/185/2 159/159/2
f 211/211/2 159/159/2 128/128/2
f 211/211/2 128/128/2 129/129/2
f 211/211/2 129/129/2 130/130/2
f 211/211/2 130/130/2 131/131/2
f 211/211/2 131/131/2 132/132/2
f 211/211/2 132/132/2 133/133/2
f 211/211/2 133/133/2 134/134/2
f 211/211/2 134/134/2 135/135/2
f 211/211/2 135/135/2 136/136/2
f 211/211/2 136/136/2 137/137/2
f 211/211/2 137/137/2 210/210/2
f 210/210/2 137/137/2 138/138/2
f 157/157/2 211/211/2 212/212/2
f 209/209/2 210/210/2 138/138/2
f 208/208/2 209/209/2 138/138/2
f 207/207/2 208/208/2 138/138/2
f 207/207/2 138/138/2 139/139/2
f 206/206/2 207/207/2 139/139/2
f 205/205/2 206/206/2 139/139/2
f 205/205/2 139/139/2 140/140/2
f 204/204/2 205/205/2 140/140/2
f 203/203/2 204/204/2 140/140/2
f 203/203/2 140/140/2 141/141/2
f 202/202/2 203/203/2 141/141/2
f 201/201/2 202/202/2 141/141/2
f 201/201/2 141/141/2 142/142/2
f 200/200/2 201/201/2 142/142/2
f 200/200/2 142/142/2 143/143/2
f 199/199/2 200/200/2 143/143/2
f 198/198/2 199/199/2 143/143/2
f 198/198/2 143/143/2 144/144/2
f 197/197/2 198/198/2 144/144/2
f 196/196/2 197/197/2 144/144/2
f 196/196/2 144/144/2 145/145/2
f 195/195/2 196/196/2 145/145/2
f 195/195/2 145/145/2 146/146/2
f 194/194/2 195/195/2 146/146/2
f 193/193/2 194/194/2 146/146/2
f 193/193/2 146/146/2 147/147/2
f 192/192/2 193/193/2 147/147/2
f 191/191/2 192/192/2 147/147/2
f 191/191/2 147/147/2 148/148/2
f 190/190/2 191/191/2 148/148/2
f 189/189/2 190/190/2 148/148/2
f 188/188/2 189/189/2 148/148/2
f 188/188/2 148/148/2 149/149/2
f 187/187/2 188/188/2 149/149/2
f 186/186/2 187/187/2 149/149/2
f 157/157/2 212/212/2 186/186/2
f 157/157/2 186/186/2 149/149/2
f 157/157/2 149/149/2 150/150/2
f 157/157/2 150/150/2 151/151/2
f 157/157/2 151/151/2 152/152/2
f 157/157/2 152/152/2 153/153/2
f 157/157/2 153/153/2 154/154/2
f 157/157/2 154/154/2 155/155/2
f 157/157/2 155/155/2 156/156/2
s 1
f 216/218/3 213/213/4 214/215/4
f 218/220/5 215/217/3 216/218/3
f 220/222/6 217/219/5 218/220/5
f 222/224/7 219/221/6 220/222/6
f 224/226/8 221/223/7 222/224/7
f 226/228/9 223/225/8 224/226/8
f 228/230/10 225/227/9 226/228/9
f 230/232/11 227/229/10 228/230/10
f 232/234/12 229/231/11 230/232/11
f 234/236/13 231/233/12 232/234/12
f 236/238/14 233/235/13 234/236/13
f 238/240/15 235/237/14 236/238/14
f 240/242/16 237/239/15 238/240/15
f 242/244/17 239/241/16 240/242/16
f 244/246/18 241/243/17 242/244/17
f 246/248/19 243/245/18 244/246/18
f 248/250/20 245/247/19 246/248/19
f 250/252/21 247/249/20 248/250/20
f 252/254/22 249/251/21 250/252/21
f 254/256/23 251/253/22 252/254/22
f 256/258/24 253/255/23 254/256/23
f 258/260/25 255/257/24 256/258/24
f 260/262/26 257/259/25 258/260/25
f 262/264/27 259/261/26 260/262/26
f 264/266/28 261/263/27 262/264/27
f 266/268/29 263/265/28 264/266/28
f 268/270/30 265/267/29 266/268/29
f 270/272/31 267/269/30 268/270/30
f 272/274/32 269/271/31 270/272/31
f 274/276/33 271/273/32 272/274/32
f 276/278/34 273/275/33 274/276/33
f 278/280/35 275/277/34 276/278/34
f 280/282/36 277/279/35 278/280/35
f 282/284/37 279/281/36 280/282/36
f 284/286/38 281/283/37 282/284/37
f 286/288/39 283/285/38 284/286/38
f 288/290/40 285/287/39 286/288/39
f 290/292/41 287/289/40 288/290/40
f 292/294/42 289/291/41 290/292/41
f 294/296/43 291/293/42 292/294/42
f 296/298/44 293/295/43 294/296/43
f 298/300/45 295/297/44 296/298/44
f 300/302/46 297/299/45 298/300/45
f 302/304/47 299/301/46 300/302/46
f 304/306/48 301/303/47 302/304/47
f 306/308/49 303/305/48 304/306/48
f 308/310/50 305/307/49 306/308/49
f 310/312/51 307/309/50 308/310/50
f 312/314/52 309/311/51 310/312/51
f 314/316/53 311/313/52 312/314/52
f 316/318/54 313/315/53 314/316/53
f 214/216/4 315/317/54 316/318/54
f 320/324/55 317/319/56 318/321/56
f 322/326/57 319/323/55 320/324/55
f 324/328/58 321/325/57 322/326/57
f 326/330/59 323/327/58 324/328/58
f 328/332/60 325/329/59 326/330/59
f 330/334/61 327/331/60 328/332/60
f 332/336/62 329/333/61 330/334/61
f 334/338/63 331/335/62 332/336/62
f 336/340/64 333/337/63 334/338/63
f 338/342/65 335/339/64 336/340/64
f 340/344/66 337/341/65 338/342/65
f 342/346/67 339/343/66 340/344/66
f 344/348/68 341/345/67 342/346/67
f 346/350/69 343/347/68 344/348/68
f 348/352/70 345/349/69 346/350/69
f 350/354/71 347/351/70 348/352/70
f 352/356/72 349/353/71 350/354/71
f 354/358/73 351/355/72 352/356/72
f 356/360/74 353/357/73 354/358/73
f 358/362/75 355/359/74 356/360/74
f 360/364/76 357/361/75 358/362/75
f 362/366/77 359/363/76 360/364/76
f 364/368/78 361/365/77 362/366/77
f 366/370/79 363/367/78 364/368/78
f 368/372/80 365/369/79 366/370/79
f 370/374/81 367/371/80 368/372/80
f 318/322/56 369/373/81 370/374/81
f 374/380/82 371/375/83 372/377/83
f 376/382/84 373/379/82 374/380/82
f 378/384/85 375/381/84 376/382/84
f 380/386/86 377/383/85 378/384/85
f 382/388/87 379/385/86 380/386/86
f 384/390/88 381/387/87 382/388/87
f 386/392/89 383/389/88 384/390/88
f 388/394/90 385/391/89 386/392/89
f 390/396/91 387/393/90 388/394/90
f 392/398/92 389/395/91 390/396/91
f 394/400/93 391/397/92 392/398/92
f 396/402/94 393/399/93 394/400/93
f 398/404/95 395/401/94 396/402/94
f 400/406/96 397/403/95 398/404/95
f 402/408/97 399/405/96 400/406/96
f 404/410/98 401/407/97 402/408/97
f 406/412/99 403/409/98 404/410/98
f 408/414/100 405/411/99 406/412/99
f 410/416/101 407/413/100 408/414/100
f 412/418/102 409/415/101 410/416/101
f 414/420/103 411/417/102 412/418/102
f 416/422/104 413/419/103 414/420/103
f 418/424/105 415/421/104 416/422/104
f 420/426/106 417/423/105 418/424/105
f 422/428/80 419/425/106 420/426/106
f 424/430/81 421/427/80 422/428/80
f 372/378/83 423/429/81 424/430/81
f 216/218/3 215/217/3 213/213/4
f 218/220/5 217/219/5 215/217/3
f 220/222/6 219/221/6 217/219/5
f 222/224/7 221/223/7 219/221/6
f 224/226/8 223/225/8 221/223/7
f 226/228/9 225/227/9 223/225/8
f 228/230/10 227/229/10 225/227/9
f 230/232/11 229/231/11 227/229/10
f 232/234/12 231/233/12 229/231/11
f 234/236/13 233/235/13 231/233/12
f 236/238/14 235/237/14 233/235/13
f 238/240/15 237/239/15 235/237/14
f 240/242/16 239/241/16 237/239/15
f 242/244/17 241/243/17 239/241/16
f 244/246/18 243/245/18 241/243/17
f 246/248/19 245/247/19 243/245/18
f 248/250/20 247/249/20 245/247/19
f 250/252/21 249/251/21 247/249/20
f 252/254/22 251/253/22 249/251/21
f 254/256/23 253/255/23 251/253/22
f 256/258/24 255/257/24 253/255/23
f 258/260/25 257/259/25 255/257/24
f 260/262/26 259/261/26 257/259/25
f 262/264/27 261/263/27 259/261/26
f 264/266/28 263/265/28 261/263/27
f 266/268/29 265/267/29 263/265/28
f 268/270/30 267/269/30 265/267/29
f 270/272/31 269/271/31 267/269/30
f 272/274/32 271/273/32 269/271/31
f 274/276/33 273/275/33 271/273/32
f 276/278/34 275/277/34 273/275/33
f 278/280/35 277/279/35 275/277/34
f 280/282/36 279/281/36 277/279/35
f 282/284/37 281/283/37 279/281/36
f 284/286/38 283/285/38 281/283/37
f 286/288/39 285/287/39 283/285/38
f 288/290/40 287/289/40 285/287/39
f 290/292/41 289/291/41 287/289/40
f 292/294/42 291/293/42 289/291/41
f 294/296/43 293/295/43 291/293/42
f 296/298/44 295/297/44 293/295/43
f 298/300/45 297/299/45 295/297/44
f 300/302/46 299/301/46 297/299/45
f 302/304/47 301/303/47 299/301/46
f 304/306/48 303/305/48 301/303/47
f 306/308/49 305/307/49 303/305/48
f 308/310/50 307/309/50 305/307/49
f 310/312/51 309/311/51 307/309/50
f 312/314/52 311/313/52 309/311/51
f 314/316/53 313/315/53 311/313/52
f 316/318/54 315/317/54 313/315/53
f 214/216/4 213/214/4 315/317/54
f 320/324/55 319/323/55 317/319/56
f 322/326/57 321/325/57 319/323/55
f 324/328/58 323/327/58 321/325/57
f 326/330/59 325/329/59 323/327/58
f 328/332/60 327/331/60 325/329/59
f 330/334/61 329/333/61 327/331/60
f 332/336/62 331/335/62 329/333/61
f 334/338/63 333/337/63 331/335/62
f 336/340/64 335/339/64 333/337/63
f 338/342/65 337/341/65 335/339/64
f 340/344/66 339/343/66 337/341/65
f 342/346/67 341/345/67 339/343/66
f 344/348/68 343/347/68 341/345/67
f 346/350/69 345/349/69 343/347/68
f 348/352/70 347/351/70 345/349/69
f 350/354/71 349/353/71 347/351/70
f 352/356/72 351/355/72 349/353/71
f 354/358/73 353/357/73 351/355/72
f 356/360/74 355/359/74 353/357/73
f 358/362/75 357/361/75 355/359/74
f 360/364/76 359/363/76 357/361/75
f 362/366/77 361/365/77 359/363/76
f 364/368/78 363/367/78 361/365/77
f 366/370/79 365/369/79 363/367/78
f 368/372/80 367/371/80 365/369/79
f 370/374/81 369/373/81 367/371/80
f 318/322/56 317/320/56 369/373/81
f 374/380/82 373/379/82 371/375/83
f 376/382/84 375/381/84 373/379/82
f 378/384/85 377/383/85 375/381/84
f 380/386/86 379/385/86 377/383/85
f 382/388/87 381/387/87 379/385/86
f 384/390/88 383/389/88 381/387/87
f 386/392/89 385/391/89 383/389/88
f 388/394/90 387/393/90 385/391/89
f 390/396/91 389/395/91 387/393/90
f 392/398/92 391/397/92 389/395/91
f 394/400/93 393/399/93 391/397/92
f 396/402/94 395/401/94 393/399/93
f 398/404/95 397/403/95 395/401/94
f 400/406/96 399/405/96 397/403/95
f 402/408/97 401/407/97 399/405/96
f 404/410/98 403/409/98 401/407/97
f 406/412/99 405/411/99 403/409/98
f 408/414/100 407/413/100 405/411/99
f 410/416/101 409/415/101 407/413/100
f 412/418/102 411/417/102 409/415/101
f 414/420/103 413/419/103 411/417/102
f 416/422/104 415/421/104 413/419/103
f 418/424/105 417/423/105 415/421/104
f 420/426/106 419/425/106 417/423/105
f 422/428/80 421/427/80 419/425/106
f 424/430/81 423/429/81 421/427/80
f 372/378/83 371/376/83 423/429/81
