# Blender 3.2.2
# www.blender.org
o Letter_C
v 0.399627 0.285714 -0.286701
v 0.370589 0.285714 -0.301819
v 0.342076 0.285714 -0.315380
v 0.313995 0.285714 -0.327407
v 0.286251 0.285714 -0.337927
v 0.258750 0.285714 -0.346964
v 0.231398 0.285714 -0.354543
v 0.204101 0.285714 -0.360688
v 0.176763 0.285714 -0.365424
v 0.149292 0.285714 -0.368776
v 0.121593 0.285714 -0.370770
v 0.093571 0.285714 -0.371429
v 0.039110 0.285714 -0.368184
v -0.012593 0.285714 -0.358690
v -0.061161 0.285714 -0.343304
v -0.106217 0.285714 -0.322381
v -0.147384 0.285714 -0.296280
v -0.184286 0.285714 -0.265357
v -0.216544 0.285714 -0.229970
v -0.243783 0.285714 -0.190476
v -0.265625 0.285714 -0.147232
v -0.281693 0.285714 -0.100595
v -0.291610 0.285714 -0.050923
v -0.295000 0.285714 0.001429
v -0.291716 0.285714 0.054624
v -0.282064 0.285714 0.104729
v -0.266339 0.285714 0.151451
v -0.244841 0.285714 0.194497
v -0.217867 0.285714 0.233576
v -0.185714 0.285714 0.268393
v -0.148681 0.285714 0.298657
v -0.107064 0.285714 0.324074
v -0.061161 0.285714 0.344353
v -0.011270 0.285714 0.359200
v 0.042311 0.285714 0.368323
v 0.099286 0.285714 0.371429
v 0.126982 0.285714 0.370628
v 0.155026 0.285714 0.368241
v 0.183348 0.285714 0.364286
v 0.211878 0.285714 0.358783
v 0.240547 0.285714 0.351753
v 0.269286 0.285714 0.343214
v 0.298024 0.285714 0.333188
v 0.326693 0.285714 0.321693
v 0.355223 0.285714 0.308750
v 0.383545 0.285714 0.294378
v 0.411589 0.285714 0.278598
v 0.439286 0.285714 0.261429
v 0.439286 0.285714 0.414286
v 0.415155 0.285714 0.426476
v 0.390529 0.285714 0.437996
v 0.365268 0.285714 0.448772
v 0.339233 0.285714 0.458730
v 0.312285 0.285714 0.467795
v 0.284286 0.285714 0.475893
v 0.255096 0.285714 0.482949
v 0.224577 0.285714 0.488889
v 0.192589 0.285714 0.493638
v 0.158995 0.285714 0.497123
v 0.123654 0.285714 0.499268
v 0.086429 0.285714 0.500000
v -0.000741 0.285714 0.494345
v -0.079497 0.285714 0.478208
v -0.150000 0.285714 0.452835
v -0.212407 0.285714 0.419471
v -0.266878 0.285714 0.379361
v -0.313571 0.285714 0.333750
v -0.352645 0.285714 0.283883
v -0.384259 0.285714 0.231005
v -0.408571 0.285714 0.176362
v -0.425741 0.285714 0.121197
v -0.435926 0.285714 0.066757
v -0.439286 0.285714 0.014286
v -0.434693 0.285714 -0.058254
v -0.421237 0.285714 -0.126984
v -0.399397 0.285714 -0.191429
v -0.369656 0.285714 -0.251111
v -0.332494 0.285714 -0.305556
v -0.288393 0.285714 -0.354286
v -0.237833 0.285714 -0.396825
v -0.181296 0.285714 -0.432698
v -0.119263 0.285714 -0.461429
v -0.052216 0.285714 -0.482540
v 0.019366 0.285714 -0.495556
v 0.095000 0.285714 -0.500000
v 0.120047 0.285714 -0.499490
v 0.145258 0.285714 -0.497943
v 0.170737 0.285714 -0.495335
v 0.196587 0.285714 -0.491640
v 0.222914 0.285714 -0.486835
v 0.249821 0.285714 -0.480893
v 0.277413 0.285714 -0.473791
v 0.305794 0.285714 -0.465503
v 0.335067 0.285714 -0.456005
v 0.365337 0.285714 -0.445271
v 0.396709 0.285714 -0.433278
v 0.429286 0.285714 -0.420000
v 0.429286 0.285714 -0.270000
v 0.399627 -0.285714 -0.286701
v 0.370589 -0.285714 -0.301819
v 0.342076 -0.285714 -0.315380
v 0.313995 -0.285714 -0.327407
v 0.286251 -0.285714 -0.337927
v 0.258750 -0.285714 -0.346964
v 0.231398 -0.285714 -0.354543
v 0.204101 -0.285714 -0.360688
v 0.176763 -0.285714 -0.365424
v 0.149292 -0.285714 -0.368776
v 0.121593 -0.285714 -0.370770
v 0.093571 -0.285714 -0.371429
v 0.039110 -0.285714 -0.368184
v -0.012593 -0.285714 -0.358690
v -0.061161 -0.285714 -0.343304
v -0.106217 -0.285714 -0.322381
v -0.147384 -0.285714 -0.296280
v -0.184286 -0.285714 -0.265357
v -0.216544 -0.285714 -0.229970
v -0.243783 -0.285714 -0.190476
v -0.265625 -0.285714 -0.147232
v -0.281693 -0.285714 -0.100595
v -0.291610 -0.285714 -0.050923
v -0.295000 -0.285714 0.001429
v -0.291716 -0.285714 0.054624
v -0.282064 -0.285714 0.104729
v -0.266339 -0.285714 0.151451
v -0.244841 -0.285714 0.194497
v -0.217867 -0.285714 0.233576
v -0.185714 -0.285714 0.268393
v -0.148681 -0.285714 0.298657
v -0.107064 -0.285714 0.324074
v -0.061161 -0.285714 0.344353
v -0.011270 -0.285714 0.359200
v 0.042311 -0.285714 0.368323
v 0.099286 -0.285714 0.371429
v 0.126982 -0.285714 0.370628
v 0.155026 -0.285714 0.368241
v 0.183348 -0.285714 0.364286
v 0.211878 -0.285714 0.358783
v 0.240547 -0.285714 0.351753
v 0.269286 -0.285714 0.343214
v 0.298024 -0.285714 0.333188
v 0.326693 -0.285714 0.321693
v 0.355223 -0.285714 0.308750
v 0.383545 -0.285714 0.294378
v 0.411589 -0.285714 0.278598
v 0.439286 -0.285714 0.261429
v 0.439286 -0.285714 0.414286
v 0.415155 -0.285714 0.426476
v 0.390529 -0.285714 0.437996
v 0.365268 -0.285714 0.448772
v 0.339233 -0.285714 0.458730
v 0.312285 -0.285714 0.467795
v 0.284286 -0.285714 0.475893
v 0.255096 -0.285714 0.482949
v 0.224577 -0.285714 0.488889
v 0.192589 -0.285714 0.493638
v 0.158995 -0.285714 0.497123
v 0.123654 -0.285714 0.499268
v 0.086429 -0.285714 0.500000
v -0.000741 -0.285714 0.494345
v -0.079497 -0.285714 0.478208
v -0.150000 -0.285714 0.452835
v -0.212407 -0.285714 0.419471
v -0.266878 -0.285714 0.379361
v -0.313571 -0.285714 0.333750
v -0.352645 -0.285714 0.283883
v -0.384259 -0.285714 0.231005
v -0.408571 -0.285714 0.176362
v -0.425741 -0.285714 0.121197
v -0.435926 -0.285714 0.066757
v -0.439286 -0.285714 0.014286
v -0.434693 -0.285714 -0.058254
v -0.421237 -0.285714 -0.126984
v -0.399397 -0.285714 -0.191429
v -0.369656 -0.285714 -0.251111
v -0.332494 -0.285714 -0.305556
v -0.288393 -0.285714 -0.354286
v -0.237833 -0.285714 -0.396825
v -0.181296 -0.285714 -0.432698
v -0.119263 -0.285714 -0.461429
v -0.052216 -0.285714 -0.482540
v 0.019366 -0.285714 -0.495556
v 0.095000 -0.285714 -0.500000
v 0.120047 -0.285714 -0.499490
v 0.145258 -0.285714 -0.497943
v 0.170737 -0.285714 -0.495335
v 0.196587 -0.285714 -0.491640
v 0.222914 -0.285714 -0.486835
v 0.249821 -0.285714 -0.480893
v 0.277413 -0.285714 -0.473791
v 0.305794 -0.285714 -0.465503
v 0.335067 -0.285714 -0.456005
v 0.365337 -0.285714 -0.445271
v 0.396709 -0.285714 -0.433278
v 0.429286 -0.285714 -0.420000
v 0.429286 -0.285714 -0.270000
v 0.399627 -0.285714 -0.286701
v 0.399627 0.285714 -0.286701
v 0.370589 -0.285714 -0.301819
v 0.370589 0.285714 -0.301819
v 0.342076 -0.285714 -0.315380
v 0.342076 0.285714 -0.315380
v 0.313995 -0.285714 -0.327407
v 0.313995 0.285714 -0.327407
v 0.286251 -0.285714 -0.337927
v 0.286251 0.285714 -0.337927
v 0.258750 -0.285714 -0.346964
v 0.258750 0.285714 -0.346964
v 0.231398 -0.285714 -0.354543
v 0.231398 0.285714 -0.354543
v 0.204101 -0.285714 -0.360688
v 0.204101 0.285714 -0.360688
v 0.176763 -0.285714 -0.365424
v 0.176763 0.285714 -0.365424
v 0.149292 -0.285714 -0.368776
v 0.149292 0.285714 -0.368776
v 0.121593 -0.285714 -0.370770
v 0.121593 0.285714 -0.370770
v 0.093571 -0.285714 -0.371429
v 0.093571 0.285714 -0.371429
v 0.039110 -0.285714 -0.368184
v 0.039110 0.285714 -0.368184
v -0.012593 -0.285714 -0.358690
v -0.012593 0.285714 -0.358690
v -0.061161 -0.285714 -0.343304
v -0.061161 0.285714 -0.343304
v -0.106217 -0.285714 -0.322381
v -0.106217 0.285714 -0.322381
v -0.147384 -0.285714 -0.296280
v -0.147384 0.285714 -0.296280
v -0.184286 -0.285714 -0.265357
v -0.184286 0.285714 -0.265357
v -0.216544 -0.285714 -0.229970
v -0.216544 0.285714 -0.229970
v -0.243783 -0.285714 -0.190476
v -0.243783 0.285714 -0.190476
v -0.265625 -0.285714 -0.147232
v -0.265625 0.285714 -0.147232
v -0.281693 -0.285714 -0.100595
v -0.281693 0.285714 -0.100595
v -0.291610 -0.285714 -0.050923
v -0.291610 0.285714 -0.050923
v -0.295000 -0.285714 0.001429
v -0.295000 0.285714 0.001429
v -0.291716 -0.285714 0.054624
v -0.291716 0.285714 0.054624
v -0.282064 -0.285714 0.104729
v -0.282064 0.285714 0.104729
v -0.266339 -0.285714 0.151451
v -0.266339 0.285714 0.151451
v -0.244841 -0.285714 0.194497
v -0.244841 0.285714 0.194497
v -0.217867 -0.285714 0.233576
v -0.217867 0.285714 0.233576
v -0.185714 -0.285714 0.268393
v -0.185714 0.285714 0.268393
v -0.148681 -0.285714 0.298657
v -0.148681 0.285714 0.298657
v -0.107064 -0.285714 0.324074
v -0.107064 0.285714 0.324074
v -0.061161 -0.285714 0.344353
v -0.061161 0.285714 0.344353
v -0.011270 -0.285714 0.359200
v -0.011270 0.285714 0.359200
v 0.042311 -0.285714 0.368323
v 0.042311 0.285714 0.368323
v 0.099286 -0.285714 0.371429
v 0.099286 0.285714 0.371429
v 0.126982 -0.285714 0.370628
v 0.126982 0.285714 0.370628
v 0.155026 -0.285714 0.368241
v 0.155026 0.285714 0.368241
v 0.183348 -0.285714 0.364286
v 0.183348 0.285714 0.364286
v 0.211878 -0.285714 0.358783
v 0.211878 0.285714 0.358783
v 0.240547 -0.285714 0.351753
v 0.240547 0.285714 0.351753
v 0.269286 -0.285714 0.343214
v 0.269286 0.285714 0.343214
v 0.298024 -0.285714 0.333188
v 0.298024 0.285714 0.333188
v 0.326693 -0.285714 0.321693
v 0.326693 0.285714 0.321693
v 0.355223 -0.285714 0.308750
v 0.355223 0.285714 0.308750
v 0.383545 -0.285714 0.294378
v 0.383545 0.285714 0.294378
v 0.411589 -0.285714 0.278598
v 0.411589 0.285714 0.278598
v 0.439286 -0.285714 0.261429
v 0.439286 0.285714 0.261429
v 0.439286 -0.285714 0.414286
v 0.439286 0.285714 0.414286
v 0.415155 -0.285714 0.426476
v 0.415155 0.285714 0.426476
v 0.390529 -0.285714 0.437996
v 0.390529 0.285714 0.437996
v 0.365268 -0.285714 0.448772
v 0.365268 0.285714 0.448772
v 0.339233 -0.285714 0.458730
v 0.339233 0.285714 0.458730
v 0.312285 -0.285714 0.467795
v 0.312285 0.285714 0.467795
v 0.284286 -0.285714 0.475893
v 0.284286 0.285714 0.475893
v 0.255096 -0.285714 0.482949
v 0.255096 0.285714 0.482949
v 0.224577 -0.285714 0.488889
v 0.224577 0.285714 0.488889
v 0.192589 -0.285714 0.493638
v 0.192589 0.285714 0.493638
v 0.158995 -0.285714 0.497123
v 0.158995 0.285714 0.497123
v 0.123654 -0.285714 0.499268
v 0.123654 0.285714 0.499268
v 0.086429 -0.285714 0.500000
v 0.086429 0.285714 0.500000
v -0.000741 -0.285714 0.494345
v -0.000741 0.285714 0.494345
v -0.079497 -0.285714 0.478208
v -0.079497 0.285714 0.478208
v -0.150000 -0.285714 0.452835
v -0.150000 0.285714 0.452835
v -0.212407 -0.285714 0.419471
v -0.212407 0.285714 0.419471
v -0.266878 -0.285714 0.379361
v -0.266878 0.285714 0.379361
v -0.313571 -0.285714 0.333750
v -0.313571 0.285714 0.333750
v -0.352645 -0.285714 0.283883
v -0.352645 0.285714 0.283883
v -0.384259 -0.285714 0.231005
v -0.384259 0.285714 0.231005
v -0.408571 -0.285714 0.176362
v -0.408571 0.285714 0.176362
v -0.425741 -0.285714 0.121197
v -0.425741 0.285714 0.121197
v -0.435926 -0.285714 0.066757
v -0.435926 0.285714 0.066757
v -0.439286 -0.285714 0.014286
v -0.439286 0.285714 0.014286
v -0.434693 -0.285714 -0.058254
v -0.434693 0.285714 -0.058254
v -0.421237 -0.285714 -0.126984
v -0.421237 0.285714 -0.126984
v -0.399397 -0.285714 -0.191429
v -0.399397 0.285714 -0.191429
v -0.369656 -0.285714 -0.251111
v -0.369656 0.285714 -0.251111
v -0.332494 -0.285714 -0.305556
v -0.332494 0.285714 -0.305556
v -0.288393 -0.285714 -0.354286
v -0.288393 0.285714 -0.354286
v -0.237833 -0.285714 -0.396825
v -0.237833 0.285714 -0.396825
v -0.181296 -0.285714 -0.432698
v -0.181296 0.285714 -0.432698
v -0.119263 -0.285714 -0.461429
v -0.119263 0.285714 -0.461429
v -0.052216 -0.285714 -0.482540
v -0.052216 0.285714 -0.482540
v 0.019366 -0.285714 -0.495556
v 0.019366 0.285714 -0.495556
v 0.095000 -0.285714 -0.500000
v 0.095000 0.285714 -0.500000
v 0.120047 -0.285714 -0.499490
v 0.120047 0.285714 -0.499490
v 0.145258 -0.285714 -0.497943
v 0.145258 0.285714 -0.497943
v 0.170737 -0.285714 -0.495335
v 0.170737 0.285714 -0.495335
v 0.196587 -0.285714 -0.491640
v 0.196587 0.285714 -0.491640
v 0.222914 -0.285714 -0.486835
v 0.222914 0.285714 -0.486835
v 0.249821 -0.285714 -0.480893
v 0.249821 0.285714 -0.480893
v 0.277413 -0.285714 -0.473791
v 0.277413 0.285714 -0.473791
v 0.305794 -0.285714 -0.465503
v 0.305794 0.285714 -0.465503
v 0.335067 -0.285714 -0.456005
v 0.335067 0.285714 -0.456005
v 0.365337 -0.285714 -0.445271
v 0.365337 0.285714 -0.445271
v 0.396709 -0.285714 -0.433278
v 0.396709 0.285714 -0.433278
v 0.429286 -0.285714 -0.420000
v 0.429286 0.285714 -0.420000
v 0.429286 -0.285714 -0.270000
v 0.429286 0.285714 -0.270000
vn -0.0000 1.0000 -0.0000
vn -0.0000 -1.0000 -0.0000
vn -0.4457 -0.0000 0.8952
vn -0.4763 -0.0000 0.8793
vn -0.4117 -0.0000 0.9113
vn -0.3742 -0.0000 0.9273
vn -0.3334 -0.0000 0.9428
vn -0.2897 -0.0000 0.9571
vn -0.2434 -0.0000 0.9699
vn -0.1952 -0.0000 0.9808
vn -0.1460 -0.0000 0.9893
vn -0.0965 -0.0000 0.9953
vn -0.0477 -0.0000 0.9989
vn 0.0180 -0.0000 0.9998
vn 0.1203 -0.0000 0.9927
vn 0.2418 -0.0000 0.9703
vn 0.3623 -0.0000 0.9320
vn 0.4793 -0.0000 0.8776
vn 0.5902 -0.0000 0.8073
vn 0.6922 -0.0000 0.7217
vn 0.7829 -0.0000 0.6221
vn 0.8599 -0.0000 0.5105
vn 0.9212 -0.0000 0.3892
vn 0.9652 -0.0000 0.2614
vn 0.9915 -0.0000 0.1305
vn 1.0000 -0.0000 0.0015
vn 0.9921 -0.0000 -0.1257
vn 0.9670 -0.0000 -0.2546
vn 0.9234 -0.0000 -0.3838
vn 0.8609 -0.0000 -0.5087
vn 0.7808 -0.0000 -0.6248
vn 0.6854 -0.0000 -0.7282
vn 0.5784 -0.0000 -0.8158
vn 0.4637 -0.0000 -0.8860
vn 0.3454 -0.0000 -0.9385
vn 0.2269 -0.0000 -0.9739
vn 0.1113 -0.0000 -0.9938
vn 0.0128 -0.0000 -0.9999
vn -0.0569 -0.0000 -0.9984
vn -0.1116 -0.0000 -0.9938
vn -0.1639 -0.0000 -0.9865
vn -0.2138 -0.0000 -0.9769
vn -0.2616 -0.0000 -0.9652
vn -0.3072 -0.0000 -0.9516
vn -0.3509 -0.0000 -0.9364
vn -0.3927 -0.0000 -0.9196
vn -0.4329 -0.0000 -0.9014
vn -0.4716 -0.0000 -0.8818
vn -0.5088 -0.0000 -0.8609
vn 0.4864 -0.0000 -0.8738
vn 0.8517 -0.0000 0.5240
vn 0.4374 -0.0000 0.8993
vn 0.4081 -0.0000 0.9129
vn 0.3749 -0.0000 0.9271
vn 0.3381 -0.0000 0.9411
vn 0.2984 -0.0000 0.9544
vn 0.2565 -0.0000 0.9666
vn 0.2131 -0.0000 0.9770
vn 0.1690 -0.0000 0.9856
vn 0.1251 -0.0000 0.9922
vn 0.0819 -0.0000 0.9966
vn 0.0401 -0.0000 0.9992
vn -0.0226 -0.0000 0.9997
vn -0.1330 -0.0000 0.9911
vn -0.2704 -0.0000 0.9628
vn -0.4061 -0.0000 0.9138
vn -0.5336 -0.0000 0.8457
vn -0.6474 -0.0000 0.7621
vn -0.7446 -0.0000 0.6675
vn -0.8243 -0.0000 0.5661
vn -0.8876 -0.0000 0.4607
vn -0.9358 -0.0000 0.3524
vn -0.9705 -0.0000 0.2409
vn -0.9923 -0.0000 0.1241
vn -1.0000 -0.0000 0.0004
vn -0.9918 -0.0000 -0.1279
vn -0.9664 -0.0000 -0.2571
vn -0.9232 -0.0000 -0.3844
vn -0.8625 -0.0000 -0.5061
vn -0.7855 -0.0000 -0.6188
vn -0.6942 -0.0000 -0.7198
vn -0.5911 -0.0000 -0.8066
vn -0.4790 -0.0000 -0.8778
vn -0.3610 -0.0000 -0.9325
vn -0.2401 -0.0000 -0.9708
vn -0.1190 -0.0000 -0.9929
vn -0.0192 -0.0000 -0.9998
vn 0.0408 -0.0000 -0.9992
vn 0.0816 -0.0000 -0.9967
vn 0.1217 -0.0000 -0.9926
vn 0.1606 -0.0000 -0.9870
vn 0.1976 -0.0000 -0.9803
vn 0.2325 -0.0000 -0.9726
vn 0.2648 -0.0000 -0.9643
vn 0.2945 -0.0000 -0.9557
vn 0.3214 -0.0000 -0.9469
vn 0.3457 -0.0000 -0.9384
vn 0.3673 -0.0000 -0.9301
vn 0.8299 -0.0000 -0.5579
vn 0.5047 -0.0000 0.8633
vt 0.000000 0.000000
vt 0.010309 0.000000
vt 0.020619 0.000000
vt 0.030928 0.000000
vt 0.041237 0.000000
vt 0.051546 0.000000
vt 0.061856 0.000000
vt 0.072165 0.000000
vt 0.082474 0.000000
vt 0.092784 0.000000
vt 0.103093 0.000000
vt 0.113402 0.000000
vt 0.123711 0.000000
vt 0.134021 0.000000
vt 0.144330 0.000000
vt 0.154639 0.000000
vt 0.164948 0.000000
vt 0.175258 0.000000
vt 0.185567 0.000000
vt 0.195876 0.000000
vt 0.206186 0.000000
vt 0.216495 0.000000
vt 0.226804 0.000000
vt 0.237113 0.000000
vt 0.247423 0.000000
vt 0.257732 0.000000
vt 0.268041 0.000000
vt 0.278351 0.000000
vt 0.288660 0.000000
vt 0.298969 0.000000
vt 0.309278 0.000000
vt 0.319588 0.000000
vt 0.329897 0.000000
vt 0.340206 0.000000
vt 0.350515 0.000000
vt 0.360825 0.000000
vt 0.371134 0.000000
vt 0.381443 0.000000
vt 0.391753 0.000000
vt 0.402062 0.000000
vt 0.412371 0.000000
vt 0.422680 0.000000
vt 0.432990 0.000000
vt 0.443299 0.000000
vt 0.453608 0.000000
vt 0.463918 0.000000
vt 0.474227 0.000000
vt 0.484536 0.000000
vt 0.494845 0.000000
vt 0.505155 0.000000
vt 0.515464 0.000000
vt 0.525773 0.000000
vt 0.536082 0.000000
vt 0.546392 0.000000
vt 0.556701 0.000000
vt 0.567010 0.000000
vt 0.577320 0.000000
vt 0.587629 0.000000
vt 0.597938 0.000000
vt 0.608247 0.000000
vt 0.618557 0.000000
vt 0.628866 0.000000
vt 0.639175 0.000000
vt 0.649485 0.000000
vt 0.659794 0.000000
vt 0.670103 0.000000
vt 0.680412 0.000000
vt 0.690722 0.000000
vt 0.701031 0.000000
vt 0.711340 0.000000
vt 0.721649 0.000000
vt 0.731959 0.000000
vt 0.742268 0.000000
vt 0.752577 0.000000
vt 0.762887 0.000000
vt 0.773196 0.000000
vt 0.783505 0.000000
vt 0.793814 0.000000
vt 0.804124 0.000000
vt 0.814433 0.000000
vt 0.824742 0.000000
vt 0.835052 0.000000
vt 0.845361 0.000000
vt 0.855670 0.000000
vt 0.865979 0.000000
vt 0.876289 0.000000
vt 0.886598 0.000000
vt 0.896907 0.000000
vt 0.907216 0.000000
vt 0.917526 0.000000
vt 0.927835 0.000000
vt 0.938144 0.000000
vt 0.948454 0.000000
vt 0.958763 0.000000
vt 0.969072 0.000000
vt 0.979381 0.000000
vt 0.989691 0.000000
vt 1.000000 0.000000
vt 0.000000 0.000000
vt 0.010309 0.000000
vt 0.020619 0.000000
vt 0.030928 0.000000
vt 0.041237 0.000000
vt 0.051546 0.000000
vt 0.061856 0.000000
vt 0.072165 0.000000
vt 0.082474 0.000000
vt 0.092784 0.000000
vt 0.103093 0.000000
vt 0.113402 0.000000
vt 0.123711 0.000000
vt 0.134021 0.000000
vt 0.144330 0.000000
vt 0.154639 0.000000
vt 0.164948 0.000000
vt 0.175258 0.000000
vt 0.185567 0.000000
vt 0.195876 0.000000
vt 0.206186 0.000000
vt 0.216495 0.000000
vt 0.226804 0.000000
vt 0.237113 0.000000
vt 0.247423 0.000000
vt 0.257732 0.000000
vt 0.268041 0.000000
vt 0.278351 0.000000
vt 0.288660 0.000000
vt 0.298969 0.000000
vt 0.309278 0.000000
vt 0.319588 0.000000
vt 0.329897 0.000000
vt 0.340206 0.000000
vt 0.350515 0.000000
vt 0.360825 0.000000
vt 0.371134 0.000000
vt 0.381443 0.000000
vt 0.391753 0.000000
vt 0.402062 0.000000
vt 0.412371 0.000000
vt 0.422680 0.000000
vt 0.432990 0.000000
vt 0.443299 0.000000
vt 0.453608 0.000000
vt 0.463918 0.000000
vt 0.474227 0.000000
vt 0.484536 0.000000
vt 0.494845 0.000000
vt 0.505155 0.000000
vt 0.515464 0.000000
vt 0.525773 0.000000
vt 0.536082 0.000000
vt 0.546392 0.000000
vt 0.556701 0.000000
vt 0.567010 0.000000
vt 0.577320 0.000000
vt 0.587629 0.000000
vt 0.597938 0.000000
vt 0.608247 0.000000
vt 0.618557 0.000000
vt 0.628866 0.000000
vt 0.639175 0.000000
vt 0.649485 0.000000
vt 0.659794 0.000000
vt 0.670103 0.000000
vt 0.680412 0.000000
vt 0.690722 0.000000
vt 0.701031 0.000000
vt 0.711340 0.000000
vt 0.721649 0.000000
vt 0.731959 0.000000
vt 0.742268 0.000000
vt 0.752577 0.000000
vt 0.762887 0.000000
vt 0.773196 0.000000
vt 0.783505 0.000000
vt 0.793814 0.000000
vt 0.804124 0.000000
vt 0.814433 0.000000
vt 0.824742 0.000000
vt 0.835052 0.000000
vt 0.845361 0.000000
vt 0.855670 0.000000
vt 0.865979 0.000000
vt 0.876289 0.000000
vt 0.886598 0.000000
vt 0.896907 0.000000
vt 0.907216 0.000000
vt 0.917526 0.000000
vt 0.927835 0.000000
vt 0.938144 0.000000
vt 0.948454 0.000000
vt 0.958763 0.000000
vt 0.969072 0.000000
vt 0.979381 0.000000
vt 0.989691 0.000000
vt 1.000000 0.000000
vt 0.000000 0.000000
vt 1.000000 0.000000
vt 0.000000 1.000000
vt 1.000000 1.000000
vt 0.010204 0.000000
vt 0.010204 1.000000
vt 0.020408 0.000000
vt 0.020408 1.000000
vt 0.030612 0.000000
vt 0.030612 1.000000
vt 0.040816 0.000000
vt 0.040816 1.000000
vt 0.051020 0.000000
vt 0.051020 1.000000
vt 0.061224 0.000000
vt 0.061224 1.000000
vt 0.071429 0.000000
vt 0.071429 1.000000
vt 0.081633 0.000000
vt 0.081633 1.000000
vt 0.091837 0.000000
vt 0.091837 1.000000
vt 0.102041 0.000000
vt 0.102041 1.000000
vt 0.112245 0.000000
vt 0.112245 1.000000
vt 0.122449 0.000000
vt 0.122449 1.000000
vt 0.132653 0.000000
vt 0.132653 1.000000
vt 0.142857 0.000000
vt 0.142857 1.000000
vt 0.153061 0.000000
vt 0.153061 1.000000
vt 0.163265 0.000000
vt 0.163265 1.000000
vt 0.173469 0.000000
vt 0.173469 1.000000
vt 0.183673 0.000000
vt 0.183673 1.000000
vt 0.193878 0.000000
vt 0.193878 1.000000
vt 0.204082 0.000000
vt 0.204082 1.000000
vt 0.214286 0.000000
vt 0.214286 1.000000
vt 0.224490 0.000000
vt 0.224490 1.000000
vt 0.234694 0.000000
vt 0.234694 1.000000
vt 0.244898 0.000000
vt 0.244898 1.000000
vt 0.255102 0.000000
vt 0.255102 1.000000
vt 0.265306 0.000000
vt 0.265306 1.000000
vt 0.275510 0.000000
vt 0.275510 1.000000
vt 0.285714 0.000000
vt 0.285714 1.000000
vt 0.295918 0.000000
vt 0.295918 1.000000
vt 0.306122 0.000000
vt 0.306122 1.000000
vt 0.316327 0.000000
vt 0.316327 1.000000
vt 0.326531 0.000000
vt 0.326531 1.000000
vt 0.336735 0.000000
vt 0.336735 1.000000
vt 0.346939 0.000000
vt 0.346939 1.000000
vt 0.357143 0.000000
vt 0.357143 1.000000
vt 0.367347 0.000000
vt 0.367347 1.000000
vt 0.377551 0.000000
vt 0.377551 1.000000
vt 0.387755 0.000000
vt 0.387755 1.000000
vt 0.397959 0.000000
vt 0.397959 1.000000
vt 0.408163 0.000000
vt 0.408163 1.000000
vt 0.418367 0.000000
vt 0.418367 1.000000
vt 0.428571 0.000000
vt 0.428571 1.000000
vt 0.438776 0.000000
vt 0.438776 1.000000
vt 0.448980 0.000000
vt 0.448980 1.000000
vt 0.459184 0.000000
vt 0.459184 1.000000
vt 0.469388 0.000000
vt 0.469388 1.000000
vt 0.479592 0.000000
vt 0.479592 1.000000
vt 0.489796 0.000000
vt 0.489796 1.000000
vt 0.500000 0.000000
vt 0.500000 1.000000
vt 0.510204 0.000000
vt 0.510204 1.000000
vt 0.520408 0.000000
vt 0.520408 1.000000
vt 0.530612 0.000000
vt 0.530612 1.000000
vt 0.540816 0.000000
vt 0.540816 1.000000
vt 0.551020 0.000000
vt 0.551020 1.000000
vt 0.561224 0.000000
vt 0.561224 1.000000
vt 0.571429 0.000000
vt 0.571429 1.000000
vt 0.581633 0.000000
vt 0.581633 1.000000
vt 0.591837 0.000000
vt 0.591837 1.000000
vt 0.602041 0.000000
vt 0.602041 1.000000
vt 0.612245 0.000000
vt 0.612245 1.000000
vt 0.622449 0.000000
vt 0.622449 1.000000
vt 0.632653 0.000000
vt 0.632653 1.000000
vt 0.642857 0.000000
vt 0.642857 1.000000
vt 0.653061 0.000000
vt 0.653061 1.000000
vt 0.663265 0.000000
vt 0.663265 1.000000
vt 0.673469 0.000000
vt 0.673469 1.000000
vt 0.683673 0.000000
vt 0.683673 1.000000
vt 0.693878 0.000000
vt 0.693878 1.000000
vt 0.704082 0.000000
vt 0.704082 1.000000
vt 0.714286 0.000000
vt 0.714286 1.000000
vt 0.724490 0.000000
vt 0.724490 1.000000
vt 0.734694 0.000000
vt 0.734694 1.000000
vt 0.744898 0.000000
vt 0.744898 1.000000
vt 0.755102 0.000000
vt 0.755102 1.000000
vt 0.765306 0.000000
vt 0.765306 1.000000
vt 0.775510 0.000000
vt 0.775510 1.000000
vt 0.785714 0.000000
vt 0.785714 1.000000
vt 0.795918 0.000000
vt 0.795918 1.000000
vt 0.806122 0.000000
vt 0.806122 1.000000
vt 0.816327 0.000000
vt 0.816327 1.000000
vt 0.826531 0.000000
vt 0.826531 1.000000
vt 0.836735 0.000000
vt 0.836735 1.000000
vt 0.846939 0.000000
vt 0.846939 1.000000
vt 0.857143 0.000000
vt 0.857143 1.000000
vt 0.867347 0.000000
vt 0.867347 1.000000
vt 0.877551 0.000000
vt 0.877551 1.000000
vt 0.887755 0.000000
vt 0.887755 1.000000
vt 0.897959 0.000000
vt 0.897959 1.000000
vt 0.908163 0.000000
vt 0.908163 1.000000
vt 0.918367 0.000000
vt 0.918367 1.000000
vt 0.928571 0.000000
vt 0.928571 1.000000
vt 0.938776 0.000000
vt 0.938776 1.000000
vt 0.948980 0.000000
vt 0.948980 1.000000
vt 0.959184 0.000000
vt 0.959184 1.000000
vt 0.969388 0.000000
vt 0.969388 1.000000
vt 0.979592 0.000000
vt 0.979592 1.000000
vt 0.989796 0.000000
vt 0.989796 1.000000
s 0
f 84/84/1 86/86/1 85/85/1
f 84/84/1 87/87/1 86/86/1
f 84/84/1 88/88/1 87/87/1
f 83/83/1 88/88/1 84/84/1
f 83/83/1 89/89/1 88/88/1
f 83/83/1 90/90/1 89/89/1
f 83/83/1 91/91/1 90/90/1
f 82/82/1 91/91/1 83/83/1
f 82/82/1 92/92/1 91/91/1
f 82/82/1 93/93/1 92/92/1
f 82/82/1 94/94/1 93/93/1
f 81/81/1 94/94/1 82/82/1
f 81/81/1 95/95/1 94/94/1
f 81/81/1 96/96/1 95/95/1
f 81/81/1 97/97/1 96/96/1
f 80/80/1 97/97/1 81/81/1
f 80/80/1 10/10/1 97/97/1
f 10/10/1 9/9/1 97/97/1
f 9/9/1 8/8/1 97/97/1
f 8/8/1 7/7/1 97/97/1
f 7/7/1 6/6/1 97/97/1
f 6/6/1 5/5/1 97/97/1
f 5/5/1 4/4/1 97/97/1
f 4/4/1 3/3/1 97/97/1
f 3/3/1 2/2/1 97/97/1
f 2/2/1 1/1/1 97/97/1
f 1/1/1 98/98/1 97/97/1
f 79/79/1 12/12/1 80/80/1
f 12/12/1 11/11/1 80/80/1
f 11/11/1 10/10/1 80/80/1
f 79/79/1 13/13/1 12/12/1
f 79/79/1 14/14/1 13/13/1
f 79/79/1 15/15/1 14/14/1
f 78/78/1 15/15/1 79/79/1
f 78/78/1 16/16/1 15/15/1
f 78/78/1 17/17/1 16/16/1
f 77/77/1 17/17/1 78/78/1
f 77/77/1 18/18/1 17/17/1
f 77/77/1 19/19/1 18/18/1
f 76/76/1 19/19/1 77/77/1
f 76/76/1 20/20/1 19/19/1
f 75/75/1 20/20/1 76/76/1
f 75/75/1 21/21/1 20/20/1
f 75/75/1 22/22/1 21/21/1
f 74/74/1 22/22/1 75/75/1
f 74/74/1 23/23/1 22/22/1
f 73/73/1 23/23/1 74/74/1
f 73/73/1 24/24/1 23/23/1
f 73/73/1 25/25/1 24/24/1
f 72/72/1 25/25/1 73/73/1
f 72/72/1 26/26/1 25/25/1
f 71/71/1 26/26/1 72/72/1
f 71/71/1 27/27/1 26/26/1
f 70/70/1 27/27/1 71/71/1
f 70/70/1 28/28/1 27/27/1
f 69/69/1 28/28/1 70/70/1
f 69/69/1 29/29/1 28/28/1
f 68/68/1 29/29/1 69/69/1
f 68/68/1 30/30/1 29/29/1
f 47/47/1 49/49/1 48/48/1
f 68/68/1 31/31/1 30/30/1
f 46/46/1 49/49/1 47/47/1
f 67/67/1 31/31/1 68/68/1
f 45/45/1 49/49/1 46/46/1
f 67/67/1 32/32/1 31/31/1
f 44/44/1 49/49/1 45/45/1
f 43/43/1 49/49/1 44/44/1
f 67/67/1 33/33/1 32/32/1
f 42/42/1 49/49/1 43/43/1
f 66/66/1 33/33/1 67/67/1
f 41/41/1 49/49/1 42/42/1
f 66/66/1 34/34/1 33/33/1
f 40/40/1 49/49/1 41/41/1
f 39/39/1 49/49/1 40/40/1
f 66/66/1 35/35/1 34/34/1
f 38/38/1 49/49/1 39/39/1
f 37/37/1 49/49/1 38/38/1
f 66/66/1 36/36/1 35/35/1
f 36/36/1 49/49/1 37/37/1
f 66/66/1 49/49/1 36/36/1
f 65/65/1 49/49/1 66/66/1
f 65/65/1 50/50/1 49/49/1
f 64/64/1 50/50/1 65/65/1
f 64/64/1 51/51/1 50/50/1
f 64/64/1 52/52/1 51/51/1
f 64/64/1 53/53/1 52/52/1
f 63/63/1 53/53/1 64/64/1
f 63/63/1 54/54/1 53/53/1
f 63/63/1 55/55/1 54/54/1
f 63/63/1 56/56/1 55/55/1
f 62/62/1 56/56/1 63/63/1
f 62/62/1 57/57/1 56/56/1
f 62/62/1 58/58/1 57/57/1
f 62/62/1 59/59/1 58/58/1
f 61/61/1 59/59/1 62/62/1
f 61/61/1 60/60/1 59/59/1
f 182/182/2 183/183/2 184/184/2
f 182/182/2 184/184/2 185/185/2
f 182/182/2 185/185/2 186/186/2
f 181/181/2 182/182/2 186/186/2
f 181/181/2 186/186/2 187/187/2
f 181/181/2 187/187/2 188/188/2
f 181/181/2 188/188/2 189/189/2
f 180/180/2 181/181/2 189/189/2
f 180/180/2 189/189/2 190/190/2
f 180/180/2 190/190/2 191/191/2
f 180/180/2 191/191/2 192/192/2
f 179/179/2 180/180/2 192/192/2
f 179/179/2 192/192/2 193/193/2
f 179/179/2 193/193/2 194/194/2
f 179/179/2 194/194/2 195/195/2
f 178/178/2 179/179/2 195/195/2
f 178/178/2 195/195/2 108/108/2
f 108/108/2 195/195/2 107/107/2
f 107/107/2 195/195/2 106/106/2
f 106/106/2 195/195/2 105/105/2
f 105/105/2 195/195/2 104/104/2
f 104/104/2 195/195/2 103/103/2
f 103/103/2 195/195/2 102/102/2
f 102/102/2 195/195/2 101/101/2
f 101/101/2 195/195/2 100/100/2
f 100/100/2 195/195/2 99/99/2
f 99/99/2 195/195/2 196/196/2
f 177/177/2 178/178/2 110/110/2
f 110/110/2 178/178/2 109/109/2
f 109/109/2 178/178/2 108/108/2
f 177/177/2 110/110/2 111/111/2
f 177/177/2 111/111/2 112/112/2
f 177/177/2 112/112/2 113/113/2
f 176/176/2 177/177/2 113/113/2
f 176/176/2 113/113/2 114/114/2
f 176/176/2 114/114/2 115/115/2
f 175/175/2 176/176/2 115/115/2
f 175/175/2 115/115/2 116/116/2
f 175/175/2 116/116/2 117/117/2
f 174/174/2 175/175/2 117/117/2
f 174/174/2 117/117/2 118/118/2
f 173/173/2 174/174/2 118/118/2
f 173/173/2 118/118/2 119/119/2
f 173/173/2 119/119/2 120/120/2
f 172/172/2 173/173/2 120/120/2
f 172/172/2 120/120/2 121/121/2
f 171/171/2 172/172/2 121/121/2
f 171/171/2 121/121/2 122/122/2
f 171/171/2 122/122/2 123/123/2
f 170/170/2 171/171/2 123/123/2
f 170/170/2 123/123/2 124/124/2
f 169/169/2 170/170/2 124/124/2
f 169/169/2 124/124/2 125/125/2
f 168/168/2 169/169/2 125/125/2
f 168/168/2 125/125/2 126/126/2
f 167/167/2 168/168/2 126/126/2
f 167/167/2 126/126/2 127/127/2
f 166/166/2 167/167/2 127/127/2
f 166/166/2 127/127/2 128/128/2
f 145/145/2 146/146/2 147/147/2
f 166/166/2 128/128/2 129/129/2
f 144/144/2 145/145/2 147/147/2
f 165/165/2 166/166/2 129/129/2
f 143/143/2 144/144/2 147/147/2
f 165/165/2 129/129/2 130/130/2
f 142/142/2 143/143/2 147/147/2
f 141/141/2 142/142/2 147/147/2
f 165/165/2 130/130/2 131/131/2
f 140/140/2 141/141/2 147/147/2
f 164/164/2 165/165/2 131/131/2
f 139/139/2 140/140/2 147/147/2
f 164/164/2 131/131/2 132/132/2
f 138/138/2 139/139/2 147/147/2
f 137/137/2 138/138/2 147/147/2
f 164/164/2 132/132/2 133/133/2
f 136/136/2 137/137/2 147/147/2
f 135/135/2 136/136/2 147/147/2
f 164/164/2 133/133/2 134/134/2
f 134/134/2 135/135/2 147/147/2
f 164/164/2 134/134/2 147/147/2
f 163/163/2 164/164/2 147/147/2
f 163/163/2 147/147/2 148/148/2
f 162/162/2 163/163/2 148/148/2
f 162/162/2 148/148/2 149/149/2
f 162/162/2 149/149/2 150/150/2
f 162/162/2 150/150/2 151/151/2
f 161/161/2 162/162/2 151/151/2
f 161/161/2 151/151/2 152/152/2
f 161/161/2 152/152/2 153/153/2
f 161/161/2 153/153/2 154/154/2
f 160/160/2 161/161/2 154/154/2
f 160/160/2 154/154/2 155/155/2
f 160/160/2 155/155/2 156/156/2
f 160/160/2 156/156/2 157/157/2
f 159/159/2 160/160/2 157/157/2
f 159/159/2 157/157/2 158/158/2
s 1
f 200/202/3 197/197/4 198/199/4
f 202/204/5 199/201/3 200/202/3
f 204/206/6 201/203/5 202/204/5
f 206/208/7 203/205/6 204/206/6
f 208/210/8 205/207/7 206/208/7
f 210/212/9 207/209/8 208/210/8
f 212/214/10 209/211/9 210/212/9
f 214/216/11 211/213/10 212/214/10
f 216/218/12 213/215/11 214/216/11
f 218/220/13 215/217/12 216/218/12
f 220/222/14 217/219/13 218/220/13
f 222/224/15 219/221/14 220/222/14
f 224/226/16 221/223/15 222/224/15
f 226/228/17 223/225/16 224/226/16
f 228/230/18 225/227/17 226/228/17
f 230/232/19 227/229/18 228/230/18
f 232/234/20 229/231/19 230/232/19
f 234/236/21 231/233/20 232/234/20
f 236/238/22 233/235/21 234/236/21
f 238/240/23 235/237/22 236/238/22
f 240/242/24 237/239/23 238/240/23
f 242/244/25 239/241/24 240/242/24
f 244/246/26 241/243/25 242/244/25
f 246/248/27 243/245/26 244/246/26
f 248/250/28 245/247/27 246/248/27
f 250/252/29 247/249/28 248/250/28
f 252/254/30 249/251/29 250/252/29
f 254/256/31 251/253/30 252/254/30
f 256/258/32 253/255/31 254/256/31
f 258/260/33 255/257/32 256/258/32
f 260/262/34 257/259/33 258/260/33
f 262/264/35 259/261/34 260/262/34
f 264/266/36 261/263/35 262/264/35
f 266/268/37 263/265/36 264/266/36
f 268/270/38 265/267/37 266/268/37
f 270/272/39 267/269/38 268/270/38
f 272/274/40 269/271/39 270/272/39
f 274/276/41 271/273/40 272/274/40
f 276/278/42 273/275/41 274/276/41
f 278/280/43 275/277/42 276/278/42
f 280/282/44 277/279/43 278/280/43
f 282/284/45 279/281/44 280/282/44
f 284/286/46 281/283/45 282/284/45
f 286/288/47 283/285/46 284/286/46
f 288/290/48 285/287/47 286/288/47
f 290/292/49 287/289/48 288/290/48
f 292/294/50 289/291/49 290/292/49
f 294/296/51 291/293/50 292/294/50
f 296/298/52 293/295/51 294/296/51
f 298/300/53 295/297/52 296/298/52
f 300/302/54 297/299/53 298/300/53
f 302/304/55 299/301/54 300/302/54
f 304/306/56 301/303/55 302/304/55
f 306/308/57 303/305/56 304/306/56
f 308/310/58 305/307/57 306/308/57
f 310/312/59 307/309/58 308/310/58
f 312/314/60 309/311/59 310/312/59
f 314/316/61 311/313/60 312/314/60
f 316/318/62 313/315/61 314/316/61
f 318/320/63 315/317/62 316/318/62
f 320/322/64 317/319/63 318/320/63
f 322/324/65 319/321/64 320/322/64
f 324/326/66 321/323/65 322/324/65
f 326/328/67 323/325/66 324/326/66
f 328/330/68 325/327/67 326/328/67
f 330/332/69 327/329/68 328/330/68
f 332/334/70 329/331/69 330/332/69
f 334/336/71 331/333/70 332/334/70
f 336/338/72 333/335/71 334/336/71
f 338/340/73 335/337/72 336/338/72
f 340/342/74 337/339/73 338/340/73
f 342/344/75 339/341/74 340/342/74
f 344/346/76 341/343/75 342/344/75
f 346/348/77 343/345/76 344/346/76
f 348/350/78 345/347/77 346/348/77
f 350/352/79 347/349/78 348/350/78
f 352/354/80 349/351/79 350/352/79
f 354/356/81 351/353/80 352/354/80
f 356/358/82 353/355/81 354/356/81
f 358/360/83 355/357/82 356/358/82
f 360/362/84 357/359/83 358/360/83
f 362/364/85 359/361/84 360/362/84
f 364/366/86 361/363/85 362/364/85
f 366/368/87 363/365/86 364/366/86
f 368/370/88 365/367/87 366/368/87
f 370/372/89 367/369/88 368/370/88
f 372/374/90 369/371/89 370/372/89
f 374/376/91 371/373/90 372/374/90
f 376/378/92 373/375/91 374/376/91
f 378/380/93 375/377/92 376/378/92
f 380/382/94 377/379/93 378/380/93
f 382/384/95 379/381/94 380/382/94
f 384/386/96 381/383/95 382/384/95
f 386/388/97 383/385/96 384/386/96
f 388/390/98 385/387/97 386/388/97
f 390/392/99 387/389/98 388/390/98
f 392/394/100 389/391/99 390/392/99
f 198/200/4 391/393/100 392/394/100
f 200/202/3 199/201/3 197/197/4
f 202/204/5 201/203/5 199/201/3
f 204/206/6 203/205/6 201/203/5
f 206/208/7 205/207/7 203/205/6
f 208/210/8 207/209/8 205/207/7
f 210/212/9 209/211/9 207/209/8
f 212/214/10 211/213/10 209/211/9
f 214/216/11 213/215/11 211/213/10
f 216/218/12 215/217/12 213/215/11
f 218/220/13 217/219/13 215/217/12
f 220/222/14 219/221/14 217/219/13
f 222/224/15 221/223/15 219/221/14
f 224/226/16 223/225/16 221/223/15
f 226/228/17 225/227/17 223/225/16
f 228/230/18 227/229/18 225/227/17
f 230/232/19 229/231/19 227/229/18
f 232/234/20 231/233/20 229/231/19
f 234/236/21 233/235/21 231/233/20
f 236/238/22 235/237/22 233/235/21
f 238/240/23 237/239/23 235/237/22
f 240/242/24 239/241/24 237/239/23
f 242/244/25 241/243/25 239/241/24
f 244/246/26 243/245/26 241/243/25
f 246/248/27 245/247/27 243/245/26
f 248/250/28 247/249/28 245/247/27
f 250/252/29 249/251/29 247/249/28
f 252/254/30 251/253/30 249/251/29
f 254/256/31 253/255/31 251/253/30
f 256/258/32 255/257/32 253/255/31
f 258/260/33 257/259/33 255/257/32
f 260/262/34 259/261/34 257/259/33
f 262/264/35 261/263/35 259/261/34
f 264/266/36 263/265/36 261/263/35
f 266/268/37 265/267/37 263/265/36
f 268/270/38 267/269/38 265/267/37
f 270/272/39 269/271/39 267/269/38
f 272/274/40 271/273/40 269/271/39
f 274/276/41 273/275/41 271/273/40
f 276/278/42 275/277/42 273/275/41
f 278/280/43 277/279/43 275/277/42
f 280/282/44 279/281/44 277/279/43
f 282/284/45 281/283/45 279/281/44
f 284/286/46 283/285/46 281/283/45
f 286/288/47 285/287/47 283/285/46
f 288/290/48 287/289/48 285/287/47
f 290/292/49 289/291/49 287/289/48
f 292/294/50 291/293/50 289/291/49
f 294/296/51 293/295/51 291/293/50
f 296/298/52 295/297/52 293/295/51
f 298/300/53 297/299/53 295/297/52
f 300/302/54 299/301/54 297/299/53
f 302/304/55 301/303/55 299/301/54
f 304/306/56 303/305/56 301/303/55
f 306/308/57 305/307/57 303/305/56
f 308/310/58 307/309/58 305/307/57
f 310/312/59 309/311/59 307/309/58
f 312/314/60 311/313/60 309/311/59
f 314/316/61 313/315/61 311/313/60
f 316/318/62 315/317/62 313/315/61
f 318/320/63 317/319/63 315/317/62
f 320/322/64 319/321/64 317/319/63
f 322/324/65 321/323/65 319/321/64
f 324/326/66 323/325/66 321/323/65
f 326/328/67 325/327/67 323/325/66
f 328/330/68 327/329/68 325/327/67
f 330/332/69 329/331/69 327/329/68
f 332/334/70 331/333/70 329/331/69
f 334/336/71 333/335/71 331/333/70
f 336/338/72 335/337/72 333/335/71
f 338/340/73 337/339/73 335/337/72
f 340/342/74 339/341/74 337/339/73
f 342/344/75 341/343/75 339/341/74
f 344/346/76 343/345/76 341/343/75
f 346/348/77 345/347/77 343/345/76
f 348/350/78 347/349/78 345/347/77
f 350/352/79 349/351/79 347/349/78
f 352/354/80 351/353/80 349/351/79
f 354/356/81 353/355/81 351/353/80
f 356/358/82 355/357/82 353/355/81
f 358/360/83 357/359/83 355/357/82
f 360/362/84 359/361/84 357/359/83
f 362/364/85 361/363/85 359/361/84
f 364/366/86 363/365/86 361/363/85
f 366/368/87 365/367/87 363/365/86
f 368/370/88 367/369/88 365/367/87
f 370/372/89 369/371/89 367/369/88
f 372/374/90 371/373/90 369/371/89
f 374/376/91 373/375/91 371/373/90
f 376/378/92 375/377/92 373/375/91
f 378/380/93 377/379/93 375/377/92
f 380/382/94 379/381/94 377/379/93
f 382/384/95 381/383/95 379/381/94
f 384/386/96 383/385/96 381/383/95
f 386/388/97 385/387/97 383/385/96
f 388/390/98 387/389/98 385/387/97
f 390/392/99 389/391/99 387/389/98
f 392/394/100 391/393/100 389/391/99
f 198/200/4 197/198/4 391/393/100
