# Blender 3.2.2
# www.blender.org
o Letter_D
v -0.071848 0.293255 -0.500000
v 0.016246 0.293255 -0.494670
v 0.095878 0.293255 -0.479357
v 0.167201 0.293255 -0.455072
v 0.230368 0.293255 -0.422830
v 0.285532 0.293255 -0.383644
v 0.332845 0.293255 -0.338526
v 0.372460 0.293255 -0.288491
v 0.404529 0.293255 -0.234550
v 0.429206 0.293255 -0.177717
v 0.446644 0.293255 -0.119006
v 0.456994 0.293255 -0.059429
v 0.460411 0.293255 -0.000000
v 0.456267 0.293255 0.063741
v 0.444003 0.293255 0.126134
v 0.423868 0.293255 0.186377
v 0.396112 0.293255 0.243673
v 0.360983 0.293255 0.297222
v 0.318732 0.293255 0.346224
v 0.269607 0.293255 0.389881
v 0.213859 0.293255 0.427392
v 0.151737 0.293255 0.457959
v 0.083489 0.293255 0.480782
v 0.009367 0.293255 0.495062
v -0.070381 0.293255 0.500000
v -0.460411 0.293255 0.500000
v -0.460411 0.293255 -0.500000
v -0.087977 0.293255 0.370968
v -0.011720 0.293255 0.366021
v 0.054700 0.293255 0.352042
v 0.111895 0.293255 0.330324
v 0.160476 0.293255 0.302161
v 0.201053 0.293255 0.268846
v 0.234238 0.293255 0.231672
v 0.260641 0.293255 0.191931
v 0.280873 0.293255 0.150918
v 0.295546 0.293255 0.109925
v 0.305270 0.293255 0.070245
v 0.310657 0.293255 0.033173
v 0.312317 0.293255 -0.000000
v 0.309645 0.293255 -0.049498
v 0.301571 0.293255 -0.097229
v 0.288009 0.293255 -0.142710
v 0.268872 0.293255 -0.185457
v 0.244073 0.293255 -0.224986
v 0.213526 0.293255 -0.260814
v 0.177145 0.293255 -0.292457
v 0.134843 0.293255 -0.319431
v 0.086533 0.293255 -0.341253
v 0.032129 0.293255 -0.357439
v -0.028456 0.293255 -0.367505
v -0.095308 0.293255 -0.370968
v -0.316716 0.293255 -0.370968
v -0.316716 0.293255 0.370968
v -0.071848 -0.293255 -0.500000
v 0.016246 -0.293255 -0.494670
v 0.095878 -0.293255 -0.479357
v 0.167201 -0.293255 -0.455072
v 0.230368 -0.293255 -0.422830
v 0.285532 -0.293255 -0.383644
v 0.332845 -0.293255 -0.338526
v 0.372460 -0.293255 -0.288491
v 0.404529 -0.293255 -0.234550
v 0.429206 -0.293255 -0.177717
v 0.446644 -0.293255 -0.119006
v 0.456994 -0.293255 -0.059429
v 0.460411 -0.293255 -0.000000
v 0.456267 -0.293255 0.063741
v 0.444003 -0.293255 0.126134
v 0.423868 -0.293255 0.186377
v 0.396112 -0.293255 0.243673
v 0.360983 -0.293255 0.297222
v 0.318732 -0.293255 0.346224
v 0.269607 -0.293255 0.389881
v 0.213859 -0.293255 0.427392
v 0.151737 -0.293255 0.457959
v 0.083489 -0.293255 0.480782
v 0.009367 -0.293255 0.495062
v -0.070381 -0.293255 0.500000
v -0.460411 -0.293255 0.500000
v -0.460411 -0.293255 -0.500000
v -0.087977 -0.293255 0.370968
v -0.011720 -0.293255 0.366021
v 0.054700 -0.293255 0.352042
v 0.111895 -0.293255 0.330324
v 0.160476 -0.293255 0.302161
v 0.201053 -0.293255 0.268846
v 0.234238 -0.293255 0.231672
v 0.260641 -0.293255 0.191931
v 0.280873 -0.293255 0.150918
v 0.295546 -0.293255 0.109925
v 0.305270 -0.293255 0.070245
v 0.310657 -0.293255 0.033173
v 0.312317 -0.293255 -0.000000
v 0.309645 -0.293255 -0.049498
v 0.301571 -0.293255 -0.097229
v 0.288009 -0.293255 -0.142710
v 0.268872 -0.293255 -0.185457
v 0.244073 -0.293255 -0.224986
v 0.213526 -0.293255 -0.260814
v 0.177145 -0.293255 -0.292457
v 0.134843 -0.293255 -0.319431
v 0.086533 -0.293255 -0.341253
v 0.032129 -0.293255 -0.357439
v -0.028456 -0.293255 -0.367505
v -0.095308 -0.293255 -0.370968
v -0.316716 -0.293255 -0.370968
v -0.316716 -0.293255 0.370968
v -0.071848 -0.293255 -0.500000
v -0.071848 0.293255 -0.500000
v 0.016246 -0.293255 -0.494670
v 0.016246 0.293255 -0.494670
v 0.095878 -0.293255 -0.479357
v 0.095878 0.293255 -0.479357
v 0.167201 -0.293255 -0.455072
v 0.167201 0.293255 -0.455072
v 0.230368 -0.293255 -0.422830
v 0.230368 0.293255 -0.422830
v 0.285532 -0.293255 -0.383644
v 0.285532 0.293255 -0.383644
v 0.332845 -0.293255 -0.338526
v 0.332845 0.293255 -0.338526
v 0.372460 -0.293255 -0.288491
v 0.372460 0.293255 -0.288491
v 0.404529 -0.293255 -0.234550
v 0.404529 0.293255 -0.234550
v 0.429206 -0.293255 -0.177717
v 0.429206 0.293255 -0.177717
v 0.446644 -0.293255 -0.119006
v 0.446644 0.293255 -0.119006
v 0.456994 -0.293255 -0.059429
v 0.456994 0.293255 -0.059429
v 0.460411 -0.293255 -0.000000
v 0.460411 0.293255 -0.000000
v 0.456267 -0.293255 0.063741
v 0.456267 0.293255 0.063741
v 0.444003 -0.293255 0.126134
v 0.444003 0.293255 0.126134
v 0.423868 -0.293255 0.186377
v 0.423868 0.293255 0.186377
v 0.396112 -0.293255 0.243673
v 0.396112 0.293255 0.243673
v 0.360983 -0.293255 0.297222
v 0.360983 0.293255 0.297222
v 0.318732 -0.293255 0.346224
v 0.318732 0.293255 0.346224
v 0.269607 -0.293255 0.389881
v 0.269607 0.293255 0.389881
v 0.213859 -0.293255 0.427392
v 0.213859 0.293255 0.427392
v 0.151737 -0.293255 0.457959
v 0.151737 0.293255 0.457959
v 0.083489 -0.293255 0.480782
v 0.083489 0.293255 0.480782
v 0.009367 -0.293255 0.495062
v 0.009367 0.293255 0.495062
v -0.070381 -0.293255 0.500000
v -0.070381 0.293255 0.500000
v -0.460411 -0.293255 0.500000
v -0.460411 0.293255 0.500000
v -0.460411 -0.293255 -0.500000
v -0.460411 0.293255 -0.500000
v -0.087977 -0.293255 0.370968
v -0.087977 0.293255 0.370968
v -0.011720 -0.293255 0.366021
v -0.011720 0.293255 0.366021
v 0.054700 -0.293255 0.352042
v 0.054700 0.293255 0.352042
v 0.111895 -0.293255 0.330324
v 0.111895 0.293255 0.330324
v 0.160476 -0.293255 0.302161
v 0.160476 0.293255 0.302161
v 0.201053 -0.293255 0.268846
v 0.201053 0.293255 0.268846
v 0.234238 -0.293255 0.231672
v 0.234238 0.293255 0.231672
v 0.260641 -0.293255 0.191931
v 0.260641 0.293255 0.191931
v 0.280873 -0.293255 0.150918
v 0.280873 0.293255 0.150918
v 0.295546 -0.293255 0.109925
v 0.295546 0.293255 0.109925
v 0.305270 -0.293255 0.070245
v 0.305270 0.293255 0.070245
v 0.310657 -0.293255 0.033173
v 0.310657 0.293255 0.033173
v 0.312317 -0.293255 -0.000000
v 0.312317 0.293255 -0.000000
v 0.309645 -0.293255 -0.049498
v 0.309645 0.293255 -0.049498
v 0.301571 -0.293255 -0.097229
v 0.301571 0.293255 -0.097229
v 0.288009 -0.293255 -0.142710
v 0.288009 0.293255 -0.142710
v 0.268872 -0.293255 -0.185457
v 0.268872 0.293255 -0.185457
v 0.244073 -0.293255 -0.224986
v 0.244073 0.293255 -0.224986
v 0.213526 -0.293255 -0.260814
v 0.213526 0.293255 -0.260814
v 0.177145 -0.293255 -0.292457
v 0.177145 0.293255 -0.292457
v 0.134843 -0.293255 -0.319431
v 0.134843 0.293255 -0.319431
v 0.086533 -0.293255 -0.341253
v 0.086533 0.293255 -0.341253
v 0.032129 -0.293255 -0.357439
v 0.032129 0.293255 -0.357439
v -0.028456 -0.293255 -0.367505
v -0.028456 0.293255 -0.367505
v -0.095308 -0.293255 -0.370968
v -0.095308 0.293255 -0.370968
v -0.316716 -0.293255 -0.370968
v -0.316716 0.293255 -0.370968
v -0.316716 -0.293255 0.370968
v -0.316716 0.293255 0.370968
vn -0.0000 1.0000 -0.0000
vn -0.0000 -1.0000 -0.0000
vn 0.1249 -0.0000 -0.9922
vn 0.0302 -0.0000 -0.9995
vn 0.2562 -0.0000 -0.9666
vn 0.3895 -0.0000 -0.9210
vn 0.5182 -0.0000 -0.8552
vn 0.6363 -0.0000 -0.7715
vn 0.7389 -0.0000 -0.6739
vn 0.8236 -0.0000 -0.5671
vn 0.8902 -0.0000 -0.4556
vn 0.9397 -0.0000 -0.3421
vn 0.9736 -0.0000 -0.2283
vn 0.9934 -0.0000 -0.1145
vn 1.0000 -0.0000 0.0037
vn 0.9916 -0.0000 0.1291
vn 0.9668 -0.0000 0.2555
vn 0.9261 -0.0000 0.3773
vn 0.8699 -0.0000 0.4933
vn 0.7985 -0.0000 0.6021
vn 0.7124 -0.0000 0.7018
vn 0.6127 -0.0000 0.7904
vn 0.5010 -0.0000 0.8654
vn 0.6126 -0.0000 0.7904
vn 0.3802 -0.0000 0.9249
vn 0.2537 -0.0000 0.9673
vn 0.1257 -0.0000 0.9921
vn 0.0309 -0.0000 0.9995
vn -0.7071 -0.0000 0.7071
vn -0.7071 -0.0000 -0.7071
vn -0.1357 -0.0000 -0.9908
vn -0.0324 -0.0000 -0.9995
vn -0.2813 -0.0000 -0.9596
vn -0.4297 -0.0000 -0.9030
vn -0.5699 -0.0000 -0.8217
vn -0.6923 -0.0000 -0.7216
vn -0.7915 -0.0000 -0.6112
vn -0.8666 -0.0000 -0.4989
vn -0.9207 -0.0000 -0.3903
vn -0.9577 -0.0000 -0.2879
vn -0.9816 -0.0000 -0.1911
vn -0.9953 -0.0000 -0.0970
vn -1.0000 -0.0000 0.0020
vn -0.9939 -0.0000 0.1105
vn -0.9740 -0.0000 0.2267
vn -0.9375 -0.0000 0.3479
vn -0.8820 -0.0000 0.4712
vn -0.8062 -0.0000 0.5917
vn -0.7106 -0.0000 0.7036
vn -0.5986 -0.0000 0.8010
vn -0.4759 -0.0000 0.8795
vn -0.3492 -0.0000 0.9370
vn -0.2250 -0.0000 0.9744
vn -0.1080 -0.0000 0.9942
vn -0.0259 -0.0000 0.9997
vn 0.7071 -0.0000 0.7071
vn 0.7071 -0.0000 -0.7071
vt 0.000000 0.000000
vt 0.018868 0.000000
vt 0.037736 0.000000
vt 0.056604 0.000000
vt 0.075472 0.000000
vt 0.094340 0.000000
vt 0.113208 0.000000
vt 0.132075 0.000000
vt 0.150943 0.000000
vt 0.169811 0.000000
vt 0.188679 0.000000
vt 0.207547 0.000000
vt 0.226415 0.000000
vt 0.245283 0.000000
vt 0.264151 0.000000
vt 0.283019 0.000000
vt 0.301887 0.000000
vt 0.320755 0.000000
vt 0.339623 0.000000
vt 0.358491 0.000000
vt 0.377358 0.000000
vt 0.396226 0.000000
vt 0.415094 0.000000
vt 0.433962 0.000000
vt 0.452830 0.000000
vt 0.471698 0.000000
vt 0.490566 0.000000
vt 0.509434 0.000000
vt 0.528302 0.000000
vt 0.547170 0.000000
vt 0.566038 0.000000
vt 0.584906 0.000000
vt 0.603774 0.000000
vt 0.622642 0.000000
vt 0.641509 0.000000
vt 0.660377 0.000000
vt 0.679245 0.000000
vt 0.698113 0.000000
vt 0.716981 0.000000
vt 0.735849 0.000000
vt 0.754717 0.000000
vt 0.773585 0.000000
vt 0.792453 0.000000
vt 0.811321 0.000000
vt 0.830189 0.000000
vt 0.849057 0.000000
vt 0.867925 0.000000
vt 0.886792 0.000000
vt 0.905660 0.000000
vt 0.924528 0.000000
vt 0.943396 0.000000
vt 0.962264 0.000000
vt 0.981132 0.000000
vt 1.000000 0.000000
vt 0.000000 0.000000
vt 0.018868 0.000000
vt 0.037736 0.000000
vt 0.056604 0.000000
vt 0.075472 0.000000
vt 0.094340 0.000000
vt 0.113208 0.000000
vt 0.132075 0.000000
vt 0.150943 0.000000
vt 0.169811 0.000000
vt 0.188679 0.000000
vt 0.207547 0.000000
vt 0.226415 0.000000
vt 0.245283 0.000000
vt 0.264151 0.000000
vt 0.283019 0.000000
vt 0.301887 0.000000
vt 0.320755 0.000000
vt 0.339623 0.000000
vt 0.358491 0.000000
vt 0.377358 0.000000
vt 0.396226 0.000000
vt 0.415094 0.000000
vt 0.433962 0.000000
vt 0.452830 0.000000
vt 0.471698 0.000000
vt 0.490566 0.000000
vt 0.509434 0.000000
vt 0.528302 0.000000
vt 0.547170 0.000000
vt 0.566038 0.000000
vt 0.584906 0.000000
vt 0.603774 0.000000
vt 0.622642 0.000000
vt 0.641509 0.000000
vt 0.660377 0.000000
vt 0.679245 0.000000
vt 0.698113 0.000000
vt 0.716981 0.000000
vt 0.735849 0.000000
vt 0.754717 0.000000
vt 0.773585 0.000000
vt 0.792453 0.000000
vt 0.811321 0.000000
vt 0.830189 0.000000
vt 0.849057 0.000000
vt 0.867925 0.000000
vt 0.886792 0.000000
vt 0.905660 0.000000
vt 0.924528 0.000000
vt 0.943396 0.000000
vt 0.962264 0.000000
vt 0.981132 0.000000
vt 1.000000 0.000000
vt 0.000000 0.000000
vt 1.000000 0.000000
vt 0.000000 1.000000
vt 1.000000 1.000000
vt 0.037037 0.000000
vt 0.037037 1.000000
vt 0.074074 0.000000
vt 0.074074 1.000000
vt 0.111111 0.000000
vt 0.111111 1.000000
vt 0.148148 0.000000
vt 0.148148 1.000000
vt 0.185185 0.000000
vt 0.185185 1.000000
vt 0.222222 0.000000
vt 0.222222 1.000000
vt 0.259259 0.000000
vt 0.259259 1.000000
vt 0.296296 0.000000
vt 0.296296 1.000000
vt 0.333333 0.000000
vt 0.333333 1.000000
vt 0.370370 0.000000
vt 0.370370 1.000000
vt 0.407407 0.000000
vt 0.407407 1.000000
vt 0.444444 0.000000
vt 0.444444 1.000000
vt 0.481481 0.000000
vt 0.481481 1.000000
vt 0.518519 0.000000
vt 0.518519 1.000000
vt 0.555556 0.000000
vt 0.555556 1.000000
vt 0.592593 0.000000
vt 0.592593 1.000000
vt 0.629630 0.000000
vt 0.629630 1.000000
vt 0.666667 0.000000
vt 0.666667 1.000000
vt 0.703704 0.000000
vt 0.703704 1.000000
vt 0.740741 0.000000
vt 0.740741 1.000000
vt 0.777778 0.000000
vt 0.777778 1.000000
vt 0.814815 0.000000
vt 0.814815 1.000000
vt 0.851852 0.000000
vt 0.851852 1.000000
vt 0.888889 0.000000
vt 0.888889 1.000000
vt 0.925926 0.000000
vt 0.925926 1.000000
vt 0.962963 0.000000
vt 0.962963 1.000000
vt 0.000000 0.000000
vt 1.000000 0.000000
vt 0.000000 1.000000
vt 1.000000 1.000000
vt 0.037037 0.000000
vt 0.037037 1.000000
vt 0.074074 0.000000
vt 0.074074 1.000000
vt 0.111111 0.000000
vt 0.111111 1.000000
vt 0.148148 0.000000
vt 0.148148 1.000000
vt 0.185185 0.000000
vt 0.185185 1.000000
vt 0.222222 0.000000
vt 0.222222 1.000000
vt 0.259259 0.000000
vt 0.259259 1.000000
vt 0.296296 0.000000
vt 0.296296 1.000000
vt 0.333333 0.000000
vt 0.333333 1.000000
vt 0.370370 0.000000
vt 0.370370 1.000000
vt 0.407407 0.000000
vt 0.407407 1.000000
vt 0.444444 0.000000
vt 0.444444 1.000000
vt 0.481481 0.000000
vt 0.481481 1.000000
vt 0.518519 0.000000
vt 0.518519 1.000000
vt 0.555556 0.000000
vt 0.555556 1.000000
vt 0.592593 0.000000
vt 0.592593 1.000000
vt 0.629630 0.000000
vt 0.629630 1.000000
vt 0.666667 0.000000
vt 0.666667 1.000000
vt 0.703704 0.000000
vt 0.703704 1.000000
vt 0.740741 0.000000
vt 0.740741 1.000000
vt 0.777778 0.000000
vt 0.777778 1.000000
vt 0.814815 0.000000
vt 0.814815 1.000000
vt 0.851852 0.000000
vt 0.851852 1.000000
vt 0.888889 0.000000
vt 0.888889 1.000000
vt 0.925926 0.000000
vt 0.925926 1.000000
vt 0.962963 0.000000
vt 0.962963 1.000000
s 0
f 26/26/1 53/53/1 27/27/1
f 53/53/1 1/1/1 27/27/1
f 53/53/1 2/2/1 1/1/1
f 53/53/1 3/3/1 2/2/1
f 53/53/1 4/4/1 3/3/1
f 53/53/1 5/5/1 4/4/1
f 53/53/1 6/6/1 5/5/1
f 53/53/1 52/52/1 6/6/1
f 52/52/1 51/51/1 6/6/1
f 51/51/1 7/7/1 6/6/1
f 26/26/1 54/54/1 53/53/1
f 50/50/1 7/7/1 51/51/1
f 49/49/1 7/7/1 50/50/1
f 48/48/1 7/7/1 49/49/1
f 48/48/1 8/8/1 7/7/1
f 47/47/1 8/8/1 48/48/1
f 46/46/1 8/8/1 47/47/1
f 46/46/1 9/9/1 8/8/1
f 45/45/1 9/9/1 46/46/1
f 45/45/1 10/10/1 9/9/1
f 44/44/1 10/10/1 45/45/1
f 43/43/1 10/10/1 44/44/1
f 43/43/1 11/11/1 10/10/1
f 42/42/1 11/11/1 43/43/1
f 42/42/1 12/12/1 11/11/1
f 41/41/1 12/12/1 42/42/1
f 41/41/1 13/13/1 12/12/1
f 40/40/1 13/13/1 41/41/1
f 39/39/1 13/13/1 40/40/1
f 39/39/1 14/14/1 13/13/1
f 38/38/1 14/14/1 39/39/1
f 38/38/1 15/15/1 14/14/1
f 37/37/1 15/15/1 38/38/1
f 36/36/1 15/15/1 37/37/1
f 36/36/1 16/16/1 15/15/1
f 35/35/1 16/16/1 36/36/1
f 35/35/1 17/17/1 16/16/1
f 34/34/1 17/17/1 35/35/1
f 33/33/1 17/17/1 34/34/1
f 33/33/1 18/18/1 17/17/1
f 32/32/1 18/18/1 33/33/1
f 32/32/1 19/19/1 18/18/1
f 31/31/1 19/19/1 32/32/1
f 30/30/1 19/19/1 31/31/1
f 30/30/1 20/20/1 19/19/1
f 29/29/1 20/20/1 30/30/1
f 28/28/1 20/20/1 29/29/1
f 26/26/1 28/28/1 54/54/1
f 26/26/1 20/20/1 28/28/1
f 26/26/1 21/21/1 20/20/1
f 26/26/1 22/22/1 21/21/1
f 26/26/1 23/23/1 22/22/1
f 26/26/1 24/24/1 23/23/1
f 26/26/1 25/25/1 24/24/1
f 80/80/2 81/81/2 107/107/2
f 107/107/2 81/81/2 55/55/2
f 107/107/2 55/55/2 56/56/2
f 107/107/2 56/56/2 57/57/2
f 107/107/2 57/57/2 58/58/2
f 107/107/2 58/58/2 59/59/2
f 107/107/2 59/59/2 60/60/2
f 107/107/2 60/60/2 106/106/2
f 106/106/2 60/60/2 105/105/2
f 105/105/2 60/60/2 61/61/2
f 80/80/2 107/107/2 108/108/2
f 104/104/2 105/105/2 61/61/2
f 103/103/2 104/104/2 61/61/2
f 102/102/2 103/103/2 61/61/2
f 102/102/2 61/61/2 62/62/2
f 101/101/2 102/102/2 62/62/2
f 100/100/2 101/101/2 62/62/2
f 100/100/2 62/62/2 63/63/2
f 99/99/2 100/100/2 63/63/2
f 99/99/2 63/63/2 64/64/2
f 98/98/2 99/99/2 64/64/2
f 97/97/2 98/98/2 64/64/2
f 97/97/2 64/64/2 65/65/2
f 96/96/2 97/97/2 65/65/2
f 96/96/2 65/65/2 66/66/2
f 95/95/2 96/96/2 66/66/2
f 95/95/2 66/66/2 67/67/2
f 94/94/2 95/95/2 67/67/2
f 93/93/2 94/94/2 67/67/2
f 93/93/2 67/67/2 68/68/2
f 92/92/2 93/93/2 68/68/2
f 92/92/2 68/68/2 69/69/2
f 91/91/2 92/92/2 69/69/2
f 90/90/2 91/91/2 69/69/2
f 90/90/2 69/69/2 70/70/2
f 89/89/2 90/90/2 70/70/2
f 89/89/2 70/70/2 71/71/2
f 88/88/2 89/89/2 71/71/2
f 87/87/2 88/88/2 71/71/2
f 87/87/2 71/71/2 72/72/2
f 86/86/2 87/87/2 72/72/2
f 86/86/2 72/72/2 73/73/2
f 85/85/2 86/86/2 73/73/2
f 84/84/2 85/85/2 73/73/2
f 84/84/2 73/73/2 74/74/2
f 83/83/2 84/84/2 74/74/2
f 82/82/2 83/83/2 74/74/2
f 80/80/2 108/108/2 82/82/2
f 80/80/2 82/82/2 74/74/2
f 80/80/2 74/74/2 75/75/2
f 80/80/2 75/75/2 76/76/2
f 80/80/2 76/76/2 77/77/2
f 80/80/2 77/77/2 78/78/2
f 80/80/2 78/78/2 79/79/2
s 1
f 112/114/3 109/109/4 110/111/4
f 114/116/5 111/113/3 112/114/3
f 116/118/6 113/115/5 114/116/5
f 118/120/7 115/117/6 116/118/6
f 120/122/8 117/119/7 118/120/7
f 122/124/9 119/121/8 120/122/8
f 124/126/10 121/123/9 122/124/9
f 126/128/11 123/125/10 124/126/10
f 128/130/12 125/127/11 126/128/11
f 130/132/13 127/129/12 128/130/12
f 132/134/14 129/131/13 130/132/13
f 134/136/15 131/133/14 132/134/14
f 136/138/16 133/135/15 134/136/15
f 138/140/17 135/137/16 136/138/16
f 140/142/18 137/139/17 138/140/17
f 142/144/19 139/141/18 140/142/18
f 144/146/20 141/143/19 142/144/19
f 146/148/21 143/145/20 144/146/20
f 148/150/22 145/147/21 146/148/21
f 150/152/23 147/149/24 148/150/22
f 152/154/25 149/151/23 150/152/23
f 154/156/26 151/153/25 152/154/25
f 156/158/27 153/155/26 154/156/26
f 158/160/28 155/157/27 156/158/27
f 160/162/29 157/159/28 158/160/28
f 162/164/30 159/161/29 160/162/29
f 110/112/4 161/163/30 162/164/30
f 166/170/31 163/165/32 164/167/32
f 168/172/33 165/169/31 166/170/31
f 170/174/34 167/171/33 168/172/33
f 172/176/35 169/173/34 170/174/34
f 174/178/36 171/175/35 172/176/35
f 176/180/37 173/177/36 174/178/36
f 178/182/38 175/179/37 176/180/37
f 180/184/39 177/181/38 178/182/38
f 182/186/40 179/183/39 180/184/39
f 184/188/41 181/185/40 182/186/40
f 186/190/42 183/187/41 184/188/41
f 188/192/43 185/189/42 186/190/42
f 190/194/44 187/191/43 188/192/43
f 192/196/45 189/193/44 190/194/44
f 194/198/46 191/195/45 192/196/45
f 196/200/47 193/197/46 194/198/46
f 198/202/48 195/199/47 196/200/47
f 200/204/49 197/201/48 198/202/48
f 202/206/50 199/203/49 200/204/49
f 204/208/51 201/205/50 202/206/50
f 206/210/52 203/207/51 204/208/51
f 208/212/53 205/209/52 206/210/52
f 210/214/54 207/211/53 208/212/53
f 212/216/55 209/213/54 210/214/54
f 214/218/56 211/215/55 212/216/55
f 216/220/57 213/217/56 214/218/56
f 164/168/32 215/219/57 216/220/57
f 112/114/3 111/113/3 109/109/4
f 114/116/5 113/115/5 111/113/3
f 116/118/6 115/117/6 113/115/5
f 118/120/7 117/119/7 115/117/6
f 120/122/8 119/121/8 117/119/7
f 122/124/9 121/123/9 119/121/8
f 124/126/10 123/125/10 121/123/9
f 126/128/11 125/127/11 123/125/10
f 128/130/12 127/129/12 125/127/11
f 130/132/13 129/131/13 127/129/12
f 132/134/14 131/133/14 129/131/13
f 134/136/15 133/135/15 131/133/14
f 136/138/16 135/137/16 133/135/15
f 138/140/17 137/139/17 135/137/16
f 140/142/18 139/141/18 137/139/17
f 142/144/19 141/143/19 139/141/18
f 144/146/20 143/145/20 141/143/19
f 146/148/21 145/147/21 143/145/20
f 148/150/22 147/149/24 145/147/21
f 150/152/23 149/151/23 147/149/24
f 152/154/25 151/153/25 149/151/23
f 154/156/26 153/155/26 151/153/25
f 156/158/27 155/157/27 153/155/26
f 158/160/28 157/159/28 155/157/27
f 160/162/29 159/161/29 157/159/28
f 162/164/30 161/163/30 159/161/29
f 110/112/4 109/110/4 161/163/30
f 166/170/31 165/169/31 163/165/32
f 168/172/33 167/171/33 165/169/31
f 170/174/34 169/173/34 167/171/33
f 172/176/35 171/175/35 169/173/34
f 174/178/36 173/177/36 171/175/35
f 176/180/37 175/179/37 173/177/36
f 178/182/38 177/181/38 175/179/37
f 180/184/39 179/183/39 177/181/38
f 182/186/40 181/185/40 179/183/39
f 184/188/41 183/187/41 181/185/40
f 186/190/42 185/189/42 183/187/41
f 188/192/43 187/191/43 185/189/42
f 190/194/44 189/193/44 187/191/43
f 192/196/45 191/195/45 189/193/44
f 194/198/46 193/197/46 191/195/45
f 196/200/47 195/199/47 193/197/46
f 198/202/48 197/201/48 195/199/47
f 200/204/49 199/203/49 197/201/48
f 202/206/50 201/205/50 199/203/49
f 204/208/51 203/207/51 201/205/50
f 206/210/52 205/209/52 203/207/51
f 208/212/53 207/211/53 205/209/52
f 210/214/54 209/213/54 207/211/53
f 212/216/55 211/215/55 209/213/54
f 214/218/56 213/217/56 211/215/55
f 216/220/57 215/219/57 213/217/56
f 164/168/32 163/166/32 215/219/57
