# Blender 3.2.2
# www.blender.org
o Letter_G
v 0.412975 0.285714 0.433578
v 0.381772 0.285714 0.445767
v 0.351205 0.285714 0.456607
v 0.321085 0.285714 0.466138
v 0.291222 0.285714 0.474398
v 0.261429 0.285714 0.481429
v 0.231516 0.285714 0.487269
v 0.201296 0.285714 0.491958
v 0.170580 0.285714 0.495536
v 0.139180 0.285714 0.498042
v 0.106906 0.285714 0.499517
v 0.073571 0.285714 0.500000
v 0.000647 0.285714 0.495731
v -0.068512 0.285714 0.483227
v -0.133415 0.285714 0.462946
v -0.193571 0.285714 0.435344
v -0.248490 0.285714 0.400876
v -0.297679 0.285714 0.360000
v -0.340647 0.285714 0.313171
v -0.376905 0.285714 0.260847
v -0.405960 0.285714 0.203482
v -0.427321 0.285714 0.141534
v -0.440499 0.285714 0.075460
v -0.445000 0.285714 0.005714
v -0.440387 0.285714 -0.064556
v -0.426905 0.285714 -0.131448
v -0.405089 0.285714 -0.194442
v -0.375476 0.285714 -0.253016
v -0.338601 0.285714 -0.306649
v -0.295000 0.285714 -0.354821
v -0.245208 0.285714 -0.397011
v -0.189762 0.285714 -0.432698
v -0.129196 0.285714 -0.461362
v -0.064048 0.285714 -0.482480
v 0.005149 0.285714 -0.495533
v 0.077857 0.285714 -0.500000
v 0.105776 0.285714 -0.499597
v 0.132639 0.285714 -0.498327
v 0.158817 0.285714 -0.496094
v 0.184683 0.285714 -0.492804
v 0.210608 0.285714 -0.488364
v 0.236964 0.285714 -0.482678
v 0.264125 0.285714 -0.475654
v 0.292460 0.285714 -0.467196
v 0.322344 0.285714 -0.457210
v 0.354147 0.285714 -0.445602
v 0.388242 0.285714 -0.432278
v 0.425000 0.285714 -0.417143
v 0.425000 0.285714 -0.275714
v 0.396343 0.285714 -0.290802
v 0.367526 0.285714 -0.304630
v 0.338571 0.285714 -0.317187
v 0.309497 0.285714 -0.328466
v 0.280324 0.285714 -0.338454
v 0.251071 0.285714 -0.347143
v 0.221759 0.285714 -0.354522
v 0.192407 0.285714 -0.360582
v 0.163036 0.285714 -0.365312
v 0.133664 0.285714 -0.368704
v 0.104312 0.285714 -0.370746
v 0.075000 0.285714 -0.371429
v 0.023193 0.285714 -0.368130
v -0.026243 0.285714 -0.358492
v -0.072902 0.285714 -0.342902
v -0.116376 0.285714 -0.321746
v -0.156258 0.285714 -0.295412
v -0.192143 0.285714 -0.264286
v -0.223623 0.285714 -0.228755
v -0.250291 0.285714 -0.189206
v -0.271741 0.285714 -0.146027
v -0.287566 0.285714 -0.099603
v -0.297359 0.285714 -0.050322
v -0.300714 0.285714 0.001429
v -0.297376 0.285714 0.054324
v -0.287579 0.285714 0.104233
v -0.271652 0.285714 0.150848
v -0.249921 0.285714 0.193862
v -0.222713 0.285714 0.232968
v -0.190357 0.285714 0.267857
v -0.153180 0.285714 0.298223
v -0.111508 0.285714 0.323757
v -0.065670 0.285714 0.344152
v -0.015992 0.285714 0.359101
v 0.037197 0.285714 0.368295
v 0.093571 0.285714 0.371429
v 0.112354 0.285714 0.371079
v 0.130860 0.285714 0.370060
v 0.149107 0.285714 0.368415
v 0.167116 0.285714 0.366191
v 0.184907 0.285714 0.363430
v 0.202500 0.285714 0.360179
v 0.219914 0.285714 0.356481
v 0.237169 0.285714 0.352381
v 0.254286 0.285714 0.347924
v 0.271283 0.285714 0.343155
v 0.288181 0.285714 0.338118
v 0.305000 0.285714 0.332857
v 0.305000 0.285714 0.132857
v 0.117857 0.285714 0.132857
v 0.117857 0.285714 0.007143
v 0.445000 0.285714 0.007143
v 0.445000 0.285714 0.420000
v 0.412975 -0.285714 0.433578
v 0.381772 -0.285714 0.445767
v 0.351205 -0.285714 0.456607
v 0.321085 -0.285714 0.466138
v 0.291222 -0.285714 0.474398
v 0.261429 -0.285714 0.481429
v 0.231516 -0.285714 0.487269
v 0.201296 -0.285714 0.491958
v 0.170580 -0.285714 0.495536
v 0.139180 -0.285714 0.498042
v 0.106906 -0.285714 0.499517
v 0.073571 -0.285714 0.500000
v 0.000647 -0.285714 0.495731
v -0.068512 -0.285714 0.483227
v -0.133415 -0.285714 0.462946
v -0.193571 -0.285714 0.435344
v -0.248490 -0.285714 0.400876
v -0.297679 -0.285714 0.360000
v -0.340647 -0.285714 0.313171
v -0.376905 -0.285714 0.260847
v -0.405960 -0.285714 0.203482
v -0.427321 -0.285714 0.141534
v -0.440499 -0.285714 0.075460
v -0.445000 -0.285714 0.005714
v -0.440387 -0.285714 -0.064556
v -0.426905 -0.285714 -0.131448
v -0.405089 -0.285714 -0.194442
v -0.375476 -0.285714 -0.253016
v -0.338601 -0.285714 -0.306649
v -0.295000 -0.285714 -0.354821
v -0.245208 -0.285714 -0.397011
v -0.189762 -0.285714 -0.432698
v -0.129196 -0.285714 -0.461362
v -0.064048 -0.285714 -0.482480
v 0.005149 -0.285714 -0.495533
v 0.077857 -0.285714 -0.500000
v 0.105776 -0.285714 -0.499597
v 0.132639 -0.285714 -0.498327
v 0.158817 -0.285714 -0.496094
v 0.184683 -0.285714 -0.492804
v 0.210608 -0.285714 -0.488364
v 0.236964 -0.285714 -0.482678
v 0.264125 -0.285714 -0.475654
v 0.292460 -0.285714 -0.467196
v 0.322344 -0.285714 -0.457210
v 0.354147 -0.285714 -0.445602
v 0.388242 -0.285714 -0.432278
v 0.425000 -0.285714 -0.417143
v 0.425000 -0.285714 -0.275714
v 0.396343 -0.285714 -0.290802
v 0.367526 -0.285714 -0.304630
v 0.338571 -0.285714 -0.317187
v 0.309497 -0.285714 -0.328466
v 0.280324 -0.285714 -0.338454
v 0.251071 -0.285714 -0.347143
v 0.221759 -0.285714 -0.354522
v 0.192407 -0.285714 -0.360582
v 0.163036 -0.285714 -0.365312
v 0.133664 -0.285714 -0.368704
v 0.104312 -0.285714 -0.370746
v 0.075000 -0.285714 -0.371429
v 0.023193 -0.285714 -0.368130
v -0.026243 -0.285714 -0.358492
v -0.072902 -0.285714 -0.342902
v -0.116376 -0.285714 -0.321746
v -0.156258 -0.285714 -0.295412
v -0.192143 -0.285714 -0.264286
v -0.223623 -0.285714 -0.228755
v -0.250291 -0.285714 -0.189206
v -0.271741 -0.285714 -0.146027
v -0.287566 -0.285714 -0.099603
v -0.297359 -0.285714 -0.050322
v -0.300714 -0.285714 0.001429
v -0.297376 -0.285714 0.054324
v -0.287579 -0.285714 0.104233
v -0.271652 -0.285714 0.150848
v -0.249921 -0.285714 0.193862
v -0.222713 -0.285714 0.232968
v -0.190357 -0.285714 0.267857
v -0.153180 -0.285714 0.298223
v -0.111508 -0.285714 0.323757
v -0.065670 -0.285714 0.344152
v -0.015992 -0.285714 0.359101
v 0.037197 -0.285714 0.368295
v 0.093571 -0.285714 0.371429
v 0.112354 -0.285714 0.371079
v 0.130860 -0.285714 0.370060
v 0.149107 -0.285714 0.368415
v 0.167116 -0.285714 0.366191
v 0.184907 -0.285714 0.363430
v 0.202500 -0.285714 0.360179
v 0.219914 -0.285714 0.356481
v 0.237169 -0.285714 0.352381
v 0.254286 -0.285714 0.347924
v 0.271283 -0.285714 0.343155
v 0.288181 -0.285714 0.338118
v 0.305000 -0.285714 0.332857
v 0.305000 -0.285714 0.132857
v 0.117857 -0.285714 0.132857
v 0.117857 -0.285714 0.007143
v 0.445000 -0.285714 0.007143
v 0.445000 -0.285714 0.420000
v 0.412975 -0.285714 0.433578
v 0.412975 0.285714 0.433578
v 0.381772 -0.285714 0.445767
v 0.381772 0.285714 0.445767
v 0.351205 -0.285714 0.456607
v 0.351205 0.285714 0.456607
v 0.321085 -0.285714 0.466138
v 0.321085 0.285714 0.466138
v 0.291222 -0.285714 0.474398
v 0.291222 0.285714 0.474398
v 0.261429 -0.285714 0.481429
v 0.261429 0.285714 0.481429
v 0.231516 -0.285714 0.487269
v 0.231516 0.285714 0.487269
v 0.201296 -0.285714 0.491958
v 0.201296 0.285714 0.491958
v 0.170580 -0.285714 0.495536
v 0.170580 0.285714 0.495536
v 0.139180 -0.285714 0.498042
v 0.139180 0.285714 0.498042
v 0.106906 -0.285714 0.499517
v 0.106906 0.285714 0.499517
v 0.073571 -0.285714 0.500000
v 0.073571 0.285714 0.500000
v 0.000647 -0.285714 0.495731
v 0.000647 0.285714 0.495731
v -0.068512 -0.285714 0.483227
v -0.068512 0.285714 0.483227
v -0.133415 -0.285714 0.462946
v -0.133415 0.285714 0.462946
v -0.193571 -0.285714 0.435344
v -0.193571 0.285714 0.435344
v -0.248490 -0.285714 0.400876
v -0.248490 0.285714 0.400876
v -0.297679 -0.285714 0.360000
v -0.297679 0.285714 0.360000
v -0.340647 -0.285714 0.313171
v -0.340647 0.285714 0.313171
v -0.376905 -0.285714 0.260847
v -0.376905 0.285714 0.260847
v -0.405960 -0.285714 0.203482
v -0.405960 0.285714 0.203482
v -0.427321 -0.285714 0.141534
v -0.427321 0.285714 0.141534
v -0.440499 -0.285714 0.075460
v -0.440499 0.285714 0.075460
v -0.445000 -0.285714 0.005714
v -0.445000 0.285714 0.005714
v -0.440387 -0.285714 -0.064556
v -0.440387 0.285714 -0.064556
v -0.426905 -0.285714 -0.131448
v -0.426905 0.285714 -0.131448
v -0.405089 -0.285714 -0.194442
v -0.405089 0.285714 -0.194442
v -0.375476 -0.285714 -0.253016
v -0.375476 0.285714 -0.253016
v -0.338601 -0.285714 -0.306649
v -0.338601 0.285714 -0.306649
v -0.295000 -0.285714 -0.354821
v -0.295000 0.285714 -0.354821
v -0.245208 -0.285714 -0.397011
v -0.245208 0.285714 -0.397011
v -0.189762 -0.285714 -0.432698
v -0.189762 0.285714 -0.432698
v -0.129196 -0.285714 -0.461362
v -0.129196 0.285714 -0.461362
v -0.064048 -0.285714 -0.482480
v -0.064048 0.285714 -0.482480
v 0.005149 -0.285714 -0.495533
v 0.005149 0.285714 -0.495533
v 0.077857 -0.285714 -0.500000
v 0.077857 0.285714 -0.500000
v 0.105776 -0.285714 -0.499597
v 0.105776 0.285714 -0.499597
v 0.132639 -0.285714 -0.498327
v 0.132639 0.285714 -0.498327
v 0.158817 -0.285714 -0.496094
v 0.158817 0.285714 -0.496094
v 0.184683 -0.285714 -0.492804
v 0.184683 0.285714 -0.492804
v 0.210608 -0.285714 -0.488364
v 0.210608 0.285714 -0.488364
v 0.236964 -0.285714 -0.482678
v 0.236964 0.285714 -0.482678
v 0.264125 -0.285714 -0.475654
v 0.264125 0.285714 -0.475654
v 0.292460 -0.285714 -0.467196
v 0.292460 0.285714 -0.467196
v 0.322344 -0.285714 -0.457210
v 0.322344 0.285714 -0.457210
v 0.354147 -0.285714 -0.445602
v 0.354147 0.285714 -0.445602
v 0.388242 -0.285714 -0.432278
v 0.388242 0.285714 -0.432278
v 0.425000 -0.285714 -0.417143
v 0.425000 0.285714 -0.417143
v 0.425000 -0.285714 -0.275714
v 0.425000 0.285714 -0.275714
v 0.396343 -0.285714 -0.290802
v 0.396343 0.285714 -0.290802
v 0.367526 -0.285714 -0.304630
v 0.367526 0.285714 -0.304630
v 0.338571 -0.285714 -0.317187
v 0.338571 0.285714 -0.317187
v 0.309497 -0.285714 -0.328466
v 0.309497 0.285714 -0.328466
v 0.280324 -0.285714 -0.338454
v 0.280324 0.285714 -0.338454
v 0.251071 -0.285714 -0.347143
v 0.251071 0.285714 -0.347143
v 0.221759 -0.285714 -0.354522
v 0.221759 0.285714 -0.354522
v 0.192407 -0.285714 -0.360582
v 0.192407 0.285714 -0.360582
v 0.163036 -0.285714 -0.365312
v 0.163036 0.285714 -0.365312
v 0.133664 -0.285714 -0.368704
v 0.133664 0.285714 -0.368704
v 0.104312 -0.285714 -0.370746
v 0.104312 0.285714 -0.370746
v 0.075000 -0.285714 -0.371429
v 0.075000 0.285714 -0.371429
v 0.023193 -0.285714 -0.368130
v 0.023193 0.285714 -0.368130
v -0.026243 -0.285714 -0.358492
v -0.026243 0.285714 -0.358492
v -0.072902 -0.285714 -0.342902
v -0.072902 0.285714 -0.342902
v -0.116376 -0.285714 -0.321746
v -0.116376 0.285714 -0.321746
v -0.156258 -0.285714 -0.295412
v -0.156258 0.285714 -0.295412
v -0.192143 -0.285714 -0.264286
v -0.192143 0.285714 -0.264286
v -0.223623 -0.285714 -0.228755
v -0.223623 0.285714 -0.228755
v -0.250291 -0.285714 -0.189206
v -0.250291 0.285714 -0.189206
v -0.271741 -0.285714 -0.146027
v -0.271741 0.285714 -0.146027
v -0.287566 -0.285714 -0.099603
v -0.287566 0.285714 -0.099603
v -0.297359 -0.285714 -0.050322
v -0.297359 0.285714 -0.050322
v -0.300714 -0.285714 0.001429
v -0.300714 0.285714 0.001429
v -0.297376 -0.285714 0.054324
v -0.297376 0.285714 0.054324
v -0.287579 -0.285714 0.104233
v -0.287579 0.285714 0.104233
v -0.271652 -0.285714 0.150848
v -0.271652 0.285714 0.150848
v -0.249921 -0.285714 0.193862
v -0.249921 0.285714 0.193862
v -0.222713 -0.285714 0.232968
v -0.222713 0.285714 0.232968
v -0.190357 -0.285714 0.267857
v -0.190357 0.285714 0.267857
v -0.153180 -0.285714 0.298223
v -0.153180 0.285714 0.298223
v -0.111508 -0.285714 0.323757
v -0.111508 0.285714 0.323757
v -0.065670 -0.285714 0.344152
v -0.065670 0.285714 0.344152
v -0.015992 -0.285714 0.359101
v -0.015992 0.285714 0.359101
v 0.037197 -0.285714 0.368295
v 0.037197 0.285714 0.368295
v 0.093571 -0.285714 0.371429
v 0.093571 0.285714 0.371429
v 0.112354 -0.285714 0.371079
v 0.112354 0.285714 0.371079
v 0.130860 -0.285714 0.370060
v 0.130860 0.285714 0.370060
v 0.149107 -0.285714 0.368415
v 0.149107 0.285714 0.368415
v 0.167116 -0.285714 0.366191
v 0.167116 0.285714 0.366191
v 0.184907 -0.285714 0.363430
v 0.184907 0.285714 0.363430
v 0.202500 -0.285714 0.360179
v 0.202500 0.285714 0.360179
v 0.219914 -0.285714 0.356481
v 0.219914 0.285714 0.356481
v 0.237169 -0.285714 0.352381
v 0.237169 0.285714 0.352381
v 0.254286 -0.285714 0.347924
v 0.254286 0.285714 0.347924
v 0.271283 -0.285714 0.343155
v 0.271283 0.285714 0.343155
v 0.288181 -0.285714 0.338118
v 0.288181 0.285714 0.338118
v 0.305000 -0.285714 0.332857
v 0.305000 0.285714 0.332857
v 0.305000 -0.285714 0.132857
v 0.305000 0.285714 0.132857
v 0.117857 -0.285714 0.132857
v 0.117857 0.285714 0.132857
v 0.117857 -0.285714 0.007143
v 0.117857 0.285714 0.007143
v 0.445000 -0.285714 0.007143
v 0.445000 0.285714 0.007143
v 0.445000 -0.285714 0.420000
v 0.445000 0.285714 0.420000
vn -0.0000 1.0000 -0.0000
vn -0.0000 -1.0000 -0.0000
vn 0.3491 -0.0000 0.9371
vn 0.3771 -0.0000 0.9262
vn 0.3180 -0.0000 0.9481
vn 0.2842 -0.0000 0.9588
vn 0.2482 -0.0000 0.9687
vn 0.2107 -0.0000 0.9776
vn 0.1725 -0.0000 0.9850
vn 0.1345 -0.0000 0.9909
vn 0.0977 -0.0000 0.9952
vn 0.0626 -0.0000 0.9980
vn 0.0301 -0.0000 0.9995
vn -0.0220 -0.0000 0.9998
vn -0.1184 -0.0000 0.9930
vn -0.2385 -0.0000 0.9711
vn -0.3584 -0.0000 0.9336
vn -0.4753 -0.0000 0.8798
vn -0.5867 -0.0000 0.8098
vn -0.6895 -0.0000 0.7242
vn -0.7812 -0.0000 0.6243
vn -0.8590 -0.0000 0.5119
vn -0.9209 -0.0000 0.3898
vn -0.9652 -0.0000 0.2614
vn -0.9915 -0.0000 0.1303
vn -1.0000 -0.0000 -0.0006
vn -0.9913 -0.0000 -0.1318
vn -0.9648 -0.0000 -0.2630
vn -0.9208 -0.0000 -0.3901
vn -0.8602 -0.0000 -0.5100
vn -0.7845 -0.0000 -0.6202
vn -0.6955 -0.0000 -0.7186
vn -0.5951 -0.0000 -0.8036
vn -0.4855 -0.0000 -0.8742
vn -0.3688 -0.0000 -0.9295
vn -0.2474 -0.0000 -0.9689
vn -0.1236 -0.0000 -0.9923
vn -0.0235 -0.0000 -0.9997
vn 0.0308 -0.0000 -0.9995
vn 0.0661 -0.0000 -0.9978
vn 0.1056 -0.0000 -0.9944
vn 0.1475 -0.0000 -0.9891
vn 0.1899 -0.0000 -0.9818
vn 0.2307 -0.0000 -0.9730
vn 0.2683 -0.0000 -0.9633
vn 0.3015 -0.0000 -0.9535
vn 0.3299 -0.0000 -0.9440
vn 0.3535 -0.0000 -0.9355
vn 0.3724 -0.0000 -0.9281
vn 0.8309 -0.0000 -0.5565
vn 0.5168 -0.0000 0.8561
vn 0.8309 -0.0000 -0.5564
vn -0.4493 -0.0000 0.8934
vn -0.4153 -0.0000 0.9097
vn -0.3798 -0.0000 0.9251
vn -0.3429 -0.0000 0.9394
vn -0.3044 -0.0000 0.9525
vn -0.2645 -0.0000 0.9644
vn -0.2232 -0.0000 0.9748
vn -0.1806 -0.0000 0.9835
vn -0.1369 -0.0000 0.9906
vn -0.0921 -0.0000 0.9958
vn -0.0464 -0.0000 0.9989
vn 0.0201 -0.0000 0.9998
vn 0.1277 -0.0000 0.9918
vn 0.2547 -0.0000 0.9670
vn 0.3780 -0.0000 0.9258
vn 0.4953 -0.0000 0.8687
vn 0.6044 -0.0000 0.7967
vn 0.7034 -0.0000 0.7108
vn 0.7905 -0.0000 0.6124
vn 0.8642 -0.0000 0.5031
vn 0.9231 -0.0000 0.3846
vn 0.9658 -0.0000 0.2594
vn 0.9915 -0.0000 0.1301
vn 1.0000 -0.0000 0.0009
vn 0.9918 -0.0000 -0.1281
vn 0.9660 -0.0000 -0.2586
vn 0.9216 -0.0000 -0.3881
vn 0.8588 -0.0000 -0.5123
vn 0.7790 -0.0000 -0.6271
vn 0.6845 -0.0000 -0.7290
vn 0.5788 -0.0000 -0.8154
vn 0.4655 -0.0000 -0.8851
vn 0.3480 -0.0000 -0.9375
vn 0.2297 -0.0000 -0.9733
vn 0.1131 -0.0000 -0.9936
vn 0.0185 -0.0000 -0.9998
vn -0.0368 -0.0000 -0.9993
vn -0.0724 -0.0000 -0.9974
vn -0.1062 -0.0000 -0.9943
vn -0.1380 -0.0000 -0.9904
vn -0.1676 -0.0000 -0.9859
vn -0.1947 -0.0000 -0.9809
vn -0.2195 -0.0000 -0.9756
vn -0.2416 -0.0000 -0.9704
vn -0.2611 -0.0000 -0.9653
vn -0.2779 -0.0000 -0.9606
vn -0.2921 -0.0000 -0.9564
vn -0.8058 -0.0000 -0.5922
vn -0.7071 -0.0000 0.7071
vn -0.7071 -0.0000 -0.7071
vn 0.7071 -0.0000 -0.7071
vn 0.8338 -0.0000 0.5521
vt 0.000000 0.000000
vt 0.009901 0.000000
vt 0.019802 0.000000
vt 0.029703 0.000000
vt 0.039604 0.000000
vt 0.049505 0.000000
vt 0.059406 0.000000
vt 0.069307 0.000000
vt 0.079208 0.000000
vt 0.089109 0.000000
vt 0.099010 0.000000
vt 0.108911 0.000000
vt 0.118812 0.000000
vt 0.128713 0.000000
vt 0.138614 0.000000
vt 0.148515 0.000000
vt 0.158416 0.000000
vt 0.168317 0.000000
vt 0.178218 0.000000
vt 0.188119 0.000000
vt 0.198020 0.000000
vt 0.207921 0.000000
vt 0.217822 0.000000
vt 0.227723 0.000000
vt 0.237624 0.000000
vt 0.247525 0.000000
vt 0.257426 0.000000
vt 0.267327 0.000000
vt 0.277228 0.000000
vt 0.287129 0.000000
vt 0.297030 0.000000
vt 0.306931 0.000000
vt 0.316832 0.000000
vt 0.326733 0.000000
vt 0.336634 0.000000
vt 0.346535 0.000000
vt 0.356436 0.000000
vt 0.366337 0.000000
vt 0.376238 0.000000
vt 0.386139 0.000000
vt 0.396040 0.000000
vt 0.405941 0.000000
vt 0.415842 0.000000
vt 0.425743 0.000000
vt 0.435644 0.000000
vt 0.445545 0.000000
vt 0.455446 0.000000
vt 0.465347 0.000000
vt 0.475248 0.000000
vt 0.485149 0.000000
vt 0.495050 0.000000
vt 0.504951 0.000000
vt 0.514852 0.000000
vt 0.524752 0.000000
vt 0.534653 0.000000
vt 0.544554 0.000000
vt 0.554455 0.000000
vt 0.564356 0.000000
vt 0.574257 0.000000
vt 0.584158 0.000000
vt 0.594059 0.000000
vt 0.603960 0.000000
vt 0.613861 0.000000
vt 0.623762 0.000000
vt 0.633663 0.000000
vt 0.643564 0.000000
vt 0.653465 0.000000
vt 0.663366 0.000000
vt 0.673267 0.000000
vt 0.683168 0.000000
vt 0.693069 0.000000
vt 0.702970 0.000000
vt 0.712871 0.000000
vt 0.722772 0.000000
vt 0.732673 0.000000
vt 0.742574 0.000000
vt 0.752475 0.000000
vt 0.762376 0.000000
vt 0.772277 0.000000
vt 0.782178 0.000000
vt 0.792079 0.000000
vt 0.801980 0.000000
vt 0.811881 0.000000
vt 0.821782 0.000000
vt 0.831683 0.000000
vt 0.841584 0.000000
vt 0.851485 0.000000
vt 0.861386 0.000000
vt 0.871287 0.000000
vt 0.881188 0.000000
vt 0.891089 0.000000
vt 0.900990 0.000000
vt 0.910891 0.000000
vt 0.920792 0.000000
vt 0.930693 0.000000
vt 0.940594 0.000000
vt 0.950495 0.000000
vt 0.960396 0.000000
vt 0.970297 0.000000
vt 0.980198 0.000000
vt 0.990099 0.000000
vt 1.000000 0.000000
vt 0.000000 0.000000
vt 0.009901 0.000000
vt 0.019802 0.000000
vt 0.029703 0.000000
vt 0.039604 0.000000
vt 0.049505 0.000000
vt 0.059406 0.000000
vt 0.069307 0.000000
vt 0.079208 0.000000
vt 0.089109 0.000000
vt 0.099010 0.000000
vt 0.108911 0.000000
vt 0.118812 0.000000
vt 0.128713 0.000000
vt 0.138614 0.000000
vt 0.148515 0.000000
vt 0.158416 0.000000
vt 0.168317 0.000000
vt 0.178218 0.000000
vt 0.188119 0.000000
vt 0.198020 0.000000
vt 0.207921 0.000000
vt 0.217822 0.000000
vt 0.227723 0.000000
vt 0.237624 0.000000
vt 0.247525 0.000000
vt 0.257426 0.000000
vt 0.267327 0.000000
vt 0.277228 0.000000
vt 0.287129 0.000000
vt 0.297030 0.000000
vt 0.306931 0.000000
vt 0.316832 0.000000
vt 0.326733 0.000000
vt 0.336634 0.000000
vt 0.346535 0.000000
vt 0.356436 0.000000
vt 0.366337 0.000000
vt 0.376238 0.000000
vt 0.386139 0.000000
vt 0.396040 0.000000
vt 0.405941 0.000000
vt 0.415842 0.000000
vt 0.425743 0.000000
vt 0.435644 0.000000
vt 0.445545 0.000000
vt 0.455446 0.000000
vt 0.465347 0.000000
vt 0.475248 0.000000
vt 0.485149 0.000000
vt 0.495050 0.000000
vt 0.504951 0.000000
vt 0.514852 0.000000
vt 0.524752 0.000000
vt 0.534653 0.000000
vt 0.544554 0.000000
vt 0.554455 0.000000
vt 0.564356 0.000000
vt 0.574257 0.000000
vt 0.584158 0.000000
vt 0.594059 0.000000
vt 0.603960 0.000000
vt 0.613861 0.000000
vt 0.623762 0.000000
vt 0.633663 0.000000
vt 0.643564 0.000000
vt 0.653465 0.000000
vt 0.663366 0.000000
vt 0.673267 0.000000
vt 0.683168 0.000000
vt 0.693069 0.000000
vt 0.702970 0.000000
vt 0.712871 0.000000
vt 0.722772 0.000000
vt 0.732673 0.000000
vt 0.742574 0.000000
vt 0.752475 0.000000
vt 0.762376 0.000000
vt 0.772277 0.000000
vt 0.782178 0.000000
vt 0.792079 0.000000
vt 0.801980 0.000000
vt 0.811881 0.000000
vt 0.821782 0.000000
vt 0.831683 0.000000
vt 0.841584 0.000000
vt 0.851485 0.000000
vt 0.861386 0.000000
vt 0.871287 0.000000
vt 0.881188 0.000000
vt 0.891089 0.000000
vt 0.900990 0.000000
vt 0.910891 0.000000
vt 0.920792 0.000000
vt 0.930693 0.000000
vt 0.940594 0.000000
vt 0.950495 0.000000
vt 0.960396 0.000000
vt 0.970297 0.000000
vt 0.980198 0.000000
vt 0.990099 0.000000
vt 1.000000 0.000000
vt 0.000000 0.000000
vt 1.000000 0.000000
vt 0.000000 1.000000
vt 1.000000 1.000000
vt 0.009804 0.000000
vt 0.009804 1.000000
vt 0.019608 0.000000
vt 0.019608 1.000000
vt 0.029412 0.000000
vt 0.029412 1.000000
vt 0.039216 0.000000
vt 0.039216 1.000000
vt 0.049020 0.000000
vt 0.049020 1.000000
vt 0.058824 0.000000
vt 0.058824 1.000000
vt 0.068627 0.000000
vt 0.068627 1.000000
vt 0.078431 0.000000
vt 0.078431 1.000000
vt 0.088235 0.000000
vt 0.088235 1.000000
vt 0.098039 0.000000
vt 0.098039 1.000000
vt 0.107843 0.000000
vt 0.107843 1.000000
vt 0.117647 0.000000
vt 0.117647 1.000000
vt 0.127451 0.000000
vt 0.127451 1.000000
vt 0.137255 0.000000
vt 0.137255 1.000000
vt 0.147059 0.000000
vt 0.147059 1.000000
vt 0.156863 0.000000
vt 0.156863 1.000000
vt 0.166667 0.000000
vt 0.166667 1.000000
vt 0.176471 0.000000
vt 0.176471 1.000000
vt 0.186275 0.000000
vt 0.186275 1.000000
vt 0.196078 0.000000
vt 0.196078 1.000000
vt 0.205882 0.000000
vt 0.205882 1.000000
vt 0.215686 0.000000
vt 0.215686 1.000000
vt 0.225490 0.000000
vt 0.225490 1.000000
vt 0.235294 0.000000
vt 0.235294 1.000000
vt 0.245098 0.000000
vt 0.245098 1.000000
vt 0.254902 0.000000
vt 0.254902 1.000000
vt 0.264706 0.000000
vt 0.264706 1.000000
vt 0.274510 0.000000
vt 0.274510 1.000000
vt 0.284314 0.000000
vt 0.284314 1.000000
vt 0.294118 0.000000
vt 0.294118 1.000000
vt 0.303922 0.000000
vt 0.303922 1.000000
vt 0.313726 0.000000
vt 0.313726 1.000000
vt 0.323529 0.000000
vt 0.323529 1.000000
vt 0.333333 0.000000
vt 0.333333 1.000000
vt 0.343137 0.000000
vt 0.343137 1.000000
vt 0.352941 0.000000
vt 0.352941 1.000000
vt 0.362745 0.000000
vt 0.362745 1.000000
vt 0.372549 0.000000
vt 0.372549 1.000000
vt 0.382353 0.000000
vt 0.382353 1.000000
vt 0.392157 0.000000
vt 0.392157 1.000000
vt 0.401961 0.000000
vt 0.401961 1.000000
vt 0.411765 0.000000
vt 0.411765 1.000000
vt 0.421569 0.000000
vt 0.421569 1.000000
vt 0.431373 0.000000
vt 0.431373 1.000000
vt 0.441176 0.000000
vt 0.441176 1.000000
vt 0.450980 0.000000
vt 0.450980 1.000000
vt 0.460784 0.000000
vt 0.460784 1.000000
vt 0.470588 0.000000
vt 0.470588 1.000000
vt 0.480392 0.000000
vt 0.480392 1.000000
vt 0.490196 0.000000
vt 0.490196 1.000000
vt 0.500000 0.000000
vt 0.500000 1.000000
vt 0.509804 0.000000
vt 0.509804 1.000000
vt 0.519608 0.000000
vt 0.519608 1.000000
vt 0.529412 0.000000
vt 0.529412 1.000000
vt 0.539216 0.000000
vt 0.539216 1.000000
vt 0.549020 0.000000
vt 0.549020 1.000000
vt 0.558824 0.000000
vt 0.558824 1.000000
vt 0.568627 0.000000
vt 0.568627 1.000000
vt 0.578431 0.000000
vt 0.578431 1.000000
vt 0.588235 0.000000
vt 0.588235 1.000000
vt 0.598039 0.000000
vt 0.598039 1.000000
vt 0.607843 0.000000
vt 0.607843 1.000000
vt 0.617647 0.000000
vt 0.617647 1.000000
vt 0.627451 0.000000
vt 0.627451 1.000000
vt 0.637255 0.000000
vt 0.637255 1.000000
vt 0.647059 0.000000
vt 0.647059 1.000000
vt 0.656863 0.000000
vt 0.656863 1.000000
vt 0.666667 0.000000
vt 0.666667 1.000000
vt 0.676471 0.000000
vt 0.676471 1.000000
vt 0.686275 0.000000
vt 0.686275 1.000000
vt 0.696078 0.000000
vt 0.696078 1.000000
vt 0.705882 0.000000
vt 0.705882 1.000000
vt 0.715686 0.000000
vt 0.715686 1.000000
vt 0.725490 0.000000
vt 0.725490 1.000000
vt 0.735294 0.000000
vt 0.735294 1.000000
vt 0.745098 0.000000
vt 0.745098 1.000000
vt 0.754902 0.000000
vt 0.754902 1.000000
vt 0.764706 0.000000
vt 0.764706 1.000000
vt 0.774510 0.000000
vt 0.774510 1.000000
vt 0.784314 0.000000
vt 0.784314 1.000000
vt 0.794118 0.000000
vt 0.794118 1.000000
vt 0.803922 0.000000
vt 0.803922 1.000000
vt 0.813725 0.000000
vt 0.813725 1.000000
vt 0.823529 0.000000
vt 0.823529 1.000000
vt 0.833333 0.000000
vt 0.833333 1.000000
vt 0.843137 0.000000
vt 0.843137 1.000000
vt 0.852941 0.000000
vt 0.852941 1.000000
vt 0.862745 0.000000
vt 0.862745 1.000000
vt 0.872549 0.000000
vt 0.872549 1.000000
vt 0.882353 0.000000
vt 0.882353 1.000000
vt 0.892157 0.000000
vt 0.892157 1.000000
vt 0.901961 0.000000
vt 0.901961 1.000000
vt 0.911765 0.000000
vt 0.911765 1.000000
vt 0.921569 0.000000
vt 0.921569 1.000000
vt 0.931373 0.000000
vt 0.931373 1.000000
vt 0.941176 0.000000
vt 0.941176 1.000000
vt 0.950980 0.000000
vt 0.950980 1.000000
vt 0.960784 0.000000
vt 0.960784 1.000000
vt 0.970588 0.000000
vt 0.970588 1.000000
vt 0.980392 0.000000
vt 0.980392 1.000000
vt 0.990196 0.000000
vt 0.990196 1.000000
s 0
f 35/35/1 37/37/1 36/36/1
f 35/35/1 38/38/1 37/37/1
f 35/35/1 39/39/1 38/38/1
f 35/35/1 40/40/1 39/39/1
f 34/34/1 40/40/1 35/35/1
f 34/34/1 41/41/1 40/40/1
f 34/34/1 42/42/1 41/41/1
f 34/34/1 43/43/1 42/42/1
f 33/33/1 43/43/1 34/34/1
f 33/33/1 44/44/1 43/43/1
f 33/33/1 45/45/1 44/44/1
f 32/32/1 45/45/1 33/33/1
f 32/32/1 46/46/1 45/45/1
f 32/32/1 47/47/1 46/46/1
f 31/31/1 47/47/1 32/32/1
f 31/31/1 48/48/1 47/47/1
f 31/31/1 59/59/1 48/48/1
f 59/59/1 58/58/1 48/48/1
f 58/58/1 57/57/1 48/48/1
f 57/57/1 56/56/1 48/48/1
f 56/56/1 55/55/1 48/48/1
f 55/55/1 54/54/1 48/48/1
f 54/54/1 53/53/1 48/48/1
f 53/53/1 52/52/1 48/48/1
f 52/52/1 51/51/1 48/48/1
f 51/51/1 50/50/1 48/48/1
f 50/50/1 49/49/1 48/48/1
f 30/30/1 61/61/1 31/31/1
f 61/61/1 60/60/1 31/31/1
f 60/60/1 59/59/1 31/31/1
f 30/30/1 62/62/1 61/61/1
f 30/30/1 63/63/1 62/62/1
f 30/30/1 64/64/1 63/63/1
f 29/29/1 64/64/1 30/30/1
f 29/29/1 65/65/1 64/64/1
f 29/29/1 66/66/1 65/65/1
f 28/28/1 66/66/1 29/29/1
f 28/28/1 67/67/1 66/66/1
f 28/28/1 68/68/1 67/67/1
f 27/27/1 68/68/1 28/28/1
f 27/27/1 69/69/1 68/68/1
f 26/26/1 69/69/1 27/27/1
f 26/26/1 70/70/1 69/69/1
f 26/26/1 71/71/1 70/70/1
f 25/25/1 71/71/1 26/26/1
f 25/25/1 72/72/1 71/71/1
f 24/24/1 72/72/1 25/25/1
f 24/24/1 73/73/1 72/72/1
f 24/24/1 74/74/1 73/73/1
f 23/23/1 74/74/1 24/24/1
f 99/99/1 101/101/1 100/100/1
f 99/99/1 98/98/1 101/101/1
f 98/98/1 102/102/1 101/101/1
f 23/23/1 75/75/1 74/74/1
f 22/22/1 75/75/1 23/23/1
f 22/22/1 76/76/1 75/75/1
f 97/97/1 102/102/1 98/98/1
f 21/21/1 76/76/1 22/22/1
f 21/21/1 77/77/1 76/76/1
f 21/21/1 78/78/1 77/77/1
f 20/20/1 78/78/1 21/21/1
f 20/20/1 79/79/1 78/78/1
f 19/19/1 79/79/1 20/20/1
f 19/19/1 80/80/1 79/79/1
f 19/19/1 81/81/1 80/80/1
f 18/18/1 81/81/1 19/19/1
f 18/18/1 82/82/1 81/81/1
f 96/96/1 102/102/1 97/97/1
f 95/95/1 102/102/1 96/96/1
f 94/94/1 102/102/1 95/95/1
f 18/18/1 83/83/1 82/82/1
f 93/93/1 102/102/1 94/94/1
f 92/92/1 102/102/1 93/93/1
f 91/91/1 102/102/1 92/92/1
f 18/18/1 84/84/1 83/83/1
f 17/17/1 84/84/1 18/18/1
f 90/90/1 102/102/1 91/91/1
f 89/89/1 102/102/1 90/90/1
f 88/88/1 102/102/1 89/89/1
f 17/17/1 85/85/1 84/84/1
f 87/87/1 102/102/1 88/88/1
f 86/86/1 102/102/1 87/87/1
f 85/85/1 102/102/1 86/86/1
f 17/17/1 102/102/1 85/85/1
f 16/16/1 102/102/1 17/17/1
f 16/16/1 1/1/1 102/102/1
f 16/16/1 2/2/1 1/1/1
f 15/15/1 2/2/1 16/16/1
f 15/15/1 3/3/1 2/2/1
f 15/15/1 4/4/1 3/3/1
f 14/14/1 4/4/1 15/15/1
f 14/14/1 5/5/1 4/4/1
f 14/14/1 6/6/1 5/5/1
f 14/14/1 7/7/1 6/6/1
f 13/13/1 7/7/1 14/14/1
f 13/13/1 8/8/1 7/7/1
f 13/13/1 9/9/1 8/8/1
f 13/13/1 10/10/1 9/9/1
f 12/12/1 10/10/1 13/13/1
f 12/12/1 11/11/1 10/10/1
f 137/137/2 138/138/2 139/139/2
f 137/137/2 139/139/2 140/140/2
f 137/137/2 140/140/2 141/141/2
f 137/137/2 141/141/2 142/142/2
f 136/136/2 137/137/2 142/142/2
f 136/136/2 142/142/2 143/143/2
f 136/136/2 143/143/2 144/144/2
f 136/136/2 144/144/2 145/145/2
f 135/135/2 136/136/2 145/145/2
f 135/135/2 145/145/2 146/146/2
f 135/135/2 146/146/2 147/147/2
f 134/134/2 135/135/2 147/147/2
f 134/134/2 147/147/2 148/148/2
f 134/134/2 148/148/2 149/149/2
f 133/133/2 134/134/2 149/149/2
f 133/133/2 149/149/2 150/150/2
f 133/133/2 150/150/2 161/161/2
f 161/161/2 150/150/2 160/160/2
f 160/160/2 150/150/2 159/159/2
f 159/159/2 150/150/2 158/158/2
f 158/158/2 150/150/2 157/157/2
f 157/157/2 150/150/2 156/156/2
f 156/156/2 150/150/2 155/155/2
f 155/155/2 150/150/2 154/154/2
f 154/154/2 150/150/2 153/153/2
f 153/153/2 150/150/2 152/152/2
f 152/152/2 150/150/2 151/151/2
f 132/132/2 133/133/2 163/163/2
f 163/163/2 133/133/2 162/162/2
f 162/162/2 133/133/2 161/161/2
f 132/132/2 163/163/2 164/164/2
f 132/132/2 164/164/2 165/165/2
f 132/132/2 165/165/2 166/166/2
f 131/131/2 132/132/2 166/166/2
f 131/131/2 166/166/2 167/167/2
f 131/131/2 167/167/2 168/168/2
f 130/130/2 131/131/2 168/168/2
f 130/130/2 168/168/2 169/169/2
f 130/130/2 169/169/2 170/170/2
f 129/129/2 130/130/2 170/170/2
f 129/129/2 170/170/2 171/171/2
f 128/128/2 129/129/2 171/171/2
f 128/128/2 171/171/2 172/172/2
f 128/128/2 172/172/2 173/173/2
f 127/127/2 128/128/2 173/173/2
f 127/127/2 173/173/2 174/174/2
f 126/126/2 127/127/2 174/174/2
f 126/126/2 174/174/2 175/175/2
f 126/126/2 175/175/2 176/176/2
f 125/125/2 126/126/2 176/176/2
f 201/201/2 202/202/2 203/203/2
f 201/201/2 203/203/2 200/200/2
f 200/200/2 203/203/2 204/204/2
f 125/125/2 176/176/2 177/177/2
f 124/124/2 125/125/2 177/177/2
f 124/124/2 177/177/2 178/178/2
f 199/199/2 200/200/2 204/204/2
f 123/123/2 124/124/2 178/178/2
f 123/123/2 178/178/2 179/179/2
f 123/123/2 179/179/2 180/180/2
f 122/122/2 123/123/2 180/180/2
f 122/122/2 180/180/2 181/181/2
f 121/121/2 122/122/2 181/181/2
f 121/121/2 181/181/2 182/182/2
f 121/121/2 182/182/2 183/183/2
f 120/120/2 121/121/2 183/183/2
f 120/120/2 183/183/2 184/184/2
f 198/198/2 199/199/2 204/204/2
f 197/197/2 198/198/2 204/204/2
f 196/196/2 197/197/2 204/204/2
f 120/120/2 184/184/2 185/185/2
f 195/195/2 196/196/2 204/204/2
f 194/194/2 195/195/2 204/204/2
f 193/193/2 194/194/2 204/204/2
f 120/120/2 185/185/2 186/186/2
f 119/119/2 120/120/2 186/186/2
f 192/192/2 193/193/2 204/204/2
f 191/191/2 192/192/2 204/204/2
f 190/190/2 191/191/2 204/204/2
f 119/119/2 186/186/2 187/187/2
f 189/189/2 190/190/2 204/204/2
f 188/188/2 189/189/2 204/204/2
f 187/187/2 188/188/2 204/204/2
f 119/119/2 187/187/2 204/204/2
f 118/118/2 119/119/2 204/204/2
f 118/118/2 204/204/2 103/103/2
f 118/118/2 103/103/2 104/104/2
f 117/117/2 118/118/2 104/104/2
f 117/117/2 104/104/2 105/105/2
f 117/117/2 105/105/2 106/106/2
f 116/116/2 117/117/2 106/106/2
f 116/116/2 106/106/2 107/107/2
f 116/116/2 107/107/2 108/108/2
f 116/116/2 108/108/2 109/109/2
f 115/115/2 116/116/2 109/109/2
f 115/115/2 109/109/2 110/110/2
f 115/115/2 110/110/2 111/111/2
f 115/115/2 111/111/2 112/112/2
f 114/114/2 115/115/2 112/112/2
f 114/114/2 112/112/2 113/113/2
s 1
f 208/210/3 205/205/4 206/207/4
f 210/212/5 207/209/3 208/210/3
f 212/214/6 209/211/5 210/212/5
f 214/216/7 211/213/6 212/214/6
f 216/218/8 213/215/7 214/216/7
f 218/220/9 215/217/8 216/218/8
f 220/222/10 217/219/9 218/220/9
f 222/224/11 219/221/10 220/222/10
f 224/226/12 221/223/11 222/224/11
f 226/228/13 223/225/12 224/226/12
f 228/230/14 225/227/13 226/228/13
f 230/232/15 227/229/14 228/230/14
f 232/234/16 229/231/15 230/232/15
f 234/236/17 231/233/16 232/234/16
f 236/238/18 233/235/17 234/236/17
f 238/240/19 235/237/18 236/238/18
f 240/242/20 237/239/19 238/240/19
f 242/244/21 239/241/20 240/242/20
f 244/246/22 241/243/21 242/244/21
f 246/248/23 243/245/22 244/246/22
f 248/250/24 245/247/23 246/248/23
f 250/252/25 247/249/24 248/250/24
f 252/254/26 249/251/25 250/252/25
f 254/256/27 251/253/26 252/254/26
f 256/258/28 253/255/27 254/256/27
f 258/260/29 255/257/28 256/258/28
f 260/262/30 257/259/29 258/260/29
f 262/264/31 259/261/30 260/262/30
f 264/266/32 261/263/31 262/264/31
f 266/268/33 263/265/32 264/266/32
f 268/270/34 265/267/33 266/268/33
f 270/272/35 267/269/34 268/270/34
f 272/274/36 269/271/35 270/272/35
f 274/276/37 271/273/36 272/274/36
f 276/278/38 273/275/37 274/276/37
f 278/280/39 275/277/38 276/278/38
f 280/282/40 277/279/39 278/280/39
f 282/284/41 279/281/40 280/282/40
f 284/286/42 281/283/41 282/284/41
f 286/288/43 283/285/42 284/286/42
f 288/290/44 285/287/43 286/288/43
f 290/292/45 287/289/44 288/290/44
f 292/294/46 289/291/45 290/292/45
f 294/296/47 291/293/46 292/294/46
f 296/298/48 293/295/47 294/296/47
f 298/300/49 295/297/48 296/298/48
f 300/302/50 297/299/49 298/300/49
f 302/304/51 299/301/52 300/302/50
f 304/306/53 301/303/51 302/304/51
f 306/308/54 303/305/53 304/306/53
f 308/310/55 305/307/54 306/308/54
f 310/312/56 307/309/55 308/310/55
f 312/314/57 309/311/56 310/312/56
f 314/316/58 311/313/57 312/314/57
f 316/318/59 313/315/58 314/316/58
f 318/320/60 315/317/59 316/318/59
f 320/322/61 317/319/60 318/320/60
f 322/324/62 319/321/61 320/322/61
f 324/326/63 321/323/62 322/324/62
f 326/328/64 323/325/63 324/326/63
f 328/330/65 325/327/64 326/328/64
f 330/332/66 327/329/65 328/330/65
f 332/334/67 329/331/66 330/332/66
f 334/336/68 331/333/67 332/334/67
f 336/338/69 333/335/68 334/336/68
f 338/340/70 335/337/69 336/338/69
f 340/342/71 337/339/70 338/340/70
f 342/344/72 339/341/71 340/342/71
f 344/346/73 341/343/72 342/344/72
f 346/348/74 343/345/73 344/346/73
f 348/350/75 345/347/74 346/348/74
f 350/352/76 347/349/75 348/350/75
f 352/354/77 349/351/76 350/352/76
f 354/356/78 351/353/77 352/354/77
f 356/358/79 353/355/78 354/356/78
f 358/360/80 355/357/79 356/358/79
f 360/362/81 357/359/80 358/360/80
f 362/364/82 359/361/81 360/362/81
f 364/366/83 361/363/82 362/364/82
f 366/368/84 363/365/83 364/366/83
f 368/370/85 365/367/84 366/368/84
f 370/372/86 367/369/85 368/370/85
f 372/374/87 369/371/86 370/372/86
f 374/376/88 371/373/87 372/374/87
f 376/378/89 373/375/88 374/376/88
f 378/380/90 375/377/89 376/378/89
f 380/382/91 377/379/90 378/380/90
f 382/384/92 379/381/91 380/382/91
f 384/386/93 381/383/92 382/384/92
f 386/388/94 383/385/93 384/386/93
f 388/390/95 385/387/94 386/388/94
f 390/392/96 387/389/95 388/390/95
f 392/394/97 389/391/96 390/392/96
f 394/396/98 391/393/97 392/394/97
f 396/398/99 393/395/98 394/396/98
f 398/400/100 395/397/99 396/398/99
f 400/402/101 397/399/100 398/400/100
f 402/404/101 399/401/101 400/402/101
f 404/406/102 401/403/101 402/404/101
f 406/408/103 403/405/102 404/406/102
f 408/410/104 405/407/103 406/408/103
f 206/208/4 407/409/104 408/410/104
f 208/210/3 207/209/3 205/205/4
f 210/212/5 209/211/5 207/209/3
f 212/214/6 211/213/6 209/211/5
f 214/216/7 213/215/7 211/213/6
f 216/218/8 215/217/8 213/215/7
f 218/220/9 217/219/9 215/217/8
f 220/222/10 219/221/10 217/219/9
f 222/224/11 221/223/11 219/221/10
f 224/226/12 223/225/12 221/223/11
f 226/228/13 225/227/13 223/225/12
f 228/230/14 227/229/14 225/227/13
f 230/232/15 229/231/15 227/229/14
f 232/234/16 231/233/16 229/231/15
f 234/236/17 233/235/17 231/233/16
f 236/238/18 235/237/18 233/235/17
f 238/240/19 237/239/19 235/237/18
f 240/242/20 239/241/20 237/239/19
f 242/244/21 241/243/21 239/241/20
f 244/246/22 243/245/22 241/243/21
f 246/248/23 245/247/23 243/245/22
f 248/250/24 247/249/24 245/247/23
f 250/252/25 249/251/25 247/249/24
f 252/254/26 251/253/26 249/251/25
f 254/256/27 253/255/27 251/253/26
f 256/258/28 255/257/28 253/255/27
f 258/260/29 257/259/29 255/257/28
f 260/262/30 259/261/30 257/259/29
f 262/264/31 261/263/31 259/261/30
f 264/266/32 263/265/32 261/263/31
f 266/268/33 265/267/33 263/265/32
f 268/270/34 267/269/34 265/267/33
f 270/272/35 269/271/35 267/269/34
f 272/274/36 271/273/36 269/271/35
f 274/276/37 273/275/37 271/273/36
f 276/278/38 275/277/38 273/275/37
f 278/280/39 277/279/39 275/277/38
f 280/282/40 279/281/40 277/279/39
f 282/284/41 281/283/41 279/281/40
f 284/286/42 283/285/42 281/283/41
f 286/288/43 285/287/43 283/285/42
f 288/290/44 287/289/44 285/287/43
f 290/292/45 289/291/45 287/289/44
f 292/294/46 291/293/46 289/291/45
f 294/296/47 293/295/47 291/293/46
f 296/298/48 295/297/48 293/295/47
f 298/300/49 297/299/49 295/297/48
f 300/302/50 299/301/52 297/299/49
f 302/304/51 301/303/51 299/301/52
f 304/306/53 303/305/53 301/303/51
f 306/308/54 305/307/54 303/305/53
f 308/310/55 307/309/55 305/307/54
f 310/312/56 309/311/56 307/309/55
f 312/314/57 311/313/57 309/311/56
f 314/316/58 313/315/58 311/313/57
f 316/318/59 315/317/59 313/315/58
f 318/320/60 317/319/60 315/317/59
f 320/322/61 319/321/61 317/319/60
f 322/324/62 321/323/62 319/321/61
f 324/326/63 323/325/63 321/323/62
f 326/328/64 325/327/64 323/325/63
f 328/330/65 327/329/65 325/327/64
f 330/332/66 329/331/66 327/329/65
f 332/334/67 331/333/67 329/331/66
f 334/336/68 333/335/68 331/333/67
f 336/338/69 335/337/69 333/335/68
f 338/340/70 337/339/70 335/337/69
f 340/342/71 339/341/71 337/339/70
f 342/344/72 341/343/72 339/341/71
f 344/346/73 343/345/73 341/343/72
f 346/348/74 345/347/74 343/345/73
f 348/350/75 347/349/75 345/347/74
f 350/352/76 349/351/76 347/349/75
f 352/354/77 351/353/77 349/351/76
f 354/356/78 353/355/78 351/353/77
f 356/358/79 355/357/79 353/355/78
f 358/360/80 357/359/80 355/357/79
f 360/362/81 359/361/81 357/359/80
f 362/364/82 361/363/82 359/361/81
f 364/366/83 363/365/83 361/363/82
f 366/368/84 365/367/84 363/365/83
f 368/370/85 367/369/85 365/367/84
f 370/372/86 369/371/86 367/369/85
f 372/374/87 371/373/87 369/371/86
f 374/376/88 373/375/88 371/373/87
f 376/378/89 375/377/89 373/375/88
f 378/380/90 377/379/90 375/377/89
f 380/382/91 379/381/91 377/379/90
f 382/384/92 381/383/92 379/381/91
f 384/386/93 383/385/93 381/383/92
f 386/388/94 385/387/94 383/385/93
f 388/390/95 387/389/95 385/387/94
f 390/392/96 389/391/96 387/389/95
f 392/394/97 391/393/97 389/391/96
f 394/396/98 393/395/98 391/393/97
f 396/398/99 395/397/99 393/395/98
f 398/400/100 397/399/100 395/397/99
f 400/402/101 399/401/101 397/399/100
f 402/404/101 401/403/101 399/401/101
f 404/406/102 403/405/102 401/403/101
f 406/408/103 405/407/103 403/405/102
f 408/410/104 407/409/104 405/407/103
f 206/208/4 205/206/4 407/409/104
