# Blender 3.2.2
# www.blender.org
o Letter_I
v -0.071848 0.293255 0.500000
v -0.071848 0.293255 -0.500000
v 0.071848 0.293255 -0.500000
v 0.071848 0.293255 0.500000
v -0.071848 -0.293255 0.500000
v -0.071848 -0.293255 -0.500000
v 0.071848 -0.293255 -0.500000
v 0.071848 -0.293255 0.500000
v -0.071848 -0.293255 0.500000
v -0.071848 0.293255 0.500000
v -0.071848 -0.293255 -0.500000
v -0.071848 0.293255 -0.500000
v 0.071848 -0.293255 -0.500000
v 0.071848 0.293255 -0.500000
v 0.071848 -0.293255 0.500000
v 0.071848 0.293255 0.500000
vn -0.0000 1.0000 -0.0000
vn -0.0000 -1.0000 -0.0000
vn -0.7071 -0.0000 -0.7071
vn -0.7071 -0.0000 0.7071
vn 0.7071 -0.0000 -0.7071
vn 0.7071 -0.0000 0.7071
vt 0.000000 0.000000
vt 0.333333 0.000000
vt 0.666667 0.000000
vt 1.000000 0.000000
vt 0.000000 0.000000
vt 0.333333 0.000000
vt 0.666667 0.000000
vt 1.000000 0.000000
vt 0.000000 0.000000
vt 1.000000 0.000000
vt 0.000000 1.000000
vt 1.000000 1.000000
vt 0.250000 0.000000
vt 0.250000 1.000000
vt 0.500000 0.000000
vt 0.500000 1.000000
vt 0.750000 0.000000
vt 0.750000 1.000000
s 0
f 1/1/1 3/3/1 2/2/1
f 1/1/1 4/4/1 3/3/1
f 5/5/2 6/6/2 7/7/2
f 5/5/2 7/7/2 8/8/2
s 1
f 12/14/3 9/9/4 10/11/4
f 14/16/5 11/13/3 12/14/3
f 16/18/6 13/15/5 14/16/5
f 10/12/4 15/17/6 16/18/6
f 12/14/3 11/13/3 9/9/4
f 14/16/5 13/15/5 11/13/3
f 16/18/6 15/17/6 13/15/5
f 10/12/4 9/10/4 15/17/6
