# Blender 3.2.2
# www.blender.org
o Letter_J
v 0.128199 0.219298 0.290622
v 0.124548 0.219298 0.322962
v 0.118301 0.219298 0.353361
v 0.109324 0.219298 0.381579
v 0.097484 0.219298 0.407375
v 0.082648 0.219298 0.430510
v 0.064682 0.219298 0.450743
v 0.043454 0.219298 0.467836
v 0.018829 0.219298 0.481548
v -0.009325 0.219298 0.491639
v -0.041142 0.219298 0.497870
v -0.076754 0.219298 0.500000
v -0.079956 0.219298 0.499978
v -0.082998 0.219298 0.499914
v -0.085903 0.219298 0.499811
v -0.088694 0.219298 0.499675
v -0.091393 0.219298 0.499508
v -0.094024 0.219298 0.499315
v -0.096609 0.219298 0.499098
v -0.099172 0.219298 0.498863
v -0.101734 0.219298 0.498612
v -0.104319 0.219298 0.498350
v -0.106950 0.219298 0.498080
v -0.109649 0.219298 0.497807
v -0.129386 0.219298 0.398026
v -0.101974 0.219298 0.398026
v -0.075580 0.219298 0.396837
v -0.053200 0.219298 0.393265
v -0.034505 0.219298 0.387301
v -0.019168 0.219298 0.378939
v -0.006862 0.219298 0.368171
v 0.002741 0.219298 0.354989
v 0.009969 0.219298 0.339386
v 0.015148 0.219298 0.321353
v 0.018606 0.219298 0.300884
v 0.020671 0.219298 0.277971
v 0.021670 0.219298 0.252605
v 0.021930 0.219298 0.224781
v 0.021930 0.219298 -0.500000
v 0.129386 0.219298 -0.500000
v 0.129386 0.219298 0.256579
v 0.128199 -0.219298 0.290622
v 0.124548 -0.219298 0.322962
v 0.118301 -0.219298 0.353361
v 0.109324 -0.219298 0.381579
v 0.097484 -0.219298 0.407375
v 0.082648 -0.219298 0.430510
v 0.064682 -0.219298 0.450743
v 0.043454 -0.219298 0.467836
v 0.018829 -0.219298 0.481548
v -0.009325 -0.219298 0.491639
v -0.041142 -0.219298 0.497870
v -0.076754 -0.219298 0.500000
v -0.079956 -0.219298 0.499978
v -0.082998 -0.219298 0.499914
v -0.085903 -0.219298 0.499811
v -0.088694 -0.219298 0.499675
v -0.091393 -0.219298 0.499508
v -0.094024 -0.219298 0.499315
v -0.096609 -0.219298 0.499098
v -0.099172 -0.219298 0.498863
v -0.101734 -0.219298 0.498612
v -0.104319 -0.219298 0.498350
v -0.106950 -0.219298 0.498080
v -0.109649 -0.219298 0.497807
v -0.129386 -0.219298 0.398026
v -0.101974 -0.219298 0.398026
v -0.075580 -0.219298 0.396837
v -0.053200 -0.219298 0.393265
v -0.034505 -0.219298 0.387301
v -0.019168 -0.219298 0.378939
v -0.006862 -0.219298 0.368171
v 0.002741 -0.219298 0.354989
v 0.009969 -0.219298 0.339386
v 0.015148 -0.219298 0.321353
v 0.018606 -0.219298 0.300884
v 0.020671 -0.219298 0.277971
v 0.021670 -0.219298 0.252605
v 0.021930 -0.219298 0.224781
v 0.021930 -0.219298 -0.500000
v 0.129386 -0.219298 -0.500000
v 0.129386 -0.219298 0.256579
v 0.128199 -0.219298 0.290622
v 0.128199 0.219298 0.290622
v 0.124548 -0.219298 0.322962
v 0.124548 0.219298 0.322962
v 0.118301 -0.219298 0.353361
v 0.118301 0.219298 0.353361
v 0.109324 -0.219298 0.381579
v 0.109324 0.219298 0.381579
v 0.097484 -0.219298 0.407375
v 0.097484 0.219298 0.407375
v 0.082648 -0.219298 0.430510
v 0.082648 0.219298 0.430510
v 0.064682 -0.219298 0.450743
v 0.064682 0.219298 0.450743
v 0.043454 -0.219298 0.467836
v 0.043454 0.219298 0.467836
v 0.018829 -0.219298 0.481548
v 0.018829 0.219298 0.481548
v -0.009325 -0.219298 0.491639
v -0.009325 0.219298 0.491639
v -0.041142 -0.219298 0.497870
v -0.041142 0.219298 0.497870
v -0.076754 -0.219298 0.500000
v -0.076754 0.219298 0.500000
v -0.079956 -0.219298 0.499978
v -0.079956 0.219298 0.499978
v -0.082998 -0.219298 0.499914
v -0.082998 0.219298 0.499914
v -0.085903 -0.219298 0.499811
v -0.085903 0.219298 0.499811
v -0.088694 -0.219298 0.499675
v -0.088694 0.219298 0.499675
v -0.091393 -0.219298 0.499508
v -0.091393 0.219298 0.499508
v -0.094024 -0.219298 0.499315
v -0.094024 0.219298 0.499315
v -0.096609 -0.219298 0.499098
v -0.096609 0.219298 0.499098
v -0.099172 -0.219298 0.498863
v -0.099172 0.219298 0.498863
v -0.101734 -0.219298 0.498612
v -0.101734 0.219298 0.498612
v -0.104319 -0.219298 0.498350
v -0.104319 0.219298 0.498350
v -0.106950 -0.219298 0.498080
v -0.106950 0.219298 0.498080
v -0.109649 -0.219298 0.497807
v -0.109649 0.219298 0.497807
v -0.129386 -0.219298 0.398026
v -0.129386 0.219298 0.398026
v -0.101974 -0.219298 0.398026
v -0.101974 0.219298 0.398026
v -0.075580 -0.219298 0.396837
v -0.075580 0.219298 0.396837
v -0.053200 -0.219298 0.393265
v -0.053200 0.219298 0.393265
v -0.034505 -0.219298 0.387301
v -0.034505 0.219298 0.387301
v -0.019168 -0.219298 0.378939
v -0.019168 0.219298 0.378939
v -0.006862 -0.219298 0.368171
v -0.006862 0.219298 0.368171
v 0.002741 -0.219298 0.354989
v 0.002741 0.219298 0.354989
v 0.009969 -0.219298 0.339386
v 0.009969 0.219298 0.339386
v 0.015148 -0.219298 0.321353
v 0.015148 0.219298 0.321353
v 0.018606 -0.219298 0.300884
v 0.018606 0.219298 0.300884
v 0.020671 -0.219298 0.277971
v 0.020671 0.219298 0.277971
v 0.021670 -0.219298 0.252605
v 0.021670 0.219298 0.252605
v 0.021930 -0.219298 0.224781
v 0.021930 0.219298 0.224781
v 0.021930 -0.219298 -0.500000
v 0.021930 0.219298 -0.500000
v 0.129386 -0.219298 -0.500000
v 0.129386 0.219298 -0.500000
v 0.129386 -0.219298 0.256579
v 0.129386 0.219298 0.256579
vn -0.0000 1.0000 -0.0000
vn -0.0000 -1.0000 -0.0000
vn 0.9876 -0.0000 0.1569
vn 0.9973 -0.0000 0.0736
vn 0.9676 -0.0000 0.2526
vn 0.9326 -0.0000 0.3608
vn 0.8775 -0.0000 0.4797
vn 0.7972 -0.0000 0.6037
vn 0.6899 -0.0000 0.7239
vn 0.5588 -0.0000 0.8293
vn 0.4133 -0.0000 0.9106
vn 0.2655 -0.0000 0.9641
vn 0.1262 -0.0000 0.9920
vn 0.0264 -0.0000 0.9997
vn -0.0140 -0.0000 0.9999
vn -0.0281 -0.0000 0.9996
vn -0.0420 -0.0000 0.9991
vn -0.0552 -0.0000 0.9985
vn -0.0675 -0.0000 0.9977
vn -0.0784 -0.0000 0.9969
vn -0.0875 -0.0000 0.9962
vn -0.0944 -0.0000 0.9955
vn -0.0991 -0.0000 0.9951
vn -0.1014 -0.0000 0.9948
vn -0.6730 -0.0000 0.7396
vn -0.7727 -0.0000 -0.6348
vn -0.0225 -0.0000 -0.9997
vn -0.1015 -0.0000 -0.9948
vn -0.2314 -0.0000 -0.9729
vn -0.3931 -0.0000 -0.9195
vn -0.5720 -0.0000 -0.8202
vn -0.7379 -0.0000 -0.6749
vn -0.8620 -0.0000 -0.5070
vn -0.9370 -0.0000 -0.3492
vn -0.9751 -0.0000 -0.2217
vn -0.9917 -0.0000 -0.1283
vn -0.9979 -0.0000 -0.0646
vn -0.9997 -0.0000 -0.0244
vn -1.0000 -0.0000 -0.0047
vn -0.7071 -0.0000 -0.7071
vn 0.7071 -0.0000 -0.7071
vn 0.9998 -0.0000 0.0174
vt 0.000000 0.000000
vt 0.025000 0.000000
vt 0.050000 0.000000
vt 0.075000 0.000000
vt 0.100000 0.000000
vt 0.125000 0.000000
vt 0.150000 0.000000
vt 0.175000 0.000000
vt 0.200000 0.000000
vt 0.225000 0.000000
vt 0.250000 0.000000
vt 0.275000 0.000000
vt 0.300000 0.000000
vt 0.325000 0.000000
vt 0.350000 0.000000
vt 0.375000 0.000000
vt 0.400000 0.000000
vt 0.425000 0.000000
vt 0.450000 0.000000
vt 0.475000 0.000000
vt 0.500000 0.000000
vt 0.525000 0.000000
vt 0.550000 0.000000
vt 0.575000 0.000000
vt 0.600000 0.000000
vt 0.625000 0.000000
vt 0.650000 0.000000
vt 0.675000 0.000000
vt 0.700000 0.000000
vt 0.725000 0.000000
vt 0.750000 0.000000
vt 0.775000 0.000000
vt 0.800000 0.000000
vt 0.825000 0.000000
vt 0.850000 0.000000
vt 0.875000 0.000000
vt 0.900000 0.000000
vt 0.925000 0.000000
vt 0.950000 0.000000
vt 0.975000 0.000000
vt 1.000000 0.000000
vt 0.000000 0.000000
vt 0.025000 0.000000
vt 0.050000 0.000000
vt 0.075000 0.000000
vt 0.100000 0.000000
vt 0.125000 0.000000
vt 0.150000 0.000000
vt 0.175000 0.000000
vt 0.200000 0.000000
vt 0.225000 0.000000
vt 0.250000 0.000000
vt 0.275000 0.000000
vt 0.300000 0.000000
vt 0.325000 0.000000
vt 0.350000 0.000000
vt 0.375000 0.000000
vt 0.400000 0.000000
vt 0.425000 0.000000
vt 0.450000 0.000000
vt 0.475000 0.000000
vt 0.500000 0.000000
vt 0.525000 0.000000
vt 0.550000 0.000000
vt 0.575000 0.000000
vt 0.600000 0.000000
vt 0.625000 0.000000
vt 0.650000 0.000000
vt 0.675000 0.000000
vt 0.700000 0.000000
vt 0.725000 0.000000
vt 0.750000 0.000000
vt 0.775000 0.000000
vt 0.800000 0.000000
vt 0.825000 0.000000
vt 0.850000 0.000000
vt 0.875000 0.000000
vt 0.900000 0.000000
vt 0.925000 0.000000
vt 0.950000 0.000000
vt 0.975000 0.000000
vt 1.000000 0.000000
vt 0.000000 0.000000
vt 1.000000 0.000000
vt 0.000000 1.000000
vt 1.000000 1.000000
vt 0.024390 0.000000
vt 0.024390 1.000000
vt 0.048780 0.000000
vt 0.048780 1.000000
vt 0.073171 0.000000
vt 0.073171 1.000000
vt 0.097561 0.000000
vt 0.097561 1.000000
vt 0.121951 0.000000
vt 0.121951 1.000000
vt 0.146341 0.000000
vt 0.146341 1.000000
vt 0.170732 0.000000
vt 0.170732 1.000000
vt 0.195122 0.000000
vt 0.195122 1.000000
vt 0.219512 0.000000
vt 0.219512 1.000000
vt 0.243902 0.000000
vt 0.243902 1.000000
vt 0.268293 0.000000
vt 0.268293 1.000000
vt 0.292683 0.000000
vt 0.292683 1.000000
vt 0.317073 0.000000
vt 0.317073 1.000000
vt 0.341463 0.000000
vt 0.341463 1.000000
vt 0.365854 0.000000
vt 0.365854 1.000000
vt 0.390244 0.000000
vt 0.390244 1.000000
vt 0.414634 0.000000
vt 0.414634 1.000000
vt 0.439024 0.000000
vt 0.439024 1.000000
vt 0.463415 0.000000
vt 0.463415 1.000000
vt 0.487805 0.000000
vt 0.487805 1.000000
vt 0.512195 0.000000
vt 0.512195 1.000000
vt 0.536585 0.000000
vt 0.536585 1.000000
vt 0.560976 0.000000
vt 0.560976 1.000000
vt 0.585366 0.000000
vt 0.585366 1.000000
vt 0.609756 0.000000
vt 0.609756 1.000000
vt 0.634146 0.000000
vt 0.634146 1.000000
vt 0.658537 0.000000
vt 0.658537 1.000000
vt 0.682927 0.000000
vt 0.682927 1.000000
vt 0.707317 0.000000
vt 0.707317 1.000000
vt 0.731707 0.000000
vt 0.731707 1.000000
vt 0.756098 0.000000
vt 0.756098 1.000000
vt 0.780488 0.000000
vt 0.780488 1.000000
vt 0.804878 0.000000
vt 0.804878 1.000000
vt 0.829268 0.000000
vt 0.829268 1.000000
vt 0.853659 0.000000
vt 0.853659 1.000000
vt 0.878049 0.000000
vt 0.878049 1.000000
vt 0.902439 0.000000
vt 0.902439 1.000000
vt 0.926829 0.000000
vt 0.926829 1.000000
vt 0.951219 0.000000
vt 0.951219 1.000000
vt 0.975610 0.000000
vt 0.975610 1.000000
s 0
f 38/38/1 40/40/1 39/39/1
f 38/38/1 41/41/1 40/40/1
f 37/37/1 41/41/1 38/38/1
f 36/36/1 41/41/1 37/37/1
f 36/36/1 1/1/1 41/41/1
f 35/35/1 1/1/1 36/36/1
f 35/35/1 2/2/1 1/1/1
f 34/34/1 2/2/1 35/35/1
f 33/33/1 2/2/1 34/34/1
f 33/33/1 3/3/1 2/2/1
f 32/32/1 3/3/1 33/33/1
f 32/32/1 4/4/1 3/3/1
f 31/31/1 4/4/1 32/32/1
f 30/30/1 4/4/1 31/31/1
f 29/29/1 4/4/1 30/30/1
f 29/29/1 5/5/1 4/4/1
f 28/28/1 5/5/1 29/29/1
f 27/27/1 5/5/1 28/28/1
f 26/26/1 5/5/1 27/27/1
f 24/24/1 26/26/1 25/25/1
f 24/24/1 5/5/1 26/26/1
f 24/24/1 6/6/1 5/5/1
f 24/24/1 7/7/1 6/6/1
f 24/24/1 8/8/1 7/7/1
f 24/24/1 9/9/1 8/8/1
f 24/24/1 10/10/1 9/9/1
f 24/24/1 11/11/1 10/10/1
f 23/23/1 11/11/1 24/24/1
f 23/23/1 12/12/1 11/11/1
f 22/22/1 12/12/1 23/23/1
f 21/21/1 12/12/1 22/22/1
f 20/20/1 12/12/1 21/21/1
f 19/19/1 12/12/1 20/20/1
f 18/18/1 12/12/1 19/19/1
f 17/17/1 12/12/1 18/18/1
f 16/16/1 12/12/1 17/17/1
f 15/15/1 12/12/1 16/16/1
f 14/14/1 12/12/1 15/15/1
f 13/13/1 12/12/1 14/14/1
f 79/79/2 80/80/2 81/81/2
f 79/79/2 81/81/2 82/82/2
f 78/78/2 79/79/2 82/82/2
f 77/77/2 78/78/2 82/82/2
f 77/77/2 82/82/2 42/42/2
f 76/76/2 77/77/2 42/42/2
f 76/76/2 42/42/2 43/43/2
f 75/75/2 76/76/2 43/43/2
f 74/74/2 75/75/2 43/43/2
f 74/74/2 43/43/2 44/44/2
f 73/73/2 74/74/2 44/44/2
f 73/73/2 44/44/2 45/45/2
f 72/72/2 73/73/2 45/45/2
f 71/71/2 72/72/2 45/45/2
f 70/70/2 71/71/2 45/45/2
f 70/70/2 45/45/2 46/46/2
f 69/69/2 70/70/2 46/46/2
f 68/68/2 69/69/2 46/46/2
f 67/67/2 68/68/2 46/46/2
f 65/65/2 66/66/2 67/67/2
f 65/65/2 67/67/2 46/46/2
f 65/65/2 46/46/2 47/47/2
f 65/65/2 47/47/2 48/48/2
f 65/65/2 48/48/2 49/49/2
f 65/65/2 49/49/2 50/50/2
f 65/65/2 50/50/2 51/51/2
f 65/65/2 51/51/2 52/52/2
f 64/64/2 65/65/2 52/52/2
f 64/64/2 52/52/2 53/53/2
f 63/63/2 64/64/2 53/53/2
f 62/62/2 63/63/2 53/53/2
f 61/61/2 62/62/2 53/53/2
f 60/60/2 61/61/2 53/53/2
f 59/59/2 60/60/2 53/53/2
f 58/58/2 59/59/2 53/53/2
f 57/57/2 58/58/2 53/53/2
f 56/56/2 57/57/2 53/53/2
f 55/55/2 56/56/2 53/53/2
f 54/54/2 55/55/2 53/53/2
s 1
f 86/88/3 83/83/4 84/85/4
f 88/90/5 85/87/3 86/88/3
f 90/92/6 87/89/5 88/90/5
f 92/94/7 89/91/6 90/92/6
f 94/96/8 91/93/7 92/94/7
f 96/98/9 93/95/8 94/96/8
f 98/100/10 95/97/9 96/98/9
f 100/102/11 97/99/10 98/100/10
f 102/104/12 99/101/11 100/102/11
f 104/106/13 101/103/12 102/104/12
f 106/108/14 103/105/13 104/106/13
f 108/110/15 105/107/14 106/108/14
f 110/112/16 107/109/15 108/110/15
f 112/114/17 109/111/16 110/112/16
f 114/116/18 111/113/17 112/114/17
f 116/118/19 113/115/18 114/116/18
f 118/120/20 115/117/19 116/118/19
f 120/122/21 117/119/20 118/120/20
f 122/124/22 119/121/21 120/122/21
f 124/126/23 121/123/22 122/124/22
f 126/128/24 123/125/23 124/126/23
f 128/130/24 125/127/24 126/128/24
f 130/132/25 127/129/24 128/130/24
f 132/134/26 129/131/25 130/132/25
f 134/136/27 131/133/26 132/134/26
f 136/138/28 133/135/27 134/136/27
f 138/140/29 135/137/28 136/138/28
f 140/142/30 137/139/29 138/140/29
f 142/144/31 139/141/30 140/142/30
f 144/146/32 141/143/31 142/144/31
f 146/148/33 143/145/32 144/146/32
f 148/150/34 145/147/33 146/148/33
f 150/152/35 147/149/34 148/150/34
f 152/154/36 149/151/35 150/152/35
f 154/156/37 151/153/36 152/154/36
f 156/158/38 153/155/37 154/156/37
f 158/160/39 155/157/38 156/158/38
f 160/162/40 157/159/39 158/160/39
f 162/164/41 159/161/40 160/162/40
f 164/166/42 161/163/41 162/164/41
f 84/86/4 163/165/42 164/166/42
f 86/88/3 85/87/3 83/83/4
f 88/90/5 87/89/5 85/87/3
f 90/92/6 89/91/6 87/89/5
f 92/94/7 91/93/7 89/91/6
f 94/96/8 93/95/8 91/93/7
f 96/98/9 95/97/9 93/95/8
f 98/100/10 97/99/10 95/97/9
f 100/102/11 99/101/11 97/99/10
f 102/104/12 101/103/12 99/101/11
f 104/106/13 103/105/13 101/103/12
f 106/108/14 105/107/14 103/105/13
f 108/110/15 107/109/15 105/107/14
f 110/112/16 109/111/16 107/109/15
f 112/114/17 111/113/17 109/111/16
f 114/116/18 113/115/18 111/113/17
f 116/118/19 115/117/19 113/115/18
f 118/120/20 117/119/20 115/117/19
f 120/122/21 119/121/21 117/119/20
f 122/124/22 121/123/22 119/121/21
f 124/126/23 123/125/23 121/123/22
f 126/128/24 125/127/24 123/125/23
f 128/130/24 127/129/24 125/127/24
f 130/132/25 129/131/25 127/129/24
f 132/134/26 131/133/26 129/131/25
f 134/136/27 133/135/27 131/133/26
f 136/138/28 135/137/28 133/135/27
f 138/140/29 137/139/29 135/137/28
f 140/142/30 139/141/30 137/139/29
f 142/144/31 141/143/31 139/141/30
f 144/146/32 143/145/32 141/143/31
f 146/148/33 145/147/33 143/145/32
f 148/150/34 147/149/34 145/147/33
f 150/152/35 149/151/35 147/149/34
f 152/154/36 151/153/36 149/151/35
f 154/156/37 153/155/37 151/153/36
f 156/158/38 155/157/38 153/155/37
f 158/160/39 157/159/39 155/157/38
f 160/162/40 159/161/40 157/159/39
f 162/164/41 161/163/41 159/161/40
f 164/166/42 163/165/42 161/163/41
f 84/86/4 83/84/4 163/165/42
