# Blender 3.2.2
# www.blender.org
o Letter_K
v 0.227273 0.293255 0.500000
v -0.281525 0.293255 0.005865
v -0.281525 0.293255 0.500000
v -0.425220 0.293255 0.500000
v -0.425220 0.293255 -0.500000
v -0.281525 0.293255 -0.500000
v -0.281525 0.293255 -0.042522
v 0.139296 0.293255 -0.500000
v 0.318182 0.293255 -0.500000
v -0.117302 0.293255 -0.026393
v 0.425220 0.293255 0.500000
v 0.227273 -0.293255 0.500000
v -0.281525 -0.293255 0.005865
v -0.281525 -0.293255 0.500000
v -0.425220 -0.293255 0.500000
v -0.425220 -0.293255 -0.500000
v -0.281525 -0.293255 -0.500000
v -0.281525 -0.293255 -0.042522
v 0.139296 -0.293255 -0.500000
v 0.318182 -0.293255 -0.500000
v -0.117302 -0.293255 -0.026393
v 0.425220 -0.293255 0.500000
v 0.227273 -0.293255 0.500000
v 0.227273 0.293255 0.500000
v -0.281525 -0.293255 0.005865
v -0.281525 0.293255 0.005865
v -0.281525 -0.293255 0.500000
v -0.281525 0.293255 0.500000
v -0.425220 -0.293255 0.500000
v -0.425220 0.293255 0.500000
v -0.425220 -0.293255 -0.500000
v -0.425220 0.293255 -0.500000
v -0.281525 -0.293255 -0.500000
v -0.281525 0.293255 -0.500000
v -0.281525 -0.293255 -0.042522
v -0.281525 0.293255 -0.042522
v 0.139296 -0.293255 -0.500000
v 0.139296 0.293255 -0.500000
v 0.318182 -0.293255 -0.500000
v 0.318182 0.293255 -0.500000
v -0.117302 -0.293255 -0.026393
v -0.117302 0.293255 -0.026393
v 0.425220 -0.293255 0.500000
v 0.425220 0.293255 0.500000
vn -0.0000 1.0000 -0.0000
vn -0.0000 -1.0000 -0.0000
vn 0.3894 -0.0000 0.9211
vn -0.3759 -0.0000 0.9267
vn 0.7071 -0.0000 0.7071
vn -0.7071 -0.0000 0.7071
vn -0.7071 -0.0000 -0.7071
vn 0.7071 -0.0000 -0.7071
vn 0.3633 -0.0000 -0.9317
vn -0.4019 -0.0000 -0.9157
vn 0.9157 -0.0000 -0.4020
vn 0.9996 -0.0000 -0.0285
vn 0.9267 -0.0000 0.3757
vt 0.000000 0.000000
vt 0.100000 0.000000
vt 0.200000 0.000000
vt 0.300000 0.000000
vt 0.400000 0.000000
vt 0.500000 0.000000
vt 0.600000 0.000000
vt 0.700000 0.000000
vt 0.800000 0.000000
vt 0.900000 0.000000
vt 1.000000 0.000000
vt 0.000000 0.000000
vt 0.100000 0.000000
vt 0.200000 0.000000
vt 0.300000 0.000000
vt 0.400000 0.000000
vt 0.500000 0.000000
vt 0.600000 0.000000
vt 0.700000 0.000000
vt 0.800000 0.000000
vt 0.900000 0.000000
vt 1.000000 0.000000
vt 0.000000 0.000000
vt 1.000000 0.000000
vt 0.000000 1.000000
vt 1.000000 1.000000
vt 0.090909 0.000000
vt 0.090909 1.000000
vt 0.181818 0.000000
vt 0.181818 1.000000
vt 0.272727 0.000000
vt 0.272727 1.000000
vt 0.363636 0.000000
vt 0.363636 1.000000
vt 0.454545 0.000000
vt 0.454545 1.000000
vt 0.545455 0.000000
vt 0.545455 1.000000
vt 0.636364 0.000000
vt 0.636364 1.000000
vt 0.727273 0.000000
vt 0.727273 1.000000
vt 0.818182 0.000000
vt 0.818182 1.000000
vt 0.909091 0.000000
vt 0.909091 1.000000
s 0
f 4/4/1 6/6/1 5/5/1
f 4/4/1 7/7/1 6/6/1
f 7/7/1 9/9/1 8/8/1
f 7/7/1 10/10/1 9/9/1
f 4/4/1 2/2/1 7/7/1
f 2/2/1 10/10/1 7/7/1
f 2/2/1 11/11/1 10/10/1
f 4/4/1 3/3/1 2/2/1
f 1/1/1 11/11/1 2/2/1
f 15/15/2 16/16/2 17/17/2
f 15/15/2 17/17/2 18/18/2
f 18/18/2 19/19/2 20/20/2
f 18/18/2 20/20/2 21/21/2
f 15/15/2 18/18/2 13/13/2
f 13/13/2 18/18/2 21/21/2
f 13/13/2 21/21/2 22/22/2
f 15/15/2 13/13/2 14/14/2
f 12/12/2 13/13/2 22/22/2
s 1
f 26/28/3 23/23/4 24/25/4
f 28/30/5 25/27/3 26/28/3
f 30/32/6 27/29/5 28/30/5
f 32/34/7 29/31/6 30/32/6
f 34/36/8 31/33/7 32/34/7
f 36/38/9 33/35/8 34/36/8
f 38/40/10 35/37/9 36/38/9
f 40/42/11 37/39/10 38/40/10
f 42/44/12 39/41/11 40/42/11
f 44/46/13 41/43/12 42/44/12
f 24/26/4 43/45/13 44/46/13
f 26/28/3 25/27/3 23/23/4
f 28/30/5 27/29/5 25/27/3
f 30/32/6 29/31/6 27/29/5
f 32/34/7 31/33/7 29/31/6
f 34/36/8 33/35/8 31/33/7
f 36/38/9 35/37/9 33/35/8
f 38/40/10 37/39/10 35/37/9
f 40/42/11 39/41/11 37/39/10
f 42/44/12 41/43/12 39/41/11
f 44/46/13 43/45/13 41/43/12
f 24/26/4 23/24/4 43/45/13
