# Blender 3.2.2
# www.blender.org
o Letter_M
v 0.322581 0.293255 0.500000
v 0.322581 0.293255 -0.278592
v 0.319648 0.293255 -0.278592
v 0.011730 0.293255 0.108504
v -0.011730 0.293255 0.108504
v -0.319648 0.293255 -0.278592
v -0.322581 0.293255 -0.278592
v -0.322581 0.293255 0.500000
v -0.466276 0.293255 0.500000
v -0.466276 0.293255 -0.500000
v -0.331378 0.293255 -0.500000
v 0.000000 0.293255 -0.089443
v 0.332845 0.293255 -0.500000
v 0.466276 0.293255 -0.500000
v 0.466276 0.293255 0.500000
v 0.322581 -0.293255 0.500000
v 0.322581 -0.293255 -0.278592
v 0.319648 -0.293255 -0.278592
v 0.011730 -0.293255 0.108504
v -0.011730 -0.293255 0.108504
v -0.319648 -0.293255 -0.278592
v -0.322581 -0.293255 -0.278592
v -0.322581 -0.293255 0.500000
v -0.466276 -0.293255 0.500000
v -0.466276 -0.293255 -0.500000
v -0.331378 -0.293255 -0.500000
v 0.000000 -0.293255 -0.089443
v 0.332845 -0.293255 -0.500000
v 0.466276 -0.293255 -0.500000
v 0.466276 -0.293255 0.500000
v 0.322581 -0.293255 0.500000
v 0.322581 0.293255 0.500000
v 0.322581 -0.293255 -0.278592
v 0.322581 0.293255 -0.278592
v 0.319648 -0.293255 -0.278592
v 0.319648 0.293255 -0.278592
v 0.011730 -0.293255 0.108504
v 0.011730 0.293255 0.108504
v -0.011730 -0.293255 0.108504
v -0.011730 0.293255 0.108504
v -0.319648 -0.293255 -0.278592
v -0.319648 0.293255 -0.278592
v -0.322581 -0.293255 -0.278592
v -0.322581 0.293255 -0.278592
v -0.322581 -0.293255 0.500000
v -0.322581 0.293255 0.500000
v -0.466276 -0.293255 0.500000
v -0.466276 0.293255 0.500000
v -0.466276 -0.293255 -0.500000
v -0.466276 0.293255 -0.500000
v -0.331378 -0.293255 -0.500000
v -0.331378 0.293255 -0.500000
v 0.000000 -0.293255 -0.089443
v 0.000000 0.293255 -0.089443
v 0.332845 -0.293255 -0.500000
v 0.332845 0.293255 -0.500000
v 0.466276 -0.293255 -0.500000
v 0.466276 0.293255 -0.500000
v 0.466276 -0.293255 0.500000
v 0.466276 0.293255 0.500000
vn -0.0000 1.0000 -0.0000
vn -0.0000 -1.0000 -0.0000
vn -0.7071 -0.0000 0.7071
vn 0.4344 -0.0000 0.9007
vn -0.4344 -0.0000 0.9007
vn 0.7071 -0.0000 0.7071
vn -0.7071 -0.0000 -0.7071
vn 0.4312 -0.0000 -0.9022
vn 0.0011 -0.0000 -1.0000
vn -0.4303 -0.0000 -0.9027
vn 0.7071 -0.0000 -0.7071
vt 0.000000 0.000000
vt 0.071429 0.000000
vt 0.142857 0.000000
vt 0.214286 0.000000
vt 0.285714 0.000000
vt 0.357143 0.000000
vt 0.428571 0.000000
vt 0.500000 0.000000
vt 0.571429 0.000000
vt 0.642857 0.000000
vt 0.714286 0.000000
vt 0.785714 0.000000
vt 0.857143 0.000000
vt 0.928571 0.000000
vt 1.000000 0.000000
vt 0.000000 0.000000
vt 0.071429 0.000000
vt 0.142857 0.000000
vt 0.214286 0.000000
vt 0.285714 0.000000
vt 0.357143 0.000000
vt 0.428571 0.000000
vt 0.500000 0.000000
vt 0.571429 0.000000
vt 0.642857 0.000000
vt 0.714286 0.000000
vt 0.785714 0.000000
vt 0.857143 0.000000
vt 0.928571 0.000000
vt 1.000000 0.000000
vt 0.000000 0.000000
vt 1.000000 0.000000
vt 0.000000 1.000000
vt 1.000000 1.000000
vt 0.066667 0.000000
vt 0.066667 1.000000
vt 0.133333 0.000000
vt 0.133333 1.000000
vt 0.200000 0.000000
vt 0.200000 1.000000
vt 0.266667 0.000000
vt 0.266667 1.000000
vt 0.333333 0.000000
vt 0.333333 1.000000
vt 0.400000 0.000000
vt 0.400000 1.000000
vt 0.466667 0.000000
vt 0.466667 1.000000
vt 0.533333 0.000000
vt 0.533333 1.000000
vt 0.600000 0.000000
vt 0.600000 1.000000
vt 0.666667 0.000000
vt 0.666667 1.000000
vt 0.733333 0.000000
vt 0.733333 1.000000
vt 0.800000 0.000000
vt 0.800000 1.000000
vt 0.866667 0.000000
vt 0.866667 1.000000
vt 0.933333 0.000000
vt 0.933333 1.000000
s 0
f 9/9/1 11/11/1 10/10/1
f 9/9/1 7/7/1 11/11/1
f 7/7/1 6/6/1 11/11/1
f 6/6/1 12/12/1 11/11/1
f 12/12/1 14/14/1 13/13/1
f 12/12/1 3/3/1 14/14/1
f 3/3/1 2/2/1 14/14/1
f 2/2/1 15/15/1 14/14/1
f 9/9/1 8/8/1 7/7/1
f 5/5/1 12/12/1 6/6/1
f 12/12/1 4/4/1 3/3/1
f 1/1/1 15/15/1 2/2/1
f 5/5/1 4/4/1 12/12/1
f 24/24/2 25/25/2 26/26/2
f 24/24/2 26/26/2 22/22/2
f 22/22/2 26/26/2 21/21/2
f 21/21/2 26/26/2 27/27/2
f 27/27/2 28/28/2 29/29/2
f 27/27/2 29/29/2 18/18/2
f 18/18/2 29/29/2 17/17/2
f 17/17/2 29/29/2 30/30/2
f 24/24/2 22/22/2 23/23/2
f 20/20/2 21/21/2 27/27/2
f 27/27/2 18/18/2 19/19/2
f 16/16/2 17/17/2 30/30/2
f 20/20/2 27/27/2 19/19/2
s 1
f 34/36/3 31/31/3 32/33/3
f 36/38/4 33/35/3 34/36/3
f 38/40/4 35/37/4 36/38/4
f 40/42/5 37/39/4 38/40/4
f 42/44/5 39/41/5 40/42/5
f 44/46/6 41/43/5 42/44/5
f 46/48/6 43/45/6 44/46/6
f 48/50/3 45/47/6 46/48/6
f 50/52/7 47/49/3 48/50/3
f 52/54/8 49/51/7 50/52/7
f 54/56/9 51/53/8 52/54/8
f 56/58/10 53/55/9 54/56/9
f 58/60/11 55/57/10 56/58/10
f 60/62/6 57/59/11 58/60/11
f 32/34/3 59/61/6 60/62/6
f 34/36/3 33/35/3 31/31/3
f 36/38/4 35/37/4 33/35/3
f 38/40/4 37/39/4 35/37/4
f 40/42/5 39/41/5 37/39/4
f 42/44/5 41/43/5 39/41/5
f 44/46/6 43/45/6 41/43/5
f 46/48/6 45/47/6 43/45/6
f 48/50/3 47/49/3 45/47/6
f 50/52/7 49/51/7 47/49/3
f 52/54/8 51/53/8 49/51/7
f 54/56/9 53/55/9 51/53/8
f 56/58/10 55/57/10 53/55/9
f 58/60/11 57/59/11 55/57/10
f 60/62/6 59/61/6 57/59/11
f 32/34/3 31/32/3 59/61/6
