# Blender 3.2.2
# www.blender.org
o Letter_N
v 0.340176 0.293255 0.500000
v -0.328446 0.293255 -0.269795
v -0.328446 0.293255 0.500000
v -0.463343 0.293255 0.500000
v -0.463343 0.293255 -0.500000
v -0.348974 0.293255 -0.500000
v 0.328446 0.293255 0.274194
v 0.328446 0.293255 -0.500000
v 0.463343 0.293255 -0.500000
v 0.463343 0.293255 0.500000
v 0.340176 -0.293255 0.500000
v -0.328446 -0.293255 -0.269795
v -0.328446 -0.293255 0.500000
v -0.463343 -0.293255 0.500000
v -0.463343 -0.293255 -0.500000
v -0.348974 -0.293255 -0.500000
v 0.328446 -0.293255 0.274194
v 0.328446 -0.293255 -0.500000
v 0.463343 -0.293255 -0.500000
v 0.463343 -0.293255 0.500000
v 0.340176 -0.293255 0.500000
v 0.340176 0.293255 0.500000
v -0.328446 -0.293255 -0.269795
v -0.328446 0.293255 -0.269795
v -0.328446 -0.293255 0.500000
v -0.328446 0.293255 0.500000
v -0.463343 -0.293255 0.500000
v -0.463343 0.293255 0.500000
v -0.463343 -0.293255 -0.500000
v -0.463343 0.293255 -0.500000
v -0.348974 -0.293255 -0.500000
v -0.348974 0.293255 -0.500000
v 0.328446 -0.293255 0.274194
v 0.328446 0.293255 0.274194
v 0.328446 -0.293255 -0.500000
v 0.328446 0.293255 -0.500000
v 0.463343 -0.293255 -0.500000
v 0.463343 0.293255 -0.500000
v 0.463343 -0.293255 0.500000
v 0.463343 0.293255 0.500000
vn -0.0000 1.0000 -0.0000
vn -0.0000 -1.0000 -0.0000
vn 0.3500 -0.0000 0.9367
vn -0.4149 -0.0000 0.9099
vn 0.7071 -0.0000 0.7071
vn -0.7071 -0.0000 0.7071
vn -0.7071 -0.0000 -0.7071
vn 0.4132 -0.0000 -0.9106
vn -0.3517 -0.0000 -0.9361
vn 0.7071 -0.0000 -0.7071
vt 0.000000 0.000000
vt 0.111111 0.000000
vt 0.222222 0.000000
vt 0.333333 0.000000
vt 0.444444 0.000000
vt 0.555556 0.000000
vt 0.666667 0.000000
vt 0.777778 0.000000
vt 0.888889 0.000000
vt 1.000000 0.000000
vt 0.000000 0.000000
vt 0.111111 0.000000
vt 0.222222 0.000000
vt 0.333333 0.000000
vt 0.444444 0.000000
vt 0.555556 0.000000
vt 0.666667 0.000000
vt 0.777778 0.000000
vt 0.888889 0.000000
vt 1.000000 0.000000
vt 0.000000 0.000000
vt 1.000000 0.000000
vt 0.000000 1.000000
vt 1.000000 1.000000
vt 0.100000 0.000000
vt 0.100000 1.000000
vt 0.200000 0.000000
vt 0.200000 1.000000
vt 0.300000 0.000000
vt 0.300000 1.000000
vt 0.400000 0.000000
vt 0.400000 1.000000
vt 0.500000 0.000000
vt 0.500000 1.000000
vt 0.600000 0.000000
vt 0.600000 1.000000
vt 0.700000 0.000000
vt 0.700000 1.000000
vt 0.800000 0.000000
vt 0.800000 1.000000
vt 0.900000 0.000000
vt 0.900000 1.000000
s 0
f 4/4/1 6/6/1 5/5/1
f 4/4/1 2/2/1 6/6/1
f 2/2/1 7/7/1 6/6/1
f 7/7/1 9/9/1 8/8/1
f 7/7/1 10/10/1 9/9/1
f 4/4/1 3/3/1 2/2/1
f 1/1/1 7/7/1 2/2/1
f 1/1/1 10/10/1 7/7/1
f 14/14/2 15/15/2 16/16/2
f 14/14/2 16/16/2 12/12/2
f 12/12/2 16/16/2 17/17/2
f 17/17/2 18/18/2 19/19/2
f 17/17/2 19/19/2 20/20/2
f 14/14/2 12/12/2 13/13/2
f 11/11/2 12/12/2 17/17/2
f 11/11/2 17/17/2 20/20/2
s 1
f 24/26/3 21/21/4 22/23/4
f 26/28/5 23/25/3 24/26/3
f 28/30/6 25/27/5 26/28/5
f 30/32/7 27/29/6 28/30/6
f 32/34/8 29/31/7 30/32/7
f 34/36/9 31/33/8 32/34/8
f 36/38/7 33/35/9 34/36/9
f 38/40/10 35/37/7 36/38/7
f 40/42/5 37/39/10 38/40/10
f 22/24/4 39/41/5 40/42/5
f 24/26/3 23/25/3 21/21/4
f 26/28/5 25/27/5 23/25/3
f 28/30/6 27/29/6 25/27/5
f 30/32/7 29/31/7 27/29/6
f 32/34/8 31/33/8 29/31/7
f 34/36/9 33/35/9 31/33/8
f 36/38/7 35/37/7 33/35/9
f 38/40/10 37/39/10 35/37/7
f 40/42/5 39/41/5 37/39/10
f 22/24/4 21/22/4 39/41/5
