# Blender 3.2.2
# www.blender.org
o Letter_O
v 0.073652 0.272851 -0.473045
v 0.142988 0.272851 -0.460121
v 0.207047 0.272851 -0.439333
v 0.265550 0.272851 -0.411298
v 0.318217 0.272851 -0.376631
v 0.364768 0.272851 -0.335948
v 0.404924 0.272851 -0.289865
v 0.438406 0.272851 -0.238997
v 0.464934 0.272851 -0.183961
v 0.484229 0.272851 -0.125373
v 0.496011 0.272851 -0.063847
v 0.500000 0.272851 0.000000
v 0.496113 0.272851 0.062127
v 0.484595 0.272851 0.122530
v 0.465659 0.272851 0.180508
v 0.439518 0.272851 0.235360
v 0.406385 0.272851 0.286383
v 0.366473 0.272851 0.332879
v 0.319996 0.272851 0.374144
v 0.267167 0.272851 0.409479
v 0.208198 0.272851 0.438182
v 0.143304 0.272851 0.459552
v 0.072696 0.272851 0.472889
v -0.003411 0.272851 0.477490
v -0.077091 0.272851 0.472915
v -0.145830 0.272851 0.459647
v -0.209349 0.272851 0.438374
v -0.267369 0.272851 0.409782
v -0.319609 0.272851 0.374559
v -0.365791 0.272851 0.333390
v -0.405635 0.272851 0.286964
v -0.438861 0.272851 0.235966
v -0.465190 0.272851 0.181084
v -0.484343 0.272851 0.123004
v -0.496039 0.272851 0.062414
v -0.500000 0.272851 0.000000
v -0.495933 0.272851 -0.063560
v -0.483951 0.272851 -0.124899
v -0.464380 0.272851 -0.183386
v -0.437547 0.272851 -0.238391
v -0.403780 0.272851 -0.289285
v -0.363404 0.272851 -0.335437
v -0.316747 0.272851 -0.376217
v -0.264135 0.272851 -0.410995
v -0.205896 0.272851 -0.439141
v -0.142356 0.272851 -0.460026
v -0.073843 0.272851 -0.473019
v -0.000682 0.272851 -0.477490
v 0.050306 0.272851 0.351609
v 0.098675 0.272851 0.342548
v 0.144078 0.272851 0.327869
v 0.186170 0.272851 0.307918
v 0.224606 0.272851 0.283040
v 0.259038 0.272851 0.253581
v 0.289122 0.272851 0.219888
v 0.314512 0.272851 0.182305
v 0.334861 0.272851 0.141179
v 0.349824 0.272851 0.096856
v 0.359056 0.272851 0.049681
v 0.362210 0.272851 0.000000
v 0.359056 0.272851 -0.049968
v 0.349824 0.272851 -0.097330
v 0.334861 0.272851 -0.141755
v 0.314512 0.272851 -0.182911
v 0.289122 0.272851 -0.220468
v 0.259038 0.272851 -0.254093
v 0.224606 0.272851 -0.283454
v 0.186170 0.272851 -0.308221
v 0.144078 0.272851 -0.328061
v 0.098675 0.272851 -0.342643
v 0.050306 0.272851 -0.351636
v -0.000682 0.272851 -0.354707
v -0.051357 0.272851 -0.351636
v -0.099464 0.272851 -0.342643
v -0.144654 0.272851 -0.328061
v -0.186575 0.272851 -0.308221
v -0.224877 0.272851 -0.283454
v -0.259209 0.272851 -0.254093
v -0.289221 0.272851 -0.220468
v -0.314562 0.272851 -0.182911
v -0.334882 0.272851 -0.141755
v -0.349831 0.272851 -0.097330
v -0.359057 0.272851 -0.049967
v -0.362210 0.272851 0.000000
v -0.359057 0.272851 0.049681
v -0.349831 0.272851 0.096856
v -0.334882 0.272851 0.141179
v -0.314562 0.272851 0.182305
v -0.289221 0.272851 0.219888
v -0.259209 0.272851 0.253581
v -0.224877 0.272851 0.283040
v -0.186575 0.272851 0.307918
v -0.144654 0.272851 0.327869
v -0.099464 0.272851 0.342548
v -0.051357 0.272851 0.351609
v -0.000682 0.272851 0.354707
v 0.073652 -0.272851 -0.473045
v 0.142988 -0.272851 -0.460121
v 0.207047 -0.272851 -0.439333
v 0.265550 -0.272851 -0.411298
v 0.318217 -0.272851 -0.376631
v 0.364768 -0.272851 -0.335948
v 0.404924 -0.272851 -0.289865
v 0.438406 -0.272851 -0.238997
v 0.464934 -0.272851 -0.183961
v 0.484229 -0.272851 -0.125373
v 0.496011 -0.272851 -0.063847
v 0.500000 -0.272851 0.000000
v 0.496113 -0.272851 0.062127
v 0.484595 -0.272851 0.122530
v 0.465659 -0.272851 0.180508
v 0.439518 -0.272851 0.235360
v 0.406385 -0.272851 0.286383
v 0.366473 -0.272851 0.332879
v 0.319996 -0.272851 0.374144
v 0.267167 -0.272851 0.409479
v 0.208198 -0.272851 0.438182
v 0.143304 -0.272851 0.459552
v 0.072696 -0.272851 0.472889
v -0.003411 -0.272851 0.477490
v -0.077091 -0.272851 0.472915
v -0.145830 -0.272851 0.459647
v -0.209349 -0.272851 0.438374
v -0.267369 -0.272851 0.409782
v -0.319609 -0.272851 0.374559
v -0.365791 -0.272851 0.333390
v -0.405635 -0.272851 0.286964
v -0.438861 -0.272851 0.235966
v -0.465190 -0.272851 0.181084
v -0.484343 -0.272851 0.123004
v -0.496039 -0.272851 0.062414
v -0.500000 -0.272851 0.000000
v -0.495933 -0.272851 -0.063560
v -0.483951 -0.272851 -0.124899
v -0.464380 -0.272851 -0.183386
v -0.437547 -0.272851 -0.238391
v -0.403780 -0.272851 -0.289285
v -0.363404 -0.272851 -0.335437
v -0.316747 -0.272851 -0.376217
v -0.264135 -0.272851 -0.410995
v -0.205896 -0.272851 -0.439141
v -0.142356 -0.272851 -0.460026
v -0.073843 -0.272851 -0.473019
v -0.000682 -0.272851 -0.477490
v 0.050306 -0.272851 0.351609
v 0.098675 -0.272851 0.342548
v 0.144078 -0.272851 0.327869
v 0.186170 -0.272851 0.307918
v 0.224606 -0.272851 0.283040
v 0.259038 -0.272851 0.253581
v 0.289122 -0.272851 0.219888
v 0.314512 -0.272851 0.182305
v 0.334861 -0.272851 0.141179
v 0.349824 -0.272851 0.096856
v 0.359056 -0.272851 0.049681
v 0.362210 -0.272851 0.000000
v 0.359056 -0.272851 -0.049968
v 0.349824 -0.272851 -0.097330
v 0.334861 -0.272851 -0.141755
v 0.314512 -0.272851 -0.182911
v 0.289122 -0.272851 -0.220468
v 0.259038 -0.272851 -0.254093
v 0.224606 -0.272851 -0.283454
v 0.186170 -0.272851 -0.308221
v 0.144078 -0.272851 -0.328061
v 0.098675 -0.272851 -0.342643
v 0.050306 -0.272851 -0.351636
v -0.000682 -0.272851 -0.354707
v -0.051357 -0.272851 -0.351636
v -0.099464 -0.272851 -0.342643
v -0.144654 -0.272851 -0.328061
v -0.186575 -0.272851 -0.308221
v -0.224877 -0.272851 -0.283454
v -0.259209 -0.272851 -0.254093
v -0.289221 -0.272851 -0.220468
v -0.314562 -0.272851 -0.182911
v -0.334882 -0.272851 -0.141755
v -0.349831 -0.272851 -0.097330
v -0.359057 -0.272851 -0.049967
v -0.362210 -0.272851 0.000000
v -0.359057 -0.272851 0.049681
v -0.349831 -0.272851 0.096856
v -0.334882 -0.272851 0.141179
v -0.314562 -0.272851 0.182305
v -0.289221 -0.272851 0.219888
v -0.259209 -0.272851 0.253581
v -0.224877 -0.272851 0.283040
v -0.186575 -0.272851 0.307918
v -0.144654 -0.272851 0.327869
v -0.099464 -0.272851 0.342548
v -0.051357 -0.272851 0.351609
v -0.000682 -0.272851 0.354707
v 0.073652 -0.272851 -0.473045
v 0.073652 0.272851 -0.473045
v 0.142988 -0.272851 -0.460121
v 0.142988 0.272851 -0.460121
v 0.207047 -0.272851 -0.439333
v 0.207047 0.272851 -0.439333
v 0.265550 -0.272851 -0.411298
v 0.265550 0.272851 -0.411298
v 0.318217 -0.272851 -0.376631
v 0.318217 0.272851 -0.376631
v 0.364768 -0.272851 -0.335948
v 0.364768 0.272851 -0.335948
v 0.404924 -0.272851 -0.289865
v 0.404924 0.272851 -0.289865
v 0.438406 -0.272851 -0.238997
v 0.438406 0.272851 -0.238997
v 0.464934 -0.272851 -0.183961
v 0.464934 0.272851 -0.183961
v 0.484229 -0.272851 -0.125373
v 0.484229 0.272851 -0.125373
v 0.496011 -0.272851 -0.063847
v 0.496011 0.272851 -0.063847
v 0.500000 -0.272851 0.000000
v 0.500000 0.272851 0.000000
v 0.496113 -0.272851 0.062127
v 0.496113 0.272851 0.062127
v 0.484595 -0.272851 0.122530
v 0.484595 0.272851 0.122530
v 0.465659 -0.272851 0.180508
v 0.465659 0.272851 0.180508
v 0.439518 -0.272851 0.235360
v 0.439518 0.272851 0.235360
v 0.406385 -0.272851 0.286383
v 0.406385 0.272851 0.286383
v 0.366473 -0.272851 0.332879
v 0.366473 0.272851 0.332879
v 0.319996 -0.272851 0.374144
v 0.319996 0.272851 0.374144
v 0.267167 -0.272851 0.409479
v 0.267167 0.272851 0.409479
v 0.208198 -0.272851 0.438182
v 0.208198 0.272851 0.438182
v 0.143304 -0.272851 0.459552
v 0.143304 0.272851 0.459552
v 0.072696 -0.272851 0.472889
v 0.072696 0.272851 0.472889
v -0.003411 -0.272851 0.477490
v -0.003411 0.272851 0.477490
v -0.077091 -0.272851 0.472915
v -0.077091 0.272851 0.472915
v -0.145830 -0.272851 0.459647
v -0.145830 0.272851 0.459647
v -0.209349 -0.272851 0.438374
v -0.209349 0.272851 0.438374
v -0.267369 -0.272851 0.409782
v -0.267369 0.272851 0.409782
v -0.319609 -0.272851 0.374559
v -0.319609 0.272851 0.374559
v -0.365791 -0.272851 0.333390
v -0.365791 0.272851 0.333390
v -0.405635 -0.272851 0.286964
v -0.405635 0.272851 0.286964
v -0.438861 -0.272851 0.235966
v -0.438861 0.272851 0.235966
v -0.465190 -0.272851 0.181084
v -0.465190 0.272851 0.181084
v -0.484343 -0.272851 0.123004
v -0.484343 0.272851 0.123004
v -0.496039 -0.272851 0.062414
v -0.496039 0.272851 0.062414
v -0.500000 -0.272851 0.000000
v -0.500000 0.272851 0.000000
v -0.495933 -0.272851 -0.063560
v -0.495933 0.272851 -0.063560
v -0.483951 -0.272851 -0.124899
v -0.483951 0.272851 -0.124899
v -0.464380 -0.272851 -0.183386
v -0.464380 0.272851 -0.183386
v -0.437547 -0.272851 -0.238391
v -0.437547 0.272851 -0.238391
v -0.403780 -0.272851 -0.289285
v -0.403780 0.272851 -0.289285
v -0.363404 -0.272851 -0.335437
v -0.363404 0.272851 -0.335437
v -0.316747 -0.272851 -0.376217
v -0.316747 0.272851 -0.376217
v -0.264135 -0.272851 -0.410995
v -0.264135 0.272851 -0.410995
v -0.205896 -0.272851 -0.439141
v -0.205896 0.272851 -0.439141
v -0.142356 -0.272851 -0.460026
v -0.142356 0.272851 -0.460026
v -0.073843 -0.272851 -0.473019
v -0.073843 0.272851 -0.473019
v -0.000682 -0.272851 -0.477490
v -0.000682 0.272851 -0.477490
v 0.050306 -0.272851 0.351609
v 0.050306 0.272851 0.351609
v 0.098675 -0.272851 0.342548
v 0.098675 0.272851 0.342548
v 0.144078 -0.272851 0.327869
v 0.144078 0.272851 0.327869
v 0.186170 -0.272851 0.307918
v 0.186170 0.272851 0.307918
v 0.224606 -0.272851 0.283040
v 0.224606 0.272851 0.283040
v 0.259038 -0.272851 0.253581
v 0.259038 0.272851 0.253581
v 0.289122 -0.272851 0.219888
v 0.289122 0.272851 0.219888
v 0.314512 -0.272851 0.182305
v 0.314512 0.272851 0.182305
v 0.334861 -0.272851 0.141179
v 0.334861 0.272851 0.141179
v 0.349824 -0.272851 0.096856
v 0.349824 0.272851 0.096856
v 0.359056 -0.272851 0.049681
v 0.359056 0.272851 0.049681
v 0.362210 -0.272851 0.000000
v 0.362210 0.272851 0.000000
v 0.359056 -0.272851 -0.049968
v 0.359056 0.272851 -0.049968
v 0.349824 -0.272851 -0.097330
v 0.349824 0.272851 -0.097330
v 0.334861 -0.272851 -0.141755
v 0.334861 0.272851 -0.141755
v 0.314512 -0.272851 -0.182911
v 0.314512 0.272851 -0.182911
v 0.289122 -0.272851 -0.220468
v 0.289122 0.272851 -0.220468
v 0.259038 -0.272851 -0.254093
v 0.259038 0.272851 -0.254093
v 0.224606 -0.272851 -0.283454
v 0.224606 0.272851 -0.283454
v 0.186170 -0.272851 -0.308221
v 0.186170 0.272851 -0.308221
v 0.144078 -0.272851 -0.328061
v 0.144078 0.272851 -0.328061
v 0.098675 -0.272851 -0.342643
v 0.098675 0.272851 -0.342643
v 0.050306 -0.272851 -0.351636
v 0.050306 0.272851 -0.351636
v -0.000682 -0.272851 -0.354707
v -0.000682 0.272851 -0.354707
v -0.051357 -0.272851 -0.351636
v -0.051357 0.272851 -0.351636
v -0.099464 -0.272851 -0.342643
v -0.099464 0.272851 -0.342643
v -0.144654 -0.272851 -0.328061
v -0.144654 0.272851 -0.328061
v -0.186575 -0.272851 -0.308221
v -0.186575 0.272851 -0.308221
v -0.224877 -0.272851 -0.283454
v -0.224877 0.272851 -0.283454
v -0.259209 -0.272851 -0.254093
v -0.259209 0.272851 -0.254093
v -0.289221 -0.272851 -0.220468
v -0.289221 0.272851 -0.220468
v -0.314562 -0.272851 -0.182911
v -0.314562 0.272851 -0.182911
v -0.334882 -0.272851 -0.141755
v -0.334882 0.272851 -0.141755
v -0.349831 -0.272851 -0.097330
v -0.349831 0.272851 -0.097330
v -0.359057 -0.272851 -0.049967
v -0.359057 0.272851 -0.049967
v -0.362210 -0.272851 0.000000
v -0.362210 0.272851 0.000000
v -0.359057 -0.272851 0.049681
v -0.359057 0.272851 0.049681
v -0.349831 -0.272851 0.096856
v -0.349831 0.272851 0.096856
v -0.334882 -0.272851 0.141179
v -0.334882 0.272851 0.141179
v -0.314562 -0.272851 0.182305
v -0.314562 0.272851 0.182305
v -0.289221 -0.272851 0.219888
v -0.289221 0.272851 0.219888
v -0.259209 -0.272851 0.253581
v -0.259209 0.272851 0.253581
v -0.224877 -0.272851 0.283040
v -0.224877 0.272851 0.283040
v -0.186575 -0.272851 0.307918
v -0.186575 0.272851 0.307918
v -0.144654 -0.272851 0.327869
v -0.144654 0.272851 0.327869
v -0.099464 -0.272851 0.342548
v -0.099464 0.272851 0.342548
v -0.051357 -0.272851 0.351609
v -0.051357 0.272851 0.351609
v -0.000682 -0.272851 0.354707
v -0.000682 0.272851 0.354707
vn -0.0000 1.0000 -0.0000
vn -0.0000 -1.0000 -0.0000
vn 0.2465 -0.0000 -0.9692
vn 0.1217 -0.0000 -0.9926
vn 0.3712 -0.0000 -0.9285
vn 0.4921 -0.0000 -0.8705
vn 0.6053 -0.0000 -0.7960
vn 0.7076 -0.0000 -0.7066
vn 0.7964 -0.0000 -0.6048
vn 0.8700 -0.0000 -0.4931
vn 0.9273 -0.0000 -0.3743
vn 0.9680 -0.0000 -0.2510
vn 0.9921 -0.0000 -0.1255
vn 1.0000 -0.0000 -0.0000
vn 0.9921 -0.0000 0.1251
vn 0.9684 -0.0000 0.2494
vn 0.9286 -0.0000 0.3711
vn 0.8726 -0.0000 0.4885
vn 0.8005 -0.0000 0.5993
vn 0.7130 -0.0000 0.7012
vn 0.6114 -0.0000 0.7913
vn 0.4980 -0.0000 0.8672
vn 0.3761 -0.0000 0.9266
vn 0.2497 -0.0000 0.9683
vn 0.1232 -0.0000 0.9924
vn -0.0008 -0.0000 1.0000
vn -0.1260 -0.0000 0.9920
vn -0.2541 -0.0000 0.9672
vn -0.3807 -0.0000 0.9247
vn -0.5017 -0.0000 0.8650
vn -0.6136 -0.0000 0.7896
vn -0.7137 -0.0000 0.7004
vn -0.8001 -0.0000 0.5999
vn -0.8716 -0.0000 0.4902
vn -0.9276 -0.0000 0.3736
vn -0.9678 -0.0000 0.2519
vn -0.9919 -0.0000 0.1267
vn -1.0000 -0.0000 -0.0003
vn -0.9918 -0.0000 -0.1281
vn -0.9669 -0.0000 -0.2551
vn -0.9255 -0.0000 -0.3787
vn -0.8679 -0.0000 -0.4967
vn -0.7947 -0.0000 -0.6070
vn -0.7069 -0.0000 -0.7073
vn -0.6061 -0.0000 -0.7954
vn -0.4944 -0.0000 -0.8692
vn -0.3745 -0.0000 -0.9272
vn -0.2498 -0.0000 -0.9683
vn -0.1239 -0.0000 -0.9923
vn -0.0007 -0.0000 -1.0000
vn -0.2464 -0.0000 -0.9692
vn -0.1226 -0.0000 -0.9925
vn -0.3687 -0.0000 -0.9295
vn -0.4869 -0.0000 -0.8735
vn -0.5981 -0.0000 -0.8015
vn -0.6996 -0.0000 -0.7145
vn -0.7891 -0.0000 -0.6143
vn -0.8644 -0.0000 -0.5028
vn -0.9239 -0.0000 -0.3825
vn -0.9665 -0.0000 -0.2565
vn -0.9918 -0.0000 -0.1280
vn -1.0000 -0.0000 -0.0002
vn -0.9918 -0.0000 0.1274
vn -0.9667 -0.0000 0.2558
vn -0.9241 -0.0000 0.3821
vn -0.8644 -0.0000 0.5028
vn -0.7887 -0.0000 0.6148
vn -0.6986 -0.0000 0.7155
vn -0.5966 -0.0000 0.8025
vn -0.4851 -0.0000 0.8745
vn -0.3668 -0.0000 0.9303
vn -0.2448 -0.0000 0.9696
vn -0.1217 -0.0000 0.9926
vn 0.0002 -0.0000 1.0000
vn 0.1224 -0.0000 0.9925
vn 0.2459 -0.0000 0.9693
vn 0.3682 -0.0000 0.9297
vn 0.4864 -0.0000 0.8737
vn 0.5978 -0.0000 0.8016
vn 0.6996 -0.0000 0.7146
vn 0.7893 -0.0000 0.6140
vn 0.8648 -0.0000 0.5022
vn 0.9243 -0.0000 0.3817
vn 0.9668 -0.0000 0.2556
vn 0.9919 -0.0000 0.1274
vn 1.0000 -0.0000 -0.0002
vn 0.9918 -0.0000 -0.1279
vn 0.9666 -0.0000 -0.2563
vn 0.9241 -0.0000 -0.3821
vn 0.8648 -0.0000 -0.5022
vn 0.7897 -0.0000 -0.6135
vn 0.7005 -0.0000 -0.7136
vn 0.5993 -0.0000 -0.8005
vn 0.4883 -0.0000 -0.8727
vn 0.3701 -0.0000 -0.9290
vn 0.2475 -0.0000 -0.9689
vn 0.1233 -0.0000 -0.9924
vn 0.0002 -0.0000 -1.0000
vt 0.000000 0.000000
vt 0.010526 0.000000
vt 0.021053 0.000000
vt 0.031579 0.000000
vt 0.042105 0.000000
vt 0.052632 0.000000
vt 0.063158 0.000000
vt 0.073684 0.000000
vt 0.084211 0.000000
vt 0.094737 0.000000
vt 0.105263 0.000000
vt 0.115789 0.000000
vt 0.126316 0.000000
vt 0.136842 0.000000
vt 0.147368 0.000000
vt 0.157895 0.000000
vt 0.168421 0.000000
vt 0.178947 0.000000
vt 0.189474 0.000000
vt 0.200000 0.000000
vt 0.210526 0.000000
vt 0.221053 0.000000
vt 0.231579 0.000000
vt 0.242105 0.000000
vt 0.252632 0.000000
vt 0.263158 0.000000
vt 0.273684 0.000000
vt 0.284211 0.000000
vt 0.294737 0.000000
vt 0.305263 0.000000
vt 0.315789 0.000000
vt 0.326316 0.000000
vt 0.336842 0.000000
vt 0.347368 0.000000
vt 0.357895 0.000000
vt 0.368421 0.000000
vt 0.378947 0.000000
vt 0.389474 0.000000
vt 0.400000 0.000000
vt 0.410526 0.000000
vt 0.421053 0.000000
vt 0.431579 0.000000
vt 0.442105 0.000000
vt 0.452632 0.000000
vt 0.463158 0.000000
vt 0.473684 0.000000
vt 0.484211 0.000000
vt 0.494737 0.000000
vt 0.505263 0.000000
vt 0.515789 0.000000
vt 0.526316 0.000000
vt 0.536842 0.000000
vt 0.547368 0.000000
vt 0.557895 0.000000
vt 0.568421 0.000000
vt 0.578947 0.000000
vt 0.589474 0.000000
vt 0.600000 0.000000
vt 0.610526 0.000000
vt 0.621053 0.000000
vt 0.631579 0.000000
vt 0.642105 0.000000
vt 0.652632 0.000000
vt 0.663158 0.000000
vt 0.673684 0.000000
vt 0.684211 0.000000
vt 0.694737 0.000000
vt 0.705263 0.000000
vt 0.715789 0.000000
vt 0.726316 0.000000
vt 0.736842 0.000000
vt 0.747368 0.000000
vt 0.757895 0.000000
vt 0.768421 0.000000
vt 0.778947 0.000000
vt 0.789474 0.000000
vt 0.800000 0.000000
vt 0.810526 0.000000
vt 0.821053 0.000000
vt 0.831579 0.000000
vt 0.842105 0.000000
vt 0.852632 0.000000
vt 0.863158 0.000000
vt 0.873684 0.000000
vt 0.884211 0.000000
vt 0.894737 0.000000
vt 0.905263 0.000000
vt 0.915789 0.000000
vt 0.926316 0.000000
vt 0.936842 0.000000
vt 0.947368 0.000000
vt 0.957895 0.000000
vt 0.968421 0.000000
vt 0.978947 0.000000
vt 0.989474 0.000000
vt 1.000000 0.000000
vt 0.000000 0.000000
vt 0.010526 0.000000
vt 0.021053 0.000000
vt 0.031579 0.000000
vt 0.042105 0.000000
vt 0.052632 0.000000
vt 0.063158 0.000000
vt 0.073684 0.000000
vt 0.084211 0.000000
vt 0.094737 0.000000
vt 0.105263 0.000000
vt 0.115789 0.000000
vt 0.126316 0.000000
vt 0.136842 0.000000
vt 0.147368 0.000000
vt 0.157895 0.000000
vt 0.168421 0.000000
vt 0.178947 0.000000
vt 0.189474 0.000000
vt 0.200000 0.000000
vt 0.210526 0.000000
vt 0.221053 0.000000
vt 0.231579 0.000000
vt 0.242105 0.000000
vt 0.252632 0.000000
vt 0.263158 0.000000
vt 0.273684 0.000000
vt 0.284211 0.000000
vt 0.294737 0.000000
vt 0.305263 0.000000
vt 0.315789 0.000000
vt 0.326316 0.000000
vt 0.336842 0.000000
vt 0.347368 0.000000
vt 0.357895 0.000000
vt 0.368421 0.000000
vt 0.378947 0.000000
vt 0.389474 0.000000
vt 0.400000 0.000000
vt 0.410526 0.000000
vt 0.421053 0.000000
vt 0.431579 0.000000
vt 0.442105 0.000000
vt 0.452632 0.000000
vt 0.463158 0.000000
vt 0.473684 0.000000
vt 0.484211 0.000000
vt 0.494737 0.000000
vt 0.505263 0.000000
vt 0.515789 0.000000
vt 0.526316 0.000000
vt 0.536842 0.000000
vt 0.547368 0.000000
vt 0.557895 0.000000
vt 0.568421 0.000000
vt 0.578947 0.000000
vt 0.589474 0.000000
vt 0.600000 0.000000
vt 0.610526 0.000000
vt 0.621053 0.000000
vt 0.631579 0.000000
vt 0.642105 0.000000
vt 0.652632 0.000000
vt 0.663158 0.000000
vt 0.673684 0.000000
vt 0.684211 0.000000
vt 0.694737 0.000000
vt 0.705263 0.000000
vt 0.715789 0.000000
vt 0.726316 0.000000
vt 0.736842 0.000000
vt 0.747368 0.000000
vt 0.757895 0.000000
vt 0.768421 0.000000
vt 0.778947 0.000000
vt 0.789474 0.000000
vt 0.800000 0.000000
vt 0.810526 0.000000
vt 0.821053 0.000000
vt 0.831579 0.000000
vt 0.842105 0.000000
vt 0.852632 0.000000
vt 0.863158 0.000000
vt 0.873684 0.000000
vt 0.884211 0.000000
vt 0.894737 0.000000
vt 0.905263 0.000000
vt 0.915789 0.000000
vt 0.926316 0.000000
vt 0.936842 0.000000
vt 0.947368 0.000000
vt 0.957895 0.000000
vt 0.968421 0.000000
vt 0.978947 0.000000
vt 0.989474 0.000000
vt 1.000000 0.000000
vt 0.000000 0.000000
vt 1.000000 0.000000
vt 0.000000 1.000000
vt 1.000000 1.000000
vt 0.020833 0.000000
vt 0.020833 1.000000
vt 0.041667 0.000000
vt 0.041667 1.000000
vt 0.062500 0.000000
vt 0.062500 1.000000
vt 0.083333 0.000000
vt 0.083333 1.000000
vt 0.104167 0.000000
vt 0.104167 1.000000
vt 0.125000 0.000000
vt 0.125000 1.000000
vt 0.145833 0.000000
vt 0.145833 1.000000
vt 0.166667 0.000000
vt 0.166667 1.000000
vt 0.187500 0.000000
vt 0.187500 1.000000
vt 0.208333 0.000000
vt 0.208333 1.000000
vt 0.229167 0.000000
vt 0.229167 1.000000
vt 0.250000 0.000000
vt 0.250000 1.000000
vt 0.270833 0.000000
vt 0.270833 1.000000
vt 0.291667 0.000000
vt 0.291667 1.000000
vt 0.312500 0.000000
vt 0.312500 1.000000
vt 0.333333 0.000000
vt 0.333333 1.000000
vt 0.354167 0.000000
vt 0.354167 1.000000
vt 0.375000 0.000000
vt 0.375000 1.000000
vt 0.395833 0.000000
vt 0.395833 1.000000
vt 0.416667 0.000000
vt 0.416667 1.000000
vt 0.437500 0.000000
vt 0.437500 1.000000
vt 0.458333 0.000000
vt 0.458333 1.000000
vt 0.479167 0.000000
vt 0.479167 1.000000
vt 0.500000 0.000000
vt 0.500000 1.000000
vt 0.520833 0.000000
vt 0.520833 1.000000
vt 0.541667 0.000000
vt 0.541667 1.000000
vt 0.562500 0.000000
vt 0.562500 1.000000
vt 0.583333 0.000000
vt 0.583333 1.000000
vt 0.604167 0.000000
vt 0.604167 1.000000
vt 0.625000 0.000000
vt 0.625000 1.000000
vt 0.645833 0.000000
vt 0.645833 1.000000
vt 0.666667 0.000000
vt 0.666667 1.000000
vt 0.687500 0.000000
vt 0.687500 1.000000
vt 0.708333 0.000000
vt 0.708333 1.000000
vt 0.729167 0.000000
vt 0.729167 1.000000
vt 0.750000 0.000000
vt 0.750000 1.000000
vt 0.770833 0.000000
vt 0.770833 1.000000
vt 0.791667 0.000000
vt 0.791667 1.000000
vt 0.812500 0.000000
vt 0.812500 1.000000
vt 0.833333 0.000000
vt 0.833333 1.000000
vt 0.854167 0.000000
vt 0.854167 1.000000
vt 0.875000 0.000000
vt 0.875000 1.000000
vt 0.895833 0.000000
vt 0.895833 1.000000
vt 0.916667 0.000000
vt 0.916667 1.000000
vt 0.937500 0.000000
vt 0.937500 1.000000
vt 0.958333 0.000000
vt 0.958333 1.000000
vt 0.979167 0.000000
vt 0.979167 1.000000
vt 0.000000 0.000000
vt 1.000000 0.000000
vt 0.000000 1.000000
vt 1.000000 1.000000
vt 0.020833 0.000000
vt 0.020833 1.000000
vt 0.041667 0.000000
vt 0.041667 1.000000
vt 0.062500 0.000000
vt 0.062500 1.000000
vt 0.083333 0.000000
vt 0.083333 1.000000
vt 0.104167 0.000000
vt 0.104167 1.000000
vt 0.125000 0.000000
vt 0.125000 1.000000
vt 0.145833 0.000000
vt 0.145833 1.000000
vt 0.166667 0.000000
vt 0.166667 1.000000
vt 0.187500 0.000000
vt 0.187500 1.000000
vt 0.208333 0.000000
vt 0.208333 1.000000
vt 0.229167 0.000000
vt 0.229167 1.000000
vt 0.250000 0.000000
vt 0.250000 1.000000
vt 0.270833 0.000000
vt 0.270833 1.000000
vt 0.291667 0.000000
vt 0.291667 1.000000
vt 0.312500 0.000000
vt 0.312500 1.000000
vt 0.333333 0.000000
vt 0.333333 1.000000
vt 0.354167 0.000000
vt 0.354167 1.000000
vt 0.375000 0.000000
vt 0.375000 1.000000
vt 0.395833 0.000000
vt 0.395833 1.000000
vt 0.416667 0.000000
vt 0.416667 1.000000
vt 0.437500 0.000000
vt 0.437500 1.000000
vt 0.458333 0.000000
vt 0.458333 1.000000
vt 0.479167 0.000000
vt 0.479167 1.000000
vt 0.500000 0.000000
vt 0.500000 1.000000
vt 0.520833 0.000000
vt 0.520833 1.000000
vt 0.541667 0.000000
vt 0.541667 1.000000
vt 0.562500 0.000000
vt 0.562500 1.000000
vt 0.583333 0.000000
vt 0.583333 1.000000
vt 0.604167 0.000000
vt 0.604167 1.000000
vt 0.625000 0.000000
vt 0.625000 1.000000
vt 0.645833 0.000000
vt 0.645833 1.000000
vt 0.666667 0.000000
vt 0.666667 1.000000
vt 0.687500 0.000000
vt 0.687500 1.000000
vt 0.708333 0.000000
vt 0.708333 1.000000
vt 0.729167 0.000000
vt 0.729167 1.000000
vt 0.750000 0.000000
vt 0.750000 1.000000
vt 0.770833 0.000000
vt 0.770833 1.000000
vt 0.791667 0.000000
vt 0.791667 1.000000
vt 0.812500 0.000000
vt 0.812500 1.000000
vt 0.833333 0.000000
vt 0.833333 1.000000
vt 0.854167 0.000000
vt 0.854167 1.000000
vt 0.875000 0.000000
vt 0.875000 1.000000
vt 0.895833 0.000000
vt 0.895833 1.000000
vt 0.916667 0.000000
vt 0.916667 1.000000
vt 0.937500 0.000000
vt 0.937500 1.000000
vt 0.958333 0.000000
vt 0.958333 1.000000
vt 0.979167 0.000000
vt 0.979167 1.000000
s 0
f 47/47/1 1/1/1 48/48/1
f 47/47/1 2/2/1 1/1/1
f 46/46/1 2/2/1 47/47/1
f 46/46/1 3/3/1 2/2/1
f 45/45/1 3/3/1 46/46/1
f 45/45/1 4/4/1 3/3/1
f 44/44/1 4/4/1 45/45/1
f 44/44/1 5/5/1 4/4/1
f 43/43/1 5/5/1 44/44/1
f 43/43/1 6/6/1 5/5/1
f 42/42/1 72/72/1 43/43/1
f 72/72/1 6/6/1 43/43/1
f 42/42/1 73/73/1 72/72/1
f 71/71/1 6/6/1 72/72/1
f 42/42/1 74/74/1 73/73/1
f 70/70/1 6/6/1 71/71/1
f 42/42/1 75/75/1 74/74/1
f 69/69/1 6/6/1 70/70/1
f 69/69/1 7/7/1 6/6/1
f 41/41/1 75/75/1 42/42/1
f 41/41/1 76/76/1 75/75/1
f 68/68/1 7/7/1 69/69/1
f 41/41/1 77/77/1 76/76/1
f 67/67/1 7/7/1 68/68/1
f 67/67/1 8/8/1 7/7/1
f 40/40/1 77/77/1 41/41/1
f 40/40/1 78/78/1 77/77/1
f 66/66/1 8/8/1 67/67/1
f 40/40/1 79/79/1 78/78/1
f 65/65/1 8/8/1 66/66/1
f 65/65/1 9/9/1 8/8/1
f 39/39/1 79/79/1 40/40/1
f 39/39/1 80/80/1 79/79/1
f 64/64/1 9/9/1 65/65/1
f 64/64/1 10/10/1 9/9/1
f 38/38/1 80/80/1 39/39/1
f 38/38/1 81/81/1 80/80/1
f 63/63/1 10/10/1 64/64/1
f 62/62/1 10/10/1 63/63/1
f 38/38/1 82/82/1 81/81/1
f 62/62/1 11/11/1 10/10/1
f 37/37/1 82/82/1 38/38/1
f 61/61/1 11/11/1 62/62/1
f 37/37/1 83/83/1 82/82/1
f 61/61/1 12/12/1 11/11/1
f 36/36/1 83/83/1 37/37/1
f 60/60/1 12/12/1 61/61/1
f 36/36/1 84/84/1 83/83/1
f 35/35/1 84/84/1 36/36/1
f 35/35/1 85/85/1 84/84/1
f 59/59/1 12/12/1 60/60/1
f 59/59/1 13/13/1 12/12/1
f 58/58/1 13/13/1 59/59/1
f 35/35/1 86/86/1 85/85/1
f 58/58/1 14/14/1 13/13/1
f 34/34/1 86/86/1 35/35/1
f 57/57/1 14/14/1 58/58/1
f 34/34/1 87/87/1 86/86/1
f 57/57/1 15/15/1 14/14/1
f 33/33/1 87/87/1 34/34/1
f 56/56/1 15/15/1 57/57/1
f 33/33/1 88/88/1 87/87/1
f 56/56/1 16/16/1 15/15/1
f 32/32/1 88/88/1 33/33/1
f 55/55/1 16/16/1 56/56/1
f 32/32/1 89/89/1 88/88/1
f 54/54/1 16/16/1 55/55/1
f 32/32/1 90/90/1 89/89/1
f 54/54/1 17/17/1 16/16/1
f 31/31/1 90/90/1 32/32/1
f 53/53/1 17/17/1 54/54/1
f 31/31/1 91/91/1 90/90/1
f 52/52/1 17/17/1 53/53/1
f 31/31/1 92/92/1 91/91/1
f 52/52/1 18/18/1 17/17/1
f 30/30/1 92/92/1 31/31/1
f 51/51/1 18/18/1 52/52/1
f 30/30/1 93/93/1 92/92/1
f 50/50/1 18/18/1 51/51/1
f 30/30/1 94/94/1 93/93/1
f 50/50/1 19/19/1 18/18/1
f 29/29/1 94/94/1 30/30/1
f 49/49/1 19/19/1 50/50/1
f 29/29/1 95/95/1 94/94/1
f 96/96/1 19/19/1 49/49/1
f 29/29/1 96/96/1 95/95/1
f 29/29/1 19/19/1 96/96/1
f 29/29/1 20/20/1 19/19/1
f 28/28/1 20/20/1 29/29/1
f 28/28/1 21/21/1 20/20/1
f 27/27/1 21/21/1 28/28/1
f 27/27/1 22/22/1 21/21/1
f 26/26/1 22/22/1 27/27/1
f 26/26/1 23/23/1 22/22/1
f 25/25/1 23/23/1 26/26/1
f 25/25/1 24/24/1 23/23/1
f 143/143/2 144/144/2 97/97/2
f 143/143/2 97/97/2 98/98/2
f 142/142/2 143/143/2 98/98/2
f 142/142/2 98/98/2 99/99/2
f 141/141/2 142/142/2 99/99/2
f 141/141/2 99/99/2 100/100/2
f 140/140/2 141/141/2 100/100/2
f 140/140/2 100/100/2 101/101/2
f 139/139/2 140/140/2 101/101/2
f 139/139/2 101/101/2 102/102/2
f 138/138/2 139/139/2 168/168/2
f 168/168/2 139/139/2 102/102/2
f 138/138/2 168/168/2 169/169/2
f 167/167/2 168/168/2 102/102/2
f 138/138/2 169/169/2 170/170/2
f 166/166/2 167/167/2 102/102/2
f 138/138/2 170/170/2 171/171/2
f 165/165/2 166/166/2 102/102/2
f 165/165/2 102/102/2 103/103/2
f 137/137/2 138/138/2 171/171/2
f 137/137/2 171/171/2 172/172/2
f 164/164/2 165/165/2 103/103/2
f 137/137/2 172/172/2 173/173/2
f 163/163/2 164/164/2 103/103/2
f 163/163/2 103/103/2 104/104/2
f 136/136/2 137/137/2 173/173/2
f 136/136/2 173/173/2 174/174/2
f 162/162/2 163/163/2 104/104/2
f 136/136/2 174/174/2 175/175/2
f 161/161/2 162/162/2 104/104/2
f 161/161/2 104/104/2 105/105/2
f 135/135/2 136/136/2 175/175/2
f 135/135/2 175/175/2 176/176/2
f 160/160/2 161/161/2 105/105/2
f 160/160/2 105/105/2 106/106/2
f 134/134/2 135/135/2 176/176/2
f 134/134/2 176/176/2 177/177/2
f 159/159/2 160/160/2 106/106/2
f 158/158/2 159/159/2 106/106/2
f 134/134/2 177/177/2 178/178/2
f 158/158/2 106/106/2 107/107/2
f 133/133/2 134/134/2 178/178/2
f 157/157/2 158/158/2 107/107/2
f 133/133/2 178/178/2 179/179/2
f 157/157/2 107/107/2 108/108/2
f 132/132/2 133/133/2 179/179/2
f 156/156/2 157/157/2 108/108/2
f 132/132/2 179/179/2 180/180/2
f 131/131/2 132/132/2 180/180/2
f 131/131/2 180/180/2 181/181/2
f 155/155/2 156/156/2 108/108/2
f 155/155/2 108/108/2 109/109/2
f 154/154/2 155/155/2 109/109/2
f 131/131/2 181/181/2 182/182/2
f 154/154/2 109/109/2 110/110/2
f 130/130/2 131/131/2 182/182/2
f 153/153/2 154/154/2 110/110/2
f 130/130/2 182/182/2 183/183/2
f 153/153/2 110/110/2 111/111/2
f 129/129/2 130/130/2 183/183/2
f 152/152/2 153/153/2 111/111/2
f 129/129/2 183/183/2 184/184/2
f 152/152/2 111/111/2 112/112/2
f 128/128/2 129/129/2 184/184/2
f 151/151/2 152/152/2 112/112/2
f 128/128/2 184/184/2 185/185/2
f 150/150/2 151/151/2 112/112/2
f 128/128/2 185/185/2 186/186/2
f 150/150/2 112/112/2 113/113/2
f 127/127/2 128/128/2 186/186/2
f 149/149/2 150/150/2 113/113/2
f 127/127/2 186/186/2 187/187/2
f 148/148/2 149/149/2 113/113/2
f 127/127/2 187/187/2 188/188/2
f 148/148/2 113/113/2 114/114/2
f 126/126/2 127/127/2 188/188/2
f 147/147/2 148/148/2 114/114/2
f 126/126/2 188/188/2 189/189/2
f 146/146/2 147/147/2 114/114/2
f 126/126/2 189/189/2 190/190/2
f 146/146/2 114/114/2 115/115/2
f 125/125/2 126/126/2 190/190/2
f 145/145/2 146/146/2 115/115/2
f 125/125/2 190/190/2 191/191/2
f 192/192/2 145/145/2 115/115/2
f 125/125/2 191/191/2 192/192/2
f 125/125/2 192/192/2 115/115/2
f 125/125/2 115/115/2 116/116/2
f 124/124/2 125/125/2 116/116/2
f 124/124/2 116/116/2 117/117/2
f 123/123/2 124/124/2 117/117/2
f 123/123/2 117/117/2 118/118/2
f 122/122/2 123/123/2 118/118/2
f 122/122/2 118/118/2 119/119/2
f 121/121/2 122/122/2 119/119/2
f 121/121/2 119/119/2 120/120/2
s 1
f 196/198/3 193/193/4 194/195/4
f 198/200/5 195/197/3 196/198/3
f 200/202/6 197/199/5 198/200/5
f 202/204/7 199/201/6 200/202/6
f 204/206/8 201/203/7 202/204/7
f 206/208/9 203/205/8 204/206/8
f 208/210/10 205/207/9 206/208/9
f 210/212/11 207/209/10 208/210/10
f 212/214/12 209/211/11 210/212/11
f 214/216/13 211/213/12 212/214/12
f 216/218/14 213/215/13 214/216/13
f 218/220/15 215/217/14 216/218/14
f 220/222/16 217/219/15 218/220/15
f 222/224/17 219/221/16 220/222/16
f 224/226/18 221/223/17 222/224/17
f 226/228/19 223/225/18 224/226/18
f 228/230/20 225/227/19 226/228/19
f 230/232/21 227/229/20 228/230/20
f 232/234/22 229/231/21 230/232/21
f 234/236/23 231/233/22 232/234/22
f 236/238/24 233/235/23 234/236/23
f 238/240/25 235/237/24 236/238/24
f 240/242/26 237/239/25 238/240/25
f 242/244/27 239/241/26 240/242/26
f 244/246/28 241/243/27 242/244/27
f 246/248/29 243/245/28 244/246/28
f 248/250/30 245/247/29 246/248/29
f 250/252/31 247/249/30 248/250/30
f 252/254/32 249/251/31 250/252/31
f 254/256/33 251/253/32 252/254/32
f 256/258/34 253/255/33 254/256/33
f 258/260/35 255/257/34 256/258/34
f 260/262/36 257/259/35 258/260/35
f 262/264/37 259/261/36 260/262/36
f 264/266/38 261/263/37 262/264/37
f 266/268/39 263/265/38 264/266/38
f 268/270/40 265/267/39 266/268/39
f 270/272/41 267/269/40 268/270/40
f 272/274/42 269/271/41 270/272/41
f 274/276/43 271/273/42 272/274/42
f 276/278/44 273/275/43 274/276/43
f 278/280/45 275/277/44 276/278/44
f 280/282/46 277/279/45 278/280/45
f 282/284/47 279/281/46 280/282/46
f 284/286/48 281/283/47 282/284/47
f 286/288/49 283/285/48 284/286/48
f 288/290/50 285/287/49 286/288/49
f 194/196/4 287/289/50 288/290/50
f 292/296/51 289/291/52 290/293/52
f 294/298/53 291/295/51 292/296/51
f 296/300/54 293/297/53 294/298/53
f 298/302/55 295/299/54 296/300/54
f 300/304/56 297/301/55 298/302/55
f 302/306/57 299/303/56 300/304/56
f 304/308/58 301/305/57 302/306/57
f 306/310/59 303/307/58 304/308/58
f 308/312/60 305/309/59 306/310/59
f 310/314/61 307/311/60 308/312/60
f 312/316/62 309/313/61 310/314/61
f 314/318/63 311/315/62 312/316/62
f 316/320/64 313/317/63 314/318/63
f 318/322/65 315/319/64 316/320/64
f 320/324/66 317/321/65 318/322/65
f 322/326/67 319/323/66 320/324/66
f 324/328/68 321/325/67 322/326/67
f 326/330/69 323/327/68 324/328/68
f 328/332/70 325/329/69 326/330/69
f 330/334/71 327/331/70 328/332/70
f 332/336/72 329/333/71 330/334/71
f 334/338/73 331/335/72 332/336/72
f 336/340/74 333/337/73 334/338/73
f 338/342/75 335/339/74 336/340/74
f 340/344/76 337/341/75 338/342/75
f 342/346/77 339/343/76 340/344/76
f 344/348/78 341/345/77 342/346/77
f 346/350/79 343/347/78 344/348/78
f 348/352/80 345/349/79 346/350/79
f 350/354/81 347/351/80 348/352/80
f 352/356/82 349/353/81 350/354/81
f 354/358/83 351/355/82 352/356/82
f 356/360/84 353/357/83 354/358/83
f 358/362/85 355/359/84 356/360/84
f 360/364/86 357/361/85 358/362/85
f 362/366/87 359/363/86 360/364/86
f 364/368/88 361/365/87 362/366/87
f 366/370/89 363/367/88 364/368/88
f 368/372/90 365/369/89 366/370/89
f 370/374/91 367/371/90 368/372/90
f 372/376/92 369/373/91 370/374/91
f 374/378/93 371/375/92 372/376/92
f 376/380/94 373/377/93 374/378/93
f 378/382/95 375/379/94 376/380/94
f 380/384/96 377/381/95 378/382/95
f 382/386/97 379/383/96 380/384/96
f 384/388/98 381/385/97 382/386/97
f 290/294/52 383/387/98 384/388/98
f 196/198/3 195/197/3 193/193/4
f 198/200/5 197/199/5 195/197/3
f 200/202/6 199/201/6 197/199/5
f 202/204/7 201/203/7 199/201/6
f 204/206/8 203/205/8 201/203/7
f 206/208/9 205/207/9 203/205/8
f 208/210/10 207/209/10 205/207/9
f 210/212/11 209/211/11 207/209/10
f 212/214/12 211/213/12 209/211/11
f 214/216/13 213/215/13 211/213/12
f 216/218/14 215/217/14 213/215/13
f 218/220/15 217/219/15 215/217/14
f 220/222/16 219/221/16 217/219/15
f 222/224/17 221/223/17 219/221/16
f 224/226/18 223/225/18 221/223/17
f 226/228/19 225/227/19 223/225/18
f 228/230/20 227/229/20 225/227/19
f 230/232/21 229/231/21 227/229/20
f 232/234/22 231/233/22 229/231/21
f 234/236/23 233/235/23 231/233/22
f 236/238/24 235/237/24 233/235/23
f 238/240/25 237/239/25 235/237/24
f 240/242/26 239/241/26 237/239/25
f 242/244/27 241/243/27 239/241/26
f 244/246/28 243/245/28 241/243/27
f 246/248/29 245/247/29 243/245/28
f 248/250/30 247/249/30 245/247/29
f 250/252/31 249/251/31 247/249/30
f 252/254/32 251/253/32 249/251/31
f 254/256/33 253/255/33 251/253/32
f 256/258/34 255/257/34 253/255/33
f 258/260/35 257/259/35 255/257/34
f 260/262/36 259/261/36 257/259/35
f 262/264/37 261/263/37 259/261/36
f 264/266/38 263/265/38 261/263/37
f 266/268/39 265/267/39 263/265/38
f 268/270/40 267/269/40 265/267/39
f 270/272/41 269/271/41 267/269/40
f 272/274/42 271/273/42 269/271/41
f 274/276/43 273/275/43 271/273/42
f 276/278/44 275/277/44 273/275/43
f 278/280/45 277/279/45 275/277/44
f 280/282/46 279/281/46 277/279/45
f 282/284/47 281/283/47 279/281/46
f 284/286/48 283/285/48 281/283/47
f 286/288/49 285/287/49 283/285/48
f 288/290/50 287/289/50 285/287/49
f 194/196/4 193/194/4 287/289/50
f 292/296/51 291/295/51 289/291/52
f 294/298/53 293/297/53 291/295/51
f 296/300/54 295/299/54 293/297/53
f 298/302/55 297/301/55 295/299/54
f 300/304/56 299/303/56 297/301/55
f 302/306/57 301/305/57 299/303/56
f 304/308/58 303/307/58 301/305/57
f 306/310/59 305/309/59 303/307/58
f 308/312/60 307/311/60 305/309/59
f 310/314/61 309/313/61 307/311/60
f 312/316/62 311/315/62 309/313/61
f 314/318/63 313/317/63 311/315/62
f 316/320/64 315/319/64 313/317/63
f 318/322/65 317/321/65 315/319/64
f 320/324/66 319/323/66 317/321/65
f 322/326/67 321/325/67 319/323/66
f 324/328/68 323/327/68 321/325/67
f 326/330/69 325/329/69 323/327/68
f 328/332/70 327/331/70 325/329/69
f 330/334/71 329/333/71 327/331/70
f 332/336/72 331/335/72 329/333/71
f 334/338/73 333/337/73 331/335/72
f 336/340/74 335/339/74 333/337/73
f 338/342/75 337/341/75 335/339/74
f 340/344/76 339/343/76 337/341/75
f 342/346/77 341/345/77 339/343/76
f 344/348/78 343/347/78 341/345/77
f 346/350/79 345/349/79 343/347/78
f 348/352/80 347/351/80 345/349/79
f 350/354/81 349/353/81 347/351/80
f 352/356/82 351/355/82 349/353/81
f 354/358/83 353/357/83 351/355/82
f 356/360/84 355/359/84 353/357/83
f 358/362/85 357/361/85 355/359/84
f 360/364/86 359/363/86 357/361/85
f 362/366/87 361/365/87 359/363/86
f 364/368/88 363/367/88 361/365/87
f 366/370/89 365/369/89 363/367/88
f 368/372/90 367/371/90 365/369/89
f 370/374/91 369/373/91 367/371/90
f 372/376/92 371/375/92 369/373/91
f 374/378/93 373/377/93 371/375/92
f 376/380/94 375/379/94 373/377/93
f 378/382/95 377/381/95 375/379/94
f 380/384/96 379/383/96 377/381/95
f 382/386/97 381/385/97 379/383/96
f 384/388/98 383/387/98 381/385/97
f 290/294/52 289/292/52 383/387/98
