# Blender 3.2.2
# www.blender.org
o Letter_Q
v 0.100602 0.240964 0.333735
v 0.135477 0.240964 0.348218
v 0.167955 0.240964 0.360944
v 0.198249 0.240964 0.371913
v 0.226573 0.240964 0.381124
v 0.253140 0.240964 0.388579
v 0.278163 0.240964 0.394277
v 0.301855 0.240964 0.398218
v 0.324431 0.240964 0.400402
v 0.346103 0.240964 0.400828
v 0.367085 0.240964 0.399498
v 0.387590 0.240964 0.396411
v 0.407831 0.240964 0.391566
v 0.411446 0.240964 0.395181
v 0.305422 0.240964 0.500000
v 0.266257 0.240964 0.495785
v 0.228252 0.240964 0.489268
v 0.191359 0.240964 0.480610
v 0.155533 0.240964 0.469969
v 0.120728 0.240964 0.457504
v 0.086898 0.240964 0.443374
v 0.053996 0.240964 0.427737
v 0.021977 0.240964 0.410754
v -0.009206 0.240964 0.392583
v -0.039597 0.240964 0.373382
v -0.069244 0.240964 0.353312
v -0.098193 0.240964 0.332530
v -0.147746 0.240964 0.320259
v -0.194417 0.240964 0.302934
v -0.237933 0.240964 0.280873
v -0.278023 0.240964 0.254395
v -0.314415 0.240964 0.223817
v -0.346837 0.240964 0.189458
v -0.375017 0.240964 0.151634
v -0.398684 0.240964 0.110665
v -0.417564 0.240964 0.066867
v -0.431387 0.240964 0.020560
v -0.439880 0.240964 -0.027940
v -0.442771 0.240964 -0.078313
v -0.438942 0.240964 -0.138748
v -0.427705 0.240964 -0.195727
v -0.409431 0.240964 -0.248908
v -0.384493 0.240964 -0.297947
v -0.353264 0.240964 -0.342502
v -0.316114 0.240964 -0.382229
v -0.273418 0.240964 -0.416785
v -0.225547 0.240964 -0.445828
v -0.172873 0.240964 -0.469014
v -0.115769 0.240964 -0.486000
v -0.054607 0.240964 -0.496443
v 0.010241 0.240964 -0.500000
v 0.070383 0.240964 -0.496257
v 0.127622 0.240964 -0.485319
v 0.181514 0.240964 -0.467620
v 0.231615 0.240964 -0.443597
v 0.277484 0.240964 -0.413682
v 0.318675 0.240964 -0.378313
v 0.354745 0.240964 -0.337924
v 0.385252 0.240964 -0.292950
v 0.409752 0.240964 -0.243825
v 0.427800 0.240964 -0.190986
v 0.438954 0.240964 -0.134867
v 0.442771 0.240964 -0.075904
v 0.439835 0.240964 -0.026843
v 0.431230 0.240964 0.020699
v 0.417263 0.240964 0.066359
v 0.398237 0.240964 0.109772
v 0.374460 0.240964 0.150575
v 0.346235 0.240964 0.188404
v 0.313869 0.240964 0.222894
v 0.277666 0.240964 0.253681
v 0.237933 0.240964 0.280403
v 0.194974 0.240964 0.302694
v 0.149096 0.240964 0.320191
v 0.100602 0.240964 0.332530
v 0.100602 0.240964 0.331325
v -0.318800 0.240964 -0.036041
v -0.311948 0.240964 0.003737
v -0.300527 0.240964 0.041792
v -0.284538 0.240964 0.077689
v -0.263981 0.240964 0.110991
v -0.238855 0.240964 0.141265
v -0.209162 0.240964 0.168075
v -0.174900 0.240964 0.190986
v -0.136069 0.240964 0.209563
v -0.092671 0.240964 0.223371
v -0.044704 0.240964 0.231975
v 0.007831 0.240964 0.234940
v 0.052465 0.240964 0.232046
v 0.094623 0.240964 0.223633
v 0.134036 0.240964 0.210109
v 0.170437 0.240964 0.191879
v 0.203559 0.240964 0.169348
v 0.233133 0.240964 0.142922
v 0.258891 0.240964 0.113007
v 0.280567 0.240964 0.080009
v 0.297892 0.240964 0.044334
v 0.310598 0.240964 0.006387
v 0.318418 0.240964 -0.033426
v 0.321084 0.240964 -0.074699
v 0.318348 0.240964 -0.118645
v 0.310336 0.240964 -0.160503
v 0.297346 0.240964 -0.199944
v 0.279674 0.240964 -0.236635
v 0.257619 0.240964 -0.270248
v 0.231476 0.240964 -0.300452
v 0.201543 0.240964 -0.326915
v 0.168117 0.240964 -0.349308
v 0.131495 0.240964 -0.367300
v 0.091973 0.240964 -0.380561
v 0.049850 0.240964 -0.388760
v 0.005422 0.240964 -0.391566
v -0.052634 0.240964 -0.387749
v -0.104105 0.240964 -0.376891
v -0.149285 0.240964 -0.359883
v -0.188465 0.240964 -0.337617
v -0.221939 0.240964 -0.310983
v -0.250000 0.240964 -0.280873
v -0.272940 0.240964 -0.248178
v -0.291053 0.240964 -0.213788
v -0.304631 0.240964 -0.178596
v -0.313967 0.240964 -0.143491
v -0.319354 0.240964 -0.109365
v -0.321084 0.240964 -0.077108
v 0.100602 -0.240964 0.333735
v 0.135477 -0.240964 0.348218
v 0.167955 -0.240964 0.360944
v 0.198249 -0.240964 0.371913
v 0.226573 -0.240964 0.381124
v 0.253140 -0.240964 0.388579
v 0.278163 -0.240964 0.394277
v 0.301855 -0.240964 0.398218
v 0.324431 -0.240964 0.400402
v 0.346103 -0.240964 0.400828
v 0.367085 -0.240964 0.399498
v 0.387590 -0.240964 0.396411
v 0.407831 -0.240964 0.391566
v 0.411446 -0.240964 0.395181
v 0.305422 -0.240964 0.500000
v 0.266257 -0.240964 0.495785
v 0.228252 -0.240964 0.489268
v 0.191359 -0.240964 0.480610
v 0.155533 -0.240964 0.469969
v 0.120728 -0.240964 0.457504
v 0.086898 -0.240964 0.443374
v 0.053996 -0.240964 0.427737
v 0.021977 -0.240964 0.410754
v -0.009206 -0.240964 0.392583
v -0.039597 -0.240964 0.373382
v -0.069244 -0.240964 0.353312
v -0.098193 -0.240964 0.332530
v -0.147746 -0.240964 0.320259
v -0.194417 -0.240964 0.302934
v -0.237933 -0.240964 0.280873
v -0.278023 -0.240964 0.254395
v -0.314415 -0.240964 0.223817
v -0.346837 -0.240964 0.189458
v -0.375017 -0.240964 0.151634
v -0.398684 -0.240964 0.110665
v -0.417564 -0.240964 0.066867
v -0.431387 -0.240964 0.020560
v -0.439880 -0.240964 -0.027940
v -0.442771 -0.240964 -0.078313
v -0.438942 -0.240964 -0.138748
v -0.427705 -0.240964 -0.195727
v -0.409431 -0.240964 -0.248908
v -0.384493 -0.240964 -0.297947
v -0.353264 -0.240964 -0.342502
v -0.316114 -0.240964 -0.382229
v -0.273418 -0.240964 -0.416785
v -0.225547 -0.240964 -0.445828
v -0.172873 -0.240964 -0.469014
v -0.115769 -0.240964 -0.486000
v -0.054607 -0.240964 -0.496443
v 0.010241 -0.240964 -0.500000
v 0.070383 -0.240964 -0.496257
v 0.127622 -0.240964 -0.485319
v 0.181514 -0.240964 -0.467620
v 0.231615 -0.240964 -0.443597
v 0.277484 -0.240964 -0.413682
v 0.318675 -0.240964 -0.378313
v 0.354745 -0.240964 -0.337924
v 0.385252 -0.240964 -0.292950
v 0.409752 -0.240964 -0.243825
v 0.427800 -0.240964 -0.190986
v 0.438954 -0.240964 -0.134867
v 0.442771 -0.240964 -0.075904
v 0.439835 -0.240964 -0.026843
v 0.431230 -0.240964 0.020699
v 0.417263 -0.240964 0.066359
v 0.398237 -0.240964 0.109772
v 0.374460 -0.240964 0.150575
v 0.346235 -0.240964 0.188404
v 0.313869 -0.240964 0.222894
v 0.277666 -0.240964 0.253681
v 0.237933 -0.240964 0.280403
v 0.194974 -0.240964 0.302694
v 0.149096 -0.240964 0.320191
v 0.100602 -0.240964 0.332530
v 0.100602 -0.240964 0.331325
v -0.318800 -0.240964 -0.036041
v -0.311948 -0.240964 0.003737
v -0.300527 -0.240964 0.041792
v -0.284538 -0.240964 0.077689
v -0.263981 -0.240964 0.110991
v -0.238855 -0.240964 0.141265
v -0.209162 -0.240964 0.168075
v -0.174900 -0.240964 0.190986
v -0.136069 -0.240964 0.209563
v -0.092671 -0.240964 0.223371
v -0.044704 -0.240964 0.231975
v 0.007831 -0.240964 0.234940
v 0.052465 -0.240964 0.232046
v 0.094623 -0.240964 0.223633
v 0.134036 -0.240964 0.210109
v 0.170437 -0.240964 0.191879
v 0.203559 -0.240964 0.169348
v 0.233133 -0.240964 0.142922
v 0.258891 -0.240964 0.113007
v 0.280567 -0.240964 0.080009
v 0.297892 -0.240964 0.044334
v 0.310598 -0.240964 0.006387
v 0.318418 -0.240964 -0.033426
v 0.321084 -0.240964 -0.074699
v 0.318348 -0.240964 -0.118645
v 0.310336 -0.240964 -0.160503
v 0.297346 -0.240964 -0.199944
v 0.279674 -0.240964 -0.236635
v 0.257619 -0.240964 -0.270248
v 0.231476 -0.240964 -0.300452
v 0.201543 -0.240964 -0.326915
v 0.168117 -0.240964 -0.349308
v 0.131495 -0.240964 -0.367300
v 0.091973 -0.240964 -0.380561
v 0.049850 -0.240964 -0.388760
v 0.005422 -0.240964 -0.391566
v -0.052634 -0.240964 -0.387749
v -0.104105 -0.240964 -0.376891
v -0.149285 -0.240964 -0.359883
v -0.188465 -0.240964 -0.337617
v -0.221939 -0.240964 -0.310983
v -0.250000 -0.240964 -0.280873
v -0.272940 -0.240964 -0.248178
v -0.291053 -0.240964 -0.213788
v -0.304631 -0.240964 -0.178596
v -0.313967 -0.240964 -0.143491
v -0.319354 -0.240964 -0.109365
v -0.321084 -0.240964 -0.077108
v 0.100602 -0.240964 0.333735
v 0.100602 0.240964 0.333735
v 0.135477 -0.240964 0.348218
v 0.135477 0.240964 0.348218
v 0.167955 -0.240964 0.360944
v 0.167955 0.240964 0.360944
v 0.198249 -0.240964 0.371913
v 0.198249 0.240964 0.371913
v 0.226573 -0.240964 0.381124
v 0.226573 0.240964 0.381124
v 0.253140 -0.240964 0.388579
v 0.253140 0.240964 0.388579
v 0.278163 -0.240964 0.394277
v 0.278163 0.240964 0.394277
v 0.301855 -0.240964 0.398218
v 0.301855 0.240964 0.398218
v 0.324431 -0.240964 0.400402
v 0.324431 0.240964 0.400402
v 0.346103 -0.240964 0.400828
v 0.346103 0.240964 0.400828
v 0.367085 -0.240964 0.399498
v 0.367085 0.240964 0.399498
v 0.387590 -0.240964 0.396411
v 0.387590 0.240964 0.396411
v 0.407831 -0.240964 0.391566
v 0.407831 0.240964 0.391566
v 0.411446 -0.240964 0.395181
v 0.411446 0.240964 0.395181
v 0.305422 -0.240964 0.500000
v 0.305422 0.240964 0.500000
v 0.266257 -0.240964 0.495785
v 0.266257 0.240964 0.495785
v 0.228252 -0.240964 0.489268
v 0.228252 0.240964 0.489268
v 0.191359 -0.240964 0.480610
v 0.191359 0.240964 0.480610
v 0.155533 -0.240964 0.469969
v 0.155533 0.240964 0.469969
v 0.120728 -0.240964 0.457504
v 0.120728 0.240964 0.457504
v 0.086898 -0.240964 0.443374
v 0.086898 0.240964 0.443374
v 0.053996 -0.240964 0.427737
v 0.053996 0.240964 0.427737
v 0.021977 -0.240964 0.410754
v 0.021977 0.240964 0.410754
v -0.009206 -0.240964 0.392583
v -0.009206 0.240964 0.392583
v -0.039597 -0.240964 0.373382
v -0.039597 0.240964 0.373382
v -0.069244 -0.240964 0.353312
v -0.069244 0.240964 0.353312
v -0.098193 -0.240964 0.332530
v -0.098193 0.240964 0.332530
v -0.147746 -0.240964 0.320259
v -0.147746 0.240964 0.320259
v -0.194417 -0.240964 0.302934
v -0.194417 0.240964 0.302934
v -0.237933 -0.240964 0.280873
v -0.237933 0.240964 0.280873
v -0.278023 -0.240964 0.254395
v -0.278023 0.240964 0.254395
v -0.314415 -0.240964 0.223817
v -0.314415 0.240964 0.223817
v -0.346837 -0.240964 0.189458
v -0.346837 0.240964 0.189458
v -0.375017 -0.240964 0.151634
v -0.375017 0.240964 0.151634
v -0.398684 -0.240964 0.110665
v -0.398684 0.240964 0.110665
v -0.417564 -0.240964 0.066867
v -0.417564 0.240964 0.066867
v -0.431387 -0.240964 0.020560
v -0.431387 0.240964 0.020560
v -0.439880 -0.240964 -0.027940
v -0.439880 0.240964 -0.027940
v -0.442771 -0.240964 -0.078313
v -0.442771 0.240964 -0.078313
v -0.438942 -0.240964 -0.138748
v -0.438942 0.240964 -0.138748
v -0.427705 -0.240964 -0.195727
v -0.427705 0.240964 -0.195727
v -0.409431 -0.240964 -0.248908
v -0.409431 0.240964 -0.248908
v -0.384493 -0.240964 -0.297947
v -0.384493 0.240964 -0.297947
v -0.353264 -0.240964 -0.342502
v -0.353264 0.240964 -0.342502
v -0.316114 -0.240964 -0.382229
v -0.316114 0.240964 -0.382229
v -0.273418 -0.240964 -0.416785
v -0.273418 0.240964 -0.416785
v -0.225547 -0.240964 -0.445828
v -0.225547 0.240964 -0.445828
v -0.172873 -0.240964 -0.469014
v -0.172873 0.240964 -0.469014
v -0.115769 -0.240964 -0.486000
v -0.115769 0.240964 -0.486000
v -0.054607 -0.240964 -0.496443
v -0.054607 0.240964 -0.496443
v 0.010241 -0.240964 -0.500000
v 0.010241 0.240964 -0.500000
v 0.070383 -0.240964 -0.496257
v 0.070383 0.240964 -0.496257
v 0.127622 -0.240964 -0.485319
v 0.127622 0.240964 -0.485319
v 0.181514 -0.240964 -0.467620
v 0.181514 0.240964 -0.467620
v 0.231615 -0.240964 -0.443597
v 0.231615 0.240964 -0.443597
v 0.277484 -0.240964 -0.413682
v 0.277484 0.240964 -0.413682
v 0.318675 -0.240964 -0.378313
v 0.318675 0.240964 -0.378313
v 0.354745 -0.240964 -0.337924
v 0.354745 0.240964 -0.337924
v 0.385252 -0.240964 -0.292950
v 0.385252 0.240964 -0.292950
v 0.409752 -0.240964 -0.243825
v 0.409752 0.240964 -0.243825
v 0.427800 -0.240964 -0.190986
v 0.427800 0.240964 -0.190986
v 0.438954 -0.240964 -0.134867
v 0.438954 0.240964 -0.134867
v 0.442771 -0.240964 -0.075904
v 0.442771 0.240964 -0.075904
v 0.439835 -0.240964 -0.026843
v 0.439835 0.240964 -0.026843
v 0.431230 -0.240964 0.020699
v 0.431230 0.240964 0.020699
v 0.417263 -0.240964 0.066359
v 0.417263 0.240964 0.066359
v 0.398237 -0.240964 0.109772
v 0.398237 0.240964 0.109772
v 0.374460 -0.240964 0.150575
v 0.374460 0.240964 0.150575
v 0.346235 -0.240964 0.188404
v 0.346235 0.240964 0.188404
v 0.313869 -0.240964 0.222894
v 0.313869 0.240964 0.222894
v 0.277666 -0.240964 0.253681
v 0.277666 0.240964 0.253681
v 0.237933 -0.240964 0.280403
v 0.237933 0.240964 0.280403
v 0.194974 -0.240964 0.302694
v 0.194974 0.240964 0.302694
v 0.149096 -0.240964 0.320191
v 0.149096 0.240964 0.320191
v 0.100602 -0.240964 0.332530
v 0.100602 0.240964 0.332530
v 0.100602 -0.240964 0.331325
v 0.100602 0.240964 0.331325
v -0.318800 -0.240964 -0.036041
v -0.318800 0.240964 -0.036041
v -0.311948 -0.240964 0.003737
v -0.311948 0.240964 0.003737
v -0.300527 -0.240964 0.041792
v -0.300527 0.240964 0.041792
v -0.284538 -0.240964 0.077689
v -0.284538 0.240964 0.077689
v -0.263981 -0.240964 0.110991
v -0.263981 0.240964 0.110991
v -0.238855 -0.240964 0.141265
v -0.238855 0.240964 0.141265
v -0.209162 -0.240964 0.168075
v -0.209162 0.240964 0.168075
v -0.174900 -0.240964 0.190986
v -0.174900 0.240964 0.190986
v -0.136069 -0.240964 0.209563
v -0.136069 0.240964 0.209563
v -0.092671 -0.240964 0.223371
v -0.092671 0.240964 0.223371
v -0.044704 -0.240964 0.231975
v -0.044704 0.240964 0.231975
v 0.007831 -0.240964 0.234940
v 0.007831 0.240964 0.234940
v 0.052465 -0.240964 0.232046
v 0.052465 0.240964 0.232046
v 0.094623 -0.240964 0.223633
v 0.094623 0.240964 0.223633
v 0.134036 -0.240964 0.210109
v 0.134036 0.240964 0.210109
v 0.170437 -0.240964 0.191879
v 0.170437 0.240964 0.191879
v 0.203559 -0.240964 0.169348
v 0.203559 0.240964 0.169348
v 0.233133 -0.240964 0.142922
v 0.233133 0.240964 0.142922
v 0.258891 -0.240964 0.113007
v 0.258891 0.240964 0.113007
v 0.280567 -0.240964 0.080009
v 0.280567 0.240964 0.080009
v 0.297892 -0.240964 0.044334
v 0.297892 0.240964 0.044334
v 0.310598 -0.240964 0.006387
v 0.310598 0.240964 0.006387
v 0.318418 -0.240964 -0.033426
v 0.318418 0.240964 -0.033426
v 0.321084 -0.240964 -0.074699
v 0.321084 0.240964 -0.074699
v 0.318348 -0.240964 -0.118645
v 0.318348 0.240964 -0.118645
v 0.310336 -0.240964 -0.160503
v 0.310336 0.240964 -0.160503
v 0.297346 -0.240964 -0.199944
v 0.297346 0.240964 -0.199944
v 0.279674 -0.240964 -0.236635
v 0.279674 0.240964 -0.236635
v 0.257619 -0.240964 -0.270248
v 0.257619 0.240964 -0.270248
v 0.231476 -0.240964 -0.300452
v 0.231476 0.240964 -0.300452
v 0.201543 -0.240964 -0.326915
v 0.201543 0.240964 -0.326915
v 0.168117 -0.240964 -0.349308
v 0.168117 0.240964 -0.349308
v 0.131495 -0.240964 -0.367300
v 0.131495 0.240964 -0.367300
v 0.091973 -0.240964 -0.380561
v 0.091973 0.240964 -0.380561
v 0.049850 -0.240964 -0.388760
v 0.049850 0.240964 -0.388760
v 0.005422 -0.240964 -0.391566
v 0.005422 0.240964 -0.391566
v -0.052634 -0.240964 -0.387749
v -0.052634 0.240964 -0.387749
v -0.104105 -0.240964 -0.376891
v -0.104105 0.240964 -0.376891
v -0.149285 -0.240964 -0.359883
v -0.149285 0.240964 -0.359883
v -0.188465 -0.240964 -0.337617
v -0.188465 0.240964 -0.337617
v -0.221939 -0.240964 -0.310983
v -0.221939 0.240964 -0.310983
v -0.250000 -0.240964 -0.280873
v -0.250000 0.240964 -0.280873
v -0.272940 -0.240964 -0.248178
v -0.272940 0.240964 -0.248178
v -0.291053 -0.240964 -0.213788
v -0.291053 0.240964 -0.213788
v -0.304631 -0.240964 -0.178596
v -0.304631 0.240964 -0.178596
v -0.313967 -0.240964 -0.143491
v -0.313967 0.240964 -0.143491
v -0.319354 -0.240964 -0.109365
v -0.319354 0.240964 -0.109365
v -0.321084 -0.240964 -0.077108
v -0.321084 0.240964 -0.077108
vn -0.0000 1.0000 -0.0000
vn -0.0000 -1.0000 -0.0000
vn 0.3742 -0.0000 -0.9274
vn 0.8317 -0.0000 -0.5552
vn 0.3527 -0.0000 -0.9357
vn 0.3249 -0.0000 -0.9457
vn 0.2898 -0.0000 -0.9571
vn 0.2462 -0.0000 -0.9692
vn 0.1931 -0.0000 -0.9812
vn 0.1303 -0.0000 -0.9915
vn 0.0580 -0.0000 -0.9983
vn -0.0218 -0.0000 -0.9998
vn -0.1062 -0.0000 -0.9943
vn -0.1910 -0.0000 -0.9816
vn 0.2718 -0.0000 -0.9624
vn 1.0000 -0.0000 0.0029
vn 0.3299 -0.0000 0.9440
vn -0.1381 -0.0000 0.9904
vn -0.1988 -0.0000 0.9800
vn -0.2567 -0.0000 0.9665
vn -0.3111 -0.0000 0.9504
vn -0.3614 -0.0000 0.9324
vn -0.4074 -0.0000 0.9132
vn -0.4490 -0.0000 0.8935
vn -0.4861 -0.0000 0.8739
vn -0.5189 -0.0000 0.8548
vn -0.5474 -0.0000 0.8369
vn -0.5719 -0.0000 0.8203
vn -0.4193 -0.0000 0.9078
vn -0.2947 -0.0000 0.9556
vn -0.4007 -0.0000 0.9162
vn -0.5025 -0.0000 0.8646
vn -0.5982 -0.0000 0.8014
vn -0.6865 -0.0000 0.7272
vn -0.7659 -0.0000 0.6430
vn -0.8353 -0.0000 0.5498
vn -0.8936 -0.0000 0.4488
vn -0.9399 -0.0000 0.3415
vn -0.9733 -0.0000 0.2296
vn -0.9934 -0.0000 0.1151
vn -1.0000 -0.0000 -0.0030
vn -0.9917 -0.0000 -0.1286
vn -0.9657 -0.0000 -0.2598
vn -0.9208 -0.0000 -0.3901
vn -0.8572 -0.0000 -0.5149
vn -0.7766 -0.0000 -0.6300
vn -0.6814 -0.0000 -0.7319
vn -0.5752 -0.0000 -0.8180
vn -0.4618 -0.0000 -0.8870
vn -0.3447 -0.0000 -0.9387
vn -0.2271 -0.0000 -0.9739
vn -0.1117 -0.0000 -0.9937
vn 0.0037 -0.0000 -1.0000
vn 0.1252 -0.0000 -0.9921
vn 0.2504 -0.0000 -0.9681
vn 0.3730 -0.0000 -0.9278
vn 0.4904 -0.0000 -0.8715
vn 0.6002 -0.0000 -0.7999
vn 0.7002 -0.0000 -0.7140
vn 0.7885 -0.0000 -0.6151
vn 0.8631 -0.0000 -0.5049
vn 0.9227 -0.0000 -0.3856
vn 0.9657 -0.0000 -0.2597
vn 0.9915 -0.0000 -0.1301
vn 1.0000 -0.0000 -0.0024
vn 0.9929 -0.0000 0.1191
vn 0.9718 -0.0000 0.2357
vn 0.9377 -0.0000 0.3475
vn 0.8914 -0.0000 0.4532
vn 0.8341 -0.0000 0.5516
vn 0.7666 -0.0000 0.6422
vn 0.6896 -0.0000 0.7242
vn 0.6039 -0.0000 0.7971
vn 0.5101 -0.0000 0.8601
vn 0.4091 -0.0000 0.9125
vn 0.3020 -0.0000 0.9533
vn -0.6138 -0.0000 0.7895
vn 1.0000 -0.0000 -0.0000
vn 0.9734 -0.0000 -0.2290
vn 0.9936 -0.0000 -0.1128
vn 0.9375 -0.0000 -0.3479
vn 0.8842 -0.0000 -0.4671
vn 0.8122 -0.0000 -0.5834
vn 0.7217 -0.0000 -0.6922
vn 0.6146 -0.0000 -0.7888
vn 0.4950 -0.0000 -0.8689
vn 0.3683 -0.0000 -0.9297
vn 0.2404 -0.0000 -0.9707
vn 0.1167 -0.0000 -0.9932
vn -0.0042 -0.0000 -1.0000
vn -0.1305 -0.0000 -0.9915
vn -0.2607 -0.0000 -0.9654
vn -0.3870 -0.0000 -0.9221
vn -0.5062 -0.0000 -0.8624
vn -0.6157 -0.0000 -0.7880
vn -0.7136 -0.0000 -0.7006
vn -0.7985 -0.0000 -0.6020
vn -0.8695 -0.0000 -0.4940
vn -0.9258 -0.0000 -0.3780
vn -0.9668 -0.0000 -0.2557
vn -0.9917 -0.0000 -0.1289
vn -1.0000 -0.0000 -0.0012
vn -0.9921 -0.0000 0.1253
vn -0.9680 -0.0000 0.2509
vn -0.9274 -0.0000 0.3742
vn -0.8704 -0.0000 0.4923
vn -0.7979 -0.0000 0.6029
vn -0.7108 -0.0000 0.7034
vn -0.6108 -0.0000 0.7918
vn -0.4999 -0.0000 0.8661
vn -0.3804 -0.0000 0.9248
vn -0.2551 -0.0000 0.9669
vn -0.1273 -0.0000 0.9919
vn 0.0013 -0.0000 1.0000
vn 0.1364 -0.0000 0.9907
vn 0.2802 -0.0000 0.9600
vn 0.4245 -0.0000 0.9054
vn 0.5600 -0.0000 0.8285
vn 0.6790 -0.0000 0.7342
vn 0.7769 -0.0000 0.6296
vn 0.8534 -0.0000 0.5212
vn 0.9104 -0.0000 0.4137
vn 0.9511 -0.0000 0.3089
vn 0.9784 -0.0000 0.2067
vn 0.9945 -0.0000 0.1049
vn 1.0000 -0.0000 -0.0010
vt 0.000000 0.000000
vt 0.008130 0.000000
vt 0.016260 0.000000
vt 0.024390 0.000000
vt 0.032520 0.000000
vt 0.040650 0.000000
vt 0.048780 0.000000
vt 0.056911 0.000000
vt 0.065041 0.000000
vt 0.073171 0.000000
vt 0.081301 0.000000
vt 0.089431 0.000000
vt 0.097561 0.000000
vt 0.105691 0.000000
vt 0.113821 0.000000
vt 0.121951 0.000000
vt 0.130081 0.000000
vt 0.138211 0.000000
vt 0.146341 0.000000
vt 0.154472 0.000000
vt 0.162602 0.000000
vt 0.170732 0.000000
vt 0.178862 0.000000
vt 0.186992 0.000000
vt 0.195122 0.000000
vt 0.203252 0.000000
vt 0.211382 0.000000
vt 0.219512 0.000000
vt 0.227642 0.000000
vt 0.235772 0.000000
vt 0.243902 0.000000
vt 0.252033 0.000000
vt 0.260163 0.000000
vt 0.268293 0.000000
vt 0.276423 0.000000
vt 0.284553 0.000000
vt 0.292683 0.000000
vt 0.300813 0.000000
vt 0.308943 0.000000
vt 0.317073 0.000000
vt 0.325203 0.000000
vt 0.333333 0.000000
vt 0.341463 0.000000
vt 0.349593 0.000000
vt 0.357724 0.000000
vt 0.365854 0.000000
vt 0.373984 0.000000
vt 0.382114 0.000000
vt 0.390244 0.000000
vt 0.398374 0.000000
vt 0.406504 0.000000
vt 0.414634 0.000000
vt 0.422764 0.000000
vt 0.430894 0.000000
vt 0.439024 0.000000
vt 0.447154 0.000000
vt 0.455285 0.000000
vt 0.463415 0.000000
vt 0.471545 0.000000
vt 0.479675 0.000000
vt 0.487805 0.000000
vt 0.495935 0.000000
vt 0.504065 0.000000
vt 0.512195 0.000000
vt 0.520325 0.000000
vt 0.528455 0.000000
vt 0.536585 0.000000
vt 0.544715 0.000000
vt 0.552846 0.000000
vt 0.560976 0.000000
vt 0.569106 0.000000
vt 0.577236 0.000000
vt 0.585366 0.000000
vt 0.593496 0.000000
vt 0.601626 0.000000
vt 0.609756 0.000000
vt 0.617886 0.000000
vt 0.626016 0.000000
vt 0.634146 0.000000
vt 0.642276 0.000000
vt 0.650406 0.000000
vt 0.658537 0.000000
vt 0.666667 0.000000
vt 0.674797 0.000000
vt 0.682927 0.000000
vt 0.691057 0.000000
vt 0.699187 0.000000
vt 0.707317 0.000000
vt 0.715447 0.000000
vt 0.723577 0.000000
vt 0.731707 0.000000
vt 0.739837 0.000000
vt 0.747967 0.000000
vt 0.756098 0.000000
vt 0.764228 0.000000
vt 0.772358 0.000000
vt 0.780488 0.000000
vt 0.788618 0.000000
vt 0.796748 0.000000
vt 0.804878 0.000000
vt 0.813008 0.000000
vt 0.821138 0.000000
vt 0.829268 0.000000
vt 0.837398 0.000000
vt 0.845528 0.000000
vt 0.853659 0.000000
vt 0.861789 0.000000
vt 0.869919 0.000000
vt 0.878049 0.000000
vt 0.886179 0.000000
vt 0.894309 0.000000
vt 0.902439 0.000000
vt 0.910569 0.000000
vt 0.918699 0.000000
vt 0.926829 0.000000
vt 0.934959 0.000000
vt 0.943089 0.000000
vt 0.951219 0.000000
vt 0.959350 0.000000
vt 0.967480 0.000000
vt 0.975610 0.000000
vt 0.983740 0.000000
vt 0.991870 0.000000
vt 1.000000 0.000000
vt 0.000000 0.000000
vt 0.008130 0.000000
vt 0.016260 0.000000
vt 0.024390 0.000000
vt 0.032520 0.000000
vt 0.040650 0.000000
vt 0.048780 0.000000
vt 0.056911 0.000000
vt 0.065041 0.000000
vt 0.073171 0.000000
vt 0.081301 0.000000
vt 0.089431 0.000000
vt 0.097561 0.000000
vt 0.105691 0.000000
vt 0.113821 0.000000
vt 0.121951 0.000000
vt 0.130081 0.000000
vt 0.138211 0.000000
vt 0.146341 0.000000
vt 0.154472 0.000000
vt 0.162602 0.000000
vt 0.170732 0.000000
vt 0.178862 0.000000
vt 0.186992 0.000000
vt 0.195122 0.000000
vt 0.203252 0.000000
vt 0.211382 0.000000
vt 0.219512 0.000000
vt 0.227642 0.000000
vt 0.235772 0.000000
vt 0.243902 0.000000
vt 0.252033 0.000000
vt 0.260163 0.000000
vt 0.268293 0.000000
vt 0.276423 0.000000
vt 0.284553 0.000000
vt 0.292683 0.000000
vt 0.300813 0.000000
vt 0.308943 0.000000
vt 0.317073 0.000000
vt 0.325203 0.000000
vt 0.333333 0.000000
vt 0.341463 0.000000
vt 0.349593 0.000000
vt 0.357724 0.000000
vt 0.365854 0.000000
vt 0.373984 0.000000
vt 0.382114 0.000000
vt 0.390244 0.000000
vt 0.398374 0.000000
vt 0.406504 0.000000
vt 0.414634 0.000000
vt 0.422764 0.000000
vt 0.430894 0.000000
vt 0.439024 0.000000
vt 0.447154 0.000000
vt 0.455285 0.000000
vt 0.463415 0.000000
vt 0.471545 0.000000
vt 0.479675 0.000000
vt 0.487805 0.000000
vt 0.495935 0.000000
vt 0.504065 0.000000
vt 0.512195 0.000000
vt 0.520325 0.000000
vt 0.528455 0.000000
vt 0.536585 0.000000
vt 0.544715 0.000000
vt 0.552846 0.000000
vt 0.560976 0.000000
vt 0.569106 0.000000
vt 0.577236 0.000000
vt 0.585366 0.000000
vt 0.593496 0.000000
vt 0.601626 0.000000
vt 0.609756 0.000000
vt 0.617886 0.000000
vt 0.626016 0.000000
vt 0.634146 0.000000
vt 0.642276 0.000000
vt 0.650406 0.000000
vt 0.658537 0.000000
vt 0.666667 0.000000
vt 0.674797 0.000000
vt 0.682927 0.000000
vt 0.691057 0.000000
vt 0.699187 0.000000
vt 0.707317 0.000000
vt 0.715447 0.000000
vt 0.723577 0.000000
vt 0.731707 0.000000
vt 0.739837 0.000000
vt 0.747967 0.000000
vt 0.756098 0.000000
vt 0.764228 0.000000
vt 0.772358 0.000000
vt 0.780488 0.000000
vt 0.788618 0.000000
vt 0.796748 0.000000
vt 0.804878 0.000000
vt 0.813008 0.000000
vt 0.821138 0.000000
vt 0.829268 0.000000
vt 0.837398 0.000000
vt 0.845528 0.000000
vt 0.853659 0.000000
vt 0.861789 0.000000
vt 0.869919 0.000000
vt 0.878049 0.000000
vt 0.886179 0.000000
vt 0.894309 0.000000
vt 0.902439 0.000000
vt 0.910569 0.000000
vt 0.918699 0.000000
vt 0.926829 0.000000
vt 0.934959 0.000000
vt 0.943089 0.000000
vt 0.951219 0.000000
vt 0.959350 0.000000
vt 0.967480 0.000000
vt 0.975610 0.000000
vt 0.983740 0.000000
vt 0.991870 0.000000
vt 1.000000 0.000000
vt 0.000000 0.000000
vt 1.000000 0.000000
vt 0.000000 1.000000
vt 1.000000 1.000000
vt 0.013158 0.000000
vt 0.013158 1.000000
vt 0.026316 0.000000
vt 0.026316 1.000000
vt 0.039474 0.000000
vt 0.039474 1.000000
vt 0.052632 0.000000
vt 0.052632 1.000000
vt 0.065789 0.000000
vt 0.065789 1.000000
vt 0.078947 0.000000
vt 0.078947 1.000000
vt 0.092105 0.000000
vt 0.092105 1.000000
vt 0.105263 0.000000
vt 0.105263 1.000000
vt 0.118421 0.000000
vt 0.118421 1.000000
vt 0.131579 0.000000
vt 0.131579 1.000000
vt 0.144737 0.000000
vt 0.144737 1.000000
vt 0.157895 0.000000
vt 0.157895 1.000000
vt 0.171053 0.000000
vt 0.171053 1.000000
vt 0.184211 0.000000
vt 0.184211 1.000000
vt 0.197368 0.000000
vt 0.197368 1.000000
vt 0.210526 0.000000
vt 0.210526 1.000000
vt 0.223684 0.000000
vt 0.223684 1.000000
vt 0.236842 0.000000
vt 0.236842 1.000000
vt 0.250000 0.000000
vt 0.250000 1.000000
vt 0.263158 0.000000
vt 0.263158 1.000000
vt 0.276316 0.000000
vt 0.276316 1.000000
vt 0.289474 0.000000
vt 0.289474 1.000000
vt 0.302632 0.000000
vt 0.302632 1.000000
vt 0.315789 0.000000
vt 0.315789 1.000000
vt 0.328947 0.000000
vt 0.328947 1.000000
vt 0.342105 0.000000
vt 0.342105 1.000000
vt 0.355263 0.000000
vt 0.355263 1.000000
vt 0.368421 0.000000
vt 0.368421 1.000000
vt 0.381579 0.000000
vt 0.381579 1.000000
vt 0.394737 0.000000
vt 0.394737 1.000000
vt 0.407895 0.000000
vt 0.407895 1.000000
vt 0.421053 0.000000
vt 0.421053 1.000000
vt 0.434211 0.000000
vt 0.434211 1.000000
vt 0.447368 0.000000
vt 0.447368 1.000000
vt 0.460526 0.000000
vt 0.460526 1.000000
vt 0.473684 0.000000
vt 0.473684 1.000000
vt 0.486842 0.000000
vt 0.486842 1.000000
vt 0.500000 0.000000
vt 0.500000 1.000000
vt 0.513158 0.000000
vt 0.513158 1.000000
vt 0.526316 0.000000
vt 0.526316 1.000000
vt 0.539474 0.000000
vt 0.539474 1.000000
vt 0.552632 0.000000
vt 0.552632 1.000000
vt 0.565789 0.000000
vt 0.565789 1.000000
vt 0.578947 0.000000
vt 0.578947 1.000000
vt 0.592105 0.000000
vt 0.592105 1.000000
vt 0.605263 0.000000
vt 0.605263 1.000000
vt 0.618421 0.000000
vt 0.618421 1.000000
vt 0.631579 0.000000
vt 0.631579 1.000000
vt 0.644737 0.000000
vt 0.644737 1.000000
vt 0.657895 0.000000
vt 0.657895 1.000000
vt 0.671053 0.000000
vt 0.671053 1.000000
vt 0.684211 0.000000
vt 0.684211 1.000000
vt 0.697368 0.000000
vt 0.697368 1.000000
vt 0.710526 0.000000
vt 0.710526 1.000000
vt 0.723684 0.000000
vt 0.723684 1.000000
vt 0.736842 0.000000
vt 0.736842 1.000000
vt 0.750000 0.000000
vt 0.750000 1.000000
vt 0.763158 0.000000
vt 0.763158 1.000000
vt 0.776316 0.000000
vt 0.776316 1.000000
vt 0.789474 0.000000
vt 0.789474 1.000000
vt 0.802632 0.000000
vt 0.802632 1.000000
vt 0.815789 0.000000
vt 0.815789 1.000000
vt 0.828947 0.000000
vt 0.828947 1.000000
vt 0.842105 0.000000
vt 0.842105 1.000000
vt 0.855263 0.000000
vt 0.855263 1.000000
vt 0.868421 0.000000
vt 0.868421 1.000000
vt 0.881579 0.000000
vt 0.881579 1.000000
vt 0.894737 0.000000
vt 0.894737 1.000000
vt 0.907895 0.000000
vt 0.907895 1.000000
vt 0.921053 0.000000
vt 0.921053 1.000000
vt 0.934211 0.000000
vt 0.934211 1.000000
vt 0.947368 0.000000
vt 0.947368 1.000000
vt 0.960526 0.000000
vt 0.960526 1.000000
vt 0.973684 0.000000
vt 0.973684 1.000000
vt 0.986842 0.000000
vt 0.986842 1.000000
vt 0.000000 0.000000
vt 1.000000 0.000000
vt 0.000000 1.000000
vt 1.000000 1.000000
vt 0.020833 0.000000
vt 0.020833 1.000000
vt 0.041667 0.000000
vt 0.041667 1.000000
vt 0.062500 0.000000
vt 0.062500 1.000000
vt 0.083333 0.000000
vt 0.083333 1.000000
vt 0.104167 0.000000
vt 0.104167 1.000000
vt 0.125000 0.000000
vt 0.125000 1.000000
vt 0.145833 0.000000
vt 0.145833 1.000000
vt 0.166667 0.000000
vt 0.166667 1.000000
vt 0.187500 0.000000
vt 0.187500 1.000000
vt 0.208333 0.000000
vt 0.208333 1.000000
vt 0.229167 0.000000
vt 0.229167 1.000000
vt 0.250000 0.000000
vt 0.250000 1.000000
vt 0.270833 0.000000
vt 0.270833 1.000000
vt 0.291667 0.000000
vt 0.291667 1.000000
vt 0.312500 0.000000
vt 0.312500 1.000000
vt 0.333333 0.000000
vt 0.333333 1.000000
vt 0.354167 0.000000
vt 0.354167 1.000000
vt 0.375000 0.000000
vt 0.375000 1.000000
vt 0.395833 0.000000
vt 0.395833 1.000000
vt 0.416667 0.000000
vt 0.416667 1.000000
vt 0.437500 0.000000
vt 0.437500 1.000000
vt 0.458333 0.000000
vt 0.458333 1.000000
vt 0.479167 0.000000
vt 0.479167 1.000000
vt 0.500000 0.000000
vt 0.500000 1.000000
vt 0.520833 0.000000
vt 0.520833 1.000000
vt 0.541667 0.000000
vt 0.541667 1.000000
vt 0.562500 0.000000
vt 0.562500 1.000000
vt 0.583333 0.000000
vt 0.583333 1.000000
vt 0.604167 0.000000
vt 0.604167 1.000000
vt 0.625000 0.000000
vt 0.625000 1.000000
vt 0.645833 0.000000
vt 0.645833 1.000000
vt 0.666667 0.000000
vt 0.666667 1.000000
vt 0.687500 0.000000
vt 0.687500 1.000000
vt 0.708333 0.000000
vt 0.708333 1.000000
vt 0.729167 0.000000
vt 0.729167 1.000000
vt 0.750000 0.000000
vt 0.750000 1.000000
vt 0.770833 0.000000
vt 0.770833 1.000000
vt 0.791667 0.000000
vt 0.791667 1.000000
vt 0.812500 0.000000
vt 0.812500 1.000000
vt 0.833333 0.000000
vt 0.833333 1.000000
vt 0.854167 0.000000
vt 0.854167 1.000000
vt 0.875000 0.000000
vt 0.875000 1.000000
vt 0.895833 0.000000
vt 0.895833 1.000000
vt 0.916667 0.000000
vt 0.916667 1.000000
vt 0.937500 0.000000
vt 0.937500 1.000000
vt 0.958333 0.000000
vt 0.958333 1.000000
vt 0.979167 0.000000
vt 0.979167 1.000000
s 0
f 50/50/1 52/52/1 51/51/1
f 49/49/1 52/52/1 50/50/1
f 49/49/1 53/53/1 52/52/1
f 48/48/1 53/53/1 49/49/1
f 48/48/1 54/54/1 53/53/1
f 47/47/1 54/54/1 48/48/1
f 47/47/1 55/55/1 54/54/1
f 46/46/1 55/55/1 47/47/1
f 46/46/1 56/56/1 55/55/1
f 45/45/1 56/56/1 46/46/1
f 45/45/1 112/112/1 56/56/1
f 112/112/1 57/57/1 56/56/1
f 45/45/1 113/113/1 112/112/1
f 111/111/1 57/57/1 112/112/1
f 110/110/1 57/57/1 111/111/1
f 45/45/1 114/114/1 113/113/1
f 44/44/1 114/114/1 45/45/1
f 109/109/1 57/57/1 110/110/1
f 109/109/1 58/58/1 57/57/1
f 44/44/1 115/115/1 114/114/1
f 108/108/1 58/58/1 109/109/1
f 44/44/1 116/116/1 115/115/1
f 107/107/1 58/58/1 108/108/1
f 43/43/1 116/116/1 44/44/1
f 107/107/1 59/59/1 58/58/1
f 43/43/1 117/117/1 116/116/1
f 106/106/1 59/59/1 107/107/1
f 43/43/1 118/118/1 117/117/1
f 105/105/1 59/59/1 106/106/1
f 42/42/1 118/118/1 43/43/1
f 105/105/1 60/60/1 59/59/1
f 42/42/1 119/119/1 118/118/1
f 104/104/1 60/60/1 105/105/1
f 41/41/1 119/119/1 42/42/1
f 41/41/1 120/120/1 119/119/1
f 104/104/1 61/61/1 60/60/1
f 103/103/1 61/61/1 104/104/1
f 41/41/1 121/121/1 120/120/1
f 102/102/1 61/61/1 103/103/1
f 40/40/1 121/121/1 41/41/1
f 102/102/1 62/62/1 61/61/1
f 40/40/1 122/122/1 121/121/1
f 101/101/1 62/62/1 102/102/1
f 40/40/1 123/123/1 122/122/1
f 39/39/1 123/123/1 40/40/1
f 101/101/1 63/63/1 62/62/1
f 100/100/1 63/63/1 101/101/1
f 39/39/1 124/124/1 123/123/1
f 38/38/1 124/124/1 39/39/1
f 38/38/1 77/77/1 124/124/1
f 100/100/1 64/64/1 63/63/1
f 99/99/1 64/64/1 100/100/1
f 38/38/1 78/78/1 77/77/1
f 98/98/1 64/64/1 99/99/1
f 37/37/1 78/78/1 38/38/1
f 98/98/1 65/65/1 64/64/1
f 37/37/1 79/79/1 78/78/1
f 97/97/1 65/65/1 98/98/1
f 36/36/1 79/79/1 37/37/1
f 97/97/1 66/66/1 65/65/1
f 36/36/1 80/80/1 79/79/1
f 96/96/1 66/66/1 97/97/1
f 96/96/1 67/67/1 66/66/1
f 35/35/1 80/80/1 36/36/1
f 35/35/1 81/81/1 80/80/1
f 95/95/1 67/67/1 96/96/1
f 95/95/1 68/68/1 67/67/1
f 34/34/1 81/81/1 35/35/1
f 34/34/1 82/82/1 81/81/1
f 94/94/1 68/68/1 95/95/1
f 34/34/1 83/83/1 82/82/1
f 93/93/1 68/68/1 94/94/1
f 93/93/1 69/69/1 68/68/1
f 33/33/1 83/83/1 34/34/1
f 33/33/1 84/84/1 83/83/1
f 92/92/1 69/69/1 93/93/1
f 92/92/1 70/70/1 69/69/1
f 32/32/1 84/84/1 33/33/1
f 32/32/1 85/85/1 84/84/1
f 91/91/1 70/70/1 92/92/1
f 32/32/1 86/86/1 85/85/1
f 90/90/1 70/70/1 91/91/1
f 90/90/1 71/71/1 70/70/1
f 32/32/1 87/87/1 86/86/1
f 89/89/1 71/71/1 90/90/1
f 31/31/1 87/87/1 32/32/1
f 31/31/1 88/88/1 87/87/1
f 88/88/1 71/71/1 89/89/1
f 31/31/1 71/71/1 88/88/1
f 31/31/1 72/72/1 71/71/1
f 30/30/1 72/72/1 31/31/1
f 30/30/1 73/73/1 72/72/1
f 29/29/1 73/73/1 30/30/1
f 29/29/1 74/74/1 73/73/1
f 28/28/1 74/74/1 29/29/1
f 28/28/1 76/76/1 74/74/1
f 76/76/1 75/75/1 74/74/1
f 27/27/1 76/76/1 28/28/1
f 27/27/1 1/1/1 76/76/1
f 26/26/1 1/1/1 27/27/1
f 26/26/1 2/2/1 1/1/1
f 26/26/1 3/3/1 2/2/1
f 25/25/1 3/3/1 26/26/1
f 25/25/1 4/4/1 3/3/1
f 25/25/1 5/5/1 4/4/1
f 24/24/1 5/5/1 25/25/1
f 24/24/1 6/6/1 5/5/1
f 24/24/1 7/7/1 6/6/1
f 12/12/1 14/14/1 13/13/1
f 23/23/1 7/7/1 24/24/1
f 23/23/1 8/8/1 7/7/1
f 12/12/1 15/15/1 14/14/1
f 11/11/1 15/15/1 12/12/1
f 23/23/1 9/9/1 8/8/1
f 10/10/1 15/15/1 11/11/1
f 23/23/1 10/10/1 9/9/1
f 23/23/1 15/15/1 10/10/1
f 22/22/1 15/15/1 23/23/1
f 21/21/1 15/15/1 22/22/1
f 20/20/1 15/15/1 21/21/1
f 19/19/1 15/15/1 20/20/1
f 18/18/1 15/15/1 19/19/1
f 17/17/1 15/15/1 18/18/1
f 16/16/1 15/15/1 17/17/1
f 174/174/2 175/175/2 176/176/2
f 173/173/2 174/174/2 176/176/2
f 173/173/2 176/176/2 177/177/2
f 172/172/2 173/173/2 177/177/2
f 172/172/2 177/177/2 178/178/2
f 171/171/2 172/172/2 178/178/2
f 171/171/2 178/178/2 179/179/2
f 170/170/2 171/171/2 179/179/2
f 170/170/2 179/179/2 180/180/2
f 169/169/2 170/170/2 180/180/2
f 169/169/2 180/180/2 236/236/2
f 236/236/2 180/180/2 181/181/2
f 169/169/2 236/236/2 237/237/2
f 235/235/2 236/236/2 181/181/2
f 234/234/2 235/235/2 181/181/2
f 169/169/2 237/237/2 238/238/2
f 168/168/2 169/169/2 238/238/2
f 233/233/2 234/234/2 181/181/2
f 233/233/2 181/181/2 182/182/2
f 168/168/2 238/238/2 239/239/2
f 232/232/2 233/233/2 182/182/2
f 168/168/2 239/239/2 240/240/2
f 231/231/2 232/232/2 182/182/2
f 167/167/2 168/168/2 240/240/2
f 231/231/2 182/182/2 183/183/2
f 167/167/2 240/240/2 241/241/2
f 230/230/2 231/231/2 183/183/2
f 167/167/2 241/241/2 242/242/2
f 229/229/2 230/230/2 183/183/2
f 166/166/2 167/167/2 242/242/2
f 229/229/2 183/183/2 184/184/2
f 166/166/2 242/242/2 243/243/2
f 228/228/2 229/229/2 184/184/2
f 165/165/2 166/166/2 243/243/2
f 165/165/2 243/243/2 244/244/2
f 228/228/2 184/184/2 185/185/2
f 227/227/2 228/228/2 185/185/2
f 165/165/2 244/244/2 245/245/2
f 226/226/2 227/227/2 185/185/2
f 164/164/2 165/165/2 245/245/2
f 226/226/2 185/185/2 186/186/2
f 164/164/2 245/245/2 246/246/2
f 225/225/2 226/226/2 186/186/2
f 164/164/2 246/246/2 247/247/2
f 163/163/2 164/164/2 247/247/2
f 225/225/2 186/186/2 187/187/2
f 224/224/2 225/225/2 187/187/2
f 163/163/2 247/247/2 248/248/2
f 162/162/2 163/163/2 248/248/2
f 162/162/2 248/248/2 201/201/2
f 224/224/2 187/187/2 188/188/2
f 223/223/2 224/224/2 188/188/2
f 162/162/2 201/201/2 202/202/2
f 222/222/2 223/223/2 188/188/2
f 161/161/2 162/162/2 202/202/2
f 222/222/2 188/188/2 189/189/2
f 161/161/2 202/202/2 203/203/2
f 221/221/2 222/222/2 189/189/2
f 160/160/2 161/161/2 203/203/2
f 221/221/2 189/189/2 190/190/2
f 160/160/2 203/203/2 204/204/2
f 220/220/2 221/221/2 190/190/2
f 220/220/2 190/190/2 191/191/2
f 159/159/2 160/160/2 204/204/2
f 159/159/2 204/204/2 205/205/2
f 219/219/2 220/220/2 191/191/2
f 219/219/2 191/191/2 192/192/2
f 158/158/2 159/159/2 205/205/2
f 158/158/2 205/205/2 206/206/2
f 218/218/2 219/219/2 192/192/2
f 158/158/2 206/206/2 207/207/2
f 217/217/2 218/218/2 192/192/2
f 217/217/2 192/192/2 193/193/2
f 157/157/2 158/158/2 207/207/2
f 157/157/2 207/207/2 208/208/2
f 216/216/2 217/217/2 193/193/2
f 216/216/2 193/193/2 194/194/2
f 156/156/2 157/157/2 208/208/2
f 156/156/2 208/208/2 209/209/2
f 215/215/2 216/216/2 194/194/2
f 156/156/2 209/209/2 210/210/2
f 214/214/2 215/215/2 194/194/2
f 214/214/2 194/194/2 195/195/2
f 156/156/2 210/210/2 211/211/2
f 213/213/2 214/214/2 195/195/2
f 155/155/2 156/156/2 211/211/2
f 155/155/2 211/211/2 212/212/2
f 212/212/2 213/213/2 195/195/2
f 155/155/2 212/212/2 195/195/2
f 155/155/2 195/195/2 196/196/2
f 154/154/2 155/155/2 196/196/2
f 154/154/2 196/196/2 197/197/2
f 153/153/2 154/154/2 197/197/2
f 153/153/2 197/197/2 198/198/2
f 152/152/2 153/153/2 198/198/2
f 152/152/2 198/198/2 200/200/2
f 200/200/2 198/198/2 199/199/2
f 151/151/2 152/152/2 200/200/2
f 151/151/2 200/200/2 125/125/2
f 150/150/2 151/151/2 125/125/2
f 150/150/2 125/125/2 126/126/2
f 150/150/2 126/126/2 127/127/2
f 149/149/2 150/150/2 127/127/2
f 149/149/2 127/127/2 128/128/2
f 149/149/2 128/128/2 129/129/2
f 148/148/2 149/149/2 129/129/2
f 148/148/2 129/129/2 130/130/2
f 148/148/2 130/130/2 131/131/2
f 136/136/2 137/137/2 138/138/2
f 147/147/2 148/148/2 131/131/2
f 147/147/2 131/131/2 132/132/2
f 136/136/2 138/138/2 139/139/2
f 135/135/2 136/136/2 139/139/2
f 147/147/2 132/132/2 133/133/2
f 134/134/2 135/135/2 139/139/2
f 147/147/2 133/133/2 134/134/2
f 147/147/2 134/134/2 139/139/2
f 146/146/2 147/147/2 139/139/2
f 145/145/2 146/146/2 139/139/2
f 144/144/2 145/145/2 139/139/2
f 143/143/2 144/144/2 139/139/2
f 142/142/2 143/143/2 139/139/2
f 141/141/2 142/142/2 139/139/2
f 140/140/2 141/141/2 139/139/2
s 1
f 252/254/3 249/249/4 250/251/4
f 254/256/5 251/253/3 252/254/3
f 256/258/6 253/255/5 254/256/5
f 258/260/7 255/257/6 256/258/6
f 260/262/8 257/259/7 258/260/7
f 262/264/9 259/261/8 260/262/8
f 264/266/10 261/263/9 262/264/9
f 266/268/11 263/265/10 264/266/10
f 268/270/12 265/267/11 266/268/11
f 270/272/13 267/269/12 268/270/12
f 272/274/14 269/271/13 270/272/13
f 274/276/15 271/273/14 272/274/14
f 276/278/16 273/275/15 274/276/15
f 278/280/17 275/277/16 276/278/16
f 280/282/18 277/279/17 278/280/17
f 282/284/19 279/281/18 280/282/18
f 284/286/20 281/283/19 282/284/19
f 286/288/21 283/285/20 284/286/20
f 288/290/22 285/287/21 286/288/21
f 290/292/23 287/289/22 288/290/22
f 292/294/24 289/291/23 290/292/23
f 294/296/25 291/293/24 292/294/24
f 296/298/26 293/295/25 294/296/25
f 298/300/27 295/297/26 296/298/26
f 300/302/28 297/299/27 298/300/27
f 302/304/29 299/301/28 300/302/28
f 304/306/30 301/303/29 302/304/29
f 306/308/31 303/305/30 304/306/30
f 308/310/32 305/307/31 306/308/31
f 310/312/33 307/309/32 308/310/32
f 312/314/34 309/311/33 310/312/33
f 314/316/35 311/313/34 312/314/34
f 316/318/36 313/315/35 314/316/35
f 318/320/37 315/317/36 316/318/36
f 320/322/38 317/319/37 318/320/37
f 322/324/39 319/321/38 320/322/38
f 324/326/40 321/323/39 322/324/39
f 326/328/41 323/325/40 324/326/40
f 328/330/42 325/327/41 326/328/41
f 330/332/43 327/329/42 328/330/42
f 332/334/44 329/331/43 330/332/43
f 334/336/45 331/333/44 332/334/44
f 336/338/46 333/335/45 334/336/45
f 338/340/47 335/337/46 336/338/46
f 340/342/48 337/339/47 338/340/47
f 342/344/49 339/341/48 340/342/48
f 344/346/50 341/343/49 342/344/49
f 346/348/51 343/345/50 344/346/50
f 348/350/52 345/347/51 346/348/51
f 350/352/53 347/349/52 348/350/52
f 352/354/54 349/351/53 350/352/53
f 354/356/55 351/353/54 352/354/54
f 356/358/56 353/355/55 354/356/55
f 358/360/57 355/357/56 356/358/56
f 360/362/58 357/359/57 358/360/57
f 362/364/59 359/361/58 360/362/58
f 364/366/60 361/363/59 362/364/59
f 366/368/61 363/365/60 364/366/60
f 368/370/62 365/367/61 366/368/61
f 370/372/63 367/369/62 368/370/62
f 372/374/64 369/371/63 370/372/63
f 374/376/65 371/373/64 372/374/64
f 376/378/66 373/375/65 374/376/65
f 378/380/67 375/377/66 376/378/66
f 380/382/68 377/379/67 378/380/67
f 382/384/69 379/381/68 380/382/68
f 384/386/70 381/383/69 382/384/69
f 386/388/71 383/385/70 384/386/70
f 388/390/72 385/387/71 386/388/71
f 390/392/73 387/389/72 388/390/72
f 392/394/74 389/391/73 390/392/73
f 394/396/75 391/393/74 392/394/74
f 396/398/76 393/395/75 394/396/75
f 398/400/77 395/397/76 396/398/76
f 400/402/78 397/399/77 398/400/77
f 250/252/4 399/401/78 400/402/78
f 404/408/79 401/403/80 402/405/80
f 406/410/81 403/407/79 404/408/79
f 408/412/82 405/409/81 406/410/81
f 410/414/83 407/411/82 408/412/82
f 412/416/84 409/413/83 410/414/83
f 414/418/85 411/415/84 412/416/84
f 416/420/86 413/417/85 414/418/85
f 418/422/87 415/419/86 416/420/86
f 420/424/88 417/421/87 418/422/87
f 422/426/89 419/423/88 420/424/88
f 424/428/90 421/425/89 422/426/89
f 426/430/91 423/427/90 424/428/90
f 428/432/92 425/429/91 426/430/91
f 430/434/93 427/431/92 428/432/92
f 432/436/94 429/433/93 430/434/93
f 434/438/95 431/435/94 432/436/94
f 436/440/96 433/437/95 434/438/95
f 438/442/97 435/439/96 436/440/96
f 440/444/98 437/441/97 438/442/97
f 442/446/99 439/443/98 440/444/98
f 444/448/100 441/445/99 442/446/99
f 446/450/101 443/447/100 444/448/100
f 448/452/102 445/449/101 446/450/101
f 450/454/103 447/451/102 448/452/102
f 452/456/104 449/453/103 450/454/103
f 454/458/105 451/455/104 452/456/104
f 456/460/106 453/457/105 454/458/105
f 458/462/107 455/459/106 456/460/106
f 460/464/108 457/461/107 458/462/107
f 462/466/109 459/463/108 460/464/108
f 464/468/110 461/465/109 462/466/109
f 466/470/111 463/467/110 464/468/110
f 468/472/112 465/469/111 466/470/111
f 470/474/113 467/471/112 468/472/112
f 472/476/114 469/473/113 470/474/113
f 474/478/115 471/475/114 472/476/114
f 476/480/116 473/477/115 474/478/115
f 478/482/117 475/479/116 476/480/116
f 480/484/118 477/481/117 478/482/117
f 482/486/119 479/483/118 480/484/118
f 484/488/120 481/485/119 482/486/119
f 486/490/121 483/487/120 484/488/120
f 488/492/122 485/489/121 486/490/121
f 490/494/123 487/491/122 488/492/122
f 492/496/124 489/493/123 490/494/123
f 494/498/125 491/495/124 492/496/124
f 496/500/126 493/497/125 494/498/125
f 402/406/80 495/499/126 496/500/126
f 252/254/3 251/253/3 249/249/4
f 254/256/5 253/255/5 251/253/3
f 256/258/6 255/257/6 253/255/5
f 258/260/7 257/259/7 255/257/6
f 260/262/8 259/261/8 257/259/7
f 262/264/9 261/263/9 259/261/8
f 264/266/10 263/265/10 261/263/9
f 266/268/11 265/267/11 263/265/10
f 268/270/12 267/269/12 265/267/11
f 270/272/13 269/271/13 267/269/12
f 272/274/14 271/273/14 269/271/13
f 274/276/15 273/275/15 271/273/14
f 276/278/16 275/277/16 273/275/15
f 278/280/17 277/279/17 275/277/16
f 280/282/18 279/281/18 277/279/17
f 282/284/19 281/283/19 279/281/18
f 284/286/20 283/285/20 281/283/19
f 286/288/21 285/287/21 283/285/20
f 288/290/22 287/289/22 285/287/21
f 290/292/23 289/291/23 287/289/22
f 292/294/24 291/293/24 289/291/23
f 294/296/25 293/295/25 291/293/24
f 296/298/26 295/297/26 293/295/25
f 298/300/27 297/299/27 295/297/26
f 300/302/28 299/301/28 297/299/27
f 302/304/29 301/303/29 299/301/28
f 304/306/30 303/305/30 301/303/29
f 306/308/31 305/307/31 303/305/30
f 308/310/32 307/309/32 305/307/31
f 310/312/33 309/311/33 307/309/32
f 312/314/34 311/313/34 309/311/33
f 314/316/35 313/315/35 311/313/34
f 316/318/36 315/317/36 313/315/35
f 318/320/37 317/319/37 315/317/36
f 320/322/38 319/321/38 317/319/37
f 322/324/39 321/323/39 319/321/38
f 324/326/40 323/325/40 321/323/39
f 326/328/41 325/327/41 323/325/40
f 328/330/42 327/329/42 325/327/41
f 330/332/43 329/331/43 327/329/42
f 332/334/44 331/333/44 329/331/43
f 334/336/45 333/335/45 331/333/44
f 336/338/46 335/337/46 333/335/45
f 338/340/47 337/339/47 335/337/46
f 340/342/48 339/341/48 337/339/47
f 342/344/49 341/343/49 339/341/48
f 344/346/50 343/345/50 341/343/49
f 346/348/51 345/347/51 343/345/50
f 348/350/52 347/349/52 345/347/51
f 350/352/53 349/351/53 347/349/52
f 352/354/54 351/353/54 349/351/53
f 354/356/55 353/355/55 351/353/54
f 356/358/56 355/357/56 353/355/55
f 358/360/57 357/359/57 355/357/56
f 360/362/58 359/361/58 357/359/57
f 362/364/59 361/363/59 359/361/58
f 364/366/60 363/365/60 361/363/59
f 366/368/61 365/367/61 363/365/60
f 368/370/62 367/369/62 365/367/61
f 370/372/63 369/371/63 367/369/62
f 372/374/64 371/373/64 369/371/63
f 374/376/65 373/375/65 371/373/64
f 376/378/66 375/377/66 373/375/65
f 378/380/67 377/379/67 375/377/66
f 380/382/68 379/381/68 377/379/67
f 382/384/69 381/383/69 379/381/68
f 384/386/70 383/385/70 381/383/69
f 386/388/71 385/387/71 383/385/70
f 388/390/72 387/389/72 385/387/71
f 390/392/73 389/391/73 387/389/72
f 392/394/74 391/393/74 389/391/73
f 394/396/75 393/395/75 391/393/74
f 396/398/76 395/397/76 393/395/75
f 398/400/77 397/399/77 395/397/76
f 400/402/78 399/401/78 397/399/77
f 250/252/4 249/250/4 399/401/78
f 404/408/79 403/407/79 401/403/80
f 406/410/81 405/409/81 403/407/79
f 408/412/82 407/411/82 405/409/81
f 410/414/83 409/413/83 407/411/82
f 412/416/84 411/415/84 409/413/83
f 414/418/85 413/417/85 411/415/84
f 416/420/86 415/419/86 413/417/85
f 418/422/87 417/421/87 415/419/86
f 420/424/88 419/423/88 417/421/87
f 422/426/89 421/425/89 419/423/88
f 424/428/90 423/427/90 421/425/89
f 426/430/91 425/429/91 423/427/90
f 428/432/92 427/431/92 425/429/91
f 430/434/93 429/433/93 427/431/92
f 432/436/94 431/435/94 429/433/93
f 434/438/95 433/437/95 431/435/94
f 436/440/96 435/439/96 433/437/95
f 438/442/97 437/441/97 435/439/96
f 440/444/98 439/443/98 437/441/97
f 442/446/99 441/445/99 439/443/98
f 444/448/100 443/447/100 441/445/99
f 446/450/101 445/449/101 443/447/100
f 448/452/102 447/451/102 445/449/101
f 450/454/103 449/453/103 447/451/102
f 452/456/104 451/455/104 449/453/103
f 454/458/105 453/457/105 451/455/104
f 456/460/106 455/459/106 453/457/105
f 458/462/107 457/461/107 455/459/106
f 460/464/108 459/463/108 457/461/107
f 462/466/109 461/465/109 459/463/108
f 464/468/110 463/467/110 461/465/109
f 466/470/111 465/469/111 463/467/110
f 468/472/112 467/471/112 465/469/111
f 470/474/113 469/473/113 467/471/112
f 472/476/114 471/475/114 469/473/113
f 474/478/115 473/477/115 471/475/114
f 476/480/116 475/479/116 473/477/115
f 478/482/117 477/481/117 475/479/116
f 480/484/118 479/483/118 477/481/117
f 482/486/119 481/485/119 479/483/118
f 484/488/120 483/487/120 481/485/119
f 486/490/121 485/489/121 483/487/120
f 488/492/122 487/491/122 485/489/121
f 490/494/123 489/493/123 487/491/122
f 492/496/124 491/495/124 489/493/123
f 494/498/125 493/497/125 491/495/124
f 496/500/126 495/499/126 493/497/125
f 402/406/80 401/404/80 495/499/126
