# Blender 3.2.2
# www.blender.org
o Letter_R
v -0.085195 0.293255 -0.497794
v -0.039576 0.293255 -0.491270
v 0.002520 0.293255 -0.480572
v 0.040920 0.293255 -0.465841
v 0.075450 0.293255 -0.447221
v 0.105938 0.293255 -0.424853
v 0.132211 0.293255 -0.398881
v 0.154095 0.293255 -0.369447
v 0.171417 0.293255 -0.336694
v 0.184004 0.293255 -0.300763
v 0.191683 0.293255 -0.261798
v 0.194282 0.293255 -0.219941
v 0.193037 0.293255 -0.191602
v 0.189333 0.293255 -0.164535
v 0.183216 0.293255 -0.138792
v 0.174731 0.293255 -0.114424
v 0.163925 0.293255 -0.091481
v 0.150843 0.293255 -0.070015
v 0.135531 0.293255 -0.050076
v 0.118035 0.293255 -0.031715
v 0.098401 0.293255 -0.014984
v 0.076674 0.293255 0.000068
v 0.052900 0.293255 0.013388
v 0.027126 0.293255 0.024927
v 0.049152 0.293255 0.040628
v 0.069906 0.293255 0.057674
v 0.089580 0.293255 0.076063
v 0.108369 0.293255 0.095797
v 0.126465 0.293255 0.116874
v 0.144062 0.293255 0.139296
v 0.161353 0.293255 0.163062
v 0.178533 0.293255 0.188172
v 0.195794 0.293255 0.214626
v 0.213330 0.293255 0.242424
v 0.231334 0.293255 0.271566
v 0.250000 0.293255 0.302053
v 0.260300 0.293255 0.318604
v 0.270080 0.293255 0.334026
v 0.279555 0.293255 0.348653
v 0.288938 0.293255 0.362822
v 0.298443 0.293255 0.376869
v 0.308284 0.293255 0.391129
v 0.318676 0.293255 0.405939
v 0.329830 0.293255 0.421636
v 0.341963 0.293255 0.438554
v 0.355287 0.293255 0.457030
v 0.370016 0.293255 0.477400
v 0.386364 0.293255 0.500000
v 0.214809 0.293255 0.500000
v 0.082845 0.293255 0.294721
v 0.051301 0.293255 0.247098
v 0.022456 0.293255 0.206500
v -0.003986 0.293255 0.172379
v -0.028321 0.293255 0.144184
v -0.050843 0.293255 0.121365
v -0.071848 0.293255 0.103372
v -0.091630 0.293255 0.089657
v -0.110487 0.293255 0.079668
v -0.128712 0.293255 0.072856
v -0.146600 0.293255 0.068671
v -0.164449 0.293255 0.066563
v -0.182551 0.293255 0.065982
v -0.242669 0.293255 0.065982
v -0.242669 0.293255 0.500000
v -0.386364 0.293255 0.500000
v -0.386364 0.293255 -0.500000
v -0.134164 0.293255 -0.500000
v -0.150293 0.293255 -0.063050
v -0.114057 0.293255 -0.064656
v -0.082179 0.293255 -0.069302
v -0.054435 0.293255 -0.076727
v -0.030602 0.293255 -0.086673
v -0.010454 0.293255 -0.098879
v 0.006232 0.293255 -0.113086
v 0.019679 0.293255 -0.129035
v 0.030113 0.293255 -0.146465
v 0.037757 0.293255 -0.165116
v 0.042834 0.293255 -0.184730
v 0.045570 0.293255 -0.205047
v 0.046188 0.293255 -0.225806
v 0.044674 0.293255 -0.248491
v 0.040798 0.293255 -0.269578
v 0.034457 0.293255 -0.288994
v 0.025551 0.293255 -0.306669
v 0.013977 0.293255 -0.322531
v -0.000367 0.293255 -0.336510
v -0.017582 0.293255 -0.348534
v -0.037770 0.293255 -0.358532
v -0.061034 0.293255 -0.366431
v -0.087474 0.293255 -0.372163
v -0.117193 0.293255 -0.375653
v -0.150293 0.293255 -0.376833
v -0.242669 0.293255 -0.376833
v -0.242669 0.293255 -0.063050
v -0.085195 -0.293255 -0.497794
v -0.039576 -0.293255 -0.491270
v 0.002520 -0.293255 -0.480572
v 0.040920 -0.293255 -0.465841
v 0.075450 -0.293255 -0.447221
v 0.105938 -0.293255 -0.424853
v 0.132211 -0.293255 -0.398881
v 0.154095 -0.293255 -0.369447
v 0.171417 -0.293255 -0.336694
v 0.184004 -0.293255 -0.300763
v 0.191683 -0.293255 -0.261798
v 0.194282 -0.293255 -0.219941
v 0.193037 -0.293255 -0.191602
v 0.189333 -0.293255 -0.164535
v 0.183216 -0.293255 -0.138792
v 0.174731 -0.293255 -0.114424
v 0.163925 -0.293255 -0.091481
v 0.150843 -0.293255 -0.070015
v 0.135531 -0.293255 -0.050076
v 0.118035 -0.293255 -0.031715
v 0.098401 -0.293255 -0.014984
v 0.076674 -0.293255 0.000068
v 0.052900 -0.293255 0.013388
v 0.027126 -0.293255 0.024927
v 0.049152 -0.293255 0.040628
v 0.069906 -0.293255 0.057674
v 0.089580 -0.293255 0.076063
v 0.108369 -0.293255 0.095797
v 0.126465 -0.293255 0.116874
v 0.144062 -0.293255 0.139296
v 0.161353 -0.293255 0.163062
v 0.178533 -0.293255 0.188172
v 0.195794 -0.293255 0.214626
v 0.213330 -0.293255 0.242424
v 0.231334 -0.293255 0.271566
v 0.250000 -0.293255 0.302053
v 0.260300 -0.293255 0.318604
v 0.270080 -0.293255 0.334026
v 0.279555 -0.293255 0.348653
v 0.288938 -0.293255 0.362822
v 0.298443 -0.293255 0.376869
v 0.308284 -0.293255 0.391129
v 0.318676 -0.293255 0.405939
v 0.329830 -0.293255 0.421636
v 0.341963 -0.293255 0.438554
v 0.355287 -0.293255 0.457030
v 0.370016 -0.293255 0.477400
v 0.386364 -0.293255 0.500000
v 0.214809 -0.293255 0.500000
v 0.082845 -0.293255 0.294721
v 0.051301 -0.293255 0.247098
v 0.022456 -0.293255 0.206500
v -0.003986 -0.293255 0.172379
v -0.028321 -0.293255 0.144184
v -0.050843 -0.293255 0.121365
v -0.071848 -0.293255 0.103372
v -0.091630 -0.293255 0.089657
v -0.110487 -0.293255 0.079668
v -0.128712 -0.293255 0.072856
v -0.146600 -0.293255 0.068671
v -0.164449 -0.293255 0.066563
v -0.182551 -0.293255 0.065982
v -0.242669 -0.293255 0.065982
v -0.242669 -0.293255 0.500000
v -0.386364 -0.293255 0.500000
v -0.386364 -0.293255 -0.500000
v -0.134164 -0.293255 -0.500000
v -0.150293 -0.293255 -0.063050
v -0.114057 -0.293255 -0.064656
v -0.082179 -0.293255 -0.069302
v -0.054435 -0.293255 -0.076727
v -0.030602 -0.293255 -0.086673
v -0.010454 -0.293255 -0.098879
v 0.006232 -0.293255 -0.113086
v 0.019679 -0.293255 -0.129035
v 0.030113 -0.293255 -0.146465
v 0.037757 -0.293255 -0.165116
v 0.042834 -0.293255 -0.184730
v 0.045570 -0.293255 -0.205047
v 0.046188 -0.293255 -0.225806
v 0.044674 -0.293255 -0.248491
v 0.040798 -0.293255 -0.269578
v 0.034457 -0.293255 -0.288994
v 0.025551 -0.293255 -0.306669
v 0.013977 -0.293255 -0.322531
v -0.000367 -0.293255 -0.336510
v -0.017582 -0.293255 -0.348534
v -0.037770 -0.293255 -0.358532
v -0.061034 -0.293255 -0.366431
v -0.087474 -0.293255 -0.372163
v -0.117193 -0.293255 -0.375653
v -0.150293 -0.293255 -0.376833
v -0.242669 -0.293255 -0.376833
v -0.242669 -0.293255 -0.063050
v -0.085195 -0.293255 -0.497794
v -0.085195 0.293255 -0.497794
v -0.039576 -0.293255 -0.491270
v -0.039576 0.293255 -0.491270
v 0.002520 -0.293255 -0.480572
v 0.002520 0.293255 -0.480572
v 0.040920 -0.293255 -0.465841
v 0.040920 0.293255 -0.465841
v 0.075450 -0.293255 -0.447221
v 0.075450 0.293255 -0.447221
v 0.105938 -0.293255 -0.424853
v 0.105938 0.293255 -0.424853
v 0.132211 -0.293255 -0.398881
v 0.132211 0.293255 -0.398881
v 0.154095 -0.293255 -0.369447
v 0.154095 0.293255 -0.369447
v 0.171417 -0.293255 -0.336694
v 0.171417 0.293255 -0.336694
v 0.184004 -0.293255 -0.300763
v 0.184004 0.293255 -0.300763
v 0.191683 -0.293255 -0.261798
v 0.191683 0.293255 -0.261798
v 0.194282 -0.293255 -0.219941
v 0.194282 0.293255 -0.219941
v 0.193037 -0.293255 -0.191602
v 0.193037 0.293255 -0.191602
v 0.189333 -0.293255 -0.164535
v 0.189333 0.293255 -0.164535
v 0.183216 -0.293255 -0.138792
v 0.183216 0.293255 -0.138792
v 0.174731 -0.293255 -0.114424
v 0.174731 0.293255 -0.114424
v 0.163925 -0.293255 -0.091481
v 0.163925 0.293255 -0.091481
v 0.150843 -0.293255 -0.070015
v 0.150843 0.293255 -0.070015
v 0.135531 -0.293255 -0.050076
v 0.135531 0.293255 -0.050076
v 0.118035 -0.293255 -0.031715
v 0.118035 0.293255 -0.031715
v 0.098401 -0.293255 -0.014984
v 0.098401 0.293255 -0.014984
v 0.076674 -0.293255 0.000068
v 0.076674 0.293255 0.000068
v 0.052900 -0.293255 0.013388
v 0.052900 0.293255 0.013388
v 0.027126 -0.293255 0.024927
v 0.027126 0.293255 0.024927
v 0.049152 -0.293255 0.040628
v 0.049152 0.293255 0.040628
v 0.069906 -0.293255 0.057674
v 0.069906 0.293255 0.057674
v 0.089580 -0.293255 0.076063
v 0.089580 0.293255 0.076063
v 0.108369 -0.293255 0.095797
v 0.108369 0.293255 0.095797
v 0.126465 -0.293255 0.116874
v 0.126465 0.293255 0.116874
v 0.144062 -0.293255 0.139296
v 0.144062 0.293255 0.139296
v 0.161353 -0.293255 0.163062
v 0.161353 0.293255 0.163062
v 0.178533 -0.293255 0.188172
v 0.178533 0.293255 0.188172
v 0.195794 -0.293255 0.214626
v 0.195794 0.293255 0.214626
v 0.213330 -0.293255 0.242424
v 0.213330 0.293255 0.242424
v 0.231334 -0.293255 0.271566
v 0.231334 0.293255 0.271566
v 0.250000 -0.293255 0.302053
v 0.250000 0.293255 0.302053
v 0.260300 -0.293255 0.318604
v 0.260300 0.293255 0.318604
v 0.270080 -0.293255 0.334026
v 0.270080 0.293255 0.334026
v 0.279555 -0.293255 0.348653
v 0.279555 0.293255 0.348653
v 0.288938 -0.293255 0.362822
v 0.288938 0.293255 0.362822
v 0.298443 -0.293255 0.376869
v 0.298443 0.293255 0.376869
v 0.308284 -0.293255 0.391129
v 0.308284 0.293255 0.391129
v 0.318676 -0.293255 0.405939
v 0.318676 0.293255 0.405939
v 0.329830 -0.293255 0.421636
v 0.329830 0.293255 0.421636
v 0.341963 -0.293255 0.438554
v 0.341963 0.293255 0.438554
v 0.355287 -0.293255 0.457030
v 0.355287 0.293255 0.457030
v 0.370016 -0.293255 0.477400
v 0.370016 0.293255 0.477400
v 0.386364 -0.293255 0.500000
v 0.386364 0.293255 0.500000
v 0.214809 -0.293255 0.500000
v 0.214809 0.293255 0.500000
v 0.082845 -0.293255 0.294721
v 0.082845 0.293255 0.294721
v 0.051301 -0.293255 0.247098
v 0.051301 0.293255 0.247098
v 0.022456 -0.293255 0.206500
v 0.022456 0.293255 0.206500
v -0.003986 -0.293255 0.172379
v -0.003986 0.293255 0.172379
v -0.028321 -0.293255 0.144184
v -0.028321 0.293255 0.144184
v -0.050843 -0.293255 0.121365
v -0.050843 0.293255 0.121365
v -0.071848 -0.293255 0.103372
v -0.071848 0.293255 0.103372
v -0.091630 -0.293255 0.089657
v -0.091630 0.293255 0.089657
v -0.110487 -0.293255 0.079668
v -0.110487 0.293255 0.079668
v -0.128712 -0.293255 0.072856
v -0.128712 0.293255 0.072856
v -0.146600 -0.293255 0.068671
v -0.146600 0.293255 0.068671
v -0.164449 -0.293255 0.066563
v -0.164449 0.293255 0.066563
v -0.182551 -0.293255 0.065982
v -0.182551 0.293255 0.065982
v -0.242669 -0.293255 0.065982
v -0.242669 0.293255 0.065982
v -0.242669 -0.293255 0.500000
v -0.242669 0.293255 0.500000
v -0.386364 -0.293255 0.500000
v -0.386364 0.293255 0.500000
v -0.386364 -0.293255 -0.500000
v -0.386364 0.293255 -0.500000
v -0.134164 -0.293255 -0.500000
v -0.134164 0.293255 -0.500000
v -0.150293 -0.293255 -0.063050
v -0.150293 0.293255 -0.063050
v -0.114057 -0.293255 -0.064656
v -0.114057 0.293255 -0.064656
v -0.082179 -0.293255 -0.069302
v -0.082179 0.293255 -0.069302
v -0.054435 -0.293255 -0.076727
v -0.054435 0.293255 -0.076727
v -0.030602 -0.293255 -0.086673
v -0.030602 0.293255 -0.086673
v -0.010454 -0.293255 -0.098879
v -0.010454 0.293255 -0.098879
v 0.006232 -0.293255 -0.113086
v 0.006232 0.293255 -0.113086
v 0.019679 -0.293255 -0.129035
v 0.019679 0.293255 -0.129035
v 0.030113 -0.293255 -0.146465
v 0.030113 0.293255 -0.146465
v 0.037757 -0.293255 -0.165116
v 0.037757 0.293255 -0.165116
v 0.042834 -0.293255 -0.184730
v 0.042834 0.293255 -0.184730
v 0.045570 -0.293255 -0.205047
v 0.045570 0.293255 -0.205047
v 0.046188 -0.293255 -0.225806
v 0.046188 0.293255 -0.225806
v 0.044674 -0.293255 -0.248491
v 0.044674 0.293255 -0.248491
v 0.040798 -0.293255 -0.269578
v 0.040798 0.293255 -0.269578
v 0.034457 -0.293255 -0.288994
v 0.034457 0.293255 -0.288994
v 0.025551 -0.293255 -0.306669
v 0.025551 0.293255 -0.306669
v 0.013977 -0.293255 -0.322531
v 0.013977 0.293255 -0.322531
v -0.000367 -0.293255 -0.336510
v -0.000367 0.293255 -0.336510
v -0.017582 -0.293255 -0.348534
v -0.017582 0.293255 -0.348534
v -0.037770 -0.293255 -0.358532
v -0.037770 0.293255 -0.358532
v -0.061034 -0.293255 -0.366431
v -0.061034 0.293255 -0.366431
v -0.087474 -0.293255 -0.372163
v -0.087474 0.293255 -0.372163
v -0.117193 -0.293255 -0.375653
v -0.117193 0.293255 -0.375653
v -0.150293 -0.293255 -0.376833
v -0.150293 0.293255 -0.376833
v -0.242669 -0.293255 -0.376833
v -0.242669 0.293255 -0.376833
v -0.242669 -0.293255 -0.063050
v -0.242669 0.293255 -0.063050
vn -0.0000 1.0000 -0.0000
vn -0.0000 -1.0000 -0.0000
vn 0.1942 -0.0000 -0.9810
vn 0.0934 -0.0000 -0.9956
vn 0.3028 -0.0000 -0.9531
vn 0.4173 -0.0000 -0.9088
vn 0.5344 -0.0000 -0.8453
vn 0.6490 -0.0000 -0.7608
vn 0.7549 -0.0000 -0.6558
vn 0.8457 -0.0000 -0.5336
vn 0.9164 -0.0000 -0.4002
vn 0.9649 -0.0000 -0.2627
vn 0.9918 -0.0000 -0.1279
vn 1.0000 -0.0000 -0.0090
vn 0.9960 -0.0000 0.0898
vn 0.9830 -0.0000 0.1836
vn 0.9599 -0.0000 0.2804
vn 0.9258 -0.0000 0.3780
vn 0.8806 -0.0000 0.4739
vn 0.8247 -0.0000 0.5655
vn 0.7596 -0.0000 0.6504
vn 0.6872 -0.0000 0.7265
vn 0.6098 -0.0000 0.7926
vn 0.5297 -0.0000 0.8482
vn 0.4492 -0.0000 0.8935
vn 0.9951 -0.0000 0.0990
vn 0.6079 -0.0000 -0.7940
vn 0.6591 -0.0000 -0.7520
vn 0.7038 -0.0000 -0.7104
vn 0.7417 -0.0000 -0.6707
vn 0.7729 -0.0000 -0.6345
vn 0.7978 -0.0000 -0.6030
vn 0.8171 -0.0000 -0.5766
vn 0.8315 -0.0000 -0.5556
vn 0.8417 -0.0000 -0.5400
vn 0.8483 -0.0000 -0.5296
vn 0.8518 -0.0000 -0.5239
vn 0.8509 -0.0000 -0.5253
vn 0.8468 -0.0000 -0.5320
vn 0.8419 -0.0000 -0.5396
vn 0.8365 -0.0000 -0.5479
vn 0.8310 -0.0000 -0.5563
vn 0.8256 -0.0000 -0.5642
vn 0.8208 -0.0000 -0.5712
vn 0.8169 -0.0000 -0.5768
vn 0.8139 -0.0000 -0.5810
vn 0.8119 -0.0000 -0.5838
vn 0.8107 -0.0000 -0.5854
vn 0.8103 -0.0000 -0.5860
vn 0.8905 -0.0000 0.4549
vn -0.4792 -0.0000 0.8777
vn -0.8375 -0.0000 0.5465
vn -0.8246 -0.0000 0.5658
vn -0.8030 -0.0000 0.5960
vn -0.7740 -0.0000 0.6332
vn -0.7348 -0.0000 0.6783
vn -0.6817 -0.0000 0.7316
vn -0.6110 -0.0000 0.7917
vn -0.5199 -0.0000 0.8542
vn -0.4100 -0.0000 0.9121
vn -0.2895 -0.0000 0.9572
vn -0.1728 -0.0000 0.9850
vn -0.0747 -0.0000 0.9972
vn -0.0160 -0.0000 0.9999
vn 0.7071 -0.0000 0.7071
vn -0.7071 -0.0000 0.7071
vn -0.7071 -0.0000 -0.7071
vn 0.0225 -0.0000 -0.9997
vn -0.0944 -0.0000 -0.9955
vn -0.0221 -0.0000 -0.9998
vn -0.2017 -0.0000 -0.9794
vn -0.3225 -0.0000 -0.9466
vn -0.4529 -0.0000 -0.8916
vn -0.3226 -0.0000 -0.9466
vn -0.5851 -0.0000 -0.8110
vn -0.7088 -0.0000 -0.7054
vn -0.8139 -0.0000 -0.5810
vn -0.8942 -0.0000 -0.4477
vn -0.9489 -0.0000 -0.3156
vn -0.9813 -0.0000 -0.1924
vn -0.9967 -0.0000 -0.0817
vn -0.9998 -0.0000 0.0184
vn -0.9923 -0.0000 0.1239
vn -0.9692 -0.0000 0.2462
vn -0.9245 -0.0000 0.3813
vn -0.8533 -0.0000 0.5215
vn -0.7555 -0.0000 0.6551
vn -0.6374 -0.0000 0.7705
vn -0.5096 -0.0000 0.8604
vn -0.3835 -0.0000 0.9235
vn -0.2671 -0.0000 0.9637
vn -0.1644 -0.0000 0.9864
vn -0.0762 -0.0000 0.9971
vn -0.0178 -0.0000 0.9998
vn 0.7071 -0.0000 -0.7071
vt 0.000000 0.000000
vt 0.010753 0.000000
vt 0.021505 0.000000
vt 0.032258 0.000000
vt 0.043011 0.000000
vt 0.053763 0.000000
vt 0.064516 0.000000
vt 0.075269 0.000000
vt 0.086022 0.000000
vt 0.096774 0.000000
vt 0.107527 0.000000
vt 0.118280 0.000000
vt 0.129032 0.000000
vt 0.139785 0.000000
vt 0.150538 0.000000
vt 0.161290 0.000000
vt 0.172043 0.000000
vt 0.182796 0.000000
vt 0.193548 0.000000
vt 0.204301 0.000000
vt 0.215054 0.000000
vt 0.225806 0.000000
vt 0.236559 0.000000
vt 0.247312 0.000000
vt 0.258065 0.000000
vt 0.268817 0.000000
vt 0.279570 0.000000
vt 0.290323 0.000000
vt 0.301075 0.000000
vt 0.311828 0.000000
vt 0.322581 0.000000
vt 0.333333 0.000000
vt 0.344086 0.000000
vt 0.354839 0.000000
vt 0.365591 0.000000
vt 0.376344 0.000000
vt 0.387097 0.000000
vt 0.397849 0.000000
vt 0.408602 0.000000
vt 0.419355 0.000000
vt 0.430108 0.000000
vt 0.440860 0.000000
vt 0.451613 0.000000
vt 0.462366 0.000000
vt 0.473118 0.000000
vt 0.483871 0.000000
vt 0.494624 0.000000
vt 0.505376 0.000000
vt 0.516129 0.000000
vt 0.526882 0.000000
vt 0.537634 0.000000
vt 0.548387 0.000000
vt 0.559140 0.000000
vt 0.569892 0.000000
vt 0.580645 0.000000
vt 0.591398 0.000000
vt 0.602151 0.000000
vt 0.612903 0.000000
vt 0.623656 0.000000
vt 0.634409 0.000000
vt 0.645161 0.000000
vt 0.655914 0.000000
vt 0.666667 0.000000
vt 0.677419 0.000000
vt 0.688172 0.000000
vt 0.698925 0.000000
vt 0.709677 0.000000
vt 0.720430 0.000000
vt 0.731183 0.000000
vt 0.741935 0.000000
vt 0.752688 0.000000
vt 0.763441 0.000000
vt 0.774194 0.000000
vt 0.784946 0.000000
vt 0.795699 0.000000
vt 0.806452 0.000000
vt 0.817204 0.000000
vt 0.827957 0.000000
vt 0.838710 0.000000
vt 0.849462 0.000000
vt 0.860215 0.000000
vt 0.870968 0.000000
vt 0.881720 0.000000
vt 0.892473 0.000000
vt 0.903226 0.000000
vt 0.913979 0.000000
vt 0.924731 0.000000
vt 0.935484 0.000000
vt 0.946237 0.000000
vt 0.956989 0.000000
vt 0.967742 0.000000
vt 0.978495 0.000000
vt 0.989247 0.000000
vt 1.000000 0.000000
vt 0.000000 0.000000
vt 0.010753 0.000000
vt 0.021505 0.000000
vt 0.032258 0.000000
vt 0.043011 0.000000
vt 0.053763 0.000000
vt 0.064516 0.000000
vt 0.075269 0.000000
vt 0.086022 0.000000
vt 0.096774 0.000000
vt 0.107527 0.000000
vt 0.118280 0.000000
vt 0.129032 0.000000
vt 0.139785 0.000000
vt 0.150538 0.000000
vt 0.161290 0.000000
vt 0.172043 0.000000
vt 0.182796 0.000000
vt 0.193548 0.000000
vt 0.204301 0.000000
vt 0.215054 0.000000
vt 0.225806 0.000000
vt 0.236559 0.000000
vt 0.247312 0.000000
vt 0.258065 0.000000
vt 0.268817 0.000000
vt 0.279570 0.000000
vt 0.290323 0.000000
vt 0.301075 0.000000
vt 0.311828 0.000000
vt 0.322581 0.000000
vt 0.333333 0.000000
vt 0.344086 0.000000
vt 0.354839 0.000000
vt 0.365591 0.000000
vt 0.376344 0.000000
vt 0.387097 0.000000
vt 0.397849 0.000000
vt 0.408602 0.000000
vt 0.419355 0.000000
vt 0.430108 0.000000
vt 0.440860 0.000000
vt 0.451613 0.000000
vt 0.462366 0.000000
vt 0.473118 0.000000
vt 0.483871 0.000000
vt 0.494624 0.000000
vt 0.505376 0.000000
vt 0.516129 0.000000
vt 0.526882 0.000000
vt 0.537634 0.000000
vt 0.548387 0.000000
vt 0.559140 0.000000
vt 0.569892 0.000000
vt 0.580645 0.000000
vt 0.591398 0.000000
vt 0.602151 0.000000
vt 0.612903 0.000000
vt 0.623656 0.000000
vt 0.634409 0.000000
vt 0.645161 0.000000
vt 0.655914 0.000000
vt 0.666667 0.000000
vt 0.677419 0.000000
vt 0.688172 0.000000
vt 0.698925 0.000000
vt 0.709677 0.000000
vt 0.720430 0.000000
vt 0.731183 0.000000
vt 0.741935 0.000000
vt 0.752688 0.000000
vt 0.763441 0.000000
vt 0.774194 0.000000
vt 0.784946 0.000000
vt 0.795699 0.000000
vt 0.806452 0.000000
vt 0.817204 0.000000
vt 0.827957 0.000000
vt 0.838710 0.000000
vt 0.849462 0.000000
vt 0.860215 0.000000
vt 0.870968 0.000000
vt 0.881720 0.000000
vt 0.892473 0.000000
vt 0.903226 0.000000
vt 0.913979 0.000000
vt 0.924731 0.000000
vt 0.935484 0.000000
vt 0.946237 0.000000
vt 0.956989 0.000000
vt 0.967742 0.000000
vt 0.978495 0.000000
vt 0.989247 0.000000
vt 1.000000 0.000000
vt 0.000000 0.000000
vt 1.000000 0.000000
vt 0.000000 1.000000
vt 1.000000 1.000000
vt 0.014925 0.000000
vt 0.014925 1.000000
vt 0.029851 0.000000
vt 0.029851 1.000000
vt 0.044776 0.000000
vt 0.044776 1.000000
vt 0.059701 0.000000
vt 0.059701 1.000000
vt 0.074627 0.000000
vt 0.074627 1.000000
vt 0.089552 0.000000
vt 0.089552 1.000000
vt 0.104478 0.000000
vt 0.104478 1.000000
vt 0.119403 0.000000
vt 0.119403 1.000000
vt 0.134328 0.000000
vt 0.134328 1.000000
vt 0.149254 0.000000
vt 0.149254 1.000000
vt 0.164179 0.000000
vt 0.164179 1.000000
vt 0.179104 0.000000
vt 0.179104 1.000000
vt 0.194030 0.000000
vt 0.194030 1.000000
vt 0.208955 0.000000
vt 0.208955 1.000000
vt 0.223881 0.000000
vt 0.223881 1.000000
vt 0.238806 0.000000
vt 0.238806 1.000000
vt 0.253731 0.000000
vt 0.253731 1.000000
vt 0.268657 0.000000
vt 0.268657 1.000000
vt 0.283582 0.000000
vt 0.283582 1.000000
vt 0.298507 0.000000
vt 0.298507 1.000000
vt 0.313433 0.000000
vt 0.313433 1.000000
vt 0.328358 0.000000
vt 0.328358 1.000000
vt 0.343284 0.000000
vt 0.343284 1.000000
vt 0.358209 0.000000
vt 0.358209 1.000000
vt 0.373134 0.000000
vt 0.373134 1.000000
vt 0.388060 0.000000
vt 0.388060 1.000000
vt 0.402985 0.000000
vt 0.402985 1.000000
vt 0.417910 0.000000
vt 0.417910 1.000000
vt 0.432836 0.000000
vt 0.432836 1.000000
vt 0.447761 0.000000
vt 0.447761 1.000000
vt 0.462687 0.000000
vt 0.462687 1.000000
vt 0.477612 0.000000
vt 0.477612 1.000000
vt 0.492537 0.000000
vt 0.492537 1.000000
vt 0.507463 0.000000
vt 0.507463 1.000000
vt 0.522388 0.000000
vt 0.522388 1.000000
vt 0.537313 0.000000
vt 0.537313 1.000000
vt 0.552239 0.000000
vt 0.552239 1.000000
vt 0.567164 0.000000
vt 0.567164 1.000000
vt 0.582090 0.000000
vt 0.582090 1.000000
vt 0.597015 0.000000
vt 0.597015 1.000000
vt 0.611940 0.000000
vt 0.611940 1.000000
vt 0.626866 0.000000
vt 0.626866 1.000000
vt 0.641791 0.000000
vt 0.641791 1.000000
vt 0.656716 0.000000
vt 0.656716 1.000000
vt 0.671642 0.000000
vt 0.671642 1.000000
vt 0.686567 0.000000
vt 0.686567 1.000000
vt 0.701493 0.000000
vt 0.701493 1.000000
vt 0.716418 0.000000
vt 0.716418 1.000000
vt 0.731343 0.000000
vt 0.731343 1.000000
vt 0.746269 0.000000
vt 0.746269 1.000000
vt 0.761194 0.000000
vt 0.761194 1.000000
vt 0.776119 0.000000
vt 0.776119 1.000000
vt 0.791045 0.000000
vt 0.791045 1.000000
vt 0.805970 0.000000
vt 0.805970 1.000000
vt 0.820895 0.000000
vt 0.820895 1.000000
vt 0.835821 0.000000
vt 0.835821 1.000000
vt 0.850746 0.000000
vt 0.850746 1.000000
vt 0.865672 0.000000
vt 0.865672 1.000000
vt 0.880597 0.000000
vt 0.880597 1.000000
vt 0.895522 0.000000
vt 0.895522 1.000000
vt 0.910448 0.000000
vt 0.910448 1.000000
vt 0.925373 0.000000
vt 0.925373 1.000000
vt 0.940298 0.000000
vt 0.940298 1.000000
vt 0.955224 0.000000
vt 0.955224 1.000000
vt 0.970149 0.000000
vt 0.970149 1.000000
vt 0.985075 0.000000
vt 0.985075 1.000000
vt 0.000000 0.000000
vt 1.000000 0.000000
vt 0.000000 1.000000
vt 1.000000 1.000000
vt 0.037037 0.000000
vt 0.037037 1.000000
vt 0.074074 0.000000
vt 0.074074 1.000000
vt 0.111111 0.000000
vt 0.111111 1.000000
vt 0.148148 0.000000
vt 0.148148 1.000000
vt 0.185185 0.000000
vt 0.185185 1.000000
vt 0.222222 0.000000
vt 0.222222 1.000000
vt 0.259259 0.000000
vt 0.259259 1.000000
vt 0.296296 0.000000
vt 0.296296 1.000000
vt 0.333333 0.000000
vt 0.333333 1.000000
vt 0.370370 0.000000
vt 0.370370 1.000000
vt 0.407407 0.000000
vt 0.407407 1.000000
vt 0.444444 0.000000
vt 0.444444 1.000000
vt 0.481481 0.000000
vt 0.481481 1.000000
vt 0.518519 0.000000
vt 0.518519 1.000000
vt 0.555556 0.000000
vt 0.555556 1.000000
vt 0.592593 0.000000
vt 0.592593 1.000000
vt 0.629630 0.000000
vt 0.629630 1.000000
vt 0.666667 0.000000
vt 0.666667 1.000000
vt 0.703704 0.000000
vt 0.703704 1.000000
vt 0.740741 0.000000
vt 0.740741 1.000000
vt 0.777778 0.000000
vt 0.777778 1.000000
vt 0.814815 0.000000
vt 0.814815 1.000000
vt 0.851852 0.000000
vt 0.851852 1.000000
vt 0.888889 0.000000
vt 0.888889 1.000000
vt 0.925926 0.000000
vt 0.925926 1.000000
vt 0.962963 0.000000
vt 0.962963 1.000000
s 0
f 65/65/1 93/93/1 66/66/1
f 93/93/1 67/67/1 66/66/1
f 93/93/1 1/1/1 67/67/1
f 93/93/1 2/2/1 1/1/1
f 93/93/1 3/3/1 2/2/1
f 93/93/1 4/4/1 3/3/1
f 93/93/1 5/5/1 4/4/1
f 93/93/1 6/6/1 5/5/1
f 93/93/1 7/7/1 6/6/1
f 93/93/1 92/92/1 7/7/1
f 92/92/1 8/8/1 7/7/1
f 65/65/1 94/94/1 93/93/1
f 91/91/1 8/8/1 92/92/1
f 90/90/1 8/8/1 91/91/1
f 89/89/1 8/8/1 90/90/1
f 89/89/1 9/9/1 8/8/1
f 88/88/1 9/9/1 89/89/1
f 87/87/1 9/9/1 88/88/1
f 86/86/1 9/9/1 87/87/1
f 86/86/1 10/10/1 9/9/1
f 85/85/1 10/10/1 86/86/1
f 84/84/1 10/10/1 85/85/1
f 83/83/1 10/10/1 84/84/1
f 83/83/1 11/11/1 10/10/1
f 82/82/1 11/11/1 83/83/1
f 81/81/1 11/11/1 82/82/1
f 81/81/1 12/12/1 11/11/1
f 80/80/1 12/12/1 81/81/1
f 79/79/1 12/12/1 80/80/1
f 79/79/1 13/13/1 12/12/1
f 78/78/1 13/13/1 79/79/1
f 78/78/1 14/14/1 13/13/1
f 77/77/1 14/14/1 78/78/1
f 76/76/1 14/14/1 77/77/1
f 76/76/1 15/15/1 14/14/1
f 75/75/1 15/15/1 76/76/1
f 75/75/1 16/16/1 15/15/1
f 74/74/1 16/16/1 75/75/1
f 74/74/1 17/17/1 16/16/1
f 73/73/1 17/17/1 74/74/1
f 72/72/1 17/17/1 73/73/1
f 72/72/1 18/18/1 17/17/1
f 71/71/1 18/18/1 72/72/1
f 70/70/1 18/18/1 71/71/1
f 70/70/1 19/19/1 18/18/1
f 69/69/1 19/19/1 70/70/1
f 68/68/1 19/19/1 69/69/1
f 65/65/1 63/63/1 94/94/1
f 63/63/1 68/68/1 94/94/1
f 63/63/1 19/19/1 68/68/1
f 63/63/1 20/20/1 19/19/1
f 63/63/1 21/21/1 20/20/1
f 63/63/1 22/22/1 21/21/1
f 63/63/1 23/23/1 22/22/1
f 63/63/1 24/24/1 23/23/1
f 63/63/1 25/25/1 24/24/1
f 63/63/1 26/26/1 25/25/1
f 63/63/1 62/62/1 26/26/1
f 62/62/1 61/61/1 26/26/1
f 61/61/1 27/27/1 26/26/1
f 65/65/1 64/64/1 63/63/1
f 60/60/1 27/27/1 61/61/1
f 59/59/1 27/27/1 60/60/1
f 58/58/1 27/27/1 59/59/1
f 58/58/1 28/28/1 27/27/1
f 57/57/1 28/28/1 58/58/1
f 56/56/1 28/28/1 57/57/1
f 56/56/1 29/29/1 28/28/1
f 55/55/1 29/29/1 56/56/1
f 55/55/1 30/30/1 29/29/1
f 54/54/1 30/30/1 55/55/1
f 54/54/1 31/31/1 30/30/1
f 53/53/1 31/31/1 54/54/1
f 53/53/1 32/32/1 31/31/1
f 52/52/1 32/32/1 53/53/1
f 52/52/1 33/33/1 32/32/1
f 51/51/1 33/33/1 52/52/1
f 51/51/1 34/34/1 33/33/1
f 51/51/1 35/35/1 34/34/1
f 50/50/1 35/35/1 51/51/1
f 50/50/1 36/36/1 35/35/1
f 49/49/1 36/36/1 50/50/1
f 49/49/1 37/37/1 36/36/1
f 49/49/1 38/38/1 37/37/1
f 49/49/1 39/39/1 38/38/1
f 49/49/1 40/40/1 39/39/1
f 49/49/1 41/41/1 40/40/1
f 49/49/1 42/42/1 41/41/1
f 49/49/1 43/43/1 42/42/1
f 49/49/1 44/44/1 43/43/1
f 49/49/1 45/45/1 44/44/1
f 49/49/1 46/46/1 45/45/1
f 49/49/1 47/47/1 46/46/1
f 49/49/1 48/48/1 47/47/1
f 159/159/2 160/160/2 187/187/2
f 187/187/2 160/160/2 161/161/2
f 187/187/2 161/161/2 95/95/2
f 187/187/2 95/95/2 96/96/2
f 187/187/2 96/96/2 97/97/2
f 187/187/2 97/97/2 98/98/2
f 187/187/2 98/98/2 99/99/2
f 187/187/2 99/99/2 100/100/2
f 187/187/2 100/100/2 101/101/2
f 187/187/2 101/101/2 186/186/2
f 186/186/2 101/101/2 102/102/2
f 159/159/2 187/187/2 188/188/2
f 185/185/2 186/186/2 102/102/2
f 184/184/2 185/185/2 102/102/2
f 183/183/2 184/184/2 102/102/2
f 183/183/2 102/102/2 103/103/2
f 182/182/2 183/183/2 103/103/2
f 181/181/2 182/182/2 103/103/2
f 180/180/2 181/181/2 103/103/2
f 180/180/2 103/103/2 104/104/2
f 179/179/2 180/180/2 104/104/2
f 178/178/2 179/179/2 104/104/2
f 177/177/2 178/178/2 104/104/2
f 177/177/2 104/104/2 105/105/2
f 176/176/2 177/177/2 105/105/2
f 175/175/2 176/176/2 105/105/2
f 175/175/2 105/105/2 106/106/2
f 174/174/2 175/175/2 106/106/2
f 173/173/2 174/174/2 106/106/2
f 173/173/2 106/106/2 107/107/2
f 172/172/2 173/173/2 107/107/2
f 172/172/2 107/107/2 108/108/2
f 171/171/2 172/172/2 108/108/2
f 170/170/2 171/171/2 108/108/2
f 170/170/2 108/108/2 109/109/2
f 169/169/2 170/170/2 109/109/2
f 169/169/2 109/109/2 110/110/2
f 168/168/2 169/169/2 110/110/2
f 168/168/2 110/110/2 111/111/2
f 167/167/2 168/168/2 111/111/2
f 166/166/2 167/167/2 111/111/2
f 166/166/2 111/111/2 112/112/2
f 165/165/2 166/166/2 112/112/2
f 164/164/2 165/165/2 112/112/2
f 164/164/2 112/112/2 113/113/2
f 163/163/2 164/164/2 113/113/2
f 162/162/2 163/163/2 113/113/2
f 159/159/2 188/188/2 157/157/2
f 157/157/2 188/188/2 162/162/2
f 157/157/2 162/162/2 113/113/2
f 157/157/2 113/113/2 114/114/2
f 157/157/2 114/114/2 115/115/2
f 157/157/2 115/115/2 116/116/2
f 157/157/2 116/116/2 117/117/2
f 157/157/2 117/117/2 118/118/2
f 157/157/2 118/118/2 119/119/2
f 157/157/2 119/119/2 120/120/2
f 157/157/2 120/120/2 156/156/2
f 156/156/2 120/120/2 155/155/2
f 155/155/2 120/120/2 121/121/2
f 159/159/2 157/157/2 158/158/2
f 154/154/2 155/155/2 121/121/2
f 153/153/2 154/154/2 121/121/2
f 152/152/2 153/153/2 121/121/2
f 152/152/2 121/121/2 122/122/2
f 151/151/2 152/152/2 122/122/2
f 150/150/2 151/151/2 122/122/2
f 150/150/2 122/122/2 123/123/2
f 149/149/2 150/150/2 123/123/2
f 149/149/2 123/123/2 124/124/2
f 148/148/2 149/149/2 124/124/2
f 148/148/2 124/124/2 125/125/2
f 147/147/2 148/148/2 125/125/2
f 147/147/2 125/125/2 126/126/2
f 146/146/2 147/147/2 126/126/2
f 146/146/2 126/126/2 127/127/2
f 145/145/2 146/146/2 127/127/2
f 145/145/2 127/127/2 128/128/2
f 145/145/2 128/128/2 129/129/2
f 144/144/2 145/145/2 129/129/2
f 144/144/2 129/129/2 130/130/2
f 143/143/2 144/144/2 130/130/2
f 143/143/2 130/130/2 131/131/2
f 143/143/2 131/131/2 132/132/2
f 143/143/2 132/132/2 133/133/2
f 143/143/2 133/133/2 134/134/2
f 143/143/2 134/134/2 135/135/2
f 143/143/2 135/135/2 136/136/2
f 143/143/2 136/136/2 137/137/2
f 143/143/2 137/137/2 138/138/2
f 143/143/2 138/138/2 139/139/2
f 143/143/2 139/139/2 140/140/2
f 143/143/2 140/140/2 141/141/2
f 143/143/2 141/141/2 142/142/2
s 1
f 192/194/3 189/189/4 190/191/4
f 194/196/5 191/193/3 192/194/3
f 196/198/6 193/195/5 194/196/5
f 198/200/7 195/197/6 196/198/6
f 200/202/8 197/199/7 198/200/7
f 202/204/9 199/201/8 200/202/8
f 204/206/10 201/203/9 202/204/9
f 206/208/11 203/205/10 204/206/10
f 208/210/12 205/207/11 206/208/11
f 210/212/13 207/209/12 208/210/12
f 212/214/14 209/211/13 210/212/13
f 214/216/15 211/213/14 212/214/14
f 216/218/16 213/215/15 214/216/15
f 218/220/17 215/217/16 216/218/16
f 220/222/18 217/219/17 218/220/17
f 222/224/19 219/221/18 220/222/18
f 224/226/20 221/223/19 222/224/19
f 226/228/21 223/225/20 224/226/20
f 228/230/22 225/227/21 226/228/21
f 230/232/23 227/229/22 228/230/22
f 232/234/24 229/231/23 230/232/23
f 234/236/25 231/233/24 232/234/24
f 236/238/26 233/235/25 234/236/25
f 238/240/27 235/237/26 236/238/26
f 240/242/28 237/239/27 238/240/27
f 242/244/29 239/241/28 240/242/28
f 244/246/30 241/243/29 242/244/29
f 246/248/31 243/245/30 244/246/30
f 248/250/32 245/247/31 246/248/31
f 250/252/33 247/249/32 248/250/32
f 252/254/34 249/251/33 250/252/33
f 254/256/35 251/253/34 252/254/34
f 256/258/36 253/255/35 254/256/35
f 258/260/37 255/257/36 256/258/36
f 260/262/38 257/259/37 258/260/37
f 262/264/39 259/261/38 260/262/38
f 264/266/40 261/263/39 262/264/39
f 266/268/41 263/265/40 264/266/40
f 268/270/42 265/267/41 266/268/41
f 270/272/43 267/269/42 268/270/42
f 272/274/44 269/271/43 270/272/43
f 274/276/45 271/273/44 272/274/44
f 276/278/46 273/275/45 274/276/45
f 278/280/47 275/277/46 276/278/46
f 280/282/48 277/279/47 278/280/47
f 282/284/49 279/281/48 280/282/48
f 284/286/50 281/283/49 282/284/49
f 286/288/51 283/285/50 284/286/50
f 288/290/52 285/287/51 286/288/51
f 290/292/53 287/289/52 288/290/52
f 292/294/54 289/291/53 290/292/53
f 294/296/55 291/293/54 292/294/54
f 296/298/56 293/295/55 294/296/55
f 298/300/57 295/297/56 296/298/56
f 300/302/58 297/299/57 298/300/57
f 302/304/59 299/301/58 300/302/58
f 304/306/60 301/303/59 302/304/59
f 306/308/61 303/305/60 304/306/60
f 308/310/62 305/307/61 306/308/61
f 310/312/63 307/309/62 308/310/62
f 312/314/64 309/311/63 310/312/63
f 314/316/65 311/313/64 312/314/64
f 316/318/65 313/315/65 314/316/65
f 318/320/66 315/317/65 316/318/65
f 320/322/67 317/319/66 318/320/66
f 322/324/68 319/321/67 320/322/67
f 190/192/4 321/323/68 322/324/68
f 326/330/69 323/325/70 324/327/70
f 328/332/71 325/329/69 326/330/69
f 330/334/72 327/331/71 328/332/71
f 332/336/73 329/333/74 330/334/72
f 334/338/75 331/335/73 332/336/73
f 336/340/76 333/337/75 334/338/75
f 338/342/77 335/339/76 336/340/76
f 340/344/78 337/341/77 338/342/77
f 342/346/79 339/343/78 340/344/78
f 344/348/80 341/345/79 342/346/79
f 346/350/81 343/347/80 344/348/80
f 348/352/82 345/349/81 346/350/81
f 350/354/83 347/351/82 348/352/82
f 352/356/84 349/353/83 350/354/83
f 354/358/85 351/355/84 352/356/84
f 356/360/86 353/357/85 354/358/85
f 358/362/87 355/359/86 356/360/86
f 360/364/88 357/361/87 358/362/87
f 362/366/89 359/363/88 360/364/88
f 364/368/90 361/365/89 362/366/89
f 366/370/91 363/367/90 364/368/90
f 368/372/92 365/369/91 366/370/91
f 370/374/93 367/371/92 368/372/92
f 372/376/94 369/373/93 370/374/93
f 374/378/65 371/375/94 372/376/94
f 376/380/95 373/377/65 374/378/65
f 324/328/70 375/379/95 376/380/95
f 192/194/3 191/193/3 189/189/4
f 194/196/5 193/195/5 191/193/3
f 196/198/6 195/197/6 193/195/5
f 198/200/7 197/199/7 195/197/6
f 200/202/8 199/201/8 197/199/7
f 202/204/9 201/203/9 199/201/8
f 204/206/10 203/205/10 201/203/9
f 206/208/11 205/207/11 203/205/10
f 208/210/12 207/209/12 205/207/11
f 210/212/13 209/211/13 207/209/12
f 212/214/14 211/213/14 209/211/13
f 214/216/15 213/215/15 211/213/14
f 216/218/16 215/217/16 213/215/15
f 218/220/17 217/219/17 215/217/16
f 220/222/18 219/221/18 217/219/17
f 222/224/19 221/223/19 219/221/18
f 224/226/20 223/225/20 221/223/19
f 226/228/21 225/227/21 223/225/20
f 228/230/22 227/229/22 225/227/21
f 230/232/23 229/231/23 227/229/22
f 232/234/24 231/233/24 229/231/23
f 234/236/25 233/235/25 231/233/24
f 236/238/26 235/237/26 233/235/25
f 238/240/27 237/239/27 235/237/26
f 240/242/28 239/241/28 237/239/27
f 242/244/29 241/243/29 239/241/28
f 244/246/30 243/245/30 241/243/29
f 246/248/31 245/247/31 243/245/30
f 248/250/32 247/249/32 245/247/31
f 250/252/33 249/251/33 247/249/32
f 252/254/34 251/253/34 249/251/33
f 254/256/35 253/255/35 251/253/34
f 256/258/36 255/257/36 253/255/35
f 258/260/37 257/259/37 255/257/36
f 260/262/38 259/261/38 257/259/37
f 262/264/39 261/263/39 259/261/38
f 264/266/40 263/265/40 261/263/39
f 266/268/41 265/267/41 263/265/40
f 268/270/42 267/269/42 265/267/41
f 270/272/43 269/271/43 267/269/42
f 272/274/44 271/273/44 269/271/43
f 274/276/45 273/275/45 271/273/44
f 276/278/46 275/277/46 273/275/45
f 278/280/47 277/279/47 275/277/46
f 280/282/48 279/281/48 277/279/47
f 282/284/49 281/283/49 279/281/48
f 284/286/50 283/285/50 281/283/49
f 286/288/51 285/287/51 283/285/50
f 288/290/52 287/289/52 285/287/51
f 290/292/53 289/291/53 287/289/52
f 292/294/54 291/293/54 289/291/53
f 294/296/55 293/295/55 291/293/54
f 296/298/56 295/297/56 293/295/55
f 298/300/57 297/299/57 295/297/56
f 300/302/58 299/301/58 297/299/57
f 302/304/59 301/303/59 299/301/58
f 304/306/60 303/305/60 301/303/59
f 306/308/61 305/307/61 303/305/60
f 308/310/62 307/309/62 305/307/61
f 310/312/63 309/311/63 307/309/62
f 312/314/64 311/313/64 309/311/63
f 314/316/65 313/315/65 311/313/64
f 316/318/65 315/317/65 313/315/65
f 318/320/66 317/319/66 315/317/65
f 320/322/67 319/321/67 317/319/66
f 322/324/68 321/323/68 319/321/67
f 190/192/4 189/190/4 321/323/68
f 326/330/69 325/329/69 323/325/70
f 328/332/71 327/331/71 325/329/69
f 330/334/72 329/333/74 327/331/71
f 332/336/73 331/335/73 329/333/74
f 334/338/75 333/337/75 331/335/73
f 336/340/76 335/339/76 333/337/75
f 338/342/77 337/341/77 335/339/76
f 340/344/78 339/343/78 337/341/77
f 342/346/79 341/345/79 339/343/78
f 344/348/80 343/347/80 341/345/79
f 346/350/81 345/349/81 343/347/80
f 348/352/82 347/351/82 345/349/81
f 350/354/83 349/353/83 347/351/82
f 352/356/84 351/355/84 349/353/83
f 354/358/85 353/357/85 351/355/84
f 356/360/86 355/359/86 353/357/85
f 358/362/87 357/361/87 355/359/86
f 360/364/88 359/363/88 357/361/87
f 362/366/89 361/365/89 359/363/88
f 364/368/90 363/367/90 361/365/89
f 366/370/91 365/369/91 363/367/90
f 368/372/92 367/371/92 365/369/91
f 370/374/93 369/373/93 367/371/92
f 372/376/94 371/375/94 369/373/93
f 374/378/65 373/377/65 371/375/94
f 376/380/95 375/379/95 373/377/65
f 324/328/70 323/326/70 375/379/95
