# Blender 3.2.2
# www.blender.org
o Letter_S
v 0.216495 0.285714 -0.291358
v 0.196005 0.285714 -0.307652
v 0.175714 0.285714 -0.321853
v 0.155661 0.285714 -0.334074
v 0.135886 0.285714 -0.344430
v 0.116429 0.285714 -0.353036
v 0.097328 0.285714 -0.360004
v 0.078624 0.285714 -0.365450
v 0.060357 0.285714 -0.369487
v 0.042566 0.285714 -0.372229
v 0.025291 0.285714 -0.373791
v 0.008571 0.285714 -0.374286
v -0.013371 0.285714 -0.373318
v -0.034107 0.285714 -0.370476
v -0.053504 0.285714 -0.365848
v -0.071429 0.285714 -0.359524
v -0.087746 0.285714 -0.351592
v -0.102321 0.285714 -0.342143
v -0.115022 0.285714 -0.331265
v -0.125714 0.285714 -0.319048
v -0.134263 0.285714 -0.305580
v -0.140536 0.285714 -0.290952
v -0.144397 0.285714 -0.275253
v -0.145714 0.285714 -0.258571
v -0.137422 0.285714 -0.215453
v -0.114497 0.285714 -0.178505
v -0.079866 0.285714 -0.145982
v -0.036455 0.285714 -0.116138
v 0.012809 0.285714 -0.087226
v 0.065000 0.285714 -0.057500
v 0.117191 0.285714 -0.025215
v 0.166455 0.285714 0.011376
v 0.209866 0.285714 0.054018
v 0.244497 0.285714 0.104458
v 0.267422 0.285714 0.164441
v 0.275714 0.285714 0.235714
v 0.273347 0.285714 0.273025
v 0.266415 0.285714 0.308366
v 0.255179 0.285714 0.341496
v 0.239894 0.285714 0.372169
v 0.220820 0.285714 0.400145
v 0.198214 0.285714 0.425179
v 0.172335 0.285714 0.447028
v 0.143439 0.285714 0.465450
v 0.111786 0.285714 0.480201
v 0.077632 0.285714 0.491038
v 0.041237 0.285714 0.497719
v 0.002857 0.285714 0.500000
v -0.023164 0.285714 0.499402
v -0.048406 0.285714 0.497599
v -0.072924 0.285714 0.494576
v -0.096772 0.285714 0.490317
v -0.120006 0.285714 0.484809
v -0.142679 0.285714 0.478036
v -0.164845 0.285714 0.469983
v -0.186561 0.285714 0.460635
v -0.207879 0.285714 0.449978
v -0.228856 0.285714 0.437996
v -0.249544 0.285714 0.424675
v -0.270000 0.285714 0.410000
v -0.270000 0.285714 0.232857
v -0.251763 0.285714 0.254846
v -0.232798 0.285714 0.275079
v -0.213147 0.285714 0.293527
v -0.192857 0.285714 0.310159
v -0.171972 0.285714 0.324945
v -0.150536 0.285714 0.337857
v -0.128594 0.285714 0.348864
v -0.106190 0.285714 0.357937
v -0.083371 0.285714 0.365045
v -0.060179 0.285714 0.370159
v -0.036659 0.285714 0.373249
v -0.012857 0.285714 0.374286
v 0.013070 0.285714 0.372905
v 0.036587 0.285714 0.368955
v 0.057723 0.285714 0.362723
v 0.076508 0.285714 0.354497
v 0.092971 0.285714 0.344565
v 0.107143 0.285714 0.333214
v 0.119053 0.285714 0.320732
v 0.128730 0.285714 0.307407
v 0.136205 0.285714 0.293527
v 0.141508 0.285714 0.279378
v 0.144668 0.285714 0.265250
v 0.145714 0.285714 0.251429
v 0.137422 0.285714 0.204547
v 0.114497 0.285714 0.163638
v 0.079866 0.285714 0.127232
v 0.036455 0.285714 0.093862
v -0.012809 0.285714 0.062060
v -0.065000 0.285714 0.030357
v -0.117191 0.285714 -0.002715
v -0.166455 0.285714 -0.038624
v -0.209866 0.285714 -0.078839
v -0.244497 0.285714 -0.124828
v -0.267422 0.285714 -0.178059
v -0.275714 0.285714 -0.240000
v -0.273306 0.285714 -0.278427
v -0.266210 0.285714 -0.314319
v -0.254621 0.285714 -0.347522
v -0.238730 0.285714 -0.377884
v -0.218733 0.285714 -0.405249
v -0.194821 0.285714 -0.429464
v -0.167190 0.285714 -0.450376
v -0.136032 0.285714 -0.467831
v -0.101540 0.285714 -0.481674
v -0.063909 0.285714 -0.491753
v -0.023331 0.285714 -0.497913
v 0.020000 0.285714 -0.500000
v 0.038568 0.285714 -0.499524
v 0.057116 0.285714 -0.498095
v 0.075625 0.285714 -0.495714
v 0.094074 0.285714 -0.492381
v 0.112444 0.285714 -0.488095
v 0.130714 0.285714 -0.482857
v 0.148866 0.285714 -0.476667
v 0.166878 0.285714 -0.469524
v 0.184732 0.285714 -0.461429
v 0.202407 0.285714 -0.452381
v 0.219884 0.285714 -0.442381
v 0.237143 0.285714 -0.431428
v 0.237143 0.285714 -0.272857
v 0.216495 -0.285714 -0.291358
v 0.196005 -0.285714 -0.307652
v 0.175714 -0.285714 -0.321853
v 0.155661 -0.285714 -0.334074
v 0.135886 -0.285714 -0.344430
v 0.116429 -0.285714 -0.353036
v 0.097328 -0.285714 -0.360004
v 0.078624 -0.285714 -0.365450
v 0.060357 -0.285714 -0.369487
v 0.042566 -0.285714 -0.372229
v 0.025291 -0.285714 -0.373791
v 0.008571 -0.285714 -0.374286
v -0.013371 -0.285714 -0.373318
v -0.034107 -0.285714 -0.370476
v -0.053504 -0.285714 -0.365848
v -0.071429 -0.285714 -0.359524
v -0.087746 -0.285714 -0.351592
v -0.102321 -0.285714 -0.342143
v -0.115022 -0.285714 -0.331265
v -0.125714 -0.285714 -0.319048
v -0.134263 -0.285714 -0.305580
v -0.140536 -0.285714 -0.290952
v -0.144397 -0.285714 -0.275253
v -0.145714 -0.285714 -0.258571
v -0.137422 -0.285714 -0.215453
v -0.114497 -0.285714 -0.178505
v -0.079866 -0.285714 -0.145982
v -0.036455 -0.285714 -0.116138
v 0.012809 -0.285714 -0.087226
v 0.065000 -0.285714 -0.057500
v 0.117191 -0.285714 -0.025215
v 0.166455 -0.285714 0.011376
v 0.209866 -0.285714 0.054018
v 0.244497 -0.285714 0.104458
v 0.267422 -0.285714 0.164441
v 0.275714 -0.285714 0.235714
v 0.273347 -0.285714 0.273025
v 0.266415 -0.285714 0.308366
v 0.255179 -0.285714 0.341496
v 0.239894 -0.285714 0.372169
v 0.220820 -0.285714 0.400145
v 0.198214 -0.285714 0.425179
v 0.172335 -0.285714 0.447028
v 0.143439 -0.285714 0.465450
v 0.111786 -0.285714 0.480201
v 0.077632 -0.285714 0.491038
v 0.041237 -0.285714 0.497719
v 0.002857 -0.285714 0.500000
v -0.023164 -0.285714 0.499402
v -0.048406 -0.285714 0.497599
v -0.072924 -0.285714 0.494576
v -0.096772 -0.285714 0.490317
v -0.120006 -0.285714 0.484809
v -0.142679 -0.285714 0.478036
v -0.164845 -0.285714 0.469983
v -0.186561 -0.285714 0.460635
v -0.207879 -0.285714 0.449978
v -0.228856 -0.285714 0.437996
v -0.249544 -0.285714 0.424675
v -0.270000 -0.285714 0.410000
v -0.270000 -0.285714 0.232857
v -0.251763 -0.285714 0.254846
v -0.232798 -0.285714 0.275079
v -0.213147 -0.285714 0.293527
v -0.192857 -0.285714 0.310159
v -0.171972 -0.285714 0.324945
v -0.150536 -0.285714 0.337857
v -0.128594 -0.285714 0.348864
v -0.106190 -0.285714 0.357937
v -0.083371 -0.285714 0.365045
v -0.060179 -0.285714 0.370159
v -0.036659 -0.285714 0.373249
v -0.012857 -0.285714 0.374286
v 0.013070 -0.285714 0.372905
v 0.036587 -0.285714 0.368955
v 0.057723 -0.285714 0.362723
v 0.076508 -0.285714 0.354497
v 0.092971 -0.285714 0.344565
v 0.107143 -0.285714 0.333214
v 0.119053 -0.285714 0.320732
v 0.128730 -0.285714 0.307407
v 0.136205 -0.285714 0.293527
v 0.141508 -0.285714 0.279378
v 0.144668 -0.285714 0.265250
v 0.145714 -0.285714 0.251429
v 0.137422 -0.285714 0.204547
v 0.114497 -0.285714 0.163638
v 0.079866 -0.285714 0.127232
v 0.036455 -0.285714 0.093862
v -0.012809 -0.285714 0.062060
v -0.065000 -0.285714 0.030357
v -0.117191 -0.285714 -0.002715
v -0.166455 -0.285714 -0.038624
v -0.209866 -0.285714 -0.078839
v -0.244497 -0.285714 -0.124828
v -0.267422 -0.285714 -0.178059
v -0.275714 -0.285714 -0.240000
v -0.273306 -0.285714 -0.278427
v -0.266210 -0.285714 -0.314319
v -0.254621 -0.285714 -0.347522
v -0.238730 -0.285714 -0.377884
v -0.218733 -0.285714 -0.405249
v -0.194821 -0.285714 -0.429464
v -0.167190 -0.285714 -0.450376
v -0.136032 -0.285714 -0.467831
v -0.101540 -0.285714 -0.481674
v -0.063909 -0.285714 -0.491753
v -0.023331 -0.285714 -0.497913
v 0.020000 -0.285714 -0.500000
v 0.038568 -0.285714 -0.499524
v 0.057116 -0.285714 -0.498095
v 0.075625 -0.285714 -0.495714
v 0.094074 -0.285714 -0.492381
v 0.112444 -0.285714 -0.488095
v 0.130714 -0.285714 -0.482857
v 0.148866 -0.285714 -0.476667
v 0.166878 -0.285714 -0.469524
v 0.184732 -0.285714 -0.461429
v 0.202407 -0.285714 -0.452381
v 0.219884 -0.285714 -0.442381
v 0.237143 -0.285714 -0.431428
v 0.237143 -0.285714 -0.272857
v 0.216495 -0.285714 -0.291358
v 0.216495 0.285714 -0.291358
v 0.196005 -0.285714 -0.307652
v 0.196005 0.285714 -0.307652
v 0.175714 -0.285714 -0.321853
v 0.175714 0.285714 -0.321853
v 0.155661 -0.285714 -0.334074
v 0.155661 0.285714 -0.334074
v 0.135886 -0.285714 -0.344430
v 0.135886 0.285714 -0.344430
v 0.116429 -0.285714 -0.353036
v 0.116429 0.285714 -0.353036
v 0.097328 -0.285714 -0.360004
v 0.097328 0.285714 -0.360004
v 0.078624 -0.285714 -0.365450
v 0.078624 0.285714 -0.365450
v 0.060357 -0.285714 -0.369487
v 0.060357 0.285714 -0.369487
v 0.042566 -0.285714 -0.372229
v 0.042566 0.285714 -0.372229
v 0.025291 -0.285714 -0.373791
v 0.025291 0.285714 -0.373791
v 0.008571 -0.285714 -0.374286
v 0.008571 0.285714 -0.374286
v -0.013371 -0.285714 -0.373318
v -0.013371 0.285714 -0.373318
v -0.034107 -0.285714 -0.370476
v -0.034107 0.285714 -0.370476
v -0.053504 -0.285714 -0.365848
v -0.053504 0.285714 -0.365848
v -0.071429 -0.285714 -0.359524
v -0.071429 0.285714 -0.359524
v -0.087746 -0.285714 -0.351592
v -0.087746 0.285714 -0.351592
v -0.102321 -0.285714 -0.342143
v -0.102321 0.285714 -0.342143
v -0.115022 -0.285714 -0.331265
v -0.115022 0.285714 -0.331265
v -0.125714 -0.285714 -0.319048
v -0.125714 0.285714 -0.319048
v -0.134263 -0.285714 -0.305580
v -0.134263 0.285714 -0.305580
v -0.140536 -0.285714 -0.290952
v -0.140536 0.285714 -0.290952
v -0.144397 -0.285714 -0.275253
v -0.144397 0.285714 -0.275253
v -0.145714 -0.285714 -0.258571
v -0.145714 0.285714 -0.258571
v -0.137422 -0.285714 -0.215453
v -0.137422 0.285714 -0.215453
v -0.114497 -0.285714 -0.178505
v -0.114497 0.285714 -0.178505
v -0.079866 -0.285714 -0.145982
v -0.079866 0.285714 -0.145982
v -0.036455 -0.285714 -0.116138
v -0.036455 0.285714 -0.116138
v 0.012809 -0.285714 -0.087226
v 0.012809 0.285714 -0.087226
v 0.065000 -0.285714 -0.057500
v 0.065000 0.285714 -0.057500
v 0.117191 -0.285714 -0.025215
v 0.117191 0.285714 -0.025215
v 0.166455 -0.285714 0.011376
v 0.166455 0.285714 0.011376
v 0.209866 -0.285714 0.054018
v 0.209866 0.285714 0.054018
v 0.244497 -0.285714 0.104458
v 0.244497 0.285714 0.104458
v 0.267422 -0.285714 0.164441
v 0.267422 0.285714 0.164441
v 0.275714 -0.285714 0.235714
v 0.275714 0.285714 0.235714
v 0.273347 -0.285714 0.273025
v 0.273347 0.285714 0.273025
v 0.266415 -0.285714 0.308366
v 0.266415 0.285714 0.308366
v 0.255179 -0.285714 0.341496
v 0.255179 0.285714 0.341496
v 0.239894 -0.285714 0.372169
v 0.239894 0.285714 0.372169
v 0.220820 -0.285714 0.400145
v 0.220820 0.285714 0.400145
v 0.198214 -0.285714 0.425179
v 0.198214 0.285714 0.425179
v 0.172335 -0.285714 0.447028
v 0.172335 0.285714 0.447028
v 0.143439 -0.285714 0.465450
v 0.143439 0.285714 0.465450
v 0.111786 -0.285714 0.480201
v 0.111786 0.285714 0.480201
v 0.077632 -0.285714 0.491038
v 0.077632 0.285714 0.491038
v 0.041237 -0.285714 0.497719
v 0.041237 0.285714 0.497719
v 0.002857 -0.285714 0.500000
v 0.002857 0.285714 0.500000
v -0.023164 -0.285714 0.499402
v -0.023164 0.285714 0.499402
v -0.048406 -0.285714 0.497599
v -0.048406 0.285714 0.497599
v -0.072924 -0.285714 0.494576
v -0.072924 0.285714 0.494576
v -0.096772 -0.285714 0.490317
v -0.096772 0.285714 0.490317
v -0.120006 -0.285714 0.484809
v -0.120006 0.285714 0.484809
v -0.142679 -0.285714 0.478036
v -0.142679 0.285714 0.478036
v -0.164845 -0.285714 0.469983
v -0.164845 0.285714 0.469983
v -0.186561 -0.285714 0.460635
v -0.186561 0.285714 0.460635
v -0.207879 -0.285714 0.449978
v -0.207879 0.285714 0.449978
v -0.228856 -0.285714 0.437996
v -0.228856 0.285714 0.437996
v -0.249544 -0.285714 0.424675
v -0.249544 0.285714 0.424675
v -0.270000 -0.285714 0.410000
v -0.270000 0.285714 0.410000
v -0.270000 -0.285714 0.232857
v -0.270000 0.285714 0.232857
v -0.251763 -0.285714 0.254846
v -0.251763 0.285714 0.254846
v -0.232798 -0.285714 0.275079
v -0.232798 0.285714 0.275079
v -0.213147 -0.285714 0.293527
v -0.213147 0.285714 0.293527
v -0.192857 -0.285714 0.310159
v -0.192857 0.285714 0.310159
v -0.171972 -0.285714 0.324945
v -0.171972 0.285714 0.324945
v -0.150536 -0.285714 0.337857
v -0.150536 0.285714 0.337857
v -0.128594 -0.285714 0.348864
v -0.128594 0.285714 0.348864
v -0.106190 -0.285714 0.357937
v -0.106190 0.285714 0.357937
v -0.083371 -0.285714 0.365045
v -0.083371 0.285714 0.365045
v -0.060179 -0.285714 0.370159
v -0.060179 0.285714 0.370159
v -0.036659 -0.285714 0.373249
v -0.036659 0.285714 0.373249
v -0.012857 -0.285714 0.374286
v -0.012857 0.285714 0.374286
v 0.013070 -0.285714 0.372905
v 0.013070 0.285714 0.372905
v 0.036587 -0.285714 0.368955
v 0.036587 0.285714 0.368955
v 0.057723 -0.285714 0.362723
v 0.057723 0.285714 0.362723
v 0.076508 -0.285714 0.354497
v 0.076508 0.285714 0.354497
v 0.092971 -0.285714 0.344565
v 0.092971 0.285714 0.344565
v 0.107143 -0.285714 0.333214
v 0.107143 0.285714 0.333214
v 0.119053 -0.285714 0.320732
v 0.119053 0.285714 0.320732
v 0.128730 -0.285714 0.307407
v 0.128730 0.285714 0.307407
v 0.136205 -0.285714 0.293527
v 0.136205 0.285714 0.293527
v 0.141508 -0.285714 0.279378
v 0.141508 0.285714 0.279378
v 0.144668 -0.285714 0.265250
v 0.144668 0.285714 0.265250
v 0.145714 -0.285714 0.251429
v 0.145714 0.285714 0.251429
v 0.137422 -0.285714 0.204547
v 0.137422 0.285714 0.204547
v 0.114497 -0.285714 0.163638
v 0.114497 0.285714 0.163638
v 0.079866 -0.285714 0.127232
v 0.079866 0.285714 0.127232
v 0.036455 -0.285714 0.093862
v 0.036455 0.285714 0.093862
v -0.012809 -0.285714 0.062060
v -0.012809 0.285714 0.062060
v -0.065000 -0.285714 0.030357
v -0.065000 0.285714 0.030357
v -0.117191 -0.285714 -0.002715
v -0.117191 0.285714 -0.002715
v -0.166455 -0.285714 -0.038624
v -0.166455 0.285714 -0.038624
v -0.209866 -0.285714 -0.078839
v -0.209866 0.285714 -0.078839
v -0.244497 -0.285714 -0.124828
v -0.244497 0.285714 -0.124828
v -0.267422 -0.285714 -0.178059
v -0.267422 0.285714 -0.178059
v -0.275714 -0.285714 -0.240000
v -0.275714 0.285714 -0.240000
v -0.273306 -0.285714 -0.278427
v -0.273306 0.285714 -0.278427
v -0.266210 -0.285714 -0.314319
v -0.266210 0.285714 -0.314319
v -0.254621 -0.285714 -0.347522
v -0.254621 0.285714 -0.347522
v -0.238730 -0.285714 -0.377884
v -0.238730 0.285714 -0.377884
v -0.218733 -0.285714 -0.405249
v -0.218733 0.285714 -0.405249
v -0.194821 -0.285714 -0.429464
v -0.194821 0.285714 -0.429464
v -0.167190 -0.285714 -0.450376
v -0.167190 0.285714 -0.450376
v -0.136032 -0.285714 -0.467831
v -0.136032 0.285714 -0.467831
v -0.101540 -0.285714 -0.481674
v -0.101540 0.285714 -0.481674
v -0.063909 -0.285714 -0.491753
v -0.063909 0.285714 -0.491753
v -0.023331 -0.285714 -0.497913
v -0.023331 0.285714 -0.497913
v 0.020000 -0.285714 -0.500000
v 0.020000 0.285714 -0.500000
v 0.038568 -0.285714 -0.499524
v 0.038568 0.285714 -0.499524
v 0.057116 -0.285714 -0.498095
v 0.057116 0.285714 -0.498095
v 0.075625 -0.285714 -0.495714
v 0.075625 0.285714 -0.495714
v 0.094074 -0.285714 -0.492381
v 0.094074 0.285714 -0.492381
v 0.112444 -0.285714 -0.488095
v 0.112444 0.285714 -0.488095
v 0.130714 -0.285714 -0.482857
v 0.130714 0.285714 -0.482857
v 0.148866 -0.285714 -0.476667
v 0.148866 0.285714 -0.476667
v 0.166878 -0.285714 -0.469524
v 0.166878 0.285714 -0.469524
v 0.184732 -0.285714 -0.461429
v 0.184732 0.285714 -0.461429
v 0.202407 -0.285714 -0.452381
v 0.202407 0.285714 -0.452381
v 0.219884 -0.285714 -0.442381
v 0.219884 0.285714 -0.442381
v 0.237143 -0.285714 -0.431428
v 0.237143 0.285714 -0.431428
v 0.237143 -0.285714 -0.272857
v 0.237143 0.285714 -0.272857
vn -0.0000 1.0000 -0.0000
vn -0.0001 1.0000 -0.0000
vn -0.0000 -1.0000 -0.0000
vn -0.0001 -1.0000 -0.0000
vn -0.5982 -0.0000 0.8014
vn -0.6451 -0.0000 0.7641
vn -0.5472 -0.0000 0.8370
vn -0.4924 -0.0000 0.8703
vn -0.4344 -0.0000 0.9007
vn -0.3738 -0.0000 0.9275
vn -0.3113 -0.0000 0.9503
vn -0.2478 -0.0000 0.9688
vn -0.1842 -0.0000 0.9829
vn -0.1212 -0.0000 0.9926
vn -0.0598 -0.0000 0.9982
vn 0.0072 -0.0000 1.0000
vn 0.0900 -0.0000 0.9959
vn 0.1842 -0.0000 0.9829
vn 0.2828 -0.0000 0.9592
vn 0.3856 -0.0000 0.9227
vn 0.4915 -0.0000 0.8709
vn 0.5986 -0.0000 0.8011
vn 0.7033 -0.0000 0.7109
vn 0.8007 -0.0000 0.5990
vn 0.8845 -0.0000 0.4665
vn 0.9482 -0.0000 0.3175
vn 0.9872 -0.0000 0.1593
vn 0.9985 -0.0000 -0.0556
vn 0.9314 -0.0000 -0.3641
vn 0.7737 -0.0000 -0.6335
vn 0.6274 -0.0000 -0.7787
vn 0.5367 -0.0000 -0.8438
vn 0.5005 -0.0000 -0.8657
vn 0.5106 -0.0000 -0.8598
vn 0.5617 -0.0000 -0.8274
vn 0.6501 -0.0000 -0.7599
vn 0.7661 -0.0000 -0.6427
vn 0.8854 -0.0000 -0.4648
vn 0.9712 -0.0000 -0.2381
vn 0.9997 -0.0000 -0.0262
vn 0.9918 -0.0000 0.1282
vn 0.9663 -0.0000 0.2574
vn 0.9231 -0.0000 0.3845
vn 0.8626 -0.0000 0.5058
vn 0.7860 -0.0000 0.6182
vn 0.6952 -0.0000 0.7188
vn 0.5927 -0.0000 0.8055
vn 0.4810 -0.0000 0.8767
vn 0.3632 -0.0000 0.9317
vn 0.2420 -0.0000 0.9703
vn 0.1202 -0.0000 0.9928
vn 0.0182 -0.0000 0.9998
vn -0.0471 -0.0000 0.9989
vn -0.0968 -0.0000 0.9953
vn -0.1491 -0.0000 0.9888
vn -0.2033 -0.0000 0.9791
vn -0.2586 -0.0000 0.9660
vn -0.3140 -0.0000 0.9494
vn -0.3686 -0.0000 0.9296
vn -0.4214 -0.0000 0.9069
vn -0.4717 -0.0000 0.8817
vn -0.5189 -0.0000 0.8549
vn -0.5623 -0.0000 0.8269
vn -0.8896 -0.0000 0.4567
vn -0.3393 -0.0000 -0.9407
vn 0.7500 -0.0000 -0.6614
vn 0.7074 -0.0000 -0.7068
vn 0.6596 -0.0000 -0.7516
vn 0.6063 -0.0000 -0.7953
vn 0.5473 -0.0000 -0.8370
vn 0.4825 -0.0000 -0.8759
vn 0.4122 -0.0000 -0.9111
vn 0.3367 -0.0000 -0.9416
vn 0.2566 -0.0000 -0.9665
vn 0.1730 -0.0000 -0.9849
vn 0.0870 -0.0000 -0.9962
vn -0.0048 -0.0000 -1.0000
vn -0.1096 -0.0000 -0.9940
vn -0.2246 -0.0000 -0.9744
vn -0.3426 -0.0000 -0.9395
vn -0.4598 -0.0000 -0.8880
vn -0.5721 -0.0000 -0.8202
vn -0.6758 -0.0000 -0.7371
vn -0.7680 -0.0000 -0.6404
vn -0.8467 -0.0000 -0.5321
vn -0.9105 -0.0000 -0.4135
vn -0.9584 -0.0000 -0.2853
vn -0.9891 -0.0000 -0.1473
vn -0.9988 -0.0000 0.0497
vn -0.9418 -0.0000 0.3362
vn -0.8047 -0.0000 0.5937
vn -0.6690 -0.0000 0.7433
vn -0.5764 -0.0000 0.8172
vn -0.5308 -0.0000 0.8475
vn -0.5272 -0.0000 0.8497
vn -0.5624 -0.0000 0.8268
vn -0.6354 -0.0000 0.7722
vn -0.7422 -0.0000 0.6702
vn -0.8648 -0.0000 0.5021
vn -0.9638 -0.0000 0.2666
vn -0.9994 -0.0000 0.0352
vn -0.9917 -0.0000 -0.1285
vn -0.9650 -0.0000 -0.2624
vn -0.9175 -0.0000 -0.3977
vn -0.8490 -0.0000 -0.5283
vn -0.7616 -0.0000 -0.6481
vn -0.6592 -0.0000 -0.7519
vn -0.5474 -0.0000 -0.8369
vn -0.4315 -0.0000 -0.9021
vn -0.3162 -0.0000 -0.9487
vn -0.2047 -0.0000 -0.9788
vn -0.0992 -0.0000 -0.9951
vn -0.0112 -0.0000 -0.9999
vn 0.0512 -0.0000 -0.9987
vn 0.1022 -0.0000 -0.9948
vn 0.1527 -0.0000 -0.9883
vn 0.2026 -0.0000 -0.9793
vn 0.2515 -0.0000 -0.9679
vn 0.2993 -0.0000 -0.9542
vn 0.3458 -0.0000 -0.9383
vn 0.3909 -0.0000 -0.9204
vn 0.4344 -0.0000 -0.9007
vn 0.4763 -0.0000 -0.8793
vn 0.5164 -0.0000 -0.8564
vn 0.8763 -0.0000 -0.4818
vn 0.4078 -0.0000 0.9131
vt 0.000000 0.000000
vt 0.008264 0.000000
vt 0.016529 0.000000
vt 0.024793 0.000000
vt 0.033058 0.000000
vt 0.041322 0.000000
vt 0.049587 0.000000
vt 0.057851 0.000000
vt 0.066116 0.000000
vt 0.074380 0.000000
vt 0.082645 0.000000
vt 0.090909 0.000000
vt 0.099174 0.000000
vt 0.107438 0.000000
vt 0.115702 0.000000
vt 0.123967 0.000000
vt 0.132231 0.000000
vt 0.140496 0.000000
vt 0.148760 0.000000
vt 0.157025 0.000000
vt 0.165289 0.000000
vt 0.173554 0.000000
vt 0.181818 0.000000
vt 0.190083 0.000000
vt 0.198347 0.000000
vt 0.206612 0.000000
vt 0.214876 0.000000
vt 0.223140 0.000000
vt 0.231405 0.000000
vt 0.239669 0.000000
vt 0.247934 0.000000
vt 0.256198 0.000000
vt 0.264463 0.000000
vt 0.272727 0.000000
vt 0.280992 0.000000
vt 0.289256 0.000000
vt 0.297521 0.000000
vt 0.305785 0.000000
vt 0.314050 0.000000
vt 0.322314 0.000000
vt 0.330579 0.000000
vt 0.338843 0.000000
vt 0.347107 0.000000
vt 0.355372 0.000000
vt 0.363636 0.000000
vt 0.371901 0.000000
vt 0.380165 0.000000
vt 0.388430 0.000000
vt 0.396694 0.000000
vt 0.404959 0.000000
vt 0.413223 0.000000
vt 0.421488 0.000000
vt 0.429752 0.000000
vt 0.438017 0.000000
vt 0.446281 0.000000
vt 0.454545 0.000000
vt 0.462810 0.000000
vt 0.471074 0.000000
vt 0.479339 0.000000
vt 0.487603 0.000000
vt 0.495868 0.000000
vt 0.504132 0.000000
vt 0.512397 0.000000
vt 0.520661 0.000000
vt 0.528926 0.000000
vt 0.537190 0.000000
vt 0.545455 0.000000
vt 0.553719 0.000000
vt 0.561983 0.000000
vt 0.570248 0.000000
vt 0.578512 0.000000
vt 0.586777 0.000000
vt 0.595041 0.000000
vt 0.603306 0.000000
vt 0.611570 0.000000
vt 0.619835 0.000000
vt 0.628099 0.000000
vt 0.636364 0.000000
vt 0.644628 0.000000
vt 0.652893 0.000000
vt 0.661157 0.000000
vt 0.669421 0.000000
vt 0.677686 0.000000
vt 0.685950 0.000000
vt 0.694215 0.000000
vt 0.702479 0.000000
vt 0.710744 0.000000
vt 0.719008 0.000000
vt 0.727273 0.000000
vt 0.735537 0.000000
vt 0.743802 0.000000
vt 0.752066 0.000000
vt 0.760331 0.000000
vt 0.768595 0.000000
vt 0.776860 0.000000
vt 0.785124 0.000000
vt 0.793388 0.000000
vt 0.801653 0.000000
vt 0.809917 0.000000
vt 0.818182 0.000000
vt 0.826446 0.000000
vt 0.834711 0.000000
vt 0.842975 0.000000
vt 0.851240 0.000000
vt 0.859504 0.000000
vt 0.867769 0.000000
vt 0.876033 0.000000
vt 0.884298 0.000000
vt 0.892562 0.000000
vt 0.900826 0.000000
vt 0.909091 0.000000
vt 0.917355 0.000000
vt 0.925620 0.000000
vt 0.933884 0.000000
vt 0.942149 0.000000
vt 0.950413 0.000000
vt 0.958678 0.000000
vt 0.966942 0.000000
vt 0.975207 0.000000
vt 0.983471 0.000000
vt 0.991736 0.000000
vt 1.000000 0.000000
vt 0.000000 0.000000
vt 0.008264 0.000000
vt 0.016529 0.000000
vt 0.024793 0.000000
vt 0.033058 0.000000
vt 0.041322 0.000000
vt 0.049587 0.000000
vt 0.057851 0.000000
vt 0.066116 0.000000
vt 0.074380 0.000000
vt 0.082645 0.000000
vt 0.090909 0.000000
vt 0.099174 0.000000
vt 0.107438 0.000000
vt 0.115702 0.000000
vt 0.123967 0.000000
vt 0.132231 0.000000
vt 0.140496 0.000000
vt 0.148760 0.000000
vt 0.157025 0.000000
vt 0.165289 0.000000
vt 0.173554 0.000000
vt 0.181818 0.000000
vt 0.190083 0.000000
vt 0.198347 0.000000
vt 0.206612 0.000000
vt 0.214876 0.000000
vt 0.223140 0.000000
vt 0.231405 0.000000
vt 0.239669 0.000000
vt 0.247934 0.000000
vt 0.256198 0.000000
vt 0.264463 0.000000
vt 0.272727 0.000000
vt 0.280992 0.000000
vt 0.289256 0.000000
vt 0.297521 0.000000
vt 0.305785 0.000000
vt 0.314050 0.000000
vt 0.322314 0.000000
vt 0.330579 0.000000
vt 0.338843 0.000000
vt 0.347107 0.000000
vt 0.355372 0.000000
vt 0.363636 0.000000
vt 0.371901 0.000000
vt 0.380165 0.000000
vt 0.388430 0.000000
vt 0.396694 0.000000
vt 0.404959 0.000000
vt 0.413223 0.000000
vt 0.421488 0.000000
vt 0.429752 0.000000
vt 0.438017 0.000000
vt 0.446281 0.000000
vt 0.454545 0.000000
vt 0.462810 0.000000
vt 0.471074 0.000000
vt 0.479339 0.000000
vt 0.487603 0.000000
vt 0.495868 0.000000
vt 0.504132 0.000000
vt 0.512397 0.000000
vt 0.520661 0.000000
vt 0.528926 0.000000
vt 0.537190 0.000000
vt 0.545455 0.000000
vt 0.553719 0.000000
vt 0.561983 0.000000
vt 0.570248 0.000000
vt 0.578512 0.000000
vt 0.586777 0.000000
vt 0.595041 0.000000
vt 0.603306 0.000000
vt 0.611570 0.000000
vt 0.619835 0.000000
vt 0.628099 0.000000
vt 0.636364 0.000000
vt 0.644628 0.000000
vt 0.652893 0.000000
vt 0.661157 0.000000
vt 0.669421 0.000000
vt 0.677686 0.000000
vt 0.685950 0.000000
vt 0.694215 0.000000
vt 0.702479 0.000000
vt 0.710744 0.000000
vt 0.719008 0.000000
vt 0.727273 0.000000
vt 0.735537 0.000000
vt 0.743802 0.000000
vt 0.752066 0.000000
vt 0.760331 0.000000
vt 0.768595 0.000000
vt 0.776860 0.000000
vt 0.785124 0.000000
vt 0.793388 0.000000
vt 0.801653 0.000000
vt 0.809917 0.000000
vt 0.818182 0.000000
vt 0.826446 0.000000
vt 0.834711 0.000000
vt 0.842975 0.000000
vt 0.851240 0.000000
vt 0.859504 0.000000
vt 0.867769 0.000000
vt 0.876033 0.000000
vt 0.884298 0.000000
vt 0.892562 0.000000
vt 0.900826 0.000000
vt 0.909091 0.000000
vt 0.917355 0.000000
vt 0.925620 0.000000
vt 0.933884 0.000000
vt 0.942149 0.000000
vt 0.950413 0.000000
vt 0.958678 0.000000
vt 0.966942 0.000000
vt 0.975207 0.000000
vt 0.983471 0.000000
vt 0.991736 0.000000
vt 1.000000 0.000000
vt 0.000000 0.000000
vt 1.000000 0.000000
vt 0.000000 1.000000
vt 1.000000 1.000000
vt 0.008197 0.000000
vt 0.008197 1.000000
vt 0.016393 0.000000
vt 0.016393 1.000000
vt 0.024590 0.000000
vt 0.024590 1.000000
vt 0.032787 0.000000
vt 0.032787 1.000000
vt 0.040984 0.000000
vt 0.040984 1.000000
vt 0.049180 0.000000
vt 0.049180 1.000000
vt 0.057377 0.000000
vt 0.057377 1.000000
vt 0.065574 0.000000
vt 0.065574 1.000000
vt 0.073770 0.000000
vt 0.073770 1.000000
vt 0.081967 0.000000
vt 0.081967 1.000000
vt 0.090164 0.000000
vt 0.090164 1.000000
vt 0.098361 0.000000
vt 0.098361 1.000000
vt 0.106557 0.000000
vt 0.106557 1.000000
vt 0.114754 0.000000
vt 0.114754 1.000000
vt 0.122951 0.000000
vt 0.122951 1.000000
vt 0.131148 0.000000
vt 0.131148 1.000000
vt 0.139344 0.000000
vt 0.139344 1.000000
vt 0.147541 0.000000
vt 0.147541 1.000000
vt 0.155738 0.000000
vt 0.155738 1.000000
vt 0.163934 0.000000
vt 0.163934 1.000000
vt 0.172131 0.000000
vt 0.172131 1.000000
vt 0.180328 0.000000
vt 0.180328 1.000000
vt 0.188525 0.000000
vt 0.188525 1.000000
vt 0.196721 0.000000
vt 0.196721 1.000000
vt 0.204918 0.000000
vt 0.204918 1.000000
vt 0.213115 0.000000
vt 0.213115 1.000000
vt 0.221311 0.000000
vt 0.221311 1.000000
vt 0.229508 0.000000
vt 0.229508 1.000000
vt 0.237705 0.000000
vt 0.237705 1.000000
vt 0.245902 0.000000
vt 0.245902 1.000000
vt 0.254098 0.000000
vt 0.254098 1.000000
vt 0.262295 0.000000
vt 0.262295 1.000000
vt 0.270492 0.000000
vt 0.270492 1.000000
vt 0.278689 0.000000
vt 0.278689 1.000000
vt 0.286885 0.000000
vt 0.286885 1.000000
vt 0.295082 0.000000
vt 0.295082 1.000000
vt 0.303279 0.000000
vt 0.303279 1.000000
vt 0.311475 0.000000
vt 0.311475 1.000000
vt 0.319672 0.000000
vt 0.319672 1.000000
vt 0.327869 0.000000
vt 0.327869 1.000000
vt 0.336066 0.000000
vt 0.336066 1.000000
vt 0.344262 0.000000
vt 0.344262 1.000000
vt 0.352459 0.000000
vt 0.352459 1.000000
vt 0.360656 0.000000
vt 0.360656 1.000000
vt 0.368852 0.000000
vt 0.368852 1.000000
vt 0.377049 0.000000
vt 0.377049 1.000000
vt 0.385246 0.000000
vt 0.385246 1.000000
vt 0.393443 0.000000
vt 0.393443 1.000000
vt 0.401639 0.000000
vt 0.401639 1.000000
vt 0.409836 0.000000
vt 0.409836 1.000000
vt 0.418033 0.000000
vt 0.418033 1.000000
vt 0.426230 0.000000
vt 0.426230 1.000000
vt 0.434426 0.000000
vt 0.434426 1.000000
vt 0.442623 0.000000
vt 0.442623 1.000000
vt 0.450820 0.000000
vt 0.450820 1.000000
vt 0.459016 0.000000
vt 0.459016 1.000000
vt 0.467213 0.000000
vt 0.467213 1.000000
vt 0.475410 0.000000
vt 0.475410 1.000000
vt 0.483607 0.000000
vt 0.483607 1.000000
vt 0.491803 0.000000
vt 0.491803 1.000000
vt 0.500000 0.000000
vt 0.500000 1.000000
vt 0.508197 0.000000
vt 0.508197 1.000000
vt 0.516393 0.000000
vt 0.516393 1.000000
vt 0.524590 0.000000
vt 0.524590 1.000000
vt 0.532787 0.000000
vt 0.532787 1.000000
vt 0.540984 0.000000
vt 0.540984 1.000000
vt 0.549180 0.000000
vt 0.549180 1.000000
vt 0.557377 0.000000
vt 0.557377 1.000000
vt 0.565574 0.000000
vt 0.565574 1.000000
vt 0.573770 0.000000
vt 0.573770 1.000000
vt 0.581967 0.000000
vt 0.581967 1.000000
vt 0.590164 0.000000
vt 0.590164 1.000000
vt 0.598361 0.000000
vt 0.598361 1.000000
vt 0.606557 0.000000
vt 0.606557 1.000000
vt 0.614754 0.000000
vt 0.614754 1.000000
vt 0.622951 0.000000
vt 0.622951 1.000000
vt 0.631148 0.000000
vt 0.631148 1.000000
vt 0.639344 0.000000
vt 0.639344 1.000000
vt 0.647541 0.000000
vt 0.647541 1.000000
vt 0.655738 0.000000
vt 0.655738 1.000000
vt 0.663934 0.000000
vt 0.663934 1.000000
vt 0.672131 0.000000
vt 0.672131 1.000000
vt 0.680328 0.000000
vt 0.680328 1.000000
vt 0.688525 0.000000
vt 0.688525 1.000000
vt 0.696721 0.000000
vt 0.696721 1.000000
vt 0.704918 0.000000
vt 0.704918 1.000000
vt 0.713115 0.000000
vt 0.713115 1.000000
vt 0.721311 0.000000
vt 0.721311 1.000000
vt 0.729508 0.000000
vt 0.729508 1.000000
vt 0.737705 0.000000
vt 0.737705 1.000000
vt 0.745902 0.000000
vt 0.745902 1.000000
vt 0.754098 0.000000
vt 0.754098 1.000000
vt 0.762295 0.000000
vt 0.762295 1.000000
vt 0.770492 0.000000
vt 0.770492 1.000000
vt 0.778689 0.000000
vt 0.778689 1.000000
vt 0.786885 0.000000
vt 0.786885 1.000000
vt 0.795082 0.000000
vt 0.795082 1.000000
vt 0.803279 0.000000
vt 0.803279 1.000000
vt 0.811475 0.000000
vt 0.811475 1.000000
vt 0.819672 0.000000
vt 0.819672 1.000000
vt 0.827869 0.000000
vt 0.827869 1.000000
vt 0.836066 0.000000
vt 0.836066 1.000000
vt 0.844262 0.000000
vt 0.844262 1.000000
vt 0.852459 0.000000
vt 0.852459 1.000000
vt 0.860656 0.000000
vt 0.860656 1.000000
vt 0.868852 0.000000
vt 0.868852 1.000000
vt 0.877049 0.000000
vt 0.877049 1.000000
vt 0.885246 0.000000
vt 0.885246 1.000000
vt 0.893443 0.000000
vt 0.893443 1.000000
vt 0.901639 0.000000
vt 0.901639 1.000000
vt 0.909836 0.000000
vt 0.909836 1.000000
vt 0.918033 0.000000
vt 0.918033 1.000000
vt 0.926230 0.000000
vt 0.926230 1.000000
vt 0.934426 0.000000
vt 0.934426 1.000000
vt 0.942623 0.000000
vt 0.942623 1.000000
vt 0.950820 0.000000
vt 0.950820 1.000000
vt 0.959016 0.000000
vt 0.959016 1.000000
vt 0.967213 0.000000
vt 0.967213 1.000000
vt 0.975410 0.000000
vt 0.975410 1.000000
vt 0.983607 0.000000
vt 0.983607 1.000000
vt 0.991803 0.000000
vt 0.991803 1.000000
s 0
f 108/108/1 110/110/1 109/109/1
f 108/108/1 111/111/1 110/110/1
f 108/108/1 112/112/1 111/111/1
f 107/107/1 112/112/1 108/108/1
f 107/107/1 113/113/1 112/112/1
f 107/107/1 114/114/1 113/113/1
f 106/106/1 114/114/1 107/107/1
f 106/106/1 115/115/1 114/114/1
f 106/106/1 116/116/1 115/115/1
f 105/105/1 116/116/1 106/106/1
f 105/105/1 117/117/1 116/116/1
f 105/105/1 118/118/1 117/117/1
f 104/104/1 118/118/1 105/105/1
f 104/104/1 119/119/1 118/118/1
f 104/104/1 120/120/1 119/119/1
f 103/103/1 120/120/1 104/104/1
f 103/103/1 121/121/1 120/120/1
f 103/103/1 8/8/1 121/121/1
f 8/8/1 7/7/1 121/121/1
f 7/7/1 6/6/1 121/121/1
f 6/6/1 5/5/1 121/121/1
f 5/5/1 4/4/1 121/121/1
f 4/4/1 3/3/1 121/121/1
f 3/3/1 2/2/1 121/121/1
f 2/2/1 1/1/1 121/121/1
f 1/1/1 122/122/1 121/121/1
f 102/102/1 10/10/1 103/103/1
f 10/10/1 9/9/1 103/103/1
f 9/9/2 8/8/2 103/103/2
f 101/101/1 12/12/1 102/102/1
f 12/12/1 11/11/1 102/102/1
f 11/11/1 10/10/1 102/102/1
f 100/100/1 13/13/1 101/101/1
f 13/13/1 12/12/1 101/101/1
f 100/100/1 14/14/1 13/13/1
f 100/100/1 15/15/1 14/14/1
f 100/100/1 16/16/1 15/15/1
f 100/100/1 17/17/1 16/16/1
f 100/100/1 18/18/1 17/17/1
f 99/99/1 18/18/1 100/100/1
f 99/99/1 19/19/1 18/18/1
f 99/99/1 20/20/1 19/19/1
f 99/99/1 21/21/1 20/20/1
f 98/98/1 21/21/1 99/99/1
f 98/98/1 22/22/1 21/21/1
f 98/98/1 23/23/1 22/22/1
f 97/97/1 23/23/1 98/98/1
f 97/97/1 24/24/1 23/23/1
f 97/97/1 25/25/1 24/24/1
f 96/96/1 25/25/1 97/97/1
f 96/96/1 26/26/1 25/25/1
f 96/96/1 27/27/1 26/26/1
f 95/95/1 27/27/1 96/96/1
f 95/95/1 28/28/1 27/27/1
f 94/94/1 28/28/1 95/95/1
f 94/94/1 29/29/1 28/28/1
f 94/94/1 30/30/1 29/29/1
f 93/93/1 30/30/1 94/94/1
f 93/93/1 31/31/1 30/30/1
f 92/92/1 31/31/1 93/93/1
f 92/92/1 32/32/1 31/31/1
f 91/91/1 32/32/1 92/92/1
f 91/91/1 33/33/1 32/32/1
f 90/90/1 33/33/1 91/91/1
f 90/90/1 34/34/1 33/33/1
f 89/89/1 34/34/1 90/90/1
f 88/88/1 34/34/1 89/89/1
f 88/88/1 35/35/1 34/34/1
f 87/87/1 35/35/1 88/88/1
f 86/86/1 35/35/1 87/87/1
f 86/86/1 36/36/1 35/35/1
f 85/85/1 36/36/1 86/86/1
f 60/60/1 62/62/1 61/61/1
f 85/85/1 37/37/1 36/36/1
f 84/84/1 37/37/1 85/85/1
f 60/60/1 63/63/1 62/62/1
f 83/83/1 37/37/1 84/84/1
f 83/83/1 38/38/1 37/37/1
f 60/60/1 64/64/1 63/63/1
f 82/82/1 38/38/1 83/83/1
f 60/60/1 65/65/1 64/64/1
f 81/81/1 38/38/1 82/82/1
f 80/80/1 38/38/1 81/81/1
f 80/80/1 39/39/1 38/38/1
f 60/60/1 66/66/1 65/65/1
f 79/79/1 39/39/1 80/80/1
f 60/60/1 67/67/1 66/66/1
f 78/78/1 39/39/1 79/79/1
f 60/60/1 68/68/1 67/67/1
f 78/78/1 40/40/1 39/39/1
f 77/77/1 40/40/1 78/78/1
f 60/60/1 69/69/1 68/68/1
f 76/76/1 40/40/1 77/77/1
f 60/60/1 70/70/1 69/69/1
f 75/75/1 40/40/1 76/76/1
f 60/60/1 71/71/1 70/70/1
f 74/74/1 40/40/1 75/75/1
f 60/60/1 72/72/1 71/71/1
f 74/74/1 41/41/1 40/40/1
f 73/73/1 41/41/1 74/74/1
f 60/60/1 73/73/1 72/72/1
f 60/60/1 41/41/1 73/73/1
f 60/60/1 42/42/1 41/41/1
f 59/59/1 42/42/1 60/60/1
f 58/58/1 42/42/1 59/59/1
f 58/58/1 43/43/1 42/42/1
f 57/57/1 43/43/1 58/58/1
f 57/57/1 44/44/1 43/43/1
f 56/56/1 44/44/1 57/57/1
f 55/55/1 44/44/1 56/56/1
f 55/55/1 45/45/1 44/44/1
f 54/54/1 45/45/1 55/55/1
f 53/53/1 45/45/1 54/54/1
f 53/53/1 46/46/1 45/45/1
f 52/52/1 46/46/1 53/53/1
f 51/51/1 46/46/1 52/52/1
f 51/51/1 47/47/1 46/46/1
f 50/50/1 47/47/1 51/51/1
f 49/49/1 47/47/1 50/50/1
f 49/49/1 48/48/1 47/47/1
f 230/230/3 231/231/3 232/232/3
f 230/230/3 232/232/3 233/233/3
f 230/230/3 233/233/3 234/234/3
f 229/229/3 230/230/3 234/234/3
f 229/229/3 234/234/3 235/235/3
f 229/229/3 235/235/3 236/236/3
f 228/228/3 229/229/3 236/236/3
f 228/228/3 236/236/3 237/237/3
f 228/228/3 237/237/3 238/238/3
f 227/227/3 228/228/3 238/238/3
f 227/227/3 238/238/3 239/239/3
f 227/227/3 239/239/3 240/240/3
f 226/226/3 227/227/3 240/240/3
f 226/226/3 240/240/3 241/241/3
f 226/226/3 241/241/3 242/242/3
f 225/225/3 226/226/3 242/242/3
f 225/225/3 242/242/3 243/243/3
f 225/225/3 243/243/3 130/130/3
f 130/130/3 243/243/3 129/129/3
f 129/129/3 243/243/3 128/128/3
f 128/128/3 243/243/3 127/127/3
f 127/127/3 243/243/3 126/126/3
f 126/126/3 243/243/3 125/125/3
f 125/125/3 243/243/3 124/124/3
f 124/124/3 243/243/3 123/123/3
f 123/123/3 243/243/3 244/244/3
f 224/224/3 225/225/3 132/132/3
f 132/132/3 225/225/3 131/131/3
f 131/131/4 225/225/4 130/130/4
f 223/223/3 224/224/3 134/134/3
f 134/134/3 224/224/3 133/133/3
f 133/133/3 224/224/3 132/132/3
f 222/222/3 223/223/3 135/135/3
f 135/135/3 223/223/3 134/134/3
f 222/222/3 135/135/3 136/136/3
f 222/222/3 136/136/3 137/137/3
f 222/222/3 137/137/3 138/138/3
f 222/222/3 138/138/3 139/139/3
f 222/222/3 139/139/3 140/140/3
f 221/221/3 222/222/3 140/140/3
f 221/221/3 140/140/3 141/141/3
f 221/221/3 141/141/3 142/142/3
f 221/221/3 142/142/3 143/143/3
f 220/220/3 221/221/3 143/143/3
f 220/220/3 143/143/3 144/144/3
f 220/220/3 144/144/3 145/145/3
f 219/219/3 220/220/3 145/145/3
f 219/219/3 145/145/3 146/146/3
f 219/219/3 146/146/3 147/147/3
f 218/218/3 219/219/3 147/147/3
f 218/218/3 147/147/3 148/148/3
f 218/218/3 148/148/3 149/149/3
f 217/217/3 218/218/3 149/149/3
f 217/217/3 149/149/3 150/150/3
f 216/216/3 217/217/3 150/150/3
f 216/216/3 150/150/3 151/151/3
f 216/216/3 151/151/3 152/152/3
f 215/215/3 216/216/3 152/152/3
f 215/215/3 152/152/3 153/153/3
f 214/214/3 215/215/3 153/153/3
f 214/214/3 153/153/3 154/154/3
f 213/213/3 214/214/3 154/154/3
f 213/213/3 154/154/3 155/155/3
f 212/212/3 213/213/3 155/155/3
f 212/212/3 155/155/3 156/156/3
f 211/211/3 212/212/3 156/156/3
f 210/210/3 211/211/3 156/156/3
f 210/210/3 156/156/3 157/157/3
f 209/209/3 210/210/3 157/157/3
f 208/208/3 209/209/3 157/157/3
f 208/208/3 157/157/3 158/158/3
f 207/207/3 208/208/3 158/158/3
f 182/182/3 183/183/3 184/184/3
f 207/207/3 158/158/3 159/159/3
f 206/206/3 207/207/3 159/159/3
f 182/182/3 184/184/3 185/185/3
f 205/205/3 206/206/3 159/159/3
f 205/205/3 159/159/3 160/160/3
f 182/182/3 185/185/3 186/186/3
f 204/204/3 205/205/3 160/160/3
f 182/182/3 186/186/3 187/187/3
f 203/203/3 204/204/3 160/160/3
f 202/202/3 203/203/3 160/160/3
f 202/202/3 160/160/3 161/161/3
f 182/182/3 187/187/3 188/188/3
f 201/201/3 202/202/3 161/161/3
f 182/182/3 188/188/3 189/189/3
f 200/200/3 201/201/3 161/161/3
f 182/182/3 189/189/3 190/190/3
f 200/200/3 161/161/3 162/162/3
f 199/199/3 200/200/3 162/162/3
f 182/182/3 190/190/3 191/191/3
f 198/198/3 199/199/3 162/162/3
f 182/182/3 191/191/3 192/192/3
f 197/197/3 198/198/3 162/162/3
f 182/182/3 192/192/3 193/193/3
f 196/196/3 197/197/3 162/162/3
f 182/182/3 193/193/3 194/194/3
f 196/196/3 162/162/3 163/163/3
f 195/195/3 196/196/3 163/163/3
f 182/182/3 194/194/3 195/195/3
f 182/182/3 195/195/3 163/163/3
f 182/182/3 163/163/3 164/164/3
f 181/181/3 182/182/3 164/164/3
f 180/180/3 181/181/3 164/164/3
f 180/180/3 164/164/3 165/165/3
f 179/179/3 180/180/3 165/165/3
f 179/179/3 165/165/3 166/166/3
f 178/178/3 179/179/3 166/166/3
f 177/177/3 178/178/3 166/166/3
f 177/177/3 166/166/3 167/167/3
f 176/176/3 177/177/3 167/167/3
f 175/175/3 176/176/3 167/167/3
f 175/175/3 167/167/3 168/168/3
f 174/174/3 175/175/3 168/168/3
f 173/173/3 174/174/3 168/168/3
f 173/173/3 168/168/3 169/169/3
f 172/172/3 173/173/3 169/169/3
f 171/171/3 172/172/3 169/169/3
f 171/171/3 169/169/3 170/170/3
s 1
f 248/250/5 245/245/6 246/247/6
f 250/252/7 247/249/5 248/250/5
f 252/254/8 249/251/7 250/252/7
f 254/256/9 251/253/8 252/254/8
f 256/258/10 253/255/9 254/256/9
f 258/260/11 255/257/10 256/258/10
f 260/262/12 257/259/11 258/260/11
f 262/264/13 259/261/12 260/262/12
f 264/266/14 261/263/13 262/264/13
f 266/268/15 263/265/14 264/266/14
f 268/270/16 265/267/15 266/268/15
f 270/272/17 267/269/16 268/270/16
f 272/274/18 269/271/17 270/272/17
f 274/276/19 271/273/18 272/274/18
f 276/278/20 273/275/19 274/276/19
f 278/280/21 275/277/20 276/278/20
f 280/282/22 277/279/21 278/280/21
f 282/284/23 279/281/22 280/282/22
f 284/286/24 281/283/23 282/284/23
f 286/288/25 283/285/24 284/286/24
f 288/290/26 285/287/25 286/288/25
f 290/292/27 287/289/26 288/290/26
f 292/294/28 289/291/27 290/292/27
f 294/296/29 291/293/28 292/294/28
f 296/298/30 293/295/29 294/296/29
f 298/300/31 295/297/30 296/298/30
f 300/302/32 297/299/31 298/300/31
f 302/304/33 299/301/32 300/302/32
f 304/306/34 301/303/33 302/304/33
f 306/308/35 303/305/34 304/306/34
f 308/310/36 305/307/35 306/308/35
f 310/312/37 307/309/36 308/310/36
f 312/314/38 309/311/37 310/312/37
f 314/316/39 311/313/38 312/314/38
f 316/318/40 313/315/39 314/316/39
f 318/320/41 315/317/40 316/318/40
f 320/322/42 317/319/41 318/320/41
f 322/324/43 319/321/42 320/322/42
f 324/326/44 321/323/43 322/324/43
f 326/328/45 323/325/44 324/326/44
f 328/330/46 325/327/45 326/328/45
f 330/332/47 327/329/46 328/330/46
f 332/334/48 329/331/47 330/332/47
f 334/336/49 331/333/48 332/334/48
f 336/338/50 333/335/49 334/336/49
f 338/340/51 335/337/50 336/338/50
f 340/342/52 337/339/51 338/340/51
f 342/344/53 339/341/52 340/342/52
f 344/346/54 341/343/53 342/344/53
f 346/348/55 343/345/54 344/346/54
f 348/350/56 345/347/55 346/348/55
f 350/352/57 347/349/56 348/350/56
f 352/354/58 349/351/57 350/352/57
f 354/356/59 351/353/58 352/354/58
f 356/358/60 353/355/59 354/356/59
f 358/360/61 355/357/60 356/358/60
f 360/362/62 357/359/61 358/360/61
f 362/364/63 359/361/62 360/362/62
f 364/366/64 361/363/63 362/364/63
f 366/368/65 363/365/64 364/366/64
f 368/370/66 365/367/65 366/368/65
f 370/372/67 367/369/66 368/370/66
f 372/374/68 369/371/67 370/372/67
f 374/376/69 371/373/68 372/374/68
f 376/378/70 373/375/69 374/376/69
f 378/380/71 375/377/70 376/378/70
f 380/382/72 377/379/71 378/380/71
f 382/384/73 379/381/72 380/382/72
f 384/386/74 381/383/73 382/384/73
f 386/388/75 383/385/74 384/386/74
f 388/390/76 385/387/75 386/388/75
f 390/392/77 387/389/76 388/390/76
f 392/394/78 389/391/77 390/392/77
f 394/396/79 391/393/78 392/394/78
f 396/398/80 393/395/79 394/396/79
f 398/400/81 395/397/80 396/398/80
f 400/402/82 397/399/81 398/400/81
f 402/404/83 399/401/82 400/402/82
f 404/406/84 401/403/83 402/404/83
f 406/408/85 403/405/84 404/406/84
f 408/410/86 405/407/85 406/408/85
f 410/412/87 407/409/86 408/410/86
f 412/414/88 409/411/87 410/412/87
f 414/416/89 411/413/88 412/414/88
f 416/418/90 413/415/89 414/416/89
f 418/420/91 415/417/90 416/418/90
f 420/422/92 417/419/91 418/420/91
f 422/424/93 419/421/92 420/422/92
f 424/426/94 421/423/93 422/424/93
f 426/428/95 423/425/94 424/426/94
f 428/430/96 425/427/95 426/428/95
f 430/432/97 427/429/96 428/430/96
f 432/434/98 429/431/97 430/432/97
f 434/436/99 431/433/98 432/434/98
f 436/438/100 433/435/99 434/436/99
f 438/440/101 435/437/100 436/438/100
f 440/442/102 437/439/101 438/440/101
f 442/444/103 439/441/102 440/442/102
f 444/446/104 441/443/103 442/444/103
f 446/448/105 443/445/104 444/446/104
f 448/450/106 445/447/105 446/448/105
f 450/452/107 447/449/106 448/450/106
f 452/454/108 449/451/107 450/452/107
f 454/456/109 451/453/108 452/454/108
f 456/458/110 453/455/109 454/456/109
f 458/460/111 455/457/110 456/458/110
f 460/462/112 457/459/111 458/460/111
f 462/464/113 459/461/112 460/462/112
f 464/466/114 461/463/113 462/464/113
f 466/468/115 463/465/114 464/466/114
f 468/470/116 465/467/115 466/468/115
f 470/472/117 467/469/116 468/470/116
f 472/474/118 469/471/117 470/472/117
f 474/476/119 471/473/118 472/474/118
f 476/478/120 473/475/119 474/476/119
f 478/480/121 475/477/120 476/478/120
f 480/482/122 477/479/121 478/480/121
f 482/484/123 479/481/122 480/482/122
f 484/486/124 481/483/123 482/484/123
f 486/488/125 483/485/124 484/486/124
f 488/490/126 485/487/125 486/488/125
f 246/248/6 487/489/126 488/490/126
f 248/250/5 247/249/5 245/245/6
f 250/252/7 249/251/7 247/249/5
f 252/254/8 251/253/8 249/251/7
f 254/256/9 253/255/9 251/253/8
f 256/258/10 255/257/10 253/255/9
f 258/260/11 257/259/11 255/257/10
f 260/262/12 259/261/12 257/259/11
f 262/264/13 261/263/13 259/261/12
f 264/266/14 263/265/14 261/263/13
f 266/268/15 265/267/15 263/265/14
f 268/270/16 267/269/16 265/267/15
f 270/272/17 269/271/17 267/269/16
f 272/274/18 271/273/18 269/271/17
f 274/276/19 273/275/19 271/273/18
f 276/278/20 275/277/20 273/275/19
f 278/280/21 277/279/21 275/277/20
f 280/282/22 279/281/22 277/279/21
f 282/284/23 281/283/23 279/281/22
f 284/286/24 283/285/24 281/283/23
f 286/288/25 285/287/25 283/285/24
f 288/290/26 287/289/26 285/287/25
f 290/292/27 289/291/27 287/289/26
f 292/294/28 291/293/28 289/291/27
f 294/296/29 293/295/29 291/293/28
f 296/298/30 295/297/30 293/295/29
f 298/300/31 297/299/31 295/297/30
f 300/302/32 299/301/32 297/299/31
f 302/304/33 301/303/33 299/301/32
f 304/306/34 303/305/34 301/303/33
f 306/308/35 305/307/35 303/305/34
f 308/310/36 307/309/36 305/307/35
f 310/312/37 309/311/37 307/309/36
f 312/314/38 311/313/38 309/311/37
f 314/316/39 313/315/39 311/313/38
f 316/318/40 315/317/40 313/315/39
f 318/320/41 317/319/41 315/317/40
f 320/322/42 319/321/42 317/319/41
f 322/324/43 321/323/43 319/321/42
f 324/326/44 323/325/44 321/323/43
f 326/328/45 325/327/45 323/325/44
f 328/330/46 327/329/46 325/327/45
f 330/332/47 329/331/47 327/329/46
f 332/334/48 331/333/48 329/331/47
f 334/336/49 333/335/49 331/333/48
f 336/338/50 335/337/50 333/335/49
f 338/340/51 337/339/51 335/337/50
f 340/342/52 339/341/52 337/339/51
f 342/344/53 341/343/53 339/341/52
f 344/346/54 343/345/54 341/343/53
f 346/348/55 345/347/55 343/345/54
f 348/350/56 347/349/56 345/347/55
f 350/352/57 349/351/57 347/349/56
f 352/354/58 351/353/58 349/351/57
f 354/356/59 353/355/59 351/353/58
f 356/358/60 355/357/60 353/355/59
f 358/360/61 357/359/61 355/357/60
f 360/362/62 359/361/62 357/359/61
f 362/364/63 361/363/63 359/361/62
f 364/366/64 363/365/64 361/363/63
f 366/368/65 365/367/65 363/365/64
f 368/370/66 367/369/66 365/367/65
f 370/372/67 369/371/67 367/369/66
f 372/374/68 371/373/68 369/371/67
f 374/376/69 373/375/69 371/373/68
f 376/378/70 375/377/70 373/375/69
f 378/380/71 377/379/71 375/377/70
f 380/382/72 379/381/72 377/379/71
f 382/384/73 381/383/73 379/381/72
f 384/386/74 383/385/74 381/383/73
f 386/388/75 385/387/75 383/385/74
f 388/390/76 387/389/76 385/387/75
f 390/392/77 389/391/77 387/389/76
f 392/394/78 391/393/78 389/391/77
f 394/396/79 393/395/79 391/393/78
f 396/398/80 395/397/80 393/395/79
f 398/400/81 397/399/81 395/397/80
f 400/402/82 399/401/82 397/399/81
f 402/404/83 401/403/83 399/401/82
f 404/406/84 403/405/84 401/403/83
f 406/408/85 405/407/85 403/405/84
f 408/410/86 407/409/86 405/407/85
f 410/412/87 409/411/87 407/409/86
f 412/414/88 411/413/88 409/411/87
f 414/416/89 413/415/89 411/413/88
f 416/418/90 415/417/90 413/415/89
f 418/420/91 417/419/91 415/417/90
f 420/422/92 419/421/92 417/419/91
f 422/424/93 421/423/93 419/421/92
f 424/426/94 423/425/94 421/423/93
f 426/428/95 425/427/95 423/425/94
f 428/430/96 427/429/96 425/427/95
f 430/432/97 429/431/97 427/429/96
f 432/434/98 431/433/98 429/431/97
f 434/436/99 433/435/99 431/433/98
f 436/438/100 435/437/100 433/435/99
f 438/440/101 437/439/101 435/437/100
f 440/442/102 439/441/102 437/439/101
f 442/444/103 441/443/103 439/441/102
f 444/446/104 443/445/104 441/443/103
f 446/448/105 445/447/105 443/445/104
f 448/450/106 447/449/106 445/447/105
f 450/452/107 449/451/107 447/449/106
f 452/454/108 451/453/108 449/451/107
f 454/456/109 453/455/109 451/453/108
f 456/458/110 455/457/110 453/455/109
f 458/460/111 457/459/111 455/457/110
f 460/462/112 459/461/112 457/459/111
f 462/464/113 461/463/113 459/461/112
f 464/466/114 463/465/114 461/463/113
f 466/468/115 465/467/115 463/465/114
f 468/470/116 467/469/116 465/467/115
f 470/472/117 469/471/117 467/469/116
f 472/474/118 471/473/118 469/471/117
f 474/476/119 473/475/119 471/473/118
f 476/478/120 475/477/120 473/475/119
f 478/480/121 477/479/121 475/477/120
f 480/482/122 479/481/122 477/479/121
f 482/484/123 481/483/123 479/481/122
f 484/486/124 483/485/124 481/483/123
f 486/488/125 485/487/125 483/485/124
f 488/490/126 487/489/126 485/487/125
f 246/248/6 245/246/6 487/489/126
