# Blender 3.2.2
# www.blender.org
o Letter_U
v 0.421729 0.289436 0.157788
v 0.412667 0.289436 0.212742
v 0.397544 0.289436 0.263726
v 0.376347 0.289436 0.310473
v 0.349059 0.289436 0.352719
v 0.315666 0.289436 0.390195
v 0.276152 0.289436 0.422637
v 0.230503 0.289436 0.449778
v 0.178704 0.289436 0.471350
v 0.120739 0.289436 0.487089
v 0.056593 0.289436 0.496728
v -0.013748 0.289436 0.500000
v -0.065612 0.289436 0.497538
v -0.116551 0.289436 0.490071
v -0.165883 0.289436 0.477478
v -0.212923 0.289436 0.459640
v -0.256988 0.289436 0.436435
v -0.297395 0.289436 0.407742
v -0.333461 0.289436 0.373442
v -0.364501 0.289436 0.333414
v -0.389834 0.289436 0.287536
v -0.408774 0.289436 0.235689
v -0.420640 0.289436 0.177752
v -0.424747 0.289436 0.113603
v -0.424747 0.289436 -0.500000
v -0.282923 0.289436 -0.500000
v -0.282923 0.289436 0.083213
v -0.282613 0.289436 0.109751
v -0.281644 0.289436 0.133797
v -0.279961 0.289436 0.155572
v -0.277510 0.289436 0.175296
v -0.274234 0.289436 0.193192
v -0.270080 0.289436 0.209479
v -0.264990 0.289436 0.224380
v -0.258911 0.289436 0.238114
v -0.251786 0.289436 0.250905
v -0.243561 0.289436 0.262971
v -0.234181 0.289436 0.274535
v -0.223589 0.289436 0.285818
v -0.209178 0.289436 0.299326
v -0.194163 0.289436 0.311632
v -0.178546 0.289436 0.322743
v -0.162325 0.289436 0.332663
v -0.145502 0.289436 0.341398
v -0.128075 0.289436 0.348951
v -0.110046 0.289436 0.355328
v -0.091413 0.289436 0.360535
v -0.072178 0.289436 0.364576
v -0.052340 0.289436 0.367456
v -0.031898 0.289436 0.369180
v -0.010854 0.289436 0.369754
v 0.015646 0.289436 0.369045
v 0.040869 0.289436 0.366974
v 0.064806 0.289436 0.363626
v 0.087447 0.289436 0.359088
v 0.108781 0.289436 0.353444
v 0.128799 0.289436 0.346780
v 0.147490 0.289436 0.339181
v 0.164844 0.289436 0.330734
v 0.180852 0.289436 0.321522
v 0.195503 0.289436 0.311632
v 0.208787 0.289436 0.301150
v 0.220695 0.289436 0.290159
v 0.232559 0.289436 0.277045
v 0.242891 0.289436 0.263031
v 0.251786 0.289436 0.248123
v 0.259340 0.289436 0.232326
v 0.265647 0.289436 0.215644
v 0.270803 0.289436 0.198082
v 0.274904 0.289436 0.179647
v 0.278046 0.289436 0.160342
v 0.280323 0.289436 0.140173
v 0.281831 0.289436 0.119144
v 0.282666 0.289436 0.097262
v 0.282923 0.289436 0.074530
v 0.282923 0.289436 -0.500000
v 0.424747 0.289436 -0.500000
v 0.424747 0.289436 0.099132
v 0.421729 -0.289436 0.157788
v 0.412667 -0.289436 0.212742
v 0.397544 -0.289436 0.263726
v 0.376347 -0.289436 0.310473
v 0.349059 -0.289436 0.352719
v 0.315666 -0.289436 0.390195
v 0.276152 -0.289436 0.422637
v 0.230503 -0.289436 0.449778
v 0.178704 -0.289436 0.471350
v 0.120739 -0.289436 0.487089
v 0.056593 -0.289436 0.496728
v -0.013748 -0.289436 0.500000
v -0.065612 -0.289436 0.497538
v -0.116551 -0.289436 0.490071
v -0.165883 -0.289436 0.477478
v -0.212923 -0.289436 0.459640
v -0.256988 -0.289436 0.436435
v -0.297395 -0.289436 0.407742
v -0.333461 -0.289436 0.373442
v -0.364501 -0.289436 0.333414
v -0.389834 -0.289436 0.287536
v -0.408774 -0.289436 0.235689
v -0.420640 -0.289436 0.177752
v -0.424747 -0.289436 0.113603
v -0.424747 -0.289436 -0.500000
v -0.282923 -0.289436 -0.500000
v -0.282923 -0.289436 0.083213
v -0.282613 -0.289436 0.109751
v -0.281644 -0.289436 0.133797
v -0.279961 -0.289436 0.155572
v -0.277510 -0.289436 0.175296
v -0.274234 -0.289436 0.193192
v -0.270080 -0.289436 0.209479
v -0.264990 -0.289436 0.224380
v -0.258911 -0.289436 0.238114
v -0.251786 -0.289436 0.250905
v -0.243561 -0.289436 0.262971
v -0.234181 -0.289436 0.274535
v -0.223589 -0.289436 0.285818
v -0.209178 -0.289436 0.299326
v -0.194163 -0.289436 0.311632
v -0.178546 -0.289436 0.322743
v -0.162325 -0.289436 0.332663
v -0.145502 -0.289436 0.341398
v -0.128075 -0.289436 0.348951
v -0.110046 -0.289436 0.355328
v -0.091413 -0.289436 0.360535
v -0.072178 -0.289436 0.364576
v -0.052340 -0.289436 0.367456
v -0.031898 -0.289436 0.369180
v -0.010854 -0.289436 0.369754
v 0.015646 -0.289436 0.369045
v 0.040869 -0.289436 0.366974
v 0.064806 -0.289436 0.363626
v 0.087447 -0.289436 0.359088
v 0.108781 -0.289436 0.353444
v 0.128799 -0.289436 0.346780
v 0.147490 -0.289436 0.339181
v 0.164844 -0.289436 0.330734
v 0.180852 -0.289436 0.321522
v 0.195503 -0.289436 0.311632
v 0.208787 -0.289436 0.301150
v 0.220695 -0.289436 0.290159
v 0.232559 -0.289436 0.277045
v 0.242891 -0.289436 0.263031
v 0.251786 -0.289436 0.248123
v 0.259340 -0.289436 0.232326
v 0.265647 -0.289436 0.215644
v 0.270803 -0.289436 0.198082
v 0.274904 -0.289436 0.179647
v 0.278046 -0.289436 0.160342
v 0.280323 -0.289436 0.140173
v 0.281831 -0.289436 0.119144
v 0.282666 -0.289436 0.097262
v 0.282923 -0.289436 0.074530
v 0.282923 -0.289436 -0.500000
v 0.424747 -0.289436 -0.500000
v 0.424747 -0.289436 0.099132
v 0.421729 -0.289436 0.157788
v 0.421729 0.289436 0.157788
v 0.412667 -0.289436 0.212742
v 0.412667 0.289436 0.212742
v 0.397544 -0.289436 0.263726
v 0.397544 0.289436 0.263726
v 0.376347 -0.289436 0.310473
v 0.376347 0.289436 0.310473
v 0.349059 -0.289436 0.352719
v 0.349059 0.289436 0.352719
v 0.315666 -0.289436 0.390195
v 0.315666 0.289436 0.390195
v 0.276152 -0.289436 0.422637
v 0.276152 0.289436 0.422637
v 0.230503 -0.289436 0.449778
v 0.230503 0.289436 0.449778
v 0.178704 -0.289436 0.471350
v 0.178704 0.289436 0.471350
v 0.120739 -0.289436 0.487089
v 0.120739 0.289436 0.487089
v 0.056593 -0.289436 0.496728
v 0.056593 0.289436 0.496728
v -0.013748 -0.289436 0.500000
v -0.013748 0.289436 0.500000
v -0.065612 -0.289436 0.497538
v -0.065612 0.289436 0.497538
v -0.116551 -0.289436 0.490071
v -0.116551 0.289436 0.490071
v -0.165883 -0.289436 0.477478
v -0.165883 0.289436 0.477478
v -0.212923 -0.289436 0.459640
v -0.212923 0.289436 0.459640
v -0.256988 -0.289436 0.436435
v -0.256988 0.289436 0.436435
v -0.297395 -0.289436 0.407742
v -0.297395 0.289436 0.407742
v -0.333461 -0.289436 0.373442
v -0.333461 0.289436 0.373442
v -0.364501 -0.289436 0.333414
v -0.364501 0.289436 0.333414
v -0.389834 -0.289436 0.287536
v -0.389834 0.289436 0.287536
v -0.408774 -0.289436 0.235689
v -0.408774 0.289436 0.235689
v -0.420640 -0.289436 0.177752
v -0.420640 0.289436 0.177752
v -0.424747 -0.289436 0.113603
v -0.424747 0.289436 0.113603
v -0.424747 -0.289436 -0.500000
v -0.424747 0.289436 -0.500000
v -0.282923 -0.289436 -0.500000
v -0.282923 0.289436 -0.500000
v -0.282923 -0.289436 0.083213
v -0.282923 0.289436 0.083213
v -0.282613 -0.289436 0.109751
v -0.282613 0.289436 0.109751
v -0.281644 -0.289436 0.133797
v -0.281644 0.289436 0.133797
v -0.279961 -0.289436 0.155572
v -0.279961 0.289436 0.155572
v -0.277510 -0.289436 0.175296
v -0.277510 0.289436 0.175296
v -0.274234 -0.289436 0.193192
v -0.274234 0.289436 0.193192
v -0.270080 -0.289436 0.209479
v -0.270080 0.289436 0.209479
v -0.264990 -0.289436 0.224380
v -0.264990 0.289436 0.224380
v -0.258911 -0.289436 0.238114
v -0.258911 0.289436 0.238114
v -0.251786 -0.289436 0.250905
v -0.251786 0.289436 0.250905
v -0.243561 -0.289436 0.262971
v -0.243561 0.289436 0.262971
v -0.234181 -0.289436 0.274535
v -0.234181 0.289436 0.274535
v -0.223589 -0.289436 0.285818
v -0.223589 0.289436 0.285818
v -0.209178 -0.289436 0.299326
v -0.209178 0.289436 0.299326
v -0.194163 -0.289436 0.311632
v -0.194163 0.289436 0.311632
v -0.178546 -0.289436 0.322743
v -0.178546 0.289436 0.322743
v -0.162325 -0.289436 0.332663
v -0.162325 0.289436 0.332663
v -0.145502 -0.289436 0.341398
v -0.145502 0.289436 0.341398
v -0.128075 -0.289436 0.348951
v -0.128075 0.289436 0.348951
v -0.110046 -0.289436 0.355328
v -0.110046 0.289436 0.355328
v -0.091413 -0.289436 0.360535
v -0.091413 0.289436 0.360535
v -0.072178 -0.289436 0.364576
v -0.072178 0.289436 0.364576
v -0.052340 -0.289436 0.367456
v -0.052340 0.289436 0.367456
v -0.031898 -0.289436 0.369180
v -0.031898 0.289436 0.369180
v -0.010854 -0.289436 0.369754
v -0.010854 0.289436 0.369754
v 0.015646 -0.289436 0.369045
v 0.015646 0.289436 0.369045
v 0.040869 -0.289436 0.366974
v 0.040869 0.289436 0.366974
v 0.064806 -0.289436 0.363626
v 0.064806 0.289436 0.363626
v 0.087447 -0.289436 0.359088
v 0.087447 0.289436 0.359088
v 0.108781 -0.289436 0.353444
v 0.108781 0.289436 0.353444
v 0.128799 -0.289436 0.346780
v 0.128799 0.289436 0.346780
v 0.147490 -0.289436 0.339181
v 0.147490 0.289436 0.339181
v 0.164844 -0.289436 0.330734
v 0.164844 0.289436 0.330734
v 0.180852 -0.289436 0.321522
v 0.180852 0.289436 0.321522
v 0.195503 -0.289436 0.311632
v 0.195503 0.289436 0.311632
v 0.208787 -0.289436 0.301150
v 0.208787 0.289436 0.301150
v 0.220695 -0.289436 0.290159
v 0.220695 0.289436 0.290159
v 0.232559 -0.289436 0.277045
v 0.232559 0.289436 0.277045
v 0.242891 -0.289436 0.263031
v 0.242891 0.289436 0.263031
v 0.251786 -0.289436 0.248123
v 0.251786 0.289436 0.248123
v 0.259340 -0.289436 0.232326
v 0.259340 0.289436 0.232326
v 0.265647 -0.289436 0.215644
v 0.265647 0.289436 0.215644
v 0.270803 -0.289436 0.198082
v 0.270803 0.289436 0.198082
v 0.274904 -0.289436 0.179647
v 0.274904 0.289436 0.179647
v 0.278046 -0.289436 0.160342
v 0.278046 0.289436 0.160342
v 0.280323 -0.289436 0.140173
v 0.280323 0.289436 0.140173
v 0.281831 -0.289436 0.119144
v 0.281831 0.289436 0.119144
v 0.282666 -0.289436 0.097262
v 0.282666 0.289436 0.097262
v 0.282923 -0.289436 0.074530
v 0.282923 0.289436 0.074530
v 0.282923 -0.289436 -0.500000
v 0.282923 0.289436 -0.500000
v 0.424747 -0.289436 -0.500000
v 0.424747 0.289436 -0.500000
v 0.424747 -0.289436 0.099132
v 0.424747 0.289436 0.099132
vn -0.0000 1.0000 -0.0000
vn -0.0000 -1.0000 -0.0000
vn 0.9746 -0.0000 0.2240
vn 0.9942 -0.0000 0.1072
vn 0.9369 -0.0000 0.3495
vn 0.8778 -0.0000 0.4791
vn 0.7957 -0.0000 0.6057
vn 0.6927 -0.0000 0.7212
vn 0.5744 -0.0000 0.8185
vn 0.4489 -0.0000 0.8936
vn 0.3239 -0.0000 0.9461
vn 0.2057 -0.0000 0.9786
vn 0.0977 -0.0000 0.9952
vn -0.0005 -0.0000 1.0000
vn -0.0963 -0.0000 0.9953
vn -0.1965 -0.0000 0.9805
vn -0.3014 -0.0000 0.9535
vn -0.4110 -0.0000 0.9116
vn -0.5236 -0.0000 0.8520
vn -0.6357 -0.0000 0.7720
vn -0.7418 -0.0000 0.6706
vn -0.8353 -0.0000 0.5497
vn -0.9101 -0.0000 0.4145
vn -0.9621 -0.0000 0.2726
vn -0.9912 -0.0000 0.1326
vn -0.9995 -0.0000 0.0320
vn -0.7071 -0.0000 -0.7071
vn 0.7071 -0.0000 -0.7071
vn 1.0000 -0.0000 -0.0059
vn 0.9997 -0.0000 -0.0260
vn 0.9983 -0.0000 -0.0587
vn 0.9950 -0.0000 -0.1002
vn 0.9884 -0.0000 -0.1517
vn 0.9769 -0.0000 -0.2137
vn 0.9584 -0.0000 -0.2854
vn 0.9313 -0.0000 -0.3643
vn 0.8950 -0.0000 -0.4462
vn 0.8508 -0.0000 -0.5255
vn 0.8021 -0.0000 -0.5971
vn 0.7533 -0.0000 -0.6576
vn 0.7068 -0.0000 -0.7074
vn 0.6593 -0.0000 -0.7519
vn 0.6072 -0.0000 -0.7946
vn 0.5511 -0.0000 -0.8345
vn 0.4916 -0.0000 -0.8708
vn 0.4295 -0.0000 -0.9031
vn 0.3658 -0.0000 -0.9307
vn 0.3015 -0.0000 -0.9535
vn 0.2375 -0.0000 -0.9714
vn 0.1747 -0.0000 -0.9846
vn 0.1139 -0.0000 -0.9935
vn 0.0557 -0.0000 -0.9984
vn 0.0002 -0.0000 -1.0000
vn -0.0543 -0.0000 -0.9985
vn -0.1102 -0.0000 -0.9939
vn -0.1676 -0.0000 -0.9859
vn -0.2262 -0.0000 -0.9741
vn -0.2859 -0.0000 -0.9582
vn -0.3464 -0.0000 -0.9381
vn -0.4074 -0.0000 -0.9133
vn -0.4685 -0.0000 -0.8835
vn -0.5295 -0.0000 -0.8483
vn -0.5899 -0.0000 -0.8075
vn -0.6493 -0.0000 -0.7605
vn -0.7106 -0.0000 -0.7036
vn -0.7742 -0.0000 -0.6330
vn -0.8328 -0.0000 -0.5536
vn -0.8814 -0.0000 -0.4724
vn -0.9196 -0.0000 -0.3929
vn -0.9481 -0.0000 -0.3179
vn -0.9684 -0.0000 -0.2496
vn -0.9820 -0.0000 -0.1890
vn -0.9906 -0.0000 -0.1364
vn -0.9958 -0.0000 -0.0919
vn -0.9985 -0.0000 -0.0548
vn -0.9997 -0.0000 -0.0247
vn -1.0000 -0.0000 -0.0057
vn 0.9997 -0.0000 0.0257
vt 0.000000 0.000000
vt 0.012987 0.000000
vt 0.025974 0.000000
vt 0.038961 0.000000
vt 0.051948 0.000000
vt 0.064935 0.000000
vt 0.077922 0.000000
vt 0.090909 0.000000
vt 0.103896 0.000000
vt 0.116883 0.000000
vt 0.129870 0.000000
vt 0.142857 0.000000
vt 0.155844 0.000000
vt 0.168831 0.000000
vt 0.181818 0.000000
vt 0.194805 0.000000
vt 0.207792 0.000000
vt 0.220779 0.000000
vt 0.233766 0.000000
vt 0.246753 0.000000
vt 0.259740 0.000000
vt 0.272727 0.000000
vt 0.285714 0.000000
vt 0.298701 0.000000
vt 0.311688 0.000000
vt 0.324675 0.000000
vt 0.337662 0.000000
vt 0.350649 0.000000
vt 0.363636 0.000000
vt 0.376623 0.000000
vt 0.389610 0.000000
vt 0.402597 0.000000
vt 0.415584 0.000000
vt 0.428571 0.000000
vt 0.441558 0.000000
vt 0.454545 0.000000
vt 0.467532 0.000000
vt 0.480519 0.000000
vt 0.493506 0.000000
vt 0.506494 0.000000
vt 0.519481 0.000000
vt 0.532468 0.000000
vt 0.545455 0.000000
vt 0.558442 0.000000
vt 0.571429 0.000000
vt 0.584416 0.000000
vt 0.597403 0.000000
vt 0.610390 0.000000
vt 0.623377 0.000000
vt 0.636364 0.000000
vt 0.649351 0.000000
vt 0.662338 0.000000
vt 0.675325 0.000000
vt 0.688312 0.000000
vt 0.701299 0.000000
vt 0.714286 0.000000
vt 0.727273 0.000000
vt 0.740260 0.000000
vt 0.753247 0.000000
vt 0.766234 0.000000
vt 0.779221 0.000000
vt 0.792208 0.000000
vt 0.805195 0.000000
vt 0.818182 0.000000
vt 0.831169 0.000000
vt 0.844156 0.000000
vt 0.857143 0.000000
vt 0.870130 0.000000
vt 0.883117 0.000000
vt 0.896104 0.000000
vt 0.909091 0.000000
vt 0.922078 0.000000
vt 0.935065 0.000000
vt 0.948052 0.000000
vt 0.961039 0.000000
vt 0.974026 0.000000
vt 0.987013 0.000000
vt 1.000000 0.000000
vt 0.000000 0.000000
vt 0.012987 0.000000
vt 0.025974 0.000000
vt 0.038961 0.000000
vt 0.051948 0.000000
vt 0.064935 0.000000
vt 0.077922 0.000000
vt 0.090909 0.000000
vt 0.103896 0.000000
vt 0.116883 0.000000
vt 0.129870 0.000000
vt 0.142857 0.000000
vt 0.155844 0.000000
vt 0.168831 0.000000
vt 0.181818 0.000000
vt 0.194805 0.000000
vt 0.207792 0.000000
vt 0.220779 0.000000
vt 0.233766 0.000000
vt 0.246753 0.000000
vt 0.259740 0.000000
vt 0.272727 0.000000
vt 0.285714 0.000000
vt 0.298701 0.000000
vt 0.311688 0.000000
vt 0.324675 0.000000
vt 0.337662 0.000000
vt 0.350649 0.000000
vt 0.363636 0.000000
vt 0.376623 0.000000
vt 0.389610 0.000000
vt 0.402597 0.000000
vt 0.415584 0.000000
vt 0.428571 0.000000
vt 0.441558 0.000000
vt 0.454545 0.000000
vt 0.467532 0.000000
vt 0.480519 0.000000
vt 0.493506 0.000000
vt 0.506494 0.000000
vt 0.519481 0.000000
vt 0.532468 0.000000
vt 0.545455 0.000000
vt 0.558442 0.000000
vt 0.571429 0.000000
vt 0.584416 0.000000
vt 0.597403 0.000000
vt 0.610390 0.000000
vt 0.623377 0.000000
vt 0.636364 0.000000
vt 0.649351 0.000000
vt 0.662338 0.000000
vt 0.675325 0.000000
vt 0.688312 0.000000
vt 0.701299 0.000000
vt 0.714286 0.000000
vt 0.727273 0.000000
vt 0.740260 0.000000
vt 0.753247 0.000000
vt 0.766234 0.000000
vt 0.779221 0.000000
vt 0.792208 0.000000
vt 0.805195 0.000000
vt 0.818182 0.000000
vt 0.831169 0.000000
vt 0.844156 0.000000
vt 0.857143 0.000000
vt 0.870130 0.000000
vt 0.883117 0.000000
vt 0.896104 0.000000
vt 0.909091 0.000000
vt 0.922078 0.000000
vt 0.935065 0.000000
vt 0.948052 0.000000
vt 0.961039 0.000000
vt 0.974026 0.000000
vt 0.987013 0.000000
vt 1.000000 0.000000
vt 0.000000 0.000000
vt 1.000000 0.000000
vt 0.000000 1.000000
vt 1.000000 1.000000
vt 0.012821 0.000000
vt 0.012821 1.000000
vt 0.025641 0.000000
vt 0.025641 1.000000
vt 0.038462 0.000000
vt 0.038462 1.000000
vt 0.051282 0.000000
vt 0.051282 1.000000
vt 0.064103 0.000000
vt 0.064103 1.000000
vt 0.076923 0.000000
vt 0.076923 1.000000
vt 0.089744 0.000000
vt 0.089744 1.000000
vt 0.102564 0.000000
vt 0.102564 1.000000
vt 0.115385 0.000000
vt 0.115385 1.000000
vt 0.128205 0.000000
vt 0.128205 1.000000
vt 0.141026 0.000000
vt 0.141026 1.000000
vt 0.153846 0.000000
vt 0.153846 1.000000
vt 0.166667 0.000000
vt 0.166667 1.000000
vt 0.179487 0.000000
vt 0.179487 1.000000
vt 0.192308 0.000000
vt 0.192308 1.000000
vt 0.205128 0.000000
vt 0.205128 1.000000
vt 0.217949 0.000000
vt 0.217949 1.000000
vt 0.230769 0.000000
vt 0.230769 1.000000
vt 0.243590 0.000000
vt 0.243590 1.000000
vt 0.256410 0.000000
vt 0.256410 1.000000
vt 0.269231 0.000000
vt 0.269231 1.000000
vt 0.282051 0.000000
vt 0.282051 1.000000
vt 0.294872 0.000000
vt 0.294872 1.000000
vt 0.307692 0.000000
vt 0.307692 1.000000
vt 0.320513 0.000000
vt 0.320513 1.000000
vt 0.333333 0.000000
vt 0.333333 1.000000
vt 0.346154 0.000000
vt 0.346154 1.000000
vt 0.358974 0.000000
vt 0.358974 1.000000
vt 0.371795 0.000000
vt 0.371795 1.000000
vt 0.384615 0.000000
vt 0.384615 1.000000
vt 0.397436 0.000000
vt 0.397436 1.000000
vt 0.410256 0.000000
vt 0.410256 1.000000
vt 0.423077 0.000000
vt 0.423077 1.000000
vt 0.435897 0.000000
vt 0.435897 1.000000
vt 0.448718 0.000000
vt 0.448718 1.000000
vt 0.461538 0.000000
vt 0.461538 1.000000
vt 0.474359 0.000000
vt 0.474359 1.000000
vt 0.487179 0.000000
vt 0.487179 1.000000
vt 0.500000 0.000000
vt 0.500000 1.000000
vt 0.512821 0.000000
vt 0.512821 1.000000
vt 0.525641 0.000000
vt 0.525641 1.000000
vt 0.538462 0.000000
vt 0.538462 1.000000
vt 0.551282 0.000000
vt 0.551282 1.000000
vt 0.564103 0.000000
vt 0.564103 1.000000
vt 0.576923 0.000000
vt 0.576923 1.000000
vt 0.589744 0.000000
vt 0.589744 1.000000
vt 0.602564 0.000000
vt 0.602564 1.000000
vt 0.615385 0.000000
vt 0.615385 1.000000
vt 0.628205 0.000000
vt 0.628205 1.000000
vt 0.641026 0.000000
vt 0.641026 1.000000
vt 0.653846 0.000000
vt 0.653846 1.000000
vt 0.666667 0.000000
vt 0.666667 1.000000
vt 0.679487 0.000000
vt 0.679487 1.000000
vt 0.692308 0.000000
vt 0.692308 1.000000
vt 0.705128 0.000000
vt 0.705128 1.000000
vt 0.717949 0.000000
vt 0.717949 1.000000
vt 0.730769 0.000000
vt 0.730769 1.000000
vt 0.743590 0.000000
vt 0.743590 1.000000
vt 0.756410 0.000000
vt 0.756410 1.000000
vt 0.769231 0.000000
vt 0.769231 1.000000
vt 0.782051 0.000000
vt 0.782051 1.000000
vt 0.794872 0.000000
vt 0.794872 1.000000
vt 0.807692 0.000000
vt 0.807692 1.000000
vt 0.820513 0.000000
vt 0.820513 1.000000
vt 0.833333 0.000000
vt 0.833333 1.000000
vt 0.846154 0.000000
vt 0.846154 1.000000
vt 0.858974 0.000000
vt 0.858974 1.000000
vt 0.871795 0.000000
vt 0.871795 1.000000
vt 0.884615 0.000000
vt 0.884615 1.000000
vt 0.897436 0.000000
vt 0.897436 1.000000
vt 0.910256 0.000000
vt 0.910256 1.000000
vt 0.923077 0.000000
vt 0.923077 1.000000
vt 0.935897 0.000000
vt 0.935897 1.000000
vt 0.948718 0.000000
vt 0.948718 1.000000
vt 0.961538 0.000000
vt 0.961538 1.000000
vt 0.974359 0.000000
vt 0.974359 1.000000
vt 0.987179 0.000000
vt 0.987179 1.000000
s 0
f 24/24/1 26/26/1 25/25/1
f 24/24/1 27/27/1 26/26/1
f 75/75/1 77/77/1 76/76/1
f 75/75/1 78/78/1 77/77/1
f 74/74/1 78/78/1 75/75/1
f 24/24/1 28/28/1 27/27/1
f 73/73/1 78/78/1 74/74/1
f 73/73/1 1/1/1 78/78/1
f 24/24/1 29/29/1 28/28/1
f 23/23/1 29/29/1 24/24/1
f 72/72/1 1/1/1 73/73/1
f 23/23/1 30/30/1 29/29/1
f 71/71/1 1/1/1 72/72/1
f 23/23/1 31/31/1 30/30/1
f 71/71/1 2/2/1 1/1/1
f 70/70/1 2/2/1 71/71/1
f 23/23/1 32/32/1 31/31/1
f 22/22/1 32/32/1 23/23/1
f 69/69/1 2/2/1 70/70/1
f 22/22/1 33/33/1 32/32/1
f 68/68/1 2/2/1 69/69/1
f 22/22/1 34/34/1 33/33/1
f 68/68/1 3/3/1 2/2/1
f 67/67/1 3/3/1 68/68/1
f 22/22/1 35/35/1 34/34/1
f 66/66/1 3/3/1 67/67/1
f 21/21/1 35/35/1 22/22/1
f 21/21/1 36/36/1 35/35/1
f 65/65/1 3/3/1 66/66/1
f 21/21/1 37/37/1 36/36/1
f 21/21/1 38/38/1 37/37/1
f 64/64/1 3/3/1 65/65/1
f 64/64/1 4/4/1 3/3/1
f 21/21/1 39/39/1 38/38/1
f 63/63/1 4/4/1 64/64/1
f 21/21/1 40/40/1 39/39/1
f 20/20/1 40/40/1 21/21/1
f 62/62/1 4/4/1 63/63/1
f 20/20/1 41/41/1 40/40/1
f 61/61/1 4/4/1 62/62/1
f 61/61/1 5/5/1 4/4/1
f 60/60/1 5/5/1 61/61/1
f 20/20/1 42/42/1 41/41/1
f 59/59/1 5/5/1 60/60/1
f 20/20/1 43/43/1 42/42/1
f 58/58/1 5/5/1 59/59/1
f 20/20/1 44/44/1 43/43/1
f 19/19/1 44/44/1 20/20/1
f 57/57/1 5/5/1 58/58/1
f 19/19/1 45/45/1 44/44/1
f 56/56/1 5/5/1 57/57/1
f 19/19/1 46/46/1 45/45/1
f 56/56/1 6/6/1 5/5/1
f 55/55/1 6/6/1 56/56/1
f 19/19/1 47/47/1 46/46/1
f 54/54/1 6/6/1 55/55/1
f 19/19/1 48/48/1 47/47/1
f 53/53/1 6/6/1 54/54/1
f 19/19/1 49/49/1 48/48/1
f 52/52/1 6/6/1 53/53/1
f 19/19/1 50/50/1 49/49/1
f 51/51/1 6/6/1 52/52/1
f 19/19/1 51/51/1 50/50/1
f 19/19/1 6/6/1 51/51/1
f 18/18/1 6/6/1 19/19/1
f 18/18/1 7/7/1 6/6/1
f 17/17/1 7/7/1 18/18/1
f 17/17/1 8/8/1 7/7/1
f 16/16/1 8/8/1 17/17/1
f 16/16/1 9/9/1 8/8/1
f 15/15/1 9/9/1 16/16/1
f 15/15/1 10/10/1 9/9/1
f 14/14/1 10/10/1 15/15/1
f 14/14/1 11/11/1 10/10/1
f 13/13/1 11/11/1 14/14/1
f 13/13/1 12/12/1 11/11/1
f 102/102/2 103/103/2 104/104/2
f 102/102/2 104/104/2 105/105/2
f 153/153/2 154/154/2 155/155/2
f 153/153/2 155/155/2 156/156/2
f 152/152/2 153/153/2 156/156/2
f 102/102/2 105/105/2 106/106/2
f 151/151/2 152/152/2 156/156/2
f 151/151/2 156/156/2 79/79/2
f 102/102/2 106/106/2 107/107/2
f 101/101/2 102/102/2 107/107/2
f 150/150/2 151/151/2 79/79/2
f 101/101/2 107/107/2 108/108/2
f 149/149/2 150/150/2 79/79/2
f 101/101/2 108/108/2 109/109/2
f 149/149/2 79/79/2 80/80/2
f 148/148/2 149/149/2 80/80/2
f 101/101/2 109/109/2 110/110/2
f 100/100/2 101/101/2 110/110/2
f 147/147/2 148/148/2 80/80/2
f 100/100/2 110/110/2 111/111/2
f 146/146/2 147/147/2 80/80/2
f 100/100/2 111/111/2 112/112/2
f 146/146/2 80/80/2 81/81/2
f 145/145/2 146/146/2 81/81/2
f 100/100/2 112/112/2 113/113/2
f 144/144/2 145/145/2 81/81/2
f 99/99/2 100/100/2 113/113/2
f 99/99/2 113/113/2 114/114/2
f 143/143/2 144/144/2 81/81/2
f 99/99/2 114/114/2 115/115/2
f 99/99/2 115/115/2 116/116/2
f 142/142/2 143/143/2 81/81/2
f 142/142/2 81/81/2 82/82/2
f 99/99/2 116/116/2 117/117/2
f 141/141/2 142/142/2 82/82/2
f 99/99/2 117/117/2 118/118/2
f 98/98/2 99/99/2 118/118/2
f 140/140/2 141/141/2 82/82/2
f 98/98/2 118/118/2 119/119/2
f 139/139/2 140/140/2 82/82/2
f 139/139/2 82/82/2 83/83/2
f 138/138/2 139/139/2 83/83/2
f 98/98/2 119/119/2 120/120/2
f 137/137/2 138/138/2 83/83/2
f 98/98/2 120/120/2 121/121/2
f 136/136/2 137/137/2 83/83/2
f 98/98/2 121/121/2 122/122/2
f 97/97/2 98/98/2 122/122/2
f 135/135/2 136/136/2 83/83/2
f 97/97/2 122/122/2 123/123/2
f 134/134/2 135/135/2 83/83/2
f 97/97/2 123/123/2 124/124/2
f 134/134/2 83/83/2 84/84/2
f 133/133/2 134/134/2 84/84/2
f 97/97/2 124/124/2 125/125/2
f 132/132/2 133/133/2 84/84/2
f 97/97/2 125/125/2 126/126/2
f 131/131/2 132/132/2 84/84/2
f 97/97/2 126/126/2 127/127/2
f 130/130/2 131/131/2 84/84/2
f 97/97/2 127/127/2 128/128/2
f 129/129/2 130/130/2 84/84/2
f 97/97/2 128/128/2 129/129/2
f 97/97/2 129/129/2 84/84/2
f 96/96/2 97/97/2 84/84/2
f 96/96/2 84/84/2 85/85/2
f 95/95/2 96/96/2 85/85/2
f 95/95/2 85/85/2 86/86/2
f 94/94/2 95/95/2 86/86/2
f 94/94/2 86/86/2 87/87/2
f 93/93/2 94/94/2 87/87/2
f 93/93/2 87/87/2 88/88/2
f 92/92/2 93/93/2 88/88/2
f 92/92/2 88/88/2 89/89/2
f 91/91/2 92/92/2 89/89/2
f 91/91/2 89/89/2 90/90/2
s 1
f 160/162/3 157/157/4 158/159/4
f 162/164/5 159/161/3 160/162/3
f 164/166/6 161/163/5 162/164/5
f 166/168/7 163/165/6 164/166/6
f 168/170/8 165/167/7 166/168/7
f 170/172/9 167/169/8 168/170/8
f 172/174/10 169/171/9 170/172/9
f 174/176/11 171/173/10 172/174/10
f 176/178/12 173/175/11 174/176/11
f 178/180/13 175/177/12 176/178/12
f 180/182/14 177/179/13 178/180/13
f 182/184/15 179/181/14 180/182/14
f 184/186/16 181/183/15 182/184/15
f 186/188/17 183/185/16 184/186/16
f 188/190/18 185/187/17 186/188/17
f 190/192/19 187/189/18 188/190/18
f 192/194/20 189/191/19 190/192/19
f 194/196/21 191/193/20 192/194/20
f 196/198/22 193/195/21 194/196/21
f 198/200/23 195/197/22 196/198/22
f 200/202/24 197/199/23 198/200/23
f 202/204/25 199/201/24 200/202/24
f 204/206/26 201/203/25 202/204/25
f 206/208/27 203/205/26 204/206/26
f 208/210/28 205/207/27 206/208/27
f 210/212/29 207/209/28 208/210/28
f 212/214/30 209/211/29 210/212/29
f 214/216/31 211/213/30 212/214/30
f 216/218/32 213/215/31 214/216/31
f 218/220/33 215/217/32 216/218/32
f 220/222/34 217/219/33 218/220/33
f 222/224/35 219/221/34 220/222/34
f 224/226/36 221/223/35 222/224/35
f 226/228/37 223/225/36 224/226/36
f 228/230/38 225/227/37 226/228/37
f 230/232/39 227/229/38 228/230/38
f 232/234/40 229/231/39 230/232/39
f 234/236/41 231/233/40 232/234/40
f 236/238/42 233/235/41 234/236/41
f 238/240/43 235/237/42 236/238/42
f 240/242/44 237/239/43 238/240/43
f 242/244/45 239/241/44 240/242/44
f 244/246/46 241/243/45 242/244/45
f 246/248/47 243/245/46 244/246/46
f 248/250/48 245/247/47 246/248/47
f 250/252/49 247/249/48 248/250/48
f 252/254/50 249/251/49 250/252/49
f 254/256/51 251/253/50 252/254/50
f 256/258/52 253/255/51 254/256/51
f 258/260/53 255/257/52 256/258/52
f 260/262/54 257/259/53 258/260/53
f 262/264/55 259/261/54 260/262/54
f 264/266/56 261/263/55 262/264/55
f 266/268/57 263/265/56 264/266/56
f 268/270/58 265/267/57 266/268/57
f 270/272/59 267/269/58 268/270/58
f 272/274/60 269/271/59 270/272/59
f 274/276/61 271/273/60 272/274/60
f 276/278/62 273/275/61 274/276/61
f 278/280/63 275/277/62 276/278/62
f 280/282/64 277/279/63 278/280/63
f 282/284/65 279/281/64 280/282/64
f 284/286/66 281/283/65 282/284/65
f 286/288/67 283/285/66 284/286/66
f 288/290/68 285/287/67 286/288/67
f 290/292/69 287/289/68 288/290/68
f 292/294/70 289/291/69 290/292/69
f 294/296/71 291/293/70 292/294/70
f 296/298/72 293/295/71 294/296/71
f 298/300/73 295/297/72 296/298/72
f 300/302/74 297/299/73 298/300/73
f 302/304/75 299/301/74 300/302/74
f 304/306/76 301/303/75 302/304/75
f 306/308/77 303/305/76 304/306/76
f 308/310/27 305/307/77 306/308/77
f 310/312/28 307/309/27 308/310/27
f 312/314/78 309/311/28 310/312/28
f 158/160/4 311/313/78 312/314/78
f 160/162/3 159/161/3 157/157/4
f 162/164/5 161/163/5 159/161/3
f 164/166/6 163/165/6 161/163/5
f 166/168/7 165/167/7 163/165/6
f 168/170/8 167/169/8 165/167/7
f 170/172/9 169/171/9 167/169/8
f 172/174/10 171/173/10 169/171/9
f 174/176/11 173/175/11 171/173/10
f 176/178/12 175/177/12 173/175/11
f 178/180/13 177/179/13 175/177/12
f 180/182/14 179/181/14 177/179/13
f 182/184/15 181/183/15 179/181/14
f 184/186/16 183/185/16 181/183/15
f 186/188/17 185/187/17 183/185/16
f 188/190/18 187/189/18 185/187/17
f 190/192/19 189/191/19 187/189/18
f 192/194/20 191/193/20 189/191/19
f 194/196/21 193/195/21 191/193/20
f 196/198/22 195/197/22 193/195/21
f 198/200/23 197/199/23 195/197/22
f 200/202/24 199/201/24 197/199/23
f 202/204/25 201/203/25 199/201/24
f 204/206/26 203/205/26 201/203/25
f 206/208/27 205/207/27 203/205/26
f 208/210/28 207/209/28 205/207/27
f 210/212/29 209/211/29 207/209/28
f 212/214/30 211/213/30 209/211/29
f 214/216/31 213/215/31 211/213/30
f 216/218/32 215/217/32 213/215/31
f 218/220/33 217/219/33 215/217/32
f 220/222/34 219/221/34 217/219/33
f 222/224/35 221/223/35 219/221/34
f 224/226/36 223/225/36 221/223/35
f 226/228/37 225/227/37 223/225/36
f 228/230/38 227/229/38 225/227/37
f 230/232/39 229/231/39 227/229/38
f 232/234/40 231/233/40 229/231/39
f 234/236/41 233/235/41 231/233/40
f 236/238/42 235/237/42 233/235/41
f 238/240/43 237/239/43 235/237/42
f 240/242/44 239/241/44 237/239/43
f 242/244/45 241/243/45 239/241/44
f 244/246/46 243/245/46 241/243/45
f 246/248/47 245/247/47 243/245/46
f 248/250/48 247/249/48 245/247/47
f 250/252/49 249/251/49 247/249/48
f 252/254/50 251/253/50 249/251/49
f 254/256/51 253/255/51 251/253/50
f 256/258/52 255/257/52 253/255/51
f 258/260/53 257/259/53 255/257/52
f 260/262/54 259/261/54 257/259/53
f 262/264/55 261/263/55 259/261/54
f 264/266/56 263/265/56 261/263/55
f 266/268/57 265/267/57 263/265/56
f 268/270/58 267/269/58 265/267/57
f 270/272/59 269/271/59 267/269/58
f 272/274/60 271/273/60 269/271/59
f 274/276/61 273/275/61 271/273/60
f 276/278/62 275/277/62 273/275/61
f 278/280/63 277/279/63 275/277/62
f 280/282/64 279/281/64 277/279/63
f 282/284/65 281/283/65 279/281/64
f 284/286/66 283/285/66 281/283/65
f 286/288/67 285/287/67 283/285/66
f 288/290/68 287/289/68 285/287/67
f 290/292/69 289/291/69 287/289/68
f 292/294/70 291/293/70 289/291/69
f 294/296/71 293/295/71 291/293/70
f 296/298/72 295/297/72 293/295/71
f 298/300/73 297/299/73 295/297/72
f 300/302/74 299/301/74 297/299/73
f 302/304/75 301/303/75 299/301/74
f 304/306/76 303/305/76 301/303/75
f 306/308/77 305/307/77 303/305/76
f 308/310/27 307/309/27 305/307/77
f 310/312/28 309/311/28 307/309/27
f 312/314/78 311/313/78 309/311/28
f 158/160/4 157/158/4 311/313/78
