# Blender 3.2.2
# www.blender.org
o Letter_W
v 0.215658 0.192123 0.330452
v 0.000480 0.192123 -0.205572
v -0.216619 0.192123 0.330452
v -0.234870 0.192123 0.330452
v -0.500000 0.192123 -0.330452
v -0.405860 0.192123 -0.330452
v -0.225264 0.192123 0.121037
v -0.043708 0.192123 -0.330452
v 0.045629 0.192123 -0.330452
v 0.228146 0.192123 0.121037
v 0.406820 0.192123 -0.330452
v 0.500000 0.192123 -0.330452
v 0.233910 0.192123 0.330452
v 0.215658 -0.192123 0.330452
v 0.000480 -0.192123 -0.205572
v -0.216619 -0.192123 0.330452
v -0.234870 -0.192123 0.330452
v -0.500000 -0.192123 -0.330452
v -0.405860 -0.192123 -0.330452
v -0.225264 -0.192123 0.121037
v -0.043708 -0.192123 -0.330452
v 0.045629 -0.192123 -0.330452
v 0.228146 -0.192123 0.121037
v 0.406820 -0.192123 -0.330452
v 0.500000 -0.192123 -0.330452
v 0.233910 -0.192123 0.330452
v 0.215658 -0.192123 0.330452
v 0.215658 0.192123 0.330452
v 0.000480 -0.192123 -0.205572
v 0.000480 0.192123 -0.205572
v -0.216619 -0.192123 0.330452
v -0.216619 0.192123 0.330452
v -0.234870 -0.192123 0.330452
v -0.234870 0.192123 0.330452
v -0.500000 -0.192123 -0.330452
v -0.500000 0.192123 -0.330452
v -0.405860 -0.192123 -0.330452
v -0.405860 0.192123 -0.330452
v -0.225264 -0.192123 0.121037
v -0.225264 0.192123 0.121037
v -0.043708 -0.192123 -0.330452
v -0.043708 0.192123 -0.330452
v 0.045629 -0.192123 -0.330452
v 0.045629 0.192123 -0.330452
v 0.228146 -0.192123 0.121037
v 0.228146 0.192123 0.121037
v 0.406820 -0.192123 -0.330452
v 0.406820 0.192123 -0.330452
v 0.500000 -0.192123 -0.330452
v 0.500000 0.192123 -0.330452
v 0.233910 -0.192123 0.330452
v 0.233910 0.192123 0.330452
vn -0.0000 1.0000 -0.0000
vn -0.0000 -1.0000 -0.0000
vn -0.0015 -0.0000 1.0000
vn -0.5601 -0.0000 0.8284
vn 0.5588 -0.0000 0.8293
vn -0.5602 -0.0000 0.8283
vn -0.8283 -0.0000 -0.5602
vn 0.5606 -0.0000 -0.8281
vn 0.0009 -0.0000 -1.0000
vn -0.5599 -0.0000 -0.8286
vn 0.5591 -0.0000 -0.8291
vn -0.0037 -0.0000 -1.0000
vn -0.5621 -0.0000 -0.8270
vn 0.8287 -0.0000 -0.5597
vn 0.5597 -0.0000 0.8287
vt 0.000000 0.000000
vt 0.083333 0.000000
vt 0.166667 0.000000
vt 0.250000 0.000000
vt 0.333333 0.000000
vt 0.416667 0.000000
vt 0.500000 0.000000
vt 0.583333 0.000000
vt 0.666667 0.000000
vt 0.750000 0.000000
vt 0.833333 0.000000
vt 0.916667 0.000000
vt 1.000000 0.000000
vt 0.000000 0.000000
vt 0.083333 0.000000
vt 0.166667 0.000000
vt 0.250000 0.000000
vt 0.333333 0.000000
vt 0.416667 0.000000
vt 0.500000 0.000000
vt 0.583333 0.000000
vt 0.666667 0.000000
vt 0.750000 0.000000
vt 0.833333 0.000000
vt 0.916667 0.000000
vt 1.000000 0.000000
vt 0.000000 0.000000
vt 1.000000 0.000000
vt 0.000000 1.000000
vt 1.000000 1.000000
vt 0.076923 0.000000
vt 0.076923 1.000000
vt 0.153846 0.000000
vt 0.153846 1.000000
vt 0.230769 0.000000
vt 0.230769 1.000000
vt 0.307692 0.000000
vt 0.307692 1.000000
vt 0.384615 0.000000
vt 0.384615 1.000000
vt 0.461538 0.000000
vt 0.461538 1.000000
vt 0.538462 0.000000
vt 0.538462 1.000000
vt 0.615385 0.000000
vt 0.615385 1.000000
vt 0.692308 0.000000
vt 0.692308 1.000000
vt 0.769231 0.000000
vt 0.769231 1.000000
vt 0.846154 0.000000
vt 0.846154 1.000000
vt 0.923077 0.000000
vt 0.923077 1.000000
s 0
f 4/4/1 6/6/1 5/5/1
f 4/4/1 7/7/1 6/6/1
f 7/7/1 9/9/1 8/8/1
f 7/7/1 2/2/1 9/9/1
f 2/2/1 10/10/1 9/9/1
f 10/10/1 12/12/1 11/11/1
f 10/10/1 13/13/1 12/12/1
f 7/7/1 3/3/1 2/2/1
f 1/1/1 10/10/1 2/2/1
f 4/4/1 3/3/1 7/7/1
f 1/1/1 13/13/1 10/10/1
f 17/17/2 18/18/2 19/19/2
f 17/17/2 19/19/2 20/20/2
f 20/20/2 21/21/2 22/22/2
f 20/20/2 22/22/2 15/15/2
f 15/15/2 22/22/2 23/23/2
f 23/23/2 24/24/2 25/25/2
f 23/23/2 25/25/2 26/26/2
f 20/20/2 15/15/2 16/16/2
f 14/14/2 15/15/2 23/23/2
f 17/17/2 20/20/2 16/16/2
f 14/14/2 23/23/2 26/26/2
s 1
f 30/32/3 27/27/4 28/29/4
f 32/34/5 29/31/3 30/32/3
f 34/36/6 31/33/5 32/34/5
f 36/38/7 33/35/6 34/36/6
f 38/40/8 35/37/7 36/38/7
f 40/42/9 37/39/8 38/40/8
f 42/44/10 39/41/9 40/42/9
f 44/46/11 41/43/10 42/44/10
f 46/48/12 43/45/11 44/46/11
f 48/50/13 45/47/12 46/48/12
f 50/52/14 47/49/13 48/50/13
f 52/54/15 49/51/14 50/52/14
f 28/30/4 51/53/15 52/54/15
f 30/32/3 29/31/3 27/27/4
f 32/34/5 31/33/5 29/31/3
f 34/36/6 33/35/6 31/33/5
f 36/38/7 35/37/7 33/35/6
f 38/40/8 37/39/8 35/37/7
f 40/42/9 39/41/9 37/39/8
f 42/44/10 41/43/10 39/41/9
f 44/46/11 43/45/11 41/43/10
f 46/48/12 45/47/12 43/45/11
f 48/50/13 47/49/13 45/47/12
f 50/52/14 49/51/14 47/49/13
f 52/54/15 51/53/15 49/51/14
f 28/30/4 27/28/4 51/53/15
