# Blender 3.2.2
# www.blender.org
o Letter_X
v 0.500000 0.284091 0.484375
v 0.332386 0.284091 0.484375
v 0.002841 0.284091 0.083807
v -0.330966 0.284091 0.484375
v -0.500000 0.284091 0.484375
v -0.082386 0.284091 -0.017045
v -0.470170 0.284091 -0.484375
v -0.301136 0.284091 -0.484375
v 0.002841 0.284091 -0.115057
v 0.305398 0.284091 -0.484375
v 0.473011 0.284091 -0.484375
v 0.086648 0.284091 -0.017045
v 0.500000 -0.284091 0.484375
v 0.332386 -0.284091 0.484375
v 0.002841 -0.284091 0.083807
v -0.330966 -0.284091 0.484375
v -0.500000 -0.284091 0.484375
v -0.082386 -0.284091 -0.017045
v -0.470170 -0.284091 -0.484375
v -0.301136 -0.284091 -0.484375
v 0.002841 -0.284091 -0.115057
v 0.305398 -0.284091 -0.484375
v 0.473011 -0.284091 -0.484375
v 0.086648 -0.284091 -0.017045
v 0.500000 -0.284091 0.484375
v 0.500000 0.284091 0.484375
v 0.332386 -0.284091 0.484375
v 0.332386 0.284091 0.484375
v 0.002841 -0.284091 0.083807
v 0.002841 0.284091 0.083807
v -0.330966 -0.284091 0.484375
v -0.330966 0.284091 0.484375
v -0.500000 -0.284091 0.484375
v -0.500000 0.284091 0.484375
v -0.082386 -0.284091 -0.017045
v -0.082386 0.284091 -0.017045
v -0.470170 -0.284091 -0.484375
v -0.470170 0.284091 -0.484375
v -0.301136 -0.284091 -0.484375
v -0.301136 0.284091 -0.484375
v 0.002841 -0.284091 -0.115057
v 0.002841 0.284091 -0.115057
v 0.305398 -0.284091 -0.484375
v 0.305398 0.284091 -0.484375
v 0.473011 -0.284091 -0.484375
v 0.473011 0.284091 -0.484375
v 0.086648 -0.284091 -0.017045
v 0.086648 0.284091 -0.017045
vn -0.0000 1.0000 -0.0000
vn -0.0000 -1.0000 -0.0000
vn -0.4270 -0.0000 0.9042
vn 0.9045 -0.0000 0.4266
vn -0.0032 -0.0000 1.0000
vn 0.4242 -0.0000 0.9056
vn -0.9055 -0.0000 0.4243
vn -1.0000 -0.0000 -0.0009
vn -0.9051 -0.0000 -0.4251
vn 0.4269 -0.0000 -0.9043
vn -0.0011 -0.0000 -1.0000
vn -0.4279 -0.0000 -0.9038
vn 0.9048 -0.0000 -0.4259
vn 1.0000 -0.0000 0.0007
vt 0.000000 0.000000
vt 0.090909 0.000000
vt 0.181818 0.000000
vt 0.272727 0.000000
vt 0.363636 0.000000
vt 0.454545 0.000000
vt 0.545455 0.000000
vt 0.636364 0.000000
vt 0.727273 0.000000
vt 0.818182 0.000000
vt 0.909091 0.000000
vt 1.000000 0.000000
vt 0.000000 0.000000
vt 0.090909 0.000000
vt 0.181818 0.000000
vt 0.272727 0.000000
vt 0.363636 0.000000
vt 0.454545 0.000000
vt 0.545455 0.000000
vt 0.636364 0.000000
vt 0.727273 0.000000
vt 0.818182 0.000000
vt 0.909091 0.000000
vt 1.000000 0.000000
vt 0.000000 0.000000
vt 1.000000 0.000000
vt 0.000000 1.000000
vt 1.000000 1.000000
vt 0.083333 0.000000
vt 0.083333 1.000000
vt 0.166667 0.000000
vt 0.166667 1.000000
vt 0.250000 0.000000
vt 0.250000 1.000000
vt 0.333333 0.000000
vt 0.333333 1.000000
vt 0.416667 0.000000
vt 0.416667 1.000000
vt 0.500000 0.000000
vt 0.500000 1.000000
vt 0.583333 0.000000
vt 0.583333 1.000000
vt 0.666667 0.000000
vt 0.666667 1.000000
vt 0.750000 0.000000
vt 0.750000 1.000000
vt 0.833333 0.000000
vt 0.833333 1.000000
vt 0.916667 0.000000
vt 0.916667 1.000000
s 0
f 6/6/1 8/8/1 7/7/1
f 6/6/1 9/9/1 8/8/1
f 9/9/1 11/11/1 10/10/1
f 9/9/1 12/12/1 11/11/1
f 6/6/1 12/12/1 9/9/1
f 5/5/1 12/12/1 6/6/1
f 5/5/1 3/3/1 12/12/1
f 3/3/1 1/1/1 12/12/1
f 5/5/1 4/4/1 3/3/1
f 2/2/1 1/1/1 3/3/1
f 18/18/2 19/19/2 20/20/2
f 18/18/2 20/20/2 21/21/2
f 21/21/2 22/22/2 23/23/2
f 21/21/2 23/23/2 24/24/2
f 18/18/2 21/21/2 24/24/2
f 17/17/2 18/18/2 24/24/2
f 17/17/2 24/24/2 15/15/2
f 15/15/2 24/24/2 13/13/2
f 17/17/2 15/15/2 16/16/2
f 14/14/2 15/15/2 13/13/2
s 1
f 28/30/3 25/25/4 26/27/4
f 30/32/5 27/29/3 28/30/3
f 32/34/6 29/31/5 30/32/5
f 34/36/7 31/33/6 32/34/6
f 36/38/8 33/35/7 34/36/7
f 38/40/9 35/37/8 36/38/8
f 40/42/10 37/39/9 38/40/9
f 42/44/11 39/41/10 40/42/10
f 44/46/12 41/43/11 42/44/11
f 46/48/13 43/45/12 44/46/12
f 48/50/14 45/47/13 46/48/13
f 26/28/4 47/49/14 48/50/14
f 28/30/3 27/29/3 25/25/4
f 30/32/5 29/31/5 27/29/3
f 32/34/6 31/33/6 29/31/5
f 34/36/7 33/35/7 31/33/6
f 36/38/8 35/37/8 33/35/7
f 38/40/9 37/39/9 35/37/8
f 40/42/10 39/41/10 37/39/9
f 42/44/11 41/43/11 39/41/10
f 44/46/12 43/45/12 41/43/11
f 46/48/13 45/47/13 43/45/12
f 48/50/14 47/49/14 45/47/13
f 26/28/4 25/26/4 47/49/14
