# Blender 3.2.2
# www.blender.org
o Letter_Y
v 0.442815 0.293255 -0.500000
v 0.071847 0.293255 -0.027859
v 0.071847 0.293255 0.500000
v -0.071847 0.293255 0.500000
v -0.071847 0.293255 -0.029326
v -0.442815 0.293255 -0.500000
v -0.269795 0.293255 -0.500000
v -0.001466 0.293255 -0.155425
v 0.269795 0.293255 -0.500000
v 0.442815 -0.293255 -0.500000
v 0.071847 -0.293255 -0.027859
v 0.071847 -0.293255 0.500000
v -0.071847 -0.293255 0.500000
v -0.071847 -0.293255 -0.029326
v -0.442815 -0.293255 -0.500000
v -0.269795 -0.293255 -0.500000
v -0.001466 -0.293255 -0.155425
v 0.269795 -0.293255 -0.500000
v 0.442815 -0.293255 -0.500000
v 0.442815 0.293255 -0.500000
v 0.071847 -0.293255 -0.027859
v 0.071847 0.293255 -0.027859
v 0.071847 -0.293255 0.500000
v 0.071847 0.293255 0.500000
v -0.071847 -0.293255 0.500000
v -0.071847 0.293255 0.500000
v -0.071847 -0.293255 -0.029326
v -0.071847 0.293255 -0.029326
v -0.442815 -0.293255 -0.500000
v -0.442815 0.293255 -0.500000
v -0.269795 -0.293255 -0.500000
v -0.269795 0.293255 -0.500000
v -0.001466 -0.293255 -0.155425
v -0.001466 0.293255 -0.155425
v 0.269795 -0.293255 -0.500000
v 0.269795 0.293255 -0.500000
vn -0.0000 1.0000 -0.0000
vn -0.0000 -1.0000 -0.0000
vn 0.9451 -0.0000 0.3269
vn 0.8994 -0.0000 -0.4371
vn 0.7071 -0.0000 0.7071
vn -0.7071 -0.0000 0.7071
vn -0.9448 -0.0000 0.3276
vn -0.8997 -0.0000 -0.4365
vn 0.4391 -0.0000 -0.8984
vn 0.0026 -0.0000 -1.0000
vn -0.4367 -0.0000 -0.8996
vt 0.000000 0.000000
vt 0.125000 0.000000
vt 0.250000 0.000000
vt 0.375000 0.000000
vt 0.500000 0.000000
vt 0.625000 0.000000
vt 0.750000 0.000000
vt 0.875000 0.000000
vt 1.000000 0.000000
vt 0.000000 0.000000
vt 0.125000 0.000000
vt 0.250000 0.000000
vt 0.375000 0.000000
vt 0.500000 0.000000
vt 0.625000 0.000000
vt 0.750000 0.000000
vt 0.875000 0.000000
vt 1.000000 0.000000
vt 0.000000 0.000000
vt 1.000000 0.000000
vt 0.000000 1.000000
vt 1.000000 1.000000
vt 0.111111 0.000000
vt 0.111111 1.000000
vt 0.222222 0.000000
vt 0.222222 1.000000
vt 0.333333 0.000000
vt 0.333333 1.000000
vt 0.444444 0.000000
vt 0.444444 1.000000
vt 0.555556 0.000000
vt 0.555556 1.000000
vt 0.666667 0.000000
vt 0.666667 1.000000
vt 0.777778 0.000000
vt 0.777778 1.000000
vt 0.888889 0.000000
vt 0.888889 1.000000
s 0
f 5/5/1 7/7/1 6/6/1
f 5/5/1 8/8/1 7/7/1
f 8/8/1 1/1/1 9/9/1
f 8/8/1 2/2/1 1/1/1
f 5/5/1 2/2/1 8/8/1
f 4/4/1 2/2/1 5/5/1
f 4/4/1 3/3/1 2/2/1
f 14/14/2 15/15/2 16/16/2
f 14/14/2 16/16/2 17/17/2
f 17/17/2 18/18/2 10/10/2
f 17/17/2 10/10/2 11/11/2
f 14/14/2 17/17/2 11/11/2
f 13/13/2 14/14/2 11/11/2
f 13/13/2 11/11/2 12/12/2
s 1
f 22/24/3 19/19/4 20/21/4
f 24/26/5 21/23/3 22/24/3
f 26/28/6 23/25/5 24/26/5
f 28/30/7 25/27/6 26/28/6
f 30/32/8 27/29/7 28/30/7
f 32/34/9 29/31/8 30/32/8
f 34/36/10 31/33/9 32/34/9
f 36/38/11 33/35/10 34/36/10
f 20/22/4 35/37/11 36/38/11
f 22/24/3 21/23/3 19/19/4
f 24/26/5 23/25/5 21/23/3
f 26/28/6 25/27/6 23/25/5
f 28/30/7 27/29/7 25/27/6
f 30/32/8 29/31/8 27/29/7
f 32/34/9 31/33/9 29/31/8
f 34/36/10 33/35/10 31/33/9
f 36/38/11 35/37/11 33/35/10
f 20/22/4 19/20/4 35/37/11
