# Blender 3.2.2
# www.blender.org
o Letter_Z
v -0.411290 0.293255 -0.500000
v 0.450880 0.293255 -0.500000
v -0.185484 0.293255 0.370968
v 0.450880 0.293255 0.370968
v 0.450880 0.293255 0.500000
v -0.450880 0.293255 0.500000
v 0.185484 0.293255 -0.370968
v -0.411290 0.293255 -0.370968
v -0.411290 -0.293255 -0.500000
v 0.450880 -0.293255 -0.500000
v -0.185484 -0.293255 0.370968
v 0.450880 -0.293255 0.370968
v 0.450880 -0.293255 0.500000
v -0.450880 -0.293255 0.500000
v 0.185484 -0.293255 -0.370968
v -0.411290 -0.293255 -0.370968
v -0.411290 -0.293255 -0.500000
v -0.411290 0.293255 -0.500000
v 0.450880 -0.293255 -0.500000
v 0.450880 0.293255 -0.500000
v -0.185484 -0.293255 0.370968
v -0.185484 0.293255 0.370968
v 0.450880 -0.293255 0.370968
v 0.450880 0.293255 0.370968
v 0.450880 -0.293255 0.500000
v 0.450880 0.293255 0.500000
v -0.450880 -0.293255 0.500000
v -0.450880 0.293255 0.500000
v 0.185484 -0.293255 -0.370968
v 0.185484 0.293255 -0.370968
v -0.411290 -0.293255 -0.370968
v -0.411290 0.293255 -0.370968
vn -0.0000 1.0000 -0.0000
vn -0.0000 -1.0000 -0.0000
vn 0.8916 -0.0000 -0.4528
vn -0.7071 -0.0000 -0.7071
vn 0.7071 -0.0000 -0.7071
vn 0.7071 -0.0000 0.7071
vn -0.8916 -0.0000 0.4528
vn -0.7071 -0.0000 0.7071
vt 0.000000 0.000000
vt 0.142857 0.000000
vt 0.285714 0.000000
vt 0.428571 0.000000
vt 0.571429 0.000000
vt 0.714286 0.000000
vt 0.857143 0.000000
vt 1.000000 0.000000
vt 0.000000 0.000000
vt 0.142857 0.000000
vt 0.285714 0.000000
vt 0.428571 0.000000
vt 0.571429 0.000000
vt 0.714286 0.000000
vt 0.857143 0.000000
vt 1.000000 0.000000
vt 0.000000 0.000000
vt 1.000000 0.000000
vt 0.000000 1.000000
vt 1.000000 1.000000
vt 0.125000 0.000000
vt 0.125000 1.000000
vt 0.250000 0.000000
vt 0.250000 1.000000
vt 0.375000 0.000000
vt 0.375000 1.000000
vt 0.500000 0.000000
vt 0.500000 1.000000
vt 0.625000 0.000000
vt 0.625000 1.000000
vt 0.750000 0.000000
vt 0.750000 1.000000
vt 0.875000 0.000000
vt 0.875000 1.000000
s 0
f 8/8/1 2/2/1 1/1/1
f 8/8/1 7/7/1 2/2/1
f 7/7/1 3/3/1 2/2/1
f 6/6/1 3/3/1 7/7/1
f 6/6/1 4/4/1 3/3/1
f 6/6/1 5/5/1 4/4/1
f 16/16/2 9/9/2 10/10/2
f 16/16/2 10/10/2 15/15/2
f 15/15/2 10/10/2 11/11/2
f 14/14/2 15/15/2 11/11/2
f 14/14/2 11/11/2 12/12/2
f 14/14/2 12/12/2 13/13/2
s 1
f 20/22/3 17/17/4 18/19/4
f 22/24/3 19/21/3 20/22/3
f 24/26/5 21/23/3 22/24/3
f 26/28/6 23/25/5 24/26/5
f 28/30/7 25/27/6 26/28/6
f 30/32/7 27/29/7 28/30/7
f 32/34/8 29/31/7 30/32/7
f 18/20/4 31/33/8 32/34/8
f 20/22/3 19/21/3 17/17/4
f 22/24/3 21/23/3 19/21/3
f 24/26/5 23/25/5 21/23/3
f 26/28/6 25/27/6 23/25/5
f 28/30/7 27/29/7 25/27/6
f 30/32/7 29/31/7 27/29/7
f 32/34/8 31/33/8 29/31/7
f 18/20/4 17/18/4 31/33/8
